<svg width="59" height="59" viewBox="0 0 59 59" fill="none" xmlns="http://www.w3.org/2000/svg">
<g clip-path="url(#clip0_852_8852)">
<path d="M36.875 37.3422H22.125" stroke="#001AFF" stroke-width="2" stroke-linecap="round" stroke-linejoin="round"/>
<path d="M20.9948 36.6292C16.6189 33.5317 14.0131 28.1479 14.9227 22.2233C15.9306 15.8071 21.2652 10.6938 27.706 9.93168C36.6543 8.87459 44.2506 15.8563 44.2506 24.5833C44.2506 29.5492 41.7677 33.9496 38.0064 36.6292C37.3181 37.1208 36.8756 37.8583 36.8756 38.6942V45.5038C36.8756 48.8963 34.1223 51.6496 30.7298 51.6496H28.2714C24.8789 51.6496 22.1256 48.8963 22.1256 45.5038V38.7188C22.1256 37.8829 21.6831 37.1454 20.9948 36.6538V36.6292Z" stroke="#001AFF" stroke-width="2" stroke-linecap="round" stroke-linejoin="round"/>
<path d="M49.166 12.2918L52.0914 9.36633" stroke="#001AFF" stroke-width="2" stroke-linecap="round" stroke-linejoin="round"/>
<path d="M9.83362 36.875L6.9082 39.8004" stroke="#001AFF" stroke-width="2" stroke-linecap="round" stroke-linejoin="round"/>
<path d="M12.2926 9.83338L9.36719 6.90796" stroke="#001AFF" stroke-width="2" stroke-linecap="round" stroke-linejoin="round"/>
<path d="M49.166 36.875L52.0914 39.8004" stroke="#001AFF" stroke-width="2" stroke-linecap="round" stroke-linejoin="round"/>
<path d="M51.625 24.5834H55.7796" stroke="#001AFF" stroke-width="2" stroke-linecap="round" stroke-linejoin="round"/>
<path d="M3.2207 24.5834H7.37529" stroke="#001AFF" stroke-width="2" stroke-linecap="round" stroke-linejoin="round"/>
<path d="M22.125 44.25H36.5554" stroke="#001AFF" stroke-width="2" stroke-linecap="round" stroke-linejoin="round"/>
</g>
<defs>
<clipPath id="clip0_852_8852">
<rect width="59" height="59" fill="white"/>
</clipPath>
</defs>
</svg>
