<svg width="340" height="220" viewBox="0 0 340 220" fill="none" xmlns="http://www.w3.org/2000/svg">
<rect width="340" height="220" rx="10" fill="#001AFF" fill-opacity="0.1"/>
<g clip-path="url(#clip0_852_8261)">
<path d="M223.329 29.3028H119.957C118.324 29.3028 117 30.6283 117 32.2635V181.039C117 182.674 118.324 184 119.957 184H223.329C224.962 184 226.287 182.674 226.287 181.039V32.2635C226.287 30.6283 224.962 29.3028 223.329 29.3028Z" fill="#006093"/>
<path d="M212.677 171.745L206.924 178.059H123.395V35.2363H219.893V167.351L212.677 171.745Z" fill="white"/>
<path d="M206.918 178.06C206.918 178.06 209.022 173.354 209.022 165.949C209.022 165.949 215.323 169.003 219.887 167.352L206.918 178.06Z" fill="#D2D7DD"/>
<path d="M188.798 26.8096H154.486C153.499 26.8096 152.699 27.6105 152.699 28.5984V35.5545C152.699 36.5424 153.499 37.3433 154.486 37.3433H188.798C189.785 37.3433 190.585 36.5424 190.585 35.5545V28.5984C190.585 27.6105 189.785 26.8096 188.798 26.8096Z" fill="#B0B5BB"/>
<g style="mix-blend-mode:multiply" opacity="0.68">
<path d="M188.792 35.8475H154.486C153.496 35.8475 152.699 35.0434 152.699 34.0586V35.5545C152.699 36.5456 153.502 37.3434 154.486 37.3434H188.792C189.782 37.3434 190.579 36.5393 190.579 35.5545V34.0586C190.579 35.0496 189.776 35.8475 188.792 35.8475Z" fill="#D2D7DD"/>
</g>
<path d="M192.914 44.9351H150.365C148.846 44.9351 147.613 43.701 147.613 42.1801V34.42C147.613 32.8992 148.846 31.665 150.365 31.665H192.914C194.433 31.665 195.666 32.8992 195.666 34.42V42.1801C195.666 43.701 194.433 44.9351 192.914 44.9351ZM150.365 32.5003C149.313 32.5003 148.454 33.3604 148.454 34.4138V42.1739C148.454 43.2273 149.313 44.0874 150.365 44.0874H192.914C193.967 44.0874 194.826 43.2273 194.826 42.1739V34.4138C194.826 33.3604 193.967 32.5003 192.914 32.5003H150.365Z" fill="#B0B5BB"/>
<path d="M195.248 47.5654H148.035V50.3765H195.248V47.5654Z" fill="#4CB2EB"/>
<path d="M195.248 52.4648H148.035V55.2759H195.248V52.4648Z" fill="#4CB2EB"/>
<path d="M199.525 128.445H198.815V122.331H144.468V128.445H143.758V121.62H199.525V128.445Z" fill="#71C3F3"/>
<path d="M171.722 113.542H171.031V128.445H171.722V113.542Z" fill="#71C3F3"/>
<path d="M181.738 108.805H161.012V118.279H181.738V108.805Z" fill="#71C3F3"/>
<path d="M152.98 127.697H135.242V137.171H152.98V127.697Z" fill="#71C3F3"/>
<path d="M180.246 127.697H162.508V137.171H180.246V127.697Z" fill="#71C3F3"/>
<path d="M208.039 127.697H190.301V137.171H208.039V127.697Z" fill="#71C3F3"/>
<path d="M190.587 65.2178H143.375V66.6202H190.587V65.2178Z" fill="#4CB2EB"/>
<path d="M190.587 68.3398H143.375V69.7423H190.587V68.3398Z" fill="#4CB2EB"/>
<path d="M190.587 80.6318H143.375V82.0343H190.587V80.6318Z" fill="#4CB2EB"/>
<path d="M184.243 83.748H143.375V85.1505H184.243V83.748Z" fill="#4CB2EB"/>
<path d="M163.99 71.4629H143.375V72.8653H163.99V71.4629Z" fill="#4CB2EB"/>
<path d="M190.587 95.3164H143.375V96.7188H190.587V95.3164Z" fill="#4CB2EB"/>
<path d="M190.587 98.4326H143.375V99.835H190.587V98.4326Z" fill="#4CB2EB"/>
<path d="M178.77 101.556H143.375V102.958H178.77V101.556Z" fill="#4CB2EB"/>
<path d="M137.507 74.692H129.046C128.268 74.692 127.633 74.0563 127.633 73.2771V64.8065C127.633 64.0274 128.268 63.3916 129.046 63.3916H137.507C138.286 63.3916 138.921 64.0274 138.921 64.8065V73.2771C138.921 74.0563 138.286 74.692 137.507 74.692ZM129.046 64.2331C128.729 64.2331 128.473 64.4886 128.473 64.8065V73.2771C128.473 73.595 128.729 73.8506 129.046 73.8506H137.507C137.825 73.8506 138.08 73.595 138.08 73.2771V64.8065C138.08 64.4886 137.825 64.2331 137.507 64.2331H129.046Z" fill="#0078BF"/>
<path d="M133.273 74.972C133.037 74.972 132.812 74.8536 132.682 74.6479L129.338 69.4184C129.127 69.0881 129.226 68.658 129.55 68.4461C129.88 68.2404 130.309 68.3339 130.521 68.658L133.142 72.7655L137.843 61.6708C137.992 61.3155 138.41 61.1472 138.765 61.2968C139.119 61.4464 139.288 61.8578 139.138 62.2193L133.914 74.542C133.815 74.7788 133.584 74.9471 133.329 74.9658C133.31 74.9658 133.292 74.9658 133.273 74.9658V74.972Z" fill="#0078BF"/>
<path d="M137.507 89.9127H129.046C128.268 89.9127 127.633 89.277 127.633 88.4978V80.0272C127.633 79.2481 128.268 78.6123 129.046 78.6123H137.507C138.286 78.6123 138.921 79.2481 138.921 80.0272V88.4978C138.921 89.277 138.286 89.9127 137.507 89.9127ZM129.046 79.46C128.729 79.46 128.473 79.7155 128.473 80.0334V88.5041C128.473 88.822 128.729 89.0775 129.046 89.0775H137.507C137.825 89.0775 138.08 88.822 138.08 88.5041V80.0334C138.08 79.7155 137.825 79.46 137.507 79.46H129.046Z" fill="#0078BF"/>
<path d="M133.273 90.1927C133.037 90.1927 132.812 90.0743 132.682 89.8686L129.338 84.6391C129.127 84.3088 129.226 83.8787 129.55 83.6668C129.88 83.4611 130.309 83.5546 130.521 83.8787L133.142 87.9863L137.843 76.8915C137.992 76.5362 138.41 76.3679 138.765 76.5175C139.119 76.6671 139.288 77.0785 139.138 77.44L133.914 89.7627C133.815 89.9995 133.584 90.1678 133.329 90.1865C133.31 90.1865 133.292 90.1865 133.273 90.1865V90.1927Z" fill="#0078BF"/>
<path d="M137.507 105.133H129.046C128.268 105.133 127.633 104.498 127.633 103.719V95.2479C127.633 94.4688 128.268 93.833 129.046 93.833H137.507C138.286 93.833 138.921 94.4688 138.921 95.2479V103.719C138.921 104.498 138.286 105.133 137.507 105.133ZM129.046 94.6807C128.729 94.6807 128.473 94.9362 128.473 95.2541V103.725C128.473 104.043 128.729 104.298 129.046 104.298H137.507C137.825 104.298 138.08 104.043 138.08 103.725V95.2541C138.08 94.9362 137.825 94.6807 137.507 94.6807H129.046Z" fill="#0078BF"/>
<path d="M133.273 105.42C133.037 105.42 132.812 105.302 132.682 105.096L129.338 99.8666C129.127 99.5362 129.226 99.1061 129.55 98.8942C129.88 98.6885 130.309 98.782 130.521 99.1061L133.142 103.214L137.843 92.1189C137.992 91.7574 138.41 91.5954 138.765 91.745C139.119 91.8946 139.288 92.3059 139.138 92.6675L133.914 104.99C133.815 105.227 133.584 105.395 133.329 105.414C133.31 105.414 133.292 105.414 133.273 105.414V105.42Z" fill="#0078BF"/>
<g opacity="0.57">
<mask id="mask0_852_8261" style="mask-type:luminance" maskUnits="userSpaceOnUse" x="152" y="26" width="39" height="12">
<path d="M188.798 26.9033H154.486C153.499 26.9033 152.699 27.7042 152.699 28.6922V35.6482C152.699 36.6362 153.499 37.4371 154.486 37.4371H188.798C189.785 37.4371 190.585 36.6362 190.585 35.6482V28.6922C190.585 27.7042 189.785 26.9033 188.798 26.9033Z" fill="white"/>
</mask>
<g mask="url(#mask0_852_8261)">
<path opacity="0.74" d="M174.136 26.9033L162.91 46.2506L197.571 35.3366L192.939 18.9999L178.768 21.25L174.136 26.9033Z" fill="white"/>
</g>
</g>
<path d="M199.087 109.646C191.989 88.2486 203.725 65.1242 225.274 58.299C246.312 51.6297 269.031 63.3104 275.892 84.3093C278.893 93.4843 278.432 102.971 275.232 111.342C270.319 124.188 269.859 138.312 274.186 151.364L240.571 162.534C236.256 149.519 227.521 138.443 215.922 131.144C208.258 126.32 202.162 118.909 199.087 109.64V109.646Z" fill="#FFD100"/>
<path d="M199.087 109.646C191.989 88.2486 203.725 65.1242 225.274 58.299C246.312 51.6297 269.031 63.3104 275.892 84.3093C278.893 93.4843 278.432 102.971 275.232 111.342C270.319 124.188 269.859 138.312 274.186 151.364L240.571 162.534C236.256 149.519 227.521 138.443 215.922 131.144C208.258 126.32 202.162 118.909 199.087 109.64V109.646Z" fill="#FFD100"/>
<g style="mix-blend-mode:multiply">
<path d="M213.374 64.3637C203.356 74.8476 199.316 90.3927 204.203 105.127C207.279 114.396 213.374 121.807 221.039 126.631C232.638 133.93 241.367 145.006 245.688 158.021L273.4 148.808C273.643 149.662 273.898 150.516 274.184 151.364L240.57 162.533C236.255 149.519 227.52 138.443 215.921 131.144C208.256 126.32 202.161 118.909 199.085 109.64C193.438 92.6116 199.72 74.486 213.38 64.3574L213.374 64.3637Z" fill="#FFD100"/>
</g>
<path d="M244.267 176.945L279.84 165.126C282.01 164.405 283.186 162.059 282.465 159.886L276.158 140.861C275.438 138.689 273.095 137.512 270.925 138.233L235.351 150.052C233.181 150.773 232.006 153.119 232.726 155.292L239.033 174.317C239.753 176.489 242.097 177.666 244.267 176.945Z" fill="#007AA9"/>
<path d="M271.203 177.934L258.847 182.039C255.538 183.139 251.965 181.345 250.867 178.032L249.888 175.08L274.228 166.993L275.207 169.945C276.305 173.258 274.513 176.835 271.203 177.934Z" fill="#AABFDF"/>
<path d="M232.931 160.379L278.922 145.099L278.173 142.839L232.182 158.119L232.931 160.379Z" fill="#004A6A"/>
<path d="M234.974 166.535L280.965 151.255L280.216 148.995L234.225 164.276L234.974 166.535Z" fill="#004A6A"/>
<path d="M237.017 172.703L283.008 157.423L282.259 155.163L236.268 170.444L237.017 172.703Z" fill="#004A6A"/>
<path d="M258.699 142.363L260.797 141.559C250.269 113.947 257.958 100.271 258.039 100.134L256.109 98.9873C255.76 99.5732 247.747 113.616 258.705 142.357L258.699 142.363Z" fill="#FFECA4"/>
<path d="M246.38 146.352L248.54 145.741C240.154 116.147 225.336 109.69 224.713 109.428L223.848 111.503C223.991 111.566 238.323 117.917 246.38 146.352Z" fill="#FFECA4"/>
<path d="M237.793 112.918L240.246 104.846L248.695 109.153L254.024 100.271L252.1 99.1182L247.848 106.199L238.876 101.624L236.373 109.876L227.831 106.249L226.953 108.312L237.793 112.918Z" fill="#FFECA4"/>
</g>
<path d="M79.1865 201.583C79.1865 201.583 79.5829 206.285 72.9977 207.045C66.4126 207.816 53.5726 203.862 57.3387 199.59C61.1048 195.306 66.8421 199.766 73.24 197.332C79.638 194.899 79.1755 201.583 79.1755 201.583H79.1865Z" fill="white"/>
<path d="M79.1865 200.295C79.1865 200.295 79.5829 204.997 72.9977 205.757C66.4126 206.527 53.5726 202.574 57.3387 198.301C61.1048 194.018 66.8421 198.478 73.24 196.044C79.638 193.61 79.1755 200.295 79.1755 200.295H79.1865Z" fill="#303046"/>
<path d="M75.5531 197.277C75.9055 198.753 76.7314 200.999 78.6805 202.199L85.4198 197.189L80.2883 193.698C80.2883 193.698 78.6034 194.965 76.5662 195.581C75.8394 195.802 75.3769 196.539 75.5531 197.277Z" fill="#FFC5C5"/>
<path d="M133.949 192.586C133.949 192.586 133.256 197.354 130.602 199.777L123.059 196.088L127.463 191.716C127.463 191.716 131.868 193.753 133.938 192.597L133.949 192.586Z" fill="#FFC5C5"/>
<path d="M105.349 127.869C104.908 123.552 102.651 108.675 102.629 108.521L111.009 107.243C111.108 107.86 113.322 122.473 113.784 127.01L105.349 127.858V127.869Z" fill="#FFC5C5"/>
<path d="M96.2436 120.48C96.2436 120.48 91.3653 120.7 89.8236 125.677C88.282 130.655 83.9763 151.423 83.9763 151.423L82.6328 165.97L96.4969 161.521L96.2436 120.469V120.48Z" fill="#38383D"/>
<g style="mix-blend-mode:multiply" opacity="0.35">
<path d="M106.185 115.062C106.526 114.874 106.857 114.687 107.165 114.489C108.938 113.245 110.469 111.042 111.35 109.6C111.151 108.267 111.019 107.386 110.997 107.243L102.617 108.521C102.617 108.587 103.146 111.967 103.718 115.954C104.566 115.711 105.403 115.403 106.174 115.062H106.185Z" fill="#FFC5C5"/>
</g>
<path d="M124.709 160.343L125.304 160.53L127.099 132.769C127.099 132.769 127.848 121.999 122.463 120.491C119.534 119.665 109.028 119.081 107.85 119.389C106.782 119.665 98.0714 120.744 96.9481 120.843C93.8978 121.129 92.0809 122.319 90.0877 133.859C88.546 142.779 89.8785 156.114 89.0195 166.047L89.3058 177.246C89.3058 177.246 93.0389 177.918 96.1993 177.973C104.293 178.127 109.601 180.363 114.083 180.836C119.159 181.376 123.916 180.836 123.916 180.836L124.709 160.354V160.343Z" fill="white"/>
<path d="M112.101 106.044C112.574 102.399 110.339 98.0711 109.414 96.7496C109.271 96.5624 109.117 96.3862 108.951 96.199C107.344 94.5582 102.598 91.2877 98.369 94.0297C97.7523 94.4481 97.2348 94.8996 96.8163 95.3291C93.8651 98.4785 94.6249 103.004 95.3737 105.713C95.5499 106.264 95.7371 106.837 95.9464 107.409C97.1026 110.371 99.1949 114.005 100.869 115.437C100.88 115.448 100.902 115.459 100.913 115.47C102.928 117.133 106.43 115.382 108.786 113.334C109.029 113.091 109.249 112.849 109.469 112.607C111.33 110.25 112.101 106.055 112.101 106.055V106.044Z" fill="#FFC5C5"/>
<g style="mix-blend-mode:multiply" opacity="0.35">
<path d="M94.8899 99.1716C94.4824 101.231 94.7798 103.345 95.1872 104.997C97.2685 103.653 104.239 99.3478 107.102 99.7882C110.494 100.317 97.1804 96.837 96.9601 96.9582C96.85 97.0242 95.8259 98.1365 94.8899 99.1716Z" fill="#FFC5C5"/>
</g>
<path d="M104.307 119.897C104.307 119.897 102.842 122.793 104.362 123.388C105.882 123.982 110.33 123.63 112.764 119.346L110.815 116.615L105.298 119.269L104.318 119.897H104.307Z" fill="#FFC5C5"/>
<path d="M126.315 122.682L141.093 148.032L141.269 148.329C142.304 150.091 141.753 152.348 140.08 153.471L114.796 170.386C114.036 170.892 113.012 170.694 112.506 169.934C112.054 169.252 112.164 168.36 112.737 167.82L134.783 146.853L133.77 152.293L118.992 126.944C117.813 124.917 118.496 122.33 120.522 121.151C122.549 119.973 125.136 120.656 126.315 122.682Z" fill="#FFC5C5"/>
<path d="M133.945 192.586C133.945 192.586 150.805 190.891 150.992 195.736C151.179 200.592 147.787 202.872 142.469 202.2C137.15 201.528 130.598 199.766 130.598 199.766L133.945 192.575V192.586Z" fill="#303046"/>
<path d="M102.633 119.94C102.633 119.94 96.7969 138.077 97.0832 147.613C97.3585 157.15 98.2945 172.291 98.2945 172.291H87.0734C87.0734 172.291 86.1483 122.583 95.2332 120.59L102.633 119.94Z" fill="#38383D"/>
<path d="M114.161 119.346C114.161 119.346 110.087 140.037 109.283 151.159C108.479 162.281 109.283 173.128 109.283 173.128L126.396 168.272L127.244 134.212L124.16 120.48C124.16 120.48 114.657 118.531 114.15 119.346H114.161Z" fill="#38383D"/>
<path d="M119.555 171.443H89.1953V173.128H119.555V171.443Z" fill="#4D4D4D"/>
<path d="M99.2693 173.128H66.4867L59.1307 150.807C58.8113 149.827 59.5381 148.813 60.5732 148.813H89.5237C90.5588 148.813 91.4728 149.474 91.7922 150.454L99.2583 173.128H99.2693Z" fill="#E5E5E5"/>
<path d="M78.0957 162.766C79.0871 162.766 79.8907 161.962 79.8907 160.971C79.8907 159.979 79.0871 159.176 78.0957 159.176C77.1044 159.176 76.3008 159.979 76.3008 160.971C76.3008 161.962 77.1044 162.766 78.0957 162.766Z" fill="white"/>
<path d="M69.7264 173.128H96.078L95.5274 171.443H69.1758L69.7264 173.128Z" fill="#4D4D4D"/>
<path d="M115.46 165.97C115.46 165.97 111.198 168.172 108.984 168.15C106.76 168.128 102.928 170.738 102.465 171.443C102.003 172.147 114.755 171.872 115.471 169.78C116.186 167.688 116.594 166.245 115.471 165.97H115.46Z" fill="#FFC5C5"/>
<path d="M104.184 173.128C104.184 173.128 131.097 168.029 133.971 165.97C136.846 163.911 144.422 161.665 144.157 171.95C143.893 182.235 124.16 192.531 108.82 196.462C93.4804 200.394 61.0943 182.962 60.83 178.072C60.5657 173.172 69.4413 168.591 82.6337 171.443C95.826 174.295 104.173 173.128 104.173 173.128H104.184Z" fill="#271E3D"/>
<path d="M79.7604 190.659L85.3214 187.499C101.983 176.344 136.461 160.42 140.976 163.669C140.976 163.669 147.44 169.241 143.233 175.958C139.027 182.687 82.5795 201.958 82.5795 201.958L77.514 192.707L77.1836 192.113L79.7494 190.659H79.7604Z" fill="#303046"/>
<path d="M126.881 201.021C126.881 201.021 55.6995 188.71 60.8311 177.29C65.9627 165.882 79.8818 173.128 79.8818 173.128L130.03 190.24L126.881 201.01V201.021Z" fill="#303046"/>
<path d="M133.95 192.586C133.95 192.586 135.536 193.72 134.633 197.31C133.719 200.9 130.613 199.777 130.613 199.777V195.526L133.961 192.597L133.95 192.586Z" fill="#FFC5C5"/>
<path d="M141.373 146.964L134.821 132.824C134.821 132.824 125.791 114.952 119.151 121.405C119.151 121.405 115.737 124.356 121.21 131.503C126.683 138.661 130.614 148.99 130.614 148.99L113.281 165.486L116.651 170.606L139.688 155.432C141.131 154.628 142.221 153.24 142.518 151.611C142.749 150.333 142.584 148.748 141.384 146.964H141.373Z" fill="#38383D"/>
<path d="M111.362 97.1784C110.041 94.1832 107.453 91.8486 105.691 91.265C103.929 90.6703 99.2272 91.6174 96.6394 93.6876C96.6064 93.7096 96.5734 93.7317 96.5403 93.7537C96.4632 93.8088 96.3751 93.8638 96.3091 93.9299C93.9745 95.6698 92.9284 95.1412 91.2326 97.2775C89.4596 99.524 90.4948 102.123 91.2326 103.499C91.9704 104.876 93.5451 105.404 95.7805 104.634C98.0269 103.863 100.758 104.215 101.452 102.068C102.068 100.163 103.918 99.4579 104.403 99.6121C105.02 99.6121 105.405 99.9424 105.812 100.295C105.812 100.295 105.823 100.295 105.834 100.295C106.429 100.713 106.803 101.297 107.068 101.859C107.31 102.365 107.365 102.938 107.244 103.488C106.969 104.733 106.341 106.957 105.295 107.486C103.83 108.234 102.123 108.356 100.769 109.479C99.7558 110.316 97.3882 110.558 97.3882 110.558C97.3882 110.558 100.395 117.584 103.236 117.022C106.077 116.46 109.876 113.542 110.217 111.329C110.559 109.104 108.576 103.874 108.918 100.482C109.061 100.064 109.38 99.8543 110.019 100.075C112.508 100.922 111.638 108.113 111.638 108.113C111.638 108.113 111.979 107.188 112.122 105.548C112.122 105.614 112.122 105.647 112.122 105.647C112.122 105.647 112.695 100.174 111.362 97.1894V97.1784ZM112.177 104.479C112.177 103.896 112.177 103.356 112.177 102.85C112.199 103.444 112.199 104.017 112.177 104.479Z" fill="#001B32"/>
<path d="M92.3702 101.484L90.6523 98.2025C90.6523 98.2025 91.5553 95.4936 93.4934 94.6236C95.4205 93.7537 96.3565 93.0159 97.0613 92.1349C97.9202 91.0668 99.9244 90.5492 101.18 90.7584C101.907 90.8795 105.375 90.7254 106.08 90.6483C106.994 90.5492 108.888 91.0668 109.637 92.9608C110.386 94.8659 112.28 95.901 112.5 97.5528C112.764 99.4469 112.192 104.039 112.192 104.039L111.366 99.0394L108.205 96.1102C108.205 96.1102 103.294 96.6058 102.633 96.6058C101.973 96.6058 92.3702 101.462 92.3702 101.462V101.484Z" fill="#001B32"/>
<defs>
<clipPath id="clip0_852_8261">
<rect width="166" height="165" fill="white" transform="translate(117 19)"/>
</clipPath>
</defs>
</svg>
