<svg width="340" height="220" viewBox="0 0 340 220" fill="none" xmlns="http://www.w3.org/2000/svg">
<rect width="340" height="220" rx="10" fill="#001AFF" fill-opacity="0.1"/>
<mask id="mask0_852_8223" style="mask-type:alpha" maskUnits="userSpaceOnUse" x="0" y="0" width="340" height="220">
<rect width="340" height="220" rx="10" fill="#001AFF"/>
</mask>
<g mask="url(#mask0_852_8223)">
<g clip-path="url(#clip0_852_8223)">
<path d="M91.1192 59.7936C91.1192 59.7936 102.93 51.1729 95.1671 38.49C87.4038 25.8136 70.1956 29.3664 66.9625 36.0148C60.5811 34.9437 55.5946 39.2345 52.8178 43.2249C50.6277 46.3727 48.0073 52.6946 51.2143 65.0313C54.4213 77.3746 36.8154 84.4149 34.4232 92.7548C32.8849 98.1166 35.2641 103.916 46.1496 105.183C57.0351 106.45 86.1393 94.6161 86.1393 94.6161C89.594 94.6096 102.474 81.7569 91.1192 59.7936Z" fill="black"/>
<path d="M174.867 346.628C169.796 320.877 167.026 299.822 167.73 281.274C168.232 267.67 169.574 255.184 170.663 242.625L91.9156 197.457L66.8984 183.103H114.847C114.847 183.103 183.243 205.32 194.846 224.691C202.648 237.727 201.032 267.102 197.368 293.742C193.503 321.681 187.363 346.635 187.363 346.635H174.867V346.628Z" fill="#E3C0C1"/>
<path d="M197.369 293.742L181.06 296.433L167.73 281.281L108.863 214.399L91.9158 197.464L77.5625 183.109H114.841C114.841 183.109 183.237 205.327 194.839 224.698C202.642 237.733 201.025 267.109 197.362 293.748L197.369 293.742Z" fill="#4D170A"/>
<path d="M189.01 347.393C174.683 335.089 165.16 319.486 157.722 301.736C152.899 290.228 149.144 277.878 146.009 265.045C146.009 265.045 73.0433 258.867 53.847 230.889C40.7713 211.812 51.2527 183.103 51.2527 183.103C63.7157 183.488 80.07 180.758 90.395 184.102C129.316 196.706 171.098 213.314 180.81 240.3C186.54 256.229 190.503 273.842 194.459 293.376C197.732 309.507 200.684 328.257 205.006 347.125L189.01 347.393Z" fill="#FFD8D9"/>
<path d="M194.453 293.376L170.114 298.914L157.716 301.742C152.893 290.235 149.138 277.885 146.003 265.052C146.003 265.052 103.034 261.408 74.38 247.092C65.6912 242.742 58.2994 237.407 53.8409 230.889C41.8799 213.432 49.6366 187.89 51.0446 183.697C51.1815 183.312 51.2466 183.103 51.2466 183.103H51.3379C63.8009 183.469 81.5436 179.57 91.849 182.92C130.77 195.524 172.963 212.772 182.675 239.751C188.43 255.68 190.497 273.842 194.46 293.37L194.453 293.376Z" fill="#85260D"/>
<path d="M98.5232 132.528C106.717 142.441 121.357 153.936 129.739 163.693C133.872 160.101 138.689 158.324 142.15 153.746C128.064 132.345 112.388 110.734 94.3906 92.376C97.7475 106.345 94.6057 118.761 98.5232 132.528Z" fill="#C23D17"/>
<path d="M118.3 184.265C99.0124 181.692 83.1794 189.712 63.5268 188.184C61.1607 188.001 58.7294 187.681 56.2459 187.204C51.6766 186.29 48.4891 182.097 48.965 177.453L55.4441 114.104L61.1542 94.6226L62.4709 90.1555L72.6915 84.6631L83.9356 85.0549C100.701 92.3499 112.258 112.08 102.096 133.886C92.2268 155.079 118.293 184.272 118.293 184.272L118.3 184.265Z" fill="#C23D17"/>
<path d="M84.4388 85.2188C84.4388 91.5929 78.5267 91.5929 72.6016 85.2188L73.99 77.5124L74.8504 72.7188L83.7609 77.1858L84.4192 85.049L84.4322 85.2188H84.4388Z" fill="#F2A39C"/>
<path d="M123.417 162.569C118.3 170.367 115.172 168.963 108.314 169.381C99.3779 168.865 89.796 170.243 80.7682 169.538C69.8696 168.682 53.8477 172.209 44.9763 164.96C36.1114 157.704 47.3424 121.915 49.9628 113.862C53.4435 103.171 57.335 98.5148 62.4648 90.0508C60.1639 98.247 57.8695 106.071 55.5685 114.123C57.0156 126.591 58.228 139.124 59.5121 151.584C68.3248 152.773 74.9408 153.563 84.2424 155.144C92.4489 156.541 103.66 158.461 112.206 160.799C119.748 156.692 128.541 154.771 123.424 162.569H123.417Z" fill="#C23D17"/>
<path d="M84.5376 154.041C83.6186 159.024 81.9434 165.665 80.6593 170.838C69.1349 171.38 55.264 173.659 44.5154 164.594C33.7667 155.53 41.002 118.82 45.3432 108.775C50.0038 97.9928 53.8887 94.5576 62.4928 89.999C78.9515 106.581 61.665 129.609 59.5531 151.591C67.7074 152.63 76.4289 152.715 84.5376 154.034V154.041Z" fill="#C23D17"/>
<path d="M91.3153 43.7217C91.3153 43.7217 86.7982 53.3155 71.6301 56.8683C71.6301 56.8683 66.8978 51.6958 64.8511 54.9286C62.8044 58.1614 67.7583 63.8759 67.7583 63.8759C68.3253 73.2738 75.0718 80.7255 82.0659 78.9621C97.964 74.9587 91.3153 43.7217 91.3153 43.7217Z" fill="#F2A39C"/>
<path d="M96.7135 191.9L110.024 151.872C111.386 149.417 113.974 147.889 116.777 147.889H176.237C181.829 147.889 185.571 153.655 183.296 158.776L167.835 193.637C166.498 196.648 163.519 198.588 160.234 198.588H101.524C98.0628 198.588 95.6185 195.192 96.7135 191.907V191.9Z" fill="#E5E5E5"/>
<path d="M138.535 179.896C136.332 177.689 136.332 174.11 138.535 171.903C140.738 169.695 144.31 169.695 146.514 171.903C148.717 174.11 148.717 177.689 146.514 179.896C144.31 182.104 140.738 182.104 138.535 179.896Z" fill="white"/>
</g>
</g>
<g clip-path="url(#clip1_852_8223)">
<path d="M317.721 46.9452C319.623 35.2256 311.665 24.1829 299.945 22.2805C288.226 20.3782 277.183 28.3366 275.28 40.0562C273.378 51.7758 281.337 62.8185 293.056 64.7209C304.776 66.6232 315.818 58.6648 317.721 46.9452Z" fill="#C0DDFF"/>
<path d="M315.479 44.5526C316.059 34.0706 308.032 25.1026 297.55 24.5221C287.068 23.9415 278.1 31.9683 277.52 42.4503C276.939 52.9323 284.966 61.9003 295.448 62.4808C305.93 63.0614 314.898 55.0346 315.479 44.5526Z" fill="white"/>
<path d="M294.734 43.498C294.734 42.5204 295.526 41.7334 296.499 41.7334C297.472 41.7334 298.268 42.5246 298.268 43.498C298.268 44.4714 297.477 45.2625 296.499 45.2625C295.521 45.2625 294.734 44.4714 294.734 43.498Z" fill="#C0DDFF"/>
<path d="M297.779 42.5623C297.709 42.5623 297.639 42.5333 297.585 42.4794C297.477 42.3717 297.477 42.1936 297.585 42.0859L303.367 36.3034C303.475 36.1957 303.653 36.1957 303.761 36.3034C303.868 36.4111 303.868 36.5892 303.761 36.6969L297.978 42.4794C297.924 42.5333 297.854 42.5623 297.784 42.5623H297.779Z" fill="#C0DDFF"/>
<path d="M296.496 58.1904C296.343 58.1904 296.219 58.0661 296.219 57.9129V45.2668C296.219 45.1135 296.343 44.9893 296.496 44.9893C296.65 44.9893 296.774 45.1135 296.774 45.2668V57.9129C296.774 58.0661 296.65 58.1904 296.496 58.1904Z" fill="#C0DDFF"/>
</g>
<g clip-path="url(#clip2_852_8223)">
<path d="M295.11 195H219.89C218.845 195 218 194.158 218 193.118C218 192.077 218.845 191.236 219.89 191.236H295.113C296.159 191.236 297.004 192.077 297.004 193.118C297.004 194.158 296.159 195 295.113 195H295.11Z" fill="#3368B5"/>
<path d="M244.996 166.5H241.907C240.636 166.5 239.605 167.526 239.605 168.791V188.946C239.605 190.211 240.636 191.237 241.907 191.237H244.996C246.267 191.237 247.298 190.211 247.298 188.946V168.791C247.298 167.526 246.267 166.5 244.996 166.5Z" fill="#D94559"/>
<path d="M243.267 180.574C242.27 180.574 241.461 179.769 241.461 178.776V170.151C241.461 169.157 242.27 168.353 243.267 168.353C244.265 168.353 245.074 169.157 245.074 170.151V178.776C245.074 179.769 244.265 180.574 243.267 180.574Z" fill="white"/>
<path d="M241.273 185.555C241.273 184.461 242.166 183.572 243.266 183.572C244.366 183.572 245.258 184.461 245.258 185.555C245.258 186.65 244.366 187.539 243.266 187.539C242.166 187.539 241.273 186.65 241.273 185.555Z" fill="white"/>
<path d="M237.668 167.668L234.732 166.716C233.523 166.324 232.224 166.981 231.83 168.184L225.556 187.347C225.162 188.55 225.823 189.843 227.032 190.235L229.968 191.188C231.177 191.58 232.476 190.922 232.87 189.719L239.144 170.557C239.537 169.354 238.877 168.061 237.668 167.668Z" fill="#63ADA1"/>
<path d="M231.869 180.41C230.918 180.102 230.401 179.087 230.711 178.144L233.395 169.943C233.705 168.997 234.725 168.482 235.672 168.79C236.622 169.099 237.139 170.114 236.83 171.06L234.145 179.261C233.836 180.207 232.816 180.722 231.865 180.414L231.869 180.41Z" fill="white"/>
<path d="M228.195 183.96C228.538 182.92 229.659 182.351 230.708 182.688C231.754 183.029 232.325 184.145 231.987 185.189C231.644 186.23 230.523 186.799 229.474 186.462C228.428 186.121 227.856 185.005 228.195 183.96Z" fill="white"/>
<path d="M252.687 166.5H249.599C248.327 166.5 247.297 167.526 247.297 168.791V188.946C247.297 190.211 248.327 191.237 249.599 191.237H252.687C253.959 191.237 254.989 190.211 254.989 188.946V168.791C254.989 167.526 253.959 166.5 252.687 166.5Z" fill="#FFBC47"/>
<path d="M250.959 180.574C249.961 180.574 249.152 179.769 249.152 178.776V170.151C249.152 169.157 249.961 168.353 250.959 168.353C251.957 168.353 252.765 169.157 252.765 170.151V178.776C252.765 179.769 251.957 180.574 250.959 180.574Z" fill="white"/>
<path d="M248.965 185.555C248.965 184.461 249.857 183.572 250.957 183.572C252.057 183.572 252.949 184.461 252.949 185.555C252.949 186.65 252.057 187.539 250.957 187.539C249.857 187.539 248.965 186.65 248.965 185.555Z" fill="white"/>
<path d="M266.167 163.502C266.167 163.625 266.069 163.719 265.945 163.719C265.366 163.719 264.918 163.121 264.918 162.36V162.312H265.362C265.362 162.312 265.359 162.342 265.359 162.36C265.359 162.86 265.628 163.281 265.945 163.281C266.069 163.281 266.167 163.382 266.167 163.502Z" fill="#2EA1D8"/>
<path d="M288.849 166.797H264.289V191.244H288.849V166.797Z" fill="#5394E0"/>
<path d="M288.849 162.312V166.797H264.289V162.312H264.919V162.36C264.919 163.125 265.367 163.719 265.946 163.719C266.07 163.719 266.168 163.621 266.168 163.502C266.168 163.382 266.07 163.28 265.946 163.28C265.629 163.28 265.36 162.86 265.36 162.36C265.36 162.341 265.36 162.331 265.364 162.312H288.845H288.849Z" fill="#C0DDFF"/>
<path d="M265.363 163.498C265.363 163.277 265.542 163.1 265.764 163.1C265.986 163.1 266.168 163.277 266.168 163.498C266.168 163.72 265.99 163.897 265.764 163.897C265.538 163.897 265.363 163.72 265.363 163.498Z" fill="#1C569B"/>
<path d="M266.98 162.312H266.535C266.521 161.834 266.262 161.439 265.949 161.439C265.636 161.439 265.381 161.834 265.366 162.312C265.363 162.331 265.363 162.341 265.363 162.36C265.363 162.86 265.632 163.28 265.949 163.28C266.073 163.28 266.171 163.382 266.171 163.502C266.171 163.621 266.073 163.719 265.949 163.719C265.37 163.719 264.922 163.121 264.922 162.36V162.312C264.94 161.569 265.384 161 265.949 161C266.514 161 266.962 161.569 266.98 162.312Z" fill="#3368B5"/>
<path d="M267.422 163.498C267.422 163.277 267.6 163.1 267.826 163.1C268.052 163.1 268.227 163.277 268.227 163.498C268.227 163.72 268.048 163.897 267.826 163.897C267.604 163.897 267.422 163.72 267.422 163.498Z" fill="#1C569B"/>
<path d="M269.038 162.312H268.594C268.579 161.834 268.321 161.439 268.008 161.439C267.694 161.439 267.439 161.834 267.425 162.312C267.421 162.331 267.421 162.341 267.421 162.36C267.421 162.86 267.691 163.28 268.008 163.28C268.131 163.28 268.23 163.382 268.23 163.502C268.23 163.621 268.131 163.719 268.008 163.719C267.428 163.719 266.98 163.121 266.98 162.36V162.312C266.999 161.569 267.443 161 268.008 161C268.572 161 269.02 161.569 269.038 162.312Z" fill="#3368B5"/>
<path d="M269.484 163.498C269.484 163.277 269.663 163.1 269.889 163.1C270.114 163.1 270.289 163.277 270.289 163.498C270.289 163.72 270.111 163.897 269.889 163.897C269.666 163.897 269.484 163.72 269.484 163.498Z" fill="#1C569B"/>
<path d="M271.097 162.312H270.653C270.638 161.834 270.379 161.439 270.066 161.439C269.753 161.439 269.498 161.834 269.483 162.312C269.48 162.331 269.48 162.341 269.48 162.36C269.48 162.86 269.749 163.28 270.066 163.28C270.19 163.28 270.288 163.382 270.288 163.502C270.288 163.621 270.19 163.719 270.066 163.719C269.487 163.719 269.039 163.121 269.039 162.36V162.312C269.057 161.569 269.502 161 270.066 161C270.631 161 271.079 161.569 271.097 162.312Z" fill="#3368B5"/>
<path d="M271.543 163.498C271.543 163.277 271.721 163.1 271.944 163.1C272.166 163.1 272.344 163.277 272.344 163.498C272.344 163.72 272.166 163.897 271.944 163.897C271.721 163.897 271.543 163.72 271.543 163.498Z" fill="#1C569B"/>
<path d="M273.156 162.312H272.711C272.697 161.834 272.438 161.439 272.125 161.439C271.812 161.439 271.557 161.834 271.542 162.312C271.538 162.331 271.538 162.341 271.538 162.36C271.538 162.86 271.808 163.28 272.125 163.28C272.249 163.28 272.347 163.382 272.347 163.502C272.347 163.621 272.249 163.719 272.125 163.719C271.546 163.719 271.098 163.121 271.098 162.36V162.312C271.116 161.569 271.56 161 272.125 161C272.689 161 273.137 161.569 273.156 162.312Z" fill="#3368B5"/>
<path d="M273.598 163.498C273.598 163.277 273.776 163.1 273.998 163.1C274.22 163.1 274.403 163.277 274.403 163.498C274.403 163.72 274.224 163.897 273.998 163.897C273.772 163.897 273.598 163.72 273.598 163.498Z" fill="#1C569B"/>
<path d="M275.214 162.312H274.77C274.755 161.834 274.497 161.439 274.183 161.439C273.87 161.439 273.615 161.834 273.601 162.312C273.597 162.331 273.597 162.341 273.597 162.36C273.597 162.86 273.866 163.28 274.183 163.28C274.307 163.28 274.406 163.382 274.406 163.502C274.406 163.621 274.307 163.719 274.183 163.719C273.604 163.719 273.156 163.121 273.156 162.36V162.312C273.174 161.569 273.619 161 274.183 161C274.748 161 275.196 161.569 275.214 162.312Z" fill="#3368B5"/>
<path d="M275.656 163.498C275.656 163.277 275.835 163.1 276.057 163.1C276.279 163.1 276.458 163.277 276.458 163.498C276.458 163.72 276.279 163.897 276.057 163.897C275.835 163.897 275.656 163.72 275.656 163.498Z" fill="#1C569B"/>
<path d="M277.273 162.312H276.828C276.814 161.834 276.555 161.439 276.242 161.439C275.929 161.439 275.674 161.834 275.659 162.312C275.656 162.331 275.656 162.341 275.656 162.36C275.656 162.86 275.925 163.28 276.242 163.28C276.366 163.28 276.46 163.382 276.46 163.502C276.46 163.621 276.362 163.719 276.242 163.719C275.663 163.719 275.215 163.121 275.215 162.36V162.312C275.233 161.569 275.677 161 276.242 161C276.807 161 277.254 161.569 277.273 162.312Z" fill="#3368B5"/>
<path d="M277.715 163.498C277.715 163.277 277.893 163.1 278.115 163.1C278.338 163.1 278.52 163.277 278.52 163.498C278.52 163.72 278.341 163.897 278.115 163.897C277.89 163.897 277.715 163.72 277.715 163.498Z" fill="#1C569B"/>
<path d="M279.331 162.312H278.887C278.872 161.834 278.614 161.439 278.301 161.439C277.987 161.439 277.732 161.834 277.718 162.312C277.714 162.331 277.714 162.341 277.714 162.36C277.714 162.86 277.984 163.28 278.301 163.28C278.424 163.28 278.523 163.382 278.523 163.502C278.523 163.621 278.424 163.719 278.301 163.719C277.721 163.719 277.273 163.121 277.273 162.36V162.312C277.292 161.569 277.736 161 278.301 161C278.865 161 279.313 161.569 279.331 162.312Z" fill="#3368B5"/>
<path d="M279.777 163.498C279.777 163.277 279.956 163.1 280.178 163.1C280.4 163.1 280.582 163.277 280.582 163.498C280.582 163.72 280.404 163.897 280.178 163.897C279.952 163.897 279.777 163.72 279.777 163.498Z" fill="#1C569B"/>
<path d="M281.39 162.312H280.946C280.931 161.834 280.672 161.439 280.359 161.439C280.046 161.439 279.791 161.834 279.776 162.312C279.773 162.331 279.773 162.341 279.773 162.36C279.773 162.86 280.042 163.28 280.359 163.28C280.483 163.28 280.581 163.382 280.581 163.502C280.581 163.621 280.483 163.719 280.359 163.719C279.78 163.719 279.332 163.121 279.332 162.36V162.312C279.35 161.569 279.795 161 280.359 161C280.924 161 281.372 161.569 281.39 162.312Z" fill="#3368B5"/>
<path d="M281.836 163.498C281.836 163.277 282.014 163.1 282.24 163.1C282.466 163.1 282.641 163.277 282.641 163.498C282.641 163.72 282.462 163.897 282.24 163.897C282.018 163.897 281.836 163.72 281.836 163.498Z" fill="#1C569B"/>
<path d="M283.452 162.312H283.008C282.993 161.834 282.735 161.439 282.422 161.439C282.108 161.439 281.853 161.834 281.839 162.312C281.835 162.331 281.835 162.341 281.835 162.36C281.835 162.86 282.105 163.28 282.422 163.28C282.545 163.28 282.644 163.382 282.644 163.502C282.644 163.621 282.545 163.719 282.422 163.719C281.843 163.719 281.395 163.121 281.395 162.36V162.312C281.413 161.569 281.857 161 282.422 161C282.986 161 283.434 161.569 283.452 162.312Z" fill="#3368B5"/>
<path d="M284.295 163.897C284.516 163.897 284.696 163.719 284.696 163.498C284.696 163.278 284.516 163.1 284.295 163.1C284.074 163.1 283.895 163.278 283.895 163.498C283.895 163.719 284.074 163.897 284.295 163.897Z" fill="#1C569B"/>
<path d="M285.507 162.312H285.063C285.048 161.834 284.79 161.439 284.476 161.439C284.163 161.439 283.908 161.834 283.894 162.312C283.89 162.331 283.89 162.341 283.89 162.36C283.89 162.86 284.159 163.28 284.476 163.28C284.6 163.28 284.699 163.382 284.699 163.502C284.699 163.621 284.6 163.719 284.476 163.719C283.897 163.719 283.449 163.121 283.449 162.36V162.312C283.467 161.569 283.912 161 284.476 161C285.041 161 285.489 161.569 285.507 162.312Z" fill="#3368B5"/>
<path d="M285.949 163.498C285.949 163.277 286.128 163.1 286.354 163.1C286.579 163.1 286.754 163.277 286.754 163.498C286.754 163.72 286.576 163.897 286.354 163.897C286.131 163.897 285.949 163.72 285.949 163.498Z" fill="#1C569B"/>
<path d="M287.566 162.312H287.121C287.107 161.834 286.848 161.439 286.535 161.439C286.222 161.439 285.967 161.834 285.952 162.312C285.949 162.331 285.949 162.341 285.949 162.36C285.949 162.86 286.218 163.28 286.535 163.28C286.659 163.28 286.757 163.382 286.757 163.502C286.757 163.621 286.659 163.719 286.535 163.719C285.956 163.719 285.508 163.121 285.508 162.36V162.312C285.526 161.569 285.97 161 286.535 161C287.099 161 287.547 161.569 287.566 162.312Z" fill="#3368B5"/>
<path d="M268.333 169.72H266.516V171.529H268.333V169.72Z" fill="white"/>
<path d="M272.009 169.72H270.191V171.529H272.009V169.72Z" fill="white"/>
<path d="M275.681 169.72H273.863V171.529H275.681V169.72Z" fill="white"/>
<path d="M279.353 169.72H277.535V171.529H279.353V169.72Z" fill="white"/>
<path d="M283.028 169.72H281.211V171.529H283.028V169.72Z" fill="white"/>
<path d="M286.704 169.72H284.887V171.529H286.704V169.72Z" fill="white"/>
<path d="M268.333 173.175H266.516V174.984H268.333V173.175Z" fill="white"/>
<path d="M272.009 173.175H270.191V174.984H272.009V173.175Z" fill="white"/>
<path d="M275.681 173.175H273.863V174.984H275.681V173.175Z" fill="white"/>
<path d="M279.353 173.175H277.535V174.984H279.353V173.175Z" fill="white"/>
<path d="M283.028 173.175H281.211V174.984H283.028V173.175Z" fill="white"/>
<path d="M286.704 173.175H284.887V174.984H286.704V173.175Z" fill="white"/>
<path d="M268.333 176.63H266.516V178.439H268.333V176.63Z" fill="white"/>
<path d="M272.009 176.63H270.191V178.439H272.009V176.63Z" fill="white"/>
<path d="M275.681 176.63H273.863V178.439H275.681V176.63Z" fill="white"/>
<path d="M279.353 176.63H277.535V178.439H279.353V176.63Z" fill="white"/>
<path d="M283.028 176.63H281.211V178.439H283.028V176.63Z" fill="white"/>
<path d="M286.704 176.63H284.887V178.439H286.704V176.63Z" fill="white"/>
<path d="M268.333 180.085H266.516V181.894H268.333V180.085Z" fill="white"/>
<path d="M272.009 180.085H270.191V181.894H272.009V180.085Z" fill="white"/>
<path d="M275.681 180.085H273.863V181.894H275.681V180.085Z" fill="white"/>
<path d="M279.353 180.085H277.535V181.894H279.353V180.085Z" fill="white"/>
<path d="M283.028 180.085H281.211V181.894H283.028V180.085Z" fill="white"/>
<path d="M286.704 180.085H284.887V181.894H286.704V180.085Z" fill="white"/>
</g>
<g clip-path="url(#clip3_852_8223)">
<path d="M171.89 146.068H247.113C248.159 146.068 249.004 145.211 249.004 144.15C249.004 143.09 248.159 142.233 247.113 142.233H171.89C170.845 142.233 170 143.09 170 144.15C170 145.211 170.845 146.068 171.89 146.068Z" fill="#3368B5"/>
<path d="M226.785 117.03H223.696C222.425 117.03 221.395 118.075 221.395 119.365V139.899C221.395 141.189 222.425 142.234 223.696 142.234H226.785C228.056 142.234 229.087 141.189 229.087 139.899V119.365C229.087 118.075 228.056 117.03 226.785 117.03Z" fill="#D94559"/>
<path d="M225.428 131.374C226.426 131.374 227.234 130.554 227.234 129.542V120.75C227.234 119.738 226.426 118.918 225.428 118.918C224.43 118.918 223.621 119.738 223.621 120.75V129.538C223.621 130.55 224.43 131.37 225.428 131.37V131.374Z" fill="white"/>
<path d="M227.418 136.449C227.418 135.333 226.526 134.428 225.426 134.428C224.326 134.428 223.434 135.333 223.434 136.449C223.434 137.565 224.326 138.47 225.426 138.47C226.526 138.47 227.418 137.565 227.418 136.449Z" fill="white"/>
<path d="M238.82 142.184L241.757 141.213C242.965 140.814 243.626 139.496 243.232 138.27L236.959 118.746C236.565 117.52 235.265 116.85 234.057 117.25L231.12 118.22C229.911 118.62 229.251 119.937 229.645 121.163L235.918 140.688C236.312 141.914 237.611 142.583 238.82 142.184Z" fill="#63ADA1"/>
<path d="M236.871 131.067C237.821 130.753 238.339 129.718 238.029 128.758L235.345 120.402C235.035 119.438 234.015 118.913 233.068 119.227C232.118 119.541 231.6 120.576 231.91 121.54L234.594 129.896C234.904 130.86 235.924 131.384 236.874 131.07L236.871 131.067Z" fill="white"/>
<path d="M240.498 134.82C240.156 133.76 239.034 133.18 237.985 133.523C236.94 133.871 236.368 135.008 236.707 136.072C237.049 137.132 238.171 137.712 239.22 137.369C240.265 137.022 240.837 135.884 240.498 134.82Z" fill="white"/>
<path d="M216.004 142.237H219.093C220.364 142.237 221.395 141.192 221.395 139.902V119.368C221.395 118.078 220.364 117.033 219.093 117.033H216.004C214.733 117.033 213.702 118.078 213.702 119.368V139.902C213.702 141.192 214.733 142.237 216.004 142.237Z" fill="#FFBC47"/>
<path d="M217.732 131.373C218.73 131.373 219.539 130.553 219.539 129.541V120.749C219.539 119.737 218.73 118.917 217.732 118.917C216.734 118.917 215.926 119.737 215.926 120.749V129.537C215.926 130.549 216.734 131.369 217.732 131.369V131.373Z" fill="white"/>
<path d="M219.723 136.448C219.723 135.333 218.831 134.427 217.731 134.427C216.631 134.427 215.738 135.333 215.738 136.448C215.738 137.564 216.631 138.469 217.731 138.469C218.831 138.469 219.723 137.564 219.723 136.448Z" fill="white"/>
<path d="M211.398 117.03H208.31C207.038 117.03 206.008 118.075 206.008 119.365V139.899C206.008 141.189 207.038 142.234 208.31 142.234H211.398C212.67 142.234 213.7 141.189 213.7 139.899V119.365C213.7 118.075 212.67 117.03 211.398 117.03Z" fill="#6C95DD"/>
<path d="M210.041 131.374C211.039 131.374 211.847 130.554 211.847 129.542V120.75C211.847 119.738 211.039 118.918 210.041 118.918C209.043 118.918 208.234 119.738 208.234 120.75V129.538C208.234 130.55 209.043 131.37 210.041 131.37V131.374Z" fill="white"/>
<path d="M212.031 136.449C212.031 135.333 211.139 134.428 210.039 134.428C208.939 134.428 208.047 135.333 208.047 136.449C208.047 137.565 208.939 138.47 210.039 138.47C211.139 138.47 212.031 137.565 212.031 136.449Z" fill="white"/>
<path d="M190.223 132.308C189.859 131.714 189.64 131.041 189.527 130.347L189.575 130.417C190.059 130.698 190.718 130.52 191.097 130.125C191.476 129.73 191.625 129.168 191.669 128.625C191.297 128.917 190.809 129.017 190.361 129.183C190.008 129.312 189.655 129.512 189.458 129.807C189.403 129.194 189.418 128.577 189.487 127.99C189.509 127.802 189.542 127.617 189.567 127.429C190.084 127.698 190.751 127.51 191.181 127.126C191.611 126.738 191.855 126.198 192.084 125.674C191.851 125.918 191.505 126.021 191.166 126.084C190.827 126.147 190.481 126.173 190.165 126.302C189.986 126.372 189.822 126.487 189.698 126.631C189.855 125.799 190.044 124.976 190.186 124.141C190.216 123.971 190.237 123.801 190.259 123.631L190.278 123.712C190.649 123.989 191.192 123.982 191.596 123.76C192 123.539 192.273 123.143 192.43 122.719C192.587 122.294 192.641 121.843 192.692 121.393C192.281 121.795 191.567 121.67 191.053 121.939C190.736 122.105 190.532 122.397 190.372 122.722C190.379 122.637 190.39 122.556 190.401 122.471C190.441 122.076 190.478 121.677 190.463 121.282C190.445 120.809 190.318 120.384 190.11 119.996C190.296 119.582 190.256 119.076 190.044 118.663C189.8 118.179 189.352 117.809 188.864 117.558C188.373 117.303 187.837 117.156 187.302 117.011C187.167 117.543 187.116 118.109 187.236 118.648C187.356 119.187 187.655 119.704 188.118 120.029C188.58 120.355 189.214 120.462 189.731 120.24L189.862 120.222C190.023 120.55 190.121 120.909 190.139 121.3C190.157 121.703 190.114 122.109 190.074 122.508C190.055 122.685 190.033 122.863 190.012 123.036C189.702 122.722 189.363 122.431 188.97 122.224C188.504 121.98 187.961 121.851 187.444 121.943C186.854 122.046 186.286 122.427 185.699 122.283C186.184 122.948 186.799 123.557 187.579 123.849C188.358 124.141 189.327 124.045 189.895 123.465L189.964 123.402C189.931 123.672 189.891 123.941 189.844 124.211C189.68 125.146 189.462 126.088 189.301 127.033L189.32 126.83C189.309 126.52 189.083 126.243 188.81 126.08C188.537 125.918 188.216 125.847 187.903 125.781C187.52 125.7 187.134 125.615 186.752 125.533C186.704 125.522 186.65 125.515 186.606 125.533C186.537 125.567 186.526 125.655 186.526 125.729C186.537 126.35 186.894 126.959 187.44 127.288C187.976 127.613 188.679 127.654 189.243 127.399C189.134 128.145 189.072 128.891 189.119 129.641C189.003 129.353 188.722 129.139 188.416 129.035C188.085 128.925 187.728 128.917 187.382 128.913C186.981 128.91 186.584 128.906 186.184 128.899C186.14 128.899 186.089 128.899 186.056 128.928C186.016 128.965 186.023 129.032 186.038 129.087C186.195 129.7 186.65 130.236 187.24 130.502C187.83 130.768 188.54 130.76 189.116 130.476L189.137 129.892C189.174 130.273 189.236 130.653 189.338 131.038C189.451 131.455 189.611 131.861 189.815 132.242C189.469 131.965 188.948 131.983 188.511 132.094C188.048 132.212 187.586 132.404 187.112 132.345C187.331 132.921 187.877 133.376 188.5 133.494C189.119 133.612 189.793 133.394 190.208 132.936L190.048 132.626C190.314 133.029 190.642 133.398 191.035 133.701C191.199 133.83 191.403 133.586 191.239 133.457C191.057 133.317 190.897 133.165 190.747 133.006C190.944 133.029 191.159 132.958 191.308 132.829C191.545 132.626 191.654 132.323 191.76 132.035C191.855 131.769 191.953 131.499 192.048 131.233C191.367 131.473 190.642 131.754 190.223 132.319V132.308Z" fill="#598946"/>
<path d="M180.996 129.02H198.257V140.243C198.257 141.388 197.339 142.319 196.21 142.319H183.043C181.914 142.319 180.996 141.388 180.996 140.243V129.02Z" fill="#FFBC47"/>
<g style="mix-blend-mode:multiply">
<path d="M180.996 129.02V132.77H190.444C193.766 132.77 196.461 135.503 196.461 138.872V142.322H197.317C197.838 142.322 198.257 141.894 198.257 141.369V129.024H180.996V129.02Z" fill="#E6E6E6"/>
</g>
<path d="M199.062 128.208H179.66V131.462H199.062V128.208Z" fill="#FFBC47"/>
<path d="M191.297 128.563C191.581 128.456 191.84 128.3 192.073 128.119C191.902 128.057 191.76 127.913 191.683 127.743C191.578 127.506 191.585 127.233 191.651 126.985C191.716 126.738 191.84 126.509 191.96 126.28C191.975 126.594 192.171 126.86 192.313 127.137C192.412 127.325 192.485 127.551 192.466 127.754C192.812 127.388 193.096 126.952 193.326 126.501C193.144 126.542 192.933 126.461 192.816 126.309C192.667 126.117 192.645 125.851 192.699 125.615C192.754 125.378 192.878 125.164 192.998 124.954C193.275 125.186 193.49 125.493 193.628 125.829C193.854 125.264 194.043 124.68 194.247 124.104C193.88 124.071 193.534 123.805 193.381 123.454C193.198 123.029 193.257 122.53 193.442 122.109C193.989 122.375 194.379 122.94 194.459 123.55C194.597 123.203 194.75 122.859 194.936 122.53C195.016 122.39 195.1 122.253 195.187 122.12C195.147 122.098 195.052 121.732 195.096 121.559C195.154 121.345 195.289 121.16 195.446 121.005C196.028 120.406 196.903 120.115 197.722 120.244C197.263 120.761 197.358 121.644 196.844 122.109C196.608 122.324 196.273 122.408 195.956 122.383C195.788 122.368 195.624 122.324 195.468 122.261C195.198 122.649 194.987 123.081 194.801 123.524C195.074 123.454 195.395 123.502 195.664 123.602C196.087 123.757 196.495 124.004 196.946 124.001C196.72 124.477 196.218 124.806 195.697 124.824C195.245 124.839 194.797 124.617 194.517 124.263C194.491 124.337 194.462 124.411 194.437 124.481C194.247 125.024 194.065 125.578 193.843 126.11C194.08 125.936 194.379 125.855 194.674 125.855C195.023 125.855 195.362 125.944 195.701 126.036C195.559 126.461 195.183 126.797 194.746 126.889C194.353 126.971 193.931 126.845 193.636 126.575C193.421 127.019 193.169 127.44 192.845 127.816C192.761 127.913 192.674 128.005 192.583 128.094C192.973 127.927 193.435 127.931 193.814 128.127C194.087 128.267 194.306 128.489 194.546 128.681C194.786 128.873 195.063 129.043 195.369 129.043C194.98 129.043 194.633 129.287 194.258 129.383C193.861 129.486 193.424 129.416 193.078 129.198C192.743 128.987 192.499 128.64 192.408 128.252C192.102 128.515 191.763 128.733 191.381 128.877C191.195 128.947 191.115 128.648 191.301 128.577L191.297 128.563Z" fill="#598946"/>
<path d="M186.948 127.632C186.664 127.525 186.406 127.37 186.173 127.189C186.344 127.126 186.486 126.982 186.562 126.812C186.668 126.576 186.661 126.302 186.595 126.055C186.529 125.807 186.406 125.578 186.285 125.349C186.271 125.663 186.074 125.929 185.932 126.206C185.834 126.395 185.761 126.62 185.779 126.823C185.433 126.457 185.149 126.025 184.92 125.571C185.102 125.611 185.313 125.53 185.43 125.379C185.579 125.187 185.601 124.921 185.546 124.684C185.491 124.448 185.368 124.234 185.247 124.023C184.971 124.256 184.756 124.562 184.617 124.898C184.391 124.333 184.202 123.75 183.998 123.173C184.366 123.14 184.712 122.874 184.865 122.523C185.047 122.098 184.989 121.6 184.803 121.179C184.257 121.445 183.867 122.01 183.787 122.619C183.648 122.272 183.495 121.928 183.31 121.6C183.23 121.459 183.146 121.323 183.058 121.19C183.098 121.168 183.193 120.802 183.149 120.628C183.091 120.414 182.956 120.229 182.8 120.074C182.217 119.476 181.343 119.184 180.523 119.313C180.982 119.83 180.888 120.713 181.401 121.179C181.638 121.393 181.973 121.478 182.29 121.452C182.457 121.437 182.621 121.393 182.778 121.33C183.048 121.718 183.259 122.15 183.445 122.593C183.171 122.523 182.851 122.571 182.581 122.671C182.159 122.826 181.751 123.074 181.299 123.07C181.525 123.546 182.028 123.875 182.549 123.894C183 123.908 183.448 123.687 183.729 123.332C183.754 123.406 183.783 123.48 183.809 123.55C183.998 124.093 184.18 124.647 184.402 125.179C184.166 125.006 183.867 124.924 183.572 124.924C183.222 124.924 182.884 125.013 182.545 125.105C182.687 125.53 183.062 125.866 183.499 125.959C183.893 126.04 184.315 125.914 184.61 125.645C184.825 126.088 185.076 126.509 185.4 126.886C185.484 126.982 185.572 127.074 185.663 127.163C185.273 126.997 184.81 127 184.432 127.196C184.158 127.336 183.94 127.558 183.699 127.75C183.459 127.942 183.182 128.112 182.876 128.112C183.266 128.112 183.612 128.356 183.987 128.452C184.384 128.556 184.821 128.489 185.167 128.267C185.502 128.057 185.746 127.71 185.837 127.322C186.143 127.584 186.482 127.802 186.865 127.946C187.05 128.016 187.13 127.717 186.945 127.647L186.948 127.632Z" fill="#598946"/>
<path d="M189.285 128.02C188.79 128.053 188.32 128.175 187.875 128.359L188.178 128.189C188.083 127.576 187.639 127.015 187.06 126.767C186.477 126.516 185.777 126.59 185.278 126.945C185.708 127.163 185.985 127.584 186.309 127.938C186.615 128.278 187.034 128.585 187.475 128.548C187.096 128.751 186.743 128.998 186.418 129.283C186.123 129.545 185.865 129.826 185.624 130.125L185.923 129.626C185.599 129.069 185.009 128.662 184.375 128.555C183.738 128.448 183.068 128.636 182.601 129.061C182.561 129.098 182.518 129.15 182.529 129.205C182.54 129.25 182.58 129.279 182.616 129.301C182.951 129.523 183.286 129.741 183.621 129.963C183.913 130.155 184.215 130.35 184.55 130.443C184.86 130.528 185.213 130.509 185.464 130.332C185.016 130.93 184.659 131.588 184.346 132.268C184.015 131.739 183.406 131.377 182.784 131.348C182.15 131.315 181.52 131.621 181.174 132.135C181.134 132.197 181.094 132.275 181.134 132.341C181.159 132.382 181.206 132.404 181.254 132.423C181.618 132.571 181.982 132.718 182.346 132.862C182.645 132.981 182.947 133.102 183.264 133.121C183.581 133.139 183.92 133.036 184.098 132.785L184.197 132.607C183.814 133.483 183.483 134.388 183.108 135.26C182.998 135.511 182.886 135.755 182.765 135.999L182.74 135.906C182.583 135.101 181.829 134.48 181.021 134.285C180.212 134.089 179.367 134.251 178.599 134.536C179.163 134.746 179.429 135.382 179.866 135.799C180.249 136.165 180.769 136.364 181.29 136.42C181.731 136.468 182.172 136.42 182.601 136.327C182.521 136.486 182.445 136.645 182.361 136.804C182.179 137.162 181.993 137.52 181.756 137.849C181.676 137.96 181.589 138.06 181.494 138.152C181.454 138.148 181.41 138.156 181.37 138.189C181.232 138.304 181.108 138.429 180.984 138.555C180.966 138.566 180.951 138.577 180.933 138.588L180.835 138.499C180.525 138.027 179.939 137.761 179.374 137.772C178.814 137.783 178.282 138.045 177.888 138.429C177.495 138.813 177.229 139.308 177.051 139.829C177.575 140.006 178.103 140.184 178.65 140.25C179.116 140.306 179.6 140.269 180.023 140.095C179.917 140.361 179.83 140.634 179.764 140.912C179.673 141.296 179.626 141.68 179.6 142.064L179.557 141.48C178.974 141.218 178.264 141.233 177.681 141.521C177.102 141.809 176.661 142.36 176.526 142.976C176.515 143.032 176.508 143.098 176.548 143.135C176.581 143.165 176.632 143.165 176.676 143.161C177.073 143.143 177.473 143.124 177.87 143.106C178.22 143.091 178.573 143.072 178.901 142.951C179.203 142.836 179.476 142.614 179.582 142.323C179.56 143.072 179.648 143.819 179.782 144.557C179.207 144.321 178.508 144.388 177.983 144.731C177.448 145.078 177.113 145.699 177.12 146.32C177.12 146.393 177.134 146.482 177.204 146.512C177.247 146.53 177.302 146.519 177.349 146.508C177.732 146.412 178.111 146.316 178.493 146.223C178.803 146.146 179.119 146.065 179.389 145.895C179.658 145.721 179.873 145.44 179.873 145.13L179.852 144.927C180.041 145.865 180.292 146.796 180.485 147.727C180.54 147.993 180.587 148.263 180.631 148.529L180.558 148.469C179.972 147.908 178.999 147.845 178.231 148.163C177.459 148.48 176.865 149.112 176.402 149.792C176.981 149.629 177.561 149.988 178.154 150.073C178.675 150.146 179.211 149.999 179.669 149.74C180.056 149.518 180.387 149.219 180.686 148.894C180.711 149.072 180.74 149.245 180.762 149.422C180.817 149.821 180.875 150.224 180.868 150.627C180.864 151.018 180.777 151.38 180.627 151.713L180.496 151.698C179.972 151.495 179.342 151.624 178.89 151.964C178.438 152.304 178.158 152.832 178.056 153.375C177.954 153.918 178.023 154.48 178.176 155.008C178.704 154.845 179.236 154.675 179.72 154.406C180.201 154.136 180.635 153.752 180.864 153.261C181.061 152.839 181.083 152.333 180.882 151.923C181.075 151.524 181.188 151.096 181.192 150.627C181.192 150.228 181.145 149.832 181.09 149.437C181.079 149.352 181.064 149.271 181.053 149.186C181.225 149.504 181.436 149.788 181.76 149.943C182.285 150.194 182.991 150.047 183.417 150.435C183.352 149.988 183.283 149.537 183.111 149.12C182.94 148.702 182.652 148.314 182.241 148.107C181.829 147.901 181.287 147.908 180.926 148.2L180.911 148.281C180.882 148.111 180.857 147.941 180.82 147.775C180.653 146.947 180.438 146.127 180.252 145.304C180.376 145.444 180.547 145.551 180.729 145.618C181.05 145.736 181.399 145.751 181.738 145.799C182.077 145.847 182.427 145.943 182.667 146.175C182.419 145.658 182.157 145.126 181.716 144.757C181.276 144.388 180.602 144.221 180.096 144.509C180.063 144.325 180.023 144.14 179.994 143.952C179.906 143.368 179.87 142.751 179.906 142.134C180.114 142.422 180.474 142.611 180.831 142.729C181.283 142.877 181.775 142.962 182.157 143.239C182.095 142.696 181.931 142.142 181.538 141.761C181.145 141.377 180.482 141.222 180.005 141.521L179.957 141.591C180.041 140.967 180.212 140.357 180.493 139.803C180.544 139.759 180.595 139.711 180.638 139.659C181.083 140.169 181.782 140.417 182.448 140.627C182.343 140.361 182.241 140.099 182.135 139.833C182.022 139.548 181.898 139.249 181.658 139.053C181.505 138.928 181.287 138.869 181.09 138.898C181.115 138.872 181.141 138.847 181.163 138.817C181.48 138.621 181.764 138.37 182 138.041C182.23 137.72 182.419 137.369 182.598 137.014C182.638 136.94 182.674 136.863 182.711 136.789C182.667 137.147 182.678 137.506 182.853 137.823C183.133 138.337 183.796 138.632 183.92 139.198C184.12 138.795 184.324 138.389 184.426 137.945C184.525 137.506 184.514 137.018 184.299 136.608C184.084 136.198 183.636 135.884 183.173 135.91L183.115 135.965C183.188 135.81 183.264 135.659 183.334 135.5C183.672 134.728 183.964 133.934 184.288 133.15C184.31 133.339 184.386 133.527 184.495 133.686C184.688 133.971 184.965 134.188 185.213 134.429C185.461 134.669 185.69 134.953 185.752 135.286C185.847 134.72 185.938 134.133 185.792 133.568C185.646 133.01 185.191 132.474 184.612 132.412C184.692 132.242 184.765 132.068 184.849 131.898C185.115 131.374 185.435 130.849 185.818 130.369C185.818 130.727 186.007 131.093 186.229 131.4C186.513 131.787 186.863 132.146 187.016 132.596C187.274 132.12 187.46 131.569 187.358 131.026C187.256 130.483 186.805 129.963 186.247 129.926L186.171 129.955C186.644 129.442 187.194 129.002 187.821 128.71C187.864 129.416 188.312 130.055 188.75 130.639C188.815 130.362 188.881 130.084 188.95 129.807C189.023 129.508 189.092 129.194 189.008 128.891C188.953 128.699 188.811 128.522 188.637 128.43C188.848 128.382 189.066 128.345 189.292 128.33C189.5 128.315 189.463 127.997 189.256 128.012L189.285 128.02Z" fill="#598946"/>
<path d="M193.805 140.535C193.998 140.269 194.242 140.051 194.457 139.803C194.672 139.556 194.865 139.275 194.92 138.95C194.971 138.651 194.872 138.315 194.636 138.134C194.865 137.613 195.014 137.062 195.094 136.497C195.156 136.929 195.462 137.314 195.841 137.535C196.267 137.783 196.766 137.857 197.258 137.879C197.116 137.369 196.934 136.844 196.562 136.475C196.187 136.106 195.575 135.939 195.134 136.224C195.171 135.866 195.185 135.5 195.171 135.138C195.156 134.805 195.12 134.477 195.065 134.148C195.193 134.318 195.386 134.443 195.59 134.506C195.885 134.595 196.198 134.584 196.504 134.569C196.573 134.569 196.65 134.554 196.682 134.495C196.704 134.451 196.697 134.399 196.682 134.351C196.58 134.011 196.329 133.723 196.009 133.583C195.688 133.442 195.309 133.45 194.996 133.605L194.982 133.69C194.861 133.132 194.694 132.585 194.49 132.053C194.679 132.149 194.905 132.183 195.116 132.172C195.44 132.153 195.75 132.035 196.052 131.92C195.725 131.88 195.586 131.466 195.298 131.304C195.134 131.211 194.931 131.211 194.752 131.267C194.577 131.322 194.424 131.425 194.279 131.544C194.133 131.207 193.976 130.875 193.809 130.55C193.758 130.447 193.699 130.347 193.645 130.247C193.976 130.384 194.381 130.343 194.668 130.125C194.479 129.963 194.279 129.793 194.035 129.745C193.831 129.704 193.59 129.782 193.485 129.948C193.215 129.464 192.931 128.987 192.643 128.515C192.935 128.577 193.255 128.522 193.499 128.341C193.31 128.178 193.109 128.008 192.865 127.96C192.698 127.927 192.505 127.975 192.381 128.086C192.348 128.034 192.315 127.979 192.283 127.924C192.199 127.787 191.966 127.894 192.053 128.034C192.082 128.082 192.115 128.13 192.144 128.182C191.871 128.286 191.631 128.478 191.474 128.729C191.27 129.054 191.215 129.471 191.325 129.841C191.376 129.656 191.532 129.523 191.693 129.427C191.853 129.331 192.031 129.257 192.173 129.131C192.315 129.006 192.417 128.81 192.366 128.625V128.555C192.585 128.902 192.796 129.257 193 129.615C192.556 129.604 192.111 129.878 191.94 130.295C191.773 130.709 191.864 131.174 191.955 131.614C192.02 131.374 192.221 131.2 192.428 131.067C192.636 130.938 192.865 130.834 193.044 130.664C193.19 130.528 193.295 130.325 193.284 130.129C193.565 130.642 193.827 131.163 194.056 131.695L193.965 131.566C193.601 131.462 193.197 131.647 192.967 131.954C192.742 132.26 192.669 132.663 192.691 133.047C192.935 132.888 193.175 132.726 193.419 132.567C193.714 132.371 194.038 132.131 194.096 131.78C194.33 132.33 194.526 132.896 194.668 133.468C194.406 133.361 194.1 133.387 193.841 133.509C193.568 133.638 193.346 133.867 193.179 134.122C193 134.399 192.876 134.713 192.822 135.038C192.978 134.813 193.244 134.687 193.506 134.617C193.769 134.543 194.042 134.51 194.297 134.406C194.497 134.325 194.683 134.185 194.785 133.996C194.905 134.639 194.949 135.293 194.901 135.962C194.799 135.806 194.628 135.696 194.442 135.666C194.166 135.622 193.885 135.722 193.641 135.866C193.197 136.132 192.825 136.571 192.756 137.088C193.273 136.963 193.791 136.833 194.311 136.708C194.512 136.66 194.734 136.586 194.85 136.431C194.832 136.567 194.814 136.708 194.785 136.848C194.705 137.232 194.588 137.609 194.432 137.967L194.344 137.897C193.976 137.831 193.597 138.064 193.423 138.4C193.244 138.732 193.244 139.138 193.343 139.504C193.437 139.87 193.623 140.202 193.805 140.535Z" fill="#598946"/>
</g>
<defs>
<clipPath id="clip0_852_8223">
<rect width="205" height="352.378" fill="white" transform="translate(34 30)"/>
</clipPath>
<clipPath id="clip1_852_8223">
<rect width="43" height="43" fill="white" transform="translate(275 22)"/>
</clipPath>
<clipPath id="clip2_852_8223">
<rect width="79" height="34" fill="white" transform="translate(218 161)"/>
</clipPath>
<clipPath id="clip3_852_8223">
<rect width="79" height="38" fill="white" transform="translate(170 117)"/>
</clipPath>
</defs>
</svg>
