<svg width="340" height="220" viewBox="0 0 340 220" fill="none" xmlns="http://www.w3.org/2000/svg">
<rect width="340" height="220" rx="10" fill="#001AFF" fill-opacity="0.1"/>
<mask id="mask0_852_8355" style="mask-type:alpha" maskUnits="userSpaceOnUse" x="0" y="0" width="340" height="220">
<rect width="340" height="220" rx="10" fill="#001AFF"/>
</mask>
<g mask="url(#mask0_852_8355)">
<path d="M44.8503 247.773H51.6445L51.6445 172.145H44.8503L44.8503 247.773Z" fill="#98AAC7"/>
<path d="M31.4876 193.608H58.2116C69.4792 193.608 78.6133 184.48 78.6133 173.22V165.355C78.6133 154.096 69.4792 144.968 58.2116 144.968H31.4876C20.2201 144.968 11.0859 154.096 11.0859 165.355V173.22C11.0859 184.48 20.2201 193.608 31.4876 193.608Z" fill="#F8BF1C"/>
<path d="M38.2844 193.607H65.0085C76.276 193.607 85.4102 184.48 85.4102 173.22V165.355C85.4102 154.095 76.276 144.968 65.0085 144.968H38.2844C27.0169 144.968 17.8828 154.095 17.8828 165.355V173.22C17.8828 184.48 27.0169 193.607 38.2844 193.607Z" fill="#FFD831"/>
<path d="M105.35 188.892H159.855V185.874H105.35V188.892Z" fill="#E5E5E5"/>
<path d="M141.762 188.892H200.626L213.837 148.833C214.422 147.061 213.101 145.25 211.252 145.25H159.276C157.426 145.25 155.784 146.438 155.199 148.192L141.781 188.892H141.762Z" fill="#E5E5E5"/>
<path d="M176.582 167.071C176.582 165.299 178.016 163.865 179.79 163.865C181.564 163.865 182.999 165.299 182.999 167.071C182.999 168.844 181.564 170.278 179.79 170.278C178.016 170.278 176.582 168.844 176.582 167.071Z" fill="white"/>
<path d="M194.806 188.893H147.473L148.473 185.856H195.787L194.806 188.893Z" fill="#E5E5E5"/>
<path d="M67.4599 82.9163C67.4599 82.9163 68.7621 90.0265 62.1755 94.9301C55.5888 99.8337 52.8334 104.794 54.3244 109.999C55.7964 115.223 42.6609 118.335 49.8326 124.333C57.0043 130.349 71.4232 128.765 71.4232 128.765L72.3103 105.944L76.802 93.8174L67.4788 82.8975L67.4599 82.9163Z" fill="black"/>
<path d="M68.6924 94.894C68.6924 94.894 66.3899 93.819 65.6539 90.6694C64.8989 87.5198 67.1259 87.7084 67.9186 89.4058C68.7113 91.0843 71.278 94.3848 68.7113 94.894H68.6924Z" fill="#FFD831"/>
<path d="M125.972 181.537C125.972 181.537 132.238 181.122 136.805 179.349C136.805 179.349 138.485 178.783 143.694 184.648C143.939 184.931 143.694 185.214 143.354 185.346C142.297 185.723 139.938 185.723 138.032 184.422C135.484 182.668 136.918 188.534 122.934 184.799L125.972 181.537Z" fill="#FFBDA5"/>
<path d="M85.9026 114.356C89.4884 114.13 92.5647 117.015 92.7723 120.787C92.7723 120.825 92.7723 120.901 92.7723 120.938L94.3765 167.579L129.933 182.063C131.216 182.648 131.802 184.214 131.254 185.571C130.745 186.797 127.612 185.93 126.442 185.609L86.6198 177.688C84.3173 177.066 82.7508 174.972 82.6187 172.596L82.5809 172.049L79.7689 121.598C79.5613 117.826 82.2979 114.583 85.8837 114.356H85.9026Z" fill="#FFBDA5"/>
<path d="M87.7178 113.169C87.7178 113.169 93.7571 114.395 94.4932 120.09C95.2103 125.786 95.0405 167.127 95.0405 167.127L126.539 179.537L124.331 186.062L85.2266 178.481L87.4347 127.672L87.7367 113.169H87.7178Z" fill="#65E0E0"/>
<path d="M95.9218 181.951C95.9218 181.951 103.112 181.498 108.34 179.555C108.34 179.555 110.265 178.952 116.229 185.326C116.512 185.628 116.248 185.949 115.852 186.081C114.644 186.496 111.945 186.496 109.756 185.062C106.849 183.158 108.472 189.532 92.4492 185.477L95.9218 181.932V181.951Z" fill="#FFBDA5"/>
<path d="M73.2017 125.126C75.7684 117.941 84.0347 93.366 84.1291 93.1208L70.3518 87.4062C69.9366 88.4247 61.9723 113.094 59.2734 120.619L73.2017 125.126Z" fill="#FFBDA5"/>
<path d="M120.876 224.141C120.876 224.141 122.933 218.068 122.933 253.657C122.933 274.007 130.105 317.008 130.105 317.008L139.239 318.856L146.316 217.729C146.316 217.729 143.863 205.168 130.463 202.188C117.044 199.208 75.3164 198.774 75.3164 198.774L124.178 223.009L120.895 224.122L120.876 224.141Z" fill="#FFBDA5"/>
<path d="M68.6373 92.366C66.2782 86.6514 68.0334 78.6359 68.9393 76.0709C69.0903 75.7126 69.279 75.3543 69.4489 74.9771C71.3362 71.62 77.6397 64.2269 85.7173 66.8484C86.9063 67.2633 87.9444 67.7726 88.8125 68.2818C94.984 72.1292 95.0595 79.5412 95.0217 84.2562C95.0217 84.2562 94.9462 86.2365 94.833 87.2549C94.078 93.4976 91.9265 98.3634 90.5111 101.023C89.5486 102.833 87.9821 104.304 86.0193 104.87C83.1129 105.719 80.7349 104.474 77.2057 102.739C76.715 102.456 76.2243 102.154 75.7713 101.853C71.7136 98.8349 68.6373 92.3471 68.6373 92.3471V92.366Z" fill="#FFBDA5"/>
<path d="M37.3978 206.62C40.8893 177.557 49.4953 182.724 49.0613 173.917C48.6461 165.109 40.6817 110.283 50.6277 108.906C65.6883 106.832 88.1282 111.754 88.902 114.168C88.902 114.168 96.2813 134.707 95.5075 140.704C95.0357 144.401 96.6399 145.966 91.9217 154.604C87.2223 163.242 87.3167 177.651 87.3167 177.651C87.3167 177.651 88.5057 181.14 86.1466 204.64L37.3789 206.639L37.3978 206.62Z" fill="#41C4CA"/>
<path d="M79.219 110.604C79.219 110.604 78.2943 115.715 75.5388 116.489C72.7834 117.281 64.97 116.357 61.4219 108.436L65.3852 103.551L74.6141 109.133L79.219 110.604Z" fill="#FFBDA5"/>
<path d="M40.2523 192.097C40.2523 192.097 34.5716 209.052 39.3842 222.933C42.9511 233.211 55.445 233.664 55.445 233.664L97.2486 234.89C97.2486 234.89 99.5511 229.458 93.3985 252.977C87.2459 276.495 81.2443 314.196 81.2443 314.196C81.2443 314.196 85.5851 316.44 90.0014 317.044L127.955 222.442C127.955 222.442 132.239 211.918 123.935 208.561C115.631 205.204 79.357 200.527 64.8815 198.509C50.406 196.491 40.2334 192.116 40.2334 192.116L40.2523 192.097Z" fill="#FFBDA5"/>
<path d="M49.9685 108.811C54.0828 108.566 57.612 111.697 57.8573 115.808C57.8573 115.846 57.8573 115.94 57.8573 115.978L59.7069 166.749L100.51 182.516C101.982 183.157 102.662 184.874 102.02 186.345C101.454 187.665 97.8491 186.741 96.4902 186.382L50.8177 177.763C48.1755 177.084 46.3826 174.802 46.2316 172.219L46.1939 171.615L42.9666 116.695C42.7213 112.583 45.8542 109.057 49.9685 108.811Z" fill="#FFBDA5"/>
<path d="M61.4223 164.128L58.4026 114.923C58.4026 114.923 58.6102 107.888 50.5892 107.53C42.5682 107.171 41.2282 114.338 41.3037 118.695C41.3792 123.051 45.2482 172.464 45.2482 172.464C45.2482 172.464 45.116 177.575 50.5892 178.5C56.0812 179.424 97.847 187.024 97.847 187.024L99.7532 180.31L61.4034 164.147L61.4223 164.128Z" fill="#65E0E0"/>
<path d="M94.9409 85.8783C94.9409 85.8783 93.3933 84.3507 90.5812 83.0871C87.7692 81.8234 80.7484 80.4089 78.6347 74.6566C78.6347 74.6566 76.3133 79.0133 73.2181 81.2576C70.123 83.502 70.6703 94.4785 69.2171 94.2899C67.745 94.1013 65.3481 89.1411 66.8202 79.0133C68.2923 68.8855 74.3317 64.9438 77.2947 65.7359C77.2947 65.7359 82.8433 62.5108 87.7126 66.0188C92.5629 69.5267 96.5828 71.507 96.5828 77.2027C96.5828 82.8985 96.5262 85.7463 94.9786 85.8972L94.9409 85.8783Z" fill="black"/>
<path d="M73.408 83.5023C73.408 83.5023 73.0872 82.3707 71.3698 81.5786C68.067 80.0509 68.1802 90.3673 71.6906 89.1603C75.201 87.9721 73.408 83.5023 73.408 83.5023Z" fill="#FFBDA5"/>
<path d="M148.184 221.047C148.184 221.047 113.307 228.27 96.5662 238.077C96.5662 238.077 95.5093 235.814 90.2627 235.173C85.016 234.513 53.1962 240.416 41.4761 228.968C29.756 217.539 40.4947 191.361 40.4947 191.361C40.4947 191.361 80.1656 192.738 87.3185 191.361C87.3185 191.361 86.5258 193.002 97.1702 196.435C107.814 199.848 134.123 199.075 141.012 206.619C147.901 214.163 148.184 221.047 148.184 221.047Z" fill="#373838"/>
<path d="M-13.0698 335.378H81.2383L81.2383 192.759H-13.0698L-13.0698 335.378Z" fill="#6D6E6E"/>
<path d="M299.139 335.378L297.742 195.173L191.469 193.721L191.771 335.378H299.139Z" fill="#6D6E6E"/>
<path d="M79.4382 335.378H89.0068L87.5725 193.721L78.0039 195.173L79.4382 335.378Z" fill="#767878"/>
<g style="mix-blend-mode:multiply" opacity="0.28">
<path d="M191.471 193.721L297.669 195.173L297.82 207.243H191.414L191.471 193.721Z" fill="#6D6E6E"/>
</g>
<g style="mix-blend-mode:multiply" opacity="0.28">
<path d="M87.6323 207.243H77.875L78.0071 195.173L87.5757 193.721L87.6323 207.243Z" fill="#6D6E6E"/>
</g>
<g style="mix-blend-mode:multiply" opacity="0.28">
<path d="M-16.0406 193.721L76.7577 195.173L78.0788 207.243H-16.5312L-16.0406 193.721Z" fill="#6D6E6E"/>
</g>
<path d="M229.03 335.379H306.088L307.938 194.514L228.992 194.212L229.03 335.379Z" fill="#767878"/>
<g style="mix-blend-mode:multiply" opacity="0.28">
<path d="M307.766 207.244H228.84V194.212L307.936 194.514L307.766 207.244Z" fill="#6D6E6E"/>
</g>
<path d="M216.462 188.893H-32V196.625H216.462V188.893Z" fill="#777A7A"/>
<path d="M318.001 188.893H69.5391V196.625H318.001V188.893Z" fill="#929696"/>
</g>
<g clip-path="url(#clip0_852_8355)">
<path d="M317 22H152V121H317V22Z" fill="#DFDFDF"/>
<path d="M317 22H152V32.0714H317V22Z" fill="#B8B8B8"/>
<path d="M174.512 40.3936H159.672V55.1776H174.512V40.3936Z" fill="#FFF765"/>
<path d="M174.522 51.6621L171.02 55.1514L174.522 55.1772V51.6621Z" fill="#FFCF00"/>
<path d="M196.106 40.3936H181.266V55.1776H196.106V40.3936Z" fill="#C971FF"/>
<path d="M196.113 51.6621L192.602 55.1514L196.113 55.1772V51.6621Z" fill="#8019FF"/>
<path d="M217.235 40.3936H202.395V55.1776H217.235V40.3936Z" fill="#009CFF"/>
<path d="M217.233 51.6621L213.73 55.1514L217.233 55.1772V51.6621Z" fill="#005FD2"/>
<path d="M174.512 62.1826H159.672V76.9667H174.512V62.1826Z" fill="#FF5E69"/>
<path d="M174.522 73.4512L171.02 76.949L174.522 76.9749V73.4512Z" fill="#FF1941"/>
<path d="M196.106 62.1824H181.266V76.9665H196.106V62.1824Z" fill="#628CFF"/>
<path d="M196.113 73.4509L192.602 76.9488L196.113 76.9746V73.4509Z" fill="#0060FF"/>
<path d="M171.596 44.917H162.559V46.1662H171.596V44.917Z" fill="white"/>
<path d="M193.209 43.875H184.172V45.1242H193.209V43.875Z" fill="white"/>
<path d="M193.209 46.5713H184.172V47.8205H193.209V46.5713Z" fill="white"/>
<path d="M214.338 45.5371H205.301V46.7863H214.338V45.5371Z" fill="white"/>
<path d="M214.338 48.2344H205.301V49.4836H214.338V48.2344Z" fill="white"/>
<path d="M193.209 49.3457H184.172V50.5949H193.209V49.3457Z" fill="white"/>
<path d="M171.596 66.3008H162.559V67.55H171.596V66.3008Z" fill="white"/>
<path d="M171.596 69.0059H162.559V70.2551H171.596V69.0059Z" fill="white"/>
<path d="M171.596 71.7715H162.559V73.0207H171.596V71.7715Z" fill="white"/>
<path d="M169.79 47.5792H164.367V48.8285H169.79V47.5792Z" fill="white"/>
<path d="M193.209 68.4199H184.172V69.6692H193.209V68.4199Z" fill="white"/>
<path d="M193.209 66.0596H184.172V67.3088H193.209V66.0596Z" fill="white"/>
<path d="M191.403 70.7725H185.98V72.0217H191.403V70.7725Z" fill="white"/>
<path d="M251.369 40.3936V41.3671H250.694V40.3936H249.994V41.3671H249.319V40.3936H248.619V41.3671H247.953V40.3936H247.244V41.3671H246.578V40.3936H246.111V41.3671H245.436V40.3936H244.736V41.3671H244.061V40.3936H243.352V41.3671H242.686V40.3936H241.986V41.3671H241.32V40.3936H240.611V41.3671H239.936V40.3936H239.21V41.3671H238.535V40.3936H237.826V41.3671H237.16V40.3936H236.459V41.3671H235.794V40.3936H235.084V41.3671H234.418V40.3936H233.761V41.3671H233.095V40.3936H232.386V41.3671H231.72V40.3936H231.02V41.3671H230.354V40.3936H229.645V41.3671H228.97V40.3936H228.27V70.4184H252.139V40.3936H251.369Z" fill="white"/>
<path d="M241.717 45.5371H230.664V46.1574H241.717V45.5371Z" fill="#C4C4C4"/>
<path d="M244.631 46.8379H230.664V47.4582H244.631V46.8379Z" fill="#C4C4C4"/>
<path d="M242.858 48.1299H230.664V48.7502H242.858V48.1299Z" fill="#C4C4C4"/>
<path d="M249.535 53.4717H230.664V54.092H249.535V53.4717Z" fill="#C4C4C4"/>
<path d="M249.535 54.7725H230.664V55.3928H249.535V54.7725Z" fill="#C4C4C4"/>
<path d="M249.535 56.1084H230.664V56.7287H249.535V56.1084Z" fill="#C4C4C4"/>
<path d="M249.535 57.4004H230.664V58.0207H249.535V57.4004Z" fill="#C4C4C4"/>
<path d="M247.139 60.209H230.664V60.8293H247.139V60.209Z" fill="#C4C4C4"/>
<path d="M244.631 61.252H230.664V61.8723H244.631V61.252Z" fill="#C4C4C4"/>
<path d="M253.453 40.3935C253.453 39.6698 252.865 39.084 252.139 39.084C251.412 39.084 250.824 39.6698 250.824 40.3935C250.824 41.1172 251.412 41.7031 252.139 41.7031C252.865 41.7031 253.453 41.1172 253.453 40.3935Z" fill="#FF5E69"/>
<path d="M190.9 82.7988V83.7724H190.226V82.7988H189.525V83.7724H188.851V82.7988H188.159V83.7724H187.484V82.7988H186.775V83.7724H186.109V82.7988H185.642V83.7724H184.968V82.7988H184.267V83.7724H183.592V82.7988H182.883V83.7724H182.217V82.7988H181.517V83.7724H180.851V82.7988H180.142V83.7724H179.476V82.7988H178.741V83.7724H178.066V82.7988H177.366V83.7724H176.691V82.7988H175.991V83.7724H175.325V82.7988H174.616V83.7724H173.95V82.7988H173.301V83.7724H172.627V82.7988H171.917V83.7724H171.251V82.7988H170.551V83.7724H169.885V82.7988H169.176V83.7724H168.501V82.7988H167.801V112.824H191.67V82.7988H190.9Z" fill="white"/>
<path d="M179.623 91.1562H189.059V90.5359H179.623V91.1562Z" fill="#C4C4C4"/>
<path d="M181.145 89.8633H189.066V89.243H181.145V89.8633Z" fill="#C4C4C4"/>
<path d="M182.969 88.5713H189.066V87.951H182.969V88.5713Z" fill="#C4C4C4"/>
<path d="M184.839 95.8945H174.418V96.5148H184.839V95.8945Z" fill="#C4C4C4"/>
<path d="M189.066 97.4023H170.195V98.0227H189.066V97.4023Z" fill="#C4C4C4"/>
<path d="M189.066 98.9014H170.195V99.5217H189.066V98.9014Z" fill="#C4C4C4"/>
<path d="M189.066 100.409H170.195V101.029H189.066V100.409Z" fill="#C4C4C4"/>
<path d="M186.67 101.916H170.195V102.536H186.67V101.916Z" fill="#C4C4C4"/>
<path d="M181.051 83.3076C181.051 82.5839 180.463 81.998 179.736 81.998C179.01 81.998 178.422 82.5839 178.422 83.3076C178.422 84.0313 179.01 84.6171 179.736 84.6171C180.463 84.6171 181.051 84.0313 181.051 83.3076Z" fill="#628CFF"/>
<path d="M229.582 40.3935C229.582 39.6698 228.994 39.084 228.268 39.084C227.541 39.084 226.953 39.6698 226.953 40.3935C226.953 41.1172 227.541 41.7031 228.268 41.7031C228.994 41.7031 229.582 41.1172 229.582 40.3935Z" fill="#FFF765"/>
<path d="M286.215 88.5892L279.513 71.1516C281.597 70.359 283.854 69.9023 286.215 69.9023C296.576 69.9023 304.973 78.2679 304.973 88.5892C304.973 98.9105 296.576 107.276 286.215 107.276C275.854 107.276 267.457 98.9105 267.457 88.5892C267.457 86.3406 267.881 84.1867 268.607 82.188L286.215 88.5892Z" fill="#FFF765"/>
<path d="M281.768 84.3244L264.16 77.9231C266.02 72.8486 270.006 68.8166 275.066 66.8867L281.768 84.3244Z" fill="#009CFF"/>
<path d="M282.955 106.974C274.151 105.432 267.457 97.7987 267.457 88.5888C267.457 86.3401 267.881 84.1863 268.607 82.1875L286.215 88.5888L282.955 106.974Z" fill="#FF5E69"/>
<path d="M297.092 46.666H276.129V48.6217H297.092V46.666Z" fill="white"/>
<path d="M297.092 52.1367H276.129V54.0924H297.092V52.1367Z" fill="white"/>
<path d="M297.092 57.7969H276.129V59.7526H297.092V57.7969Z" fill="white"/>
<path d="M272.523 46.666H269.574V48.6217H272.523V46.666Z" fill="#FFF765"/>
<path d="M272.523 52.1367H269.574V54.0924H272.523V52.1367Z" fill="#009CFF"/>
<path d="M272.523 57.7969H269.574V59.7526H272.523V57.7969Z" fill="#FF5E69"/>
<path d="M223.987 72.0469H214.699V74.0026H223.987V72.0469Z" fill="white"/>
<path d="M223.987 77.5088H214.699V79.4645H223.987V77.5088Z" fill="white"/>
<path d="M223.987 83.1787H214.699V85.1344H223.987V83.1787Z" fill="white"/>
<path d="M211.094 72.0471H208.145V74.0028H211.094V72.0471Z" fill="#FFF765"/>
<path d="M211.094 77.5088H208.145V79.4645H211.094V77.5088Z" fill="#009CFF"/>
<path d="M211.094 83.1787H208.145V85.1344H211.094V83.1787Z" fill="#FF5E69"/>
<path d="M223.987 88.3564H214.699V90.3122H223.987V88.3564Z" fill="white"/>
<path d="M211.094 88.3564H208.145V90.3122H211.094V88.3564Z" fill="#C971FF"/>
<path d="M214.329 101.796H208.422V112.712H214.329V101.796Z" fill="#628CFF"/>
<path d="M223.27 97.376H217.363V112.711H223.27V97.376Z" fill="#FF5E69"/>
<path d="M232.211 92.7676H226.305V112.712H232.211V92.7676Z" fill="#FFF765"/>
<path d="M241.338 88.3906H235.051V112.712H241.338V88.3906Z" fill="#009CFF"/>
<path d="M250.279 85.0908H243.992V112.712H250.279V85.0908Z" fill="#C971FF"/>
</g>
<defs>
<clipPath id="clip0_852_8355">
<rect width="165" height="99" fill="white" transform="translate(152 22)"/>
</clipPath>
</defs>
</svg>
