<svg width="42" height="42" viewBox="0 0 42 42" fill="none" xmlns="http://www.w3.org/2000/svg">
<g clip-path="url(#clip0_852_8123)">
<path d="M15.6992 26.25L21.0017 15.75L26.3042 26.25" stroke="#111111" stroke-width="2" stroke-linecap="round" stroke-linejoin="round"/>
<path d="M17.0273 23.6602H24.9898" stroke="#111111" stroke-width="2" stroke-linecap="round" stroke-linejoin="round"/>
<path d="M8.75 12.25V29.75" stroke="#111111" stroke-width="2" stroke-linecap="round" stroke-linejoin="round"/>
<path d="M33.25 29.75V12.25" stroke="#111111" stroke-width="2" stroke-linecap="round" stroke-linejoin="round"/>
<path d="M35 29.75H31.5C30.5335 29.75 29.75 30.5335 29.75 31.5V35C29.75 35.9665 30.5335 36.75 31.5 36.75H35C35.9665 36.75 36.75 35.9665 36.75 35V31.5C36.75 30.5335 35.9665 29.75 35 29.75Z" stroke="#111111" stroke-width="2" stroke-linecap="round" stroke-linejoin="round"/>
<path d="M10.5 29.75H7C6.0335 29.75 5.25 30.5335 5.25 31.5V35C5.25 35.9665 6.0335 36.75 7 36.75H10.5C11.4665 36.75 12.25 35.9665 12.25 35V31.5C12.25 30.5335 11.4665 29.75 10.5 29.75Z" stroke="#111111" stroke-width="2" stroke-linecap="round" stroke-linejoin="round"/>
<path d="M35 5.25H31.5C30.5335 5.25 29.75 6.0335 29.75 7V10.5C29.75 11.4665 30.5335 12.25 31.5 12.25H35C35.9665 12.25 36.75 11.4665 36.75 10.5V7C36.75 6.0335 35.9665 5.25 35 5.25Z" stroke="#111111" stroke-width="2" stroke-linecap="round" stroke-linejoin="round"/>
<path d="M10.5 5.25H7C6.0335 5.25 5.25 6.0335 5.25 7V10.5C5.25 11.4665 6.0335 12.25 7 12.25H10.5C11.4665 12.25 12.25 11.4665 12.25 10.5V7C12.25 6.0335 11.4665 5.25 10.5 5.25Z" stroke="#111111" stroke-width="2" stroke-linecap="round" stroke-linejoin="round"/>
<path d="M12.25 33.25H29.75" stroke="#111111" stroke-width="2" stroke-linecap="round" stroke-linejoin="round"/>
<path d="M29.75 8.75H12.25" stroke="#111111" stroke-width="2" stroke-linecap="round" stroke-linejoin="round"/>
</g>
<defs>
<clipPath id="clip0_852_8123">
<rect width="42" height="42" fill="white"/>
</clipPath>
</defs>
</svg>
