<svg width="42" height="42" viewBox="0 0 42 42" fill="none" xmlns="http://www.w3.org/2000/svg">
<g clip-path="url(#clip0_852_8189)">
<path d="M12.3914 38.1676C17.1339 38.1676 20.9664 34.3176 20.9664 29.5926C20.9664 24.8676 17.1164 21.0176 12.3914 21.0176C7.66641 21.0176 3.81641 24.8676 3.81641 29.5926" stroke="#111111" stroke-width="2" stroke-linecap="round" stroke-linejoin="round"/>
<path d="M12.3919 38.1678C11.0969 38.1678 9.87188 37.8878 8.76938 37.3803L3.48438 38.5003L4.58687 33.2153C4.07937 32.1128 3.78188 30.8878 3.78188 29.5928" stroke="#111111" stroke-width="2" stroke-linecap="round" stroke-linejoin="round"/>
<path d="M11.48 21.0526C10.85 19.6176 10.5 18.0426 10.5 16.4151C10.5 9.38012 16.8 3.74512 24.5 3.74512C32.2 3.74512 38.5 9.38012 38.5 16.4151C38.5 20.5626 36.295 24.2201 32.9 26.5301C32.9 27.8601 32.9 29.6451 32.9 31.5176L27.405 28.8051C26.46 28.9801 25.4975 29.0851 24.5 29.0851C23.2575 29.0851 22.0675 28.9451 20.9125 28.6651" stroke="#111111" stroke-width="2" stroke-linecap="round" stroke-linejoin="round"/>
</g>
<defs>
<clipPath id="clip0_852_8189">
<rect width="42" height="42" fill="white"/>
</clipPath>
</defs>
</svg>
