<svg width="42" height="42" viewBox="0 0 42 42" fill="none" xmlns="http://www.w3.org/2000/svg">
<g clip-path="url(#clip0_852_8152)">
<path d="M10.7556 5.75518L5.76869 10.7421C5.08527 11.4255 5.08527 12.5335 5.76869 13.2169L28.785 36.2333C29.4684 36.9167 30.5765 36.9167 31.2599 36.2333L36.2468 31.2464C36.9302 30.563 36.9302 29.4549 36.2468 28.7715L13.2304 5.75518C12.547 5.07177 11.439 5.07177 10.7556 5.75518Z" stroke="#111111" stroke-width="2" stroke-linecap="round" stroke-linejoin="round"/>
<path d="M24.7266 17.2725L22.1016 19.8975" stroke="#111111" stroke-width="2" stroke-linecap="round" stroke-linejoin="round"/>
<path d="M29.2578 21.8052L27.5078 23.5552" stroke="#111111" stroke-width="2" stroke-linecap="round" stroke-linejoin="round"/>
<path d="M33.4258 25.9702L30.8008 28.5952" stroke="#111111" stroke-width="2" stroke-linecap="round" stroke-linejoin="round"/>
<path d="M20.5625 13.1074L18.8125 14.8574" stroke="#111111" stroke-width="2" stroke-linecap="round" stroke-linejoin="round"/>
<path d="M16.0312 8.5752L13.4062 11.2002" stroke="#111111" stroke-width="2" stroke-linecap="round" stroke-linejoin="round"/>
<path d="M21.6133 14.1576L29.4183 6.35265C30.7833 4.98765 32.9883 5.00515 34.3533 6.35265L35.6133 7.61265C36.9783 8.97765 36.9783 11.1826 35.6133 12.5476L27.8083 20.3526" stroke="#111111" stroke-width="2" stroke-linecap="round" stroke-linejoin="round"/>
<path d="M14.1565 21.6128L7.10396 28.6653C6.87646 28.8928 6.71896 29.1553 6.64896 29.4703L5.35396 34.4928C5.02146 35.7878 6.19396 36.9778 7.50646 36.6278L12.5115 35.3153C12.809 35.2453 13.089 35.0878 13.299 34.8603L20.3515 27.8078" stroke="#111111" stroke-width="2" stroke-linecap="round" stroke-linejoin="round"/>
<path d="M26.4609 9.32764L32.6559 15.5226" stroke="#111111" stroke-width="2" stroke-linecap="round" stroke-linejoin="round"/>
</g>
<defs>
<clipPath id="clip0_852_8152">
<rect width="42" height="42" fill="white"/>
</clipPath>
</defs>
</svg>
