<svg width="42" height="42" viewBox="0 0 42 42" fill="none" xmlns="http://www.w3.org/2000/svg">
<g clip-path="url(#clip0_852_8176)">
<path d="M7 21.4727V14.1577C7 11.9702 8.3475 10.0102 10.395 9.24019L25.0075 3.72769C27.3 2.87019 29.75 4.55019 29.75 7.00019V12.8627" stroke="#111111" stroke-width="2" stroke-linecap="round" stroke-linejoin="round"/>
<path d="M18.6375 36.7503H31.5C34.3875 36.7503 36.75 34.3878 36.75 31.5003V18.1128C36.75 15.2078 34.405 12.8628 31.5 12.8628H10.5C8.5575 12.8628 7 14.4378 7 16.3628" stroke="#111111" stroke-width="2" stroke-linecap="round" stroke-linejoin="round"/>
<path d="M30.75 24.6753C30.19 24.6753 29.75 25.1153 29.75 25.6753C29.75 26.2353 30.19 26.6753 30.75 26.6753C31.31 26.6753 31.75 26.2353 31.75 25.6753C31.75 25.1153 31.31 24.6753 30.75 24.6753Z" fill="#111111"/>
<path d="M10.2383 31.7628L16.0133 25.9878L10.2383 31.7628Z" fill="#111111"/>
<path d="M10.2383 31.7628L16.0133 25.9878" stroke="#111111" stroke-width="2" stroke-linecap="round" stroke-linejoin="round"/>
<path d="M16.5559 31.1145C16.9293 31.4878 16.9293 32.1278 16.5559 32.5545C16.1826 32.9278 15.5426 32.9278 15.1159 32.5545C14.7426 32.1811 14.7426 31.5411 15.1159 31.1145C15.4893 30.7411 16.1293 30.7411 16.5559 31.1145Z" fill="#111111"/>
<path d="M10.7228 25.2973C11.0924 25.6669 11.0924 26.3004 10.7228 26.7228C10.3532 27.0924 9.71968 27.0924 9.29731 26.7228C8.87494 26.3532 8.92773 25.7197 9.29731 25.2973C9.66689 24.8749 10.3004 24.9277 10.7228 25.2973Z" fill="#111111"/>
<path d="M13.125 38.5C18.41 38.5 22.75 34.16 22.75 28.875C22.75 23.59 18.41 19.25 13.125 19.25C7.84 19.25 3.5 23.59 3.5 28.875C3.5 31.0275 4.235 33.0225 5.4425 34.6325C7.1925 36.9775 9.9925 38.5 13.125 38.5Z" stroke="#111111" stroke-width="2" stroke-linecap="round" stroke-linejoin="round"/>
</g>
<defs>
<clipPath id="clip0_852_8176">
<rect width="42" height="42" fill="white"/>
</clipPath>
</defs>
</svg>
