<?xml version="1.0" encoding="UTF-8"?>
<svg id="_레이어_4" data-name="레이어 4" xmlns="http://www.w3.org/2000/svg" viewBox="0 0 280 235">
  <defs>
    <style>
      .cls-1 {
        fill: #330515;
      }

      .cls-1, .cls-2, .cls-3, .cls-4, .cls-5, .cls-6, .cls-7, .cls-8, .cls-9, .cls-10, .cls-11, .cls-12, .cls-13, .cls-14, .cls-15 {
        stroke-width: 0px;
      }

      .cls-2 {
        fill: #e5294a;
      }

      .cls-3 {
        opacity: .95;
      }

      .cls-3, .cls-6 {
        fill: #864c3c;
      }

      .cls-4 {
        fill: #d11535;
      }

      .cls-5 {
        fill: #f2a39c;
      }

      .cls-7 {
        fill: #0e5952;
      }

      .cls-8 {
        fill: #fff;
      }

      .cls-9 {
        fill: #5c0922;
      }

      .cls-10 {
        fill: #a3102e;
      }

      .cls-11 {
        fill: #f9a7b9;
      }

      .cls-12 {
        fill: #221101;
      }

      .cls-13 {
        fill: #f78699;
      }

      .cls-14 {
        fill: #e6e5e5;
      }

      .cls-15 {
        fill: #111;
      }
    </style>
  </defs>
  <g>
    <path class="cls-10" d="M242.345001,190.848999l-1.326004-2.563995c-.358994-.695007-1.076996-1.130005-1.860001-1.130005h-16.811996c-1.156006,0-2.093002.934998-2.093002,2.087997v28.378006c0,1.153992.936996,2.087997,2.093002,2.087997h50.560013c1.155975,0,2.092987-.934998,2.092987-2.087997v-23.553009c0-1.153992-.937988-2.088989-2.092987-2.088989h-28.703018c-.78299,0-1.500992-.436005-1.860001-1.130005h.001007Z"/>
    <path class="cls-4" d="M222.347,195.729004h39.555008c7.229004,0,13.097992,5.856995,13.097992,13.070999v17.334991c0,1.153-.937988,2.089005-2.092987,2.089005h-50.560013c-1.156006,0-2.093002-.936005-2.093002-2.089005v-28.317001c0-1.153.936996-2.088989,2.093002-2.088989Z"/>
  </g>
  <g>
    <path class="cls-2" d="M5,73.115196c1.96077,14.700806,8.601,28.899803,19.921499,40.1968,11.995501,11.970001,27.254301,18.695999,42.9191,20.179001v-60.375801H5Z"/>
    <path class="cls-4" d="M148.348083,120.391174c.137756,2.376465.22168,4.794922.224915,7.274841v.17395c-.012207,9.40741-1.023743,18.056091-2.873047,25.988342l12.540039,12.513367v-36.07959l-9.891907-9.870911Z"/>
    <path class="cls-13" d="M84.794312,116.564026c-3.378723.653992-6.839417.983948-10.286133.983948-3.446655,0-6.907349-.329956-10.286072-.983948-3.409485-.65802-6.765015-1.651001-9.973389-2.949036-6.674622-2.700989-12.664917-6.671997-17.806091-11.802002-5.14032-5.128967-9.119629-11.107605-11.826111-17.767212-1.30072-3.201599-2.295898-6.549988-2.955994-9.952209-.654602-3.371643-.986023-6.824951-.986023-10.264465,0-3.439392.331421-6.892822.986023-10.264404.660095-3.402283,1.654358-6.750671,2.955994-9.952271,2.706482-6.660522,6.685791-12.638245,11.826111-17.767639,5.140259-5.129517,11.13147-9.100281,17.805176-11.801208,3.208374-1.297852,6.563904-2.291077,9.973328-2.949768,3.378784-.653137,6.839355-.983887,10.286194-.983887h.000854c3.446716,0,6.90741.33075,10.286133.983887,3.409485.658691,6.765015,1.651001,9.973267,2.949768,6.674438,2.700928,12.665405,6.671692,17.806396,11.801208,5.140015,5.129395,9.119019,11.108032,11.82605,17.767639,1.300964,3.201599,2.295959,6.549988,2.955994,9.952271.653992,3.371582.985962,6.825012.985962,10.264404,0,.684998-.023193,1.370483-.049438,2.055786,1.612732,1.940491,3.150574,3.965698,4.598389,6.087463,2.456726-17.639526-3.104309-36.177673-16.695923-49.741638-11.512024-11.487122-26.599304-17.230713-41.686829-17.230713s-30.174988,5.743591-41.686401,17.230713c-23.022766,22.974182-23.022766,60.222656,0,83.198303,11.511414,11.487,26.598938,17.22998,41.686401,17.22998,4.878784,0,9.755493-.610168,14.513306-1.811218v-5.293091c-1.396423.388794-2.805237.734924-4.227173,1.009338Z"/>
    <path class="cls-13" d="M39.66803,77.949219h.000854c-1.825806-4.493896-2.752197-9.244324-2.752197-14.120117,0-2.795593.30542-5.549377.908691-8.238098l-6.612183-2.371033c-2.459778,10.03772-1.373291,20.764832,3.260498,30.194031.968323,1.970581,3.499817,2.567078,5.249207,1.23761,1.323914-1.00531,1.756897-2.804932,1.024109-4.295227-.387329-.786865-.746704-1.5896-1.078979-2.407166Z"/>
  </g>
  <g>
    <path class="cls-13" d="M239.539993,75.5354h-14.139999v14.109901h9.147003l4.992996-4.982704v-9.127197Z"/>
    <path class="cls-13" d="M257.123993,75.5354h-14.139999v14.109901h9.14801l4.991989-4.982704v-9.127197Z"/>
    <path class="cls-11" d="M234.554993,89.645103v-4.975204h4.985001l-4.985001,4.975204Z"/>
    <path class="cls-11" d="M252.139008,89.645103v-4.975204h4.984985l-4.984985,4.975204Z"/>
  </g>
  <g>
    <path class="cls-3" d="M193.28302,189.757019c0,1.003967-.118042,2.004944-.353027,2.980957l-.621399,2.588745c3.309448-3.285583,6.353271-6.895264,9.111694-10.811707l-8.137268.880981v4.361023Z"/>
    <path class="cls-15" d="M183.085007,68.879097l.781998-.728394c.313995-.304703.863998-.9179,1.203995-1.862801l.011993-.030602c.420013-1.190201-.227997-2.491802-1.423996-2.898701l-8.209991-2.7882c-1.210999-.411602-2.547012-.204399-3.577011.554699l-.828995.611301s-5.559006-.939301-7.610992,5.622799c-1.795013,5.742599,2.903,13.082298,2.903,13.082298l2.412994,4.085106,14.337006-15.647507Z"/>
    <path class="cls-6" d="M174.093002,89.289299l.959991-2.813202c.160004-.4673.667999-.716293,1.136002-.557495l2.300003.781395c1.326004.4506,2.766006-.257401,3.216995-1.579399l1.158005-3.394897,1.917007-.4487c1.175995-.276001,1.723999-1.6306,1.069-2.643303l-1.818008-2.810394c-.115997-.180206-.110992-.411606.012009-.587204l.825989-1.181801c.401001-.572296.508011-1.297897.290009-1.961197l-1.294006-3.9412-3.843994-1.305298c-1.38501-.4711-2.824997.552795-2.833008,2.014198l.311005,3.001801c.035004.334496-.192993.639198-.522995.7024l-1.852005.355896-8.791,7.520805-3.710999,10.879494,9.660004,3.280602,1.810989-5.3125h-.000992Z"/>
    <path class="cls-6" d="M175.373001,73.963402l-.249008-1.043304s-.365997-1.833099-2.276993-1.874001c-2.119003-.045494-3.311005,3.2416-1.990997,6.777603l4.51799-3.861198-.000992.0009Z"/>
    <path class="cls-9" d="M182.549011,125.526001c0-15.762024-4.590027-27.241089-5.983032-30.362793-.258972-.579712-.366943-1.216125-.314941-1.849792l.313965-3.921631c.012024-.131897-.042969-.261108-.145996-.345581-4.23999-3.482178-9.682007-6.275024-11.107971-6.981995-.197021-.097595-.436035-.020386-.539001.173706l-1.564026,2.93866-.002014-.001892c-2.262207,2.59314-3.848389,5.693542-4.966003,8.771118v49.342163h24.309021v-17.761963Z"/>
    <path class="cls-12" d="M208.195557,173.000916c2.523132-5.201538,4.601624-10.833191,6.169556-16.908203l-8.716125-12.926697c-2.156006-3.136047-5.722961-5.01001-9.534973-5.01001h-37.874023v18.993958h32.009033c.690979,0,1.252991.561035,1.252991,1.251038v26.773987c0,.286011.232971.518982.518982.518982h8.570984c2.840881-3.884766,5.373352-8.103577,7.578003-12.640625v-.09137l.025574.03894Z"/>
    <path class="cls-6" d="M180.326996,122.971001l-11.112,6.853996.542007.625c1.860992,2.145996,4.565002,3.378998,7.40799,3.378998h26.596008c1.237,0,2.462006-.256989,3.595993-.751999l2.402008-1.050995c.966003-.421997,2.063004-.434998,3.039993-.037003l4.557999,1.910004c.367004.154999.792007.033997,1.02301-.289001.259995-.363998.194992-.865997-.151001-1.151001l-.862-.709,1.528992.182999c.25.029007.498001-.067993.661011-.259995.304993-.359009.204987-.906006-.207001-1.13501l-6.92601-3.838997c-.841003-.465996-1.825989-.602997-2.763-.383995l-6.927994,1.623001c-.322998.076004-.658005.085999-.985001.028l-19.662003-3.462006c-.531006-.093994-1.000992-.400002-1.300003-.848l-.457993-.683998-.001007-.000999Z"/>
    <path class="cls-14" d="M242.397995,101.056l-.375-.115997c-.145996-.045006-.565002.036995-.610992.181999l-10.044006,32.344002c-.089996.291-.360001.48999-.664993.48999h-32.755997c-.14801,0-.269012.12001-.269012.268005v.423996c0,.656998.533005,1.190002,1.192001,1.190002h33.049011c.487991,0,.90799-.293991,1.092987-.714005l.017014.005005,10.132996-32.627998c.188995-.608002-.153-1.254997-.763-1.444l-.001007-.000999Z"/>
  </g>
  <g>
    <path class="cls-7" d="M147.124939,161.776855c.100708-.018494.202576-.029358.301697-.05658.016479-.004517.03186-.012939.048279-.0177.556396-.161316,1.082214-.456787,1.521118-.894592,1.389954-1.386963,1.709961-6.731018,1.709961-6.731018,0,0-.001953.000122-.002014.000122v-.000122s-.071045.004517-.188538.013367c-.026001.001953-.050659.003845-.081665.006287-.030396.00238-.063416.005127-.09845.008057-.815308.066589-2.845337.272461-4.465576.748169-.016724.004883-.033447.009705-.050049.014709-.125122.037354-.246887.076172-.365906.116882-.006042.002075-.012512.003845-.018555.00592-.011719.004028-.022034.008667-.033691.012756-.136047.047546-.268127.096619-.393494.148865-.0354.014648-.067322.030518-.101746.045471-.102783.045105-.204834.090393-.298035.138977-.075134.038757-.140686.080566-.20874.121643-.047485.028931-.100159.056213-.143921.086304-.111755.076172-.212463.155579-.296631.239624h.002014c-.150146.149719-.283936.30957-.401611.477234-.04364.062195-.073792.130249-.112976.194458-.066406.108948-.137634.215881-.191223.329895-.039001.082886-.062622.170349-.094849.255432-.038208.100952-.083496.19989-.112183.303284-.026611.096008-.037109.194519-.055542.292053-.018127.095886-.044006.190552-.054138.287415-.011108.106567-.005737.213623-.007263.320618-.001282.089233-.010864.178223-.005371.267273.006653.108887.029907.216125.04657.324158.013306.086365.018311.173645.037964.259033.025146.108948.066895.213989.102417.320557.027161.081482.045959.164978.079163.24469.042297.101501.100952.196899.153076.294922.041504.078064.074219.159546.121948.234985.165039.259949.126099.598755-.091919.815857l-.975647.973267c-.080078.079224-.216431.022644-.216431-.089111v-6.341003c0-.296997.205017-.557007.494019-.619019,1.661011-.357971,2.903015-1.830017,2.903015-3.593994,0-2.031006-3.684998-6.174988-3.684998-6.174988,0,0-3.684998,4.143982-3.684998,6.174988,0,1.765991,1.248962,3.242004,2.912964,3.596008.307007.065002.528015.330994.528015.644958v6.356018c0,.113037-.135986.169006-.216003.088989l-.97998-.97699c-.218018-.21698-.255981-.555969-.091003-.815979.869995-1.372986.705994-3.210999-.494019-4.40802-1.390015-1.386963-6.744995-1.70697-6.744995-1.70697,0,0,.319031,5.343994,1.710022,6.730957,1.201965,1.200012,3.049988,1.361023,4.427002.486023.260986-.164978.60199-.127014.820007.090027l1.531006,1.528992c.023987.023987.037964.054993.037964.088989v1.039001h.530029v-1.083008c0-.031067.013428-.060974.03479-.08374l1.538208-1.535339c.219238-.210144.553528-.245667.810974-.082947.153564.097717.314819.177917.478577.249817.016724.007324.031982.018433.048828.025513.163818.06897.332703.120422.503235.163818.022278.005676.043396.015991.065796.021179.156555.036682.315796.05542.475159.070679.03772.003601.074707.013977.112488.016418.136719.008728.27356-.000427.4104-.007324.060791-.003052.121765.002441.182312-.003662.095398-.009766.188599-.035156.283142-.052551Z"/>
    <path class="cls-14" d="M142.18103,164.078003h-7.239014c-.28302,0-.505981.237976-.488037.52002l.938049,13.998962c.013855.209656.160645.373596.353394.42926,2.233765-3.782288,4.211426-7.824585,5.905579-12.130737.176453-.448486.359802-.890625.530029-1.344849.181641-.484741.35022-.981384.524719-1.472656h-.524719Z"/>
  </g>
  <g>
    <path class="cls-14" d="M104.576904,191.542969c-.462524.062988-.823914.441956-.823914.921021v17.177734c6.374512-3.474121,12.298218-7.690247,17.616028-12.669983v-5.428772h-16.792114Z"/>
    <path class="cls-15" d="M108.818001,119.508003c-.762001-3.325005-1.447998-6.701004-2.395004-9.962006-1.239998-4.272995-1.925995-8.773994-5.718994-11.668495-1.536201-1.1716-3.437401-1.881401-5.362801-1.937202v-.001801h-.039101v.001801c-1.9254.055801-3.8265.765602-5.362801,1.937202-3.792999,2.893501-4.479202,7.3955-5.719299,11.668495-.946899,3.261002-1.632202,6.637001-2.394699,9.962006-.403099,1.755997-.289505,3.599998.381699,5.272995,2.4515,6.110008,10.004097,4.958,10.004097,4.958v-1h6.221199v1s7.552704,1.152008,10.0037-4.958c.672005-1.672997.784004-3.516998.382004-5.272995Z"/>
    <path class="cls-5" d="M100.168999,123.777c-.136002-1.499001.470001-3.179001,1.285004-4.468002,1.378998-2.179001,1.917999-5.137001,1.917999-8.397995,0-3.607002-.729004-6.846001-2.376999-9.068001-1.622604,1.209999-3.690506,2.545998-6.2164,3.75-2.528702,1.204994-4.878601,1.973-6.860802,2.474998-.144302.912003-.067101,2.017998-.067101,2.997002,0,3.259995.693703,6.064995,2.072502,8.243996,1.5,2.371002,2.288498,5.957001-.775505,7.453003h13.0923c-1.362999-.675003-1.959-1.771004-2.069-2.986l-.001999.000999Z"/>
    <path class="cls-10" d="M104.498001,108.190002h-.677002c-.375,0-.740997-.136002-1.014-.393005-.639-.603996-1.500999-.974998-2.451996-.974998-1.526802,0-2.8293.957001-3.3395,2.303001-.061501.162003-.253304.226997-.405006.142998-.280296-.154999-.642494-.278999-1.080093-.268997-.394707.010002-.724304.127998-.983101.272003-.149002.081993-.337105.011993-.396599-.148003-.5103-1.345001-1.812805-2.301003-3.339706-2.301003-.788597,0-1.565094.264-2.187897.747002-.297997.232002-.5354.510002-.920799.594002-.350098.076996-.724403.025002-1.073502.025002-.155502,0-.296097.105995-.325897.257996-.039101.206001.117294.386002.316597.386002h.039101c.423599,0,.749397.387001.661003.800003-.060501.280998-.087502.573997-.077301.875999.061501,1.808998,1.507401,3.306999,3.316399,3.43,2.085503.141998,3.821899-1.503006,3.821899-3.553001,0-.051003-.001801-.101006-.0037-.150002.004601-.006004.0112-.010002.0158-.015999.074501-.094002.4795-.560005,1.152603-.576004.730896-.016998,1.176895.515999,1.225296.576004.0056.007996.0121.012001.0186.018997-.001801.049004-.0037.097-.0037.147003,0,2.051994,1.738304,3.698997,3.824501,3.554001,1.787003-.123001,3.222-1.586006,3.310997-3.370003.015999-.322998-.009995-.636002-.074997-.934998-.090004-.413002.237-.800003.661003-.800003.199997,0,.356995-.181999.314995-.389-.029999-.151001-.169998-.254997-.323997-.254997ZM90.810097,113.305c-1.612595,0-2.9254-1.308998-2.9254-2.919998,0-1.610001,1.311905-2.918999,2.9254-2.918999s2.925301,1.308998,2.925301,2.918999c0,1.611-1.311798,2.919998-2.925301,2.919998ZM100.355003,113.305c-1.612503,0-2.925201-1.308998-2.925201-2.919998,0-1.610001,1.311798-2.918999,2.925201-2.918999,1.613998,0,2.924995,1.308998,2.924995,2.918999,0,1.611-1.310997,2.919998-2.924995,2.919998Z"/>
    <path class="cls-5" d="M65.0392,223.794006c2.384399,1.820999,5.891602,4.199997,9.118599.419998,3.083603-3.612,3.285599-5.882004,5.624405-7.481003.017693-2.096008.231796-3.227005.231796-3.227005l-5.681198-4.828995-3.094803,4.123993s-3.185997,4.591003-8.054398,8.473999c.094997.582001.4972,1.483002,1.855598,2.519012Z"/>
    <path class="cls-1" d="M79.781601,216.733994c-2.338799,1.598999-2.540802,3.869003-5.624397,7.481003-3.226105,3.779999-6.733307,1.400009-9.118607-.419998-1.358398-1.037003-1.760597-1.936996-1.855598-2.520004-1.233597.984009-2.576199,1.924011-4.001598,2.730011-7.048901,3.98999,7.673603,9.849991,14.133198,2.449997,1.262505-1.447006,2.619003-2.193008,3.997902-3.214996,0,0,2.642303-1.452011,2.502602-4.671005-.0298-.675003-.038101-1.287994-.033501-1.835007Z"/>
    <path class="cls-1" d="M116.458008,176.455017h.002014l-8.309021-16.828003-14.338867.690002-4.790649-.291565v.493896l-6.38269-.388367-8.224792,16.658997c-2.507446,5.079651-.416931,10.787537,3.94043,13.425171l-7.316101,21.40387c-.116028.339966.065369.709961.406372.825989l12.445984,4.239014c.340088.115967.710815-.065002.827087-.405029l4.303711-12.591125v6.488098c0,.263977.031982.516968.078125.764038.465576,2.49408,3.152039,4.047607,5.618896,3.023987,3.09729-1.283691,6.110718-2.728821,9.034485-4.322266v-17.177734c0-.073975.023071-.139771.039368-.208191.147034-.324646.470642-.552795.851624-.552795h2.343018c3.457458,0,6.36438-1.637634,8.216736-4.057617,2.420837-2.996338,3.184631-7.28009,1.254272-11.190369Z"/>
    <path class="cls-10" d="M129.707001,161.207001l-9.510002-27.195999c-2.125-5.762009-8.297997-8.960999-14.243996-7.384003l-1.385002.368004c-.822998.217995-1.639.108994-2.330002-.232002h-13.091995c-.687103.334999-1.497101.441002-2.313606.223l-1.385399-.366997c-5.946602-1.578003-12.118401,1.621994-14.243996,7.384003l-9.509705,27.195999c-1.803398,4.886993,1.821102,10.071991,7.039604,10.071991,2.969101,0,5.658897-1.748001,6.859894-4.457001l5.535103-12.483994h13.684402l1.776398.009003h13.684303l5.534996,12.483994c1.201004,2.709,3.890999,4.456009,6.860001,4.456009,5.219002,0,8.841995-5.185013,7.039993-10.072006h-.000992Z"/>
    <path class="cls-14" d="M78.2061,140.725998h34.9869c1.664001,0,3.014,1.348007,3.014,3.007004v24.099991c0,.651001-.529999,1.179001-1.181999,1.179001h-38.6521c-.651703,0-1.181503-.528-1.181503-1.179001v-24.099991c0-1.660004,1.350998-3.007004,3.013802-3.007004h.0009Z"/>
    <path class="cls-8" d="M95.698997,156.748001c1.039703,0,1.8825-.841003,1.8825-1.878998,0-1.037003-.842796-1.878998-1.8825-1.878998-1.039696,0-1.882599.841995-1.882599,1.878998,0,1.037994.842903,1.878998,1.882599,1.878998Z"/>
  </g>
</svg>