<?xml version="1.0" encoding="UTF-8"?>
<svg id="_레이어_1" data-name="레이어 1" xmlns="http://www.w3.org/2000/svg" xmlns:xlink="http://www.w3.org/1999/xlink" viewBox="0 0 280 235">
  <defs>
    <style>
      .cls-1 {
        fill: #b9affa;
      }

      .cls-1, .cls-2, .cls-3, .cls-4, .cls-5, .cls-6, .cls-7, .cls-8, .cls-9, .cls-10, .cls-11, .cls-12, .cls-13, .cls-14, .cls-15, .cls-16, .cls-17, .cls-18 {
        stroke-width: 0px;
      }

      .cls-19 {
        mask: url(#mask-2);
      }

      .cls-2 {
        fill: #f2a39c;
      }

      .cls-3 {
        fill: #b5b3fa;
      }

      .cls-4 {
        fill: #da5447;
      }

      .cls-5 {
        fill: #6448d4;
      }

      .cls-6 {
        fill: #864c3c;
      }

      .cls-7 {
        fill: #0e5952;
      }

      .cls-8 {
        fill: #d3cdfa;
      }

      .cls-9 {
        fill: #fff;
      }

      .cls-10 {
        fill: #210b4d;
      }

      .cls-11 {
        fill: #7465fa;
      }

      .cls-12 {
        fill: #e0807e;
      }

      .cls-13 {
        fill: #360e80;
      }

      .cls-14 {
        fill: #350d80;
      }

      .cls-20 {
        mask: url(#mask-1);
      }

      .cls-21 {
        mask: url(#mask);
      }

      .cls-15 {
        fill: #7a6cf2;
      }

      .cls-16 {
        fill: #4714a6;
      }

      .cls-17 {
        fill: #e6e5e5;
      }

      .cls-18 {
        fill: #111;
      }
    </style>
    <mask id="mask" x="153.503998" y="8.29712" width="63.240999" height="213.263885" maskUnits="userSpaceOnUse">
      <g id="mask1_550_2933" data-name="mask1 550 2933">
        <path class="cls-9" d="M212.972,8.29712h-38.720993c-2.084,0-3.772003,1.667109-3.772003,3.72358v205.817297c0,2.056,1.688004,3.723007,3.772003,3.723007h38.720993c2.082993,0,3.772003-1.667007,3.772003-3.723007V12.0207c0-2.056471-1.689011-3.72358-3.772003-3.72358Z"/>
      </g>
    </mask>
    <mask id="mask-1" x="56.246101" y="8.29712" width="46.317924" height="213.263885" maskUnits="userSpaceOnUse">
      <g id="mask2_550_2933" data-name="mask2 550 2933">
        <path class="cls-9" d="M98.791801,8.29712h-38.720802c-2.083298,0-3.772198,1.667109-3.772198,3.72358v205.817297c0,2.056,1.6889,3.723007,3.772198,3.723007h38.720802c2.083199,0,3.772202-1.667007,3.772202-3.723007V12.0207c0-2.056471-1.689003-3.72358-3.772202-3.72358Z"/>
      </g>
    </mask>
    <mask id="mask-2" x="113.359001" y="8" width="48.527992" height="213.264008" maskUnits="userSpaceOnUse">
      <g id="mask0_550_2933" data-name="mask0 550 2933">
        <path class="cls-9" d="M155.852005,8h-38.721008c-2.083,0-3.771996,1.66711-3.771996,3.7236v205.816393c0,2.057007,1.688995,3.724014,3.771996,3.724014h38.721008c2.084,0,3.771988-1.667007,3.771988-3.724014V11.7236c0-2.05649-1.687988-3.7236-3.771988-3.7236Z"/>
      </g>
    </mask>
  </defs>
  <path class="cls-9" d="M155.852005,8h-38.721008c-2.083,0-3.771996,1.66711-3.771996,3.7236v205.816393c0,2.057007,1.688995,3.724014,3.771996,3.724014h38.721008c2.084,0,3.771988-1.667007,3.771988-3.724014V11.7236c0-2.05649-1.687988-3.7236-3.771988-3.7236Z"/>
  <path class="cls-17" d="M116.223999,117.060997h12.675995c.526001,0,.999008-.314995,1.195999-.796997l7.391006-18.113197c.430008-1.052803,1.464996-1.742599,2.615005-1.742599h27.042999c.80899,0,1.360001.806198,1.057999,1.546196l-8.283005,20.298599c-.108994.268005-.373001.443001-.664993.443001h-42.313004c-.517998,0-.938004-.415001-.938004-.926003v-.490997c0-.120003.098999-.218002.221001-.218002h-.000999Z"/>
  <path class="cls-9" d="M152.151993,108.713997c.572006-.979996.462006-2.100998-.247986-2.505997-.709-.403999-1.749008.061996-2.322006,1.042-.572998.978996-.462006,2.100998.248001,2.504997.709.405006,1.748993-.061996,2.321991-1.041Z"/>
  <path class="cls-9" d="M212.972,8.29712h-38.720993c-2.084,0-3.772003,1.667109-3.772003,3.72358v205.817297c0,2.056,1.688004,3.723007,3.772003,3.723007h38.720993c2.082993,0,3.772003-1.667007,3.772003-3.723007V12.0207c0-2.056471-1.689011-3.72358-3.772003-3.72358Z"/>
  <g class="cls-21">
    <g>
      <path class="cls-2" d="M157.292999,57.076199l1.947006,4.104301,3.837997,1.290199c.679001.2281,1.294998.605999,1.804001,1.104099l6.401001,6.277c2.339996,2.294701,6.237991,1.826401,7.951996-.955101l1.455994-2.361694-2.449997-6.991005-5.744003,1.8106-11.30899-5.239098-3.895004.961597v-.0009Z"/>
      <path class="cls-13" d="M189.057007,154.231995l-1.627014,1.136002c-1.477997,1.033997-3.472.973007-4.882996-.147995l-4.598999-3.649994-4.908005,2.514999c-.426987.238998-.691986.685989-.691986,1.17099,0,.742996.609985,1.346008,1.362,1.346008h22.112l-6.766006-2.37001h.001007Z"/>
      <path class="cls-13" d="M187.431,155.367996l1.626999-1.136993-6.024994-6.359009-1.105011,1.247009-3.978989,2.451996,4.597992,3.649994c1.412003,1.12001,3.406006,1.181,4.884003.14801v-.001007Z"/>
      <path class="cls-11" d="M216.744996,73.491239s-11.923354-7.661349-22.975999,1.587862h.001007v2.889496c0,1.213905-.240997,2.415703-.712006,3.537399l-10.431,24.898003c-.462006,1.100998-.699005,2.280998-.699005,3.473999v39.239998l6.947006,7.48201h10.113998c.587997,0,1.046997-.5.988998-1.077011l-4.155991-41.626991c0-1.636002.446991-3.241005,1.293991-4.646004l8.365005-13.883797c.625-1.037003,2.237-.599503,2.237.606895v59.749908c0,.541992.444992.980988.994003.980988h8.031998l.000993-83.212755Z"/>
      <path class="cls-18" d="M193.048996,23.8627v-2.6754s2.927002-2.524599,10.201004-1.766899c5.363998.558599,9.285004,7.2871,6.391006,12.743101-1.149002,2.164299-1.577011,2.738697-3.582001,4.870499-.222.2355-.534012.370399-.860001.371399l-6.223999.0065-5.925003-13.5492h-.001007Z"/>
      <path class="cls-2" d="M203.264008,37.4109l-1.434006-2.6446c1.781998-2.075901,3.334-5.0455.862991-6.358101-1.48999-.7922-2.664993.268101-3.113998.769901l-6.531998-7.990801c-1.328003.916901-2.651993,2.7442-2.548996,6.3841.007004.2234-.102997.4356-.291.5613l-1.845001,1.2297c-.776001.517599-.768005,1.647699.016006,2.1541l.904999.5846v3.756199c0,1.301399,1.069,2.355099,2.386002,2.355099h1.590988c.872009,0,1.57901.6973,1.57901,1.558403v.010197l8.423996,1.708202v-4.077301l.001007-.000999Z"/>
      <path class="cls-4" d="M191.748001,33.496899l-2.462006-1.348-.203003.137802c-.246994.168499-.310989.501801-.141998.747498l.255005.374203-.292999.4748c-.119995.192699-.104996.4384.037003.616199l.419998.4636s1.029999-.442101,2.388-1.465202v-.0009Z"/>
      <path class="cls-14" d="M216.743998,45.538256l-2.286998-1.742254c-1.893997-1.504303-4.386993-2.059101-6.751999-1.502502l-3.102997.6749c-.682999.160103-1.339005-.350899-1.339005-1.043499v-2.142899l-8.423996-.0103v2.027496c0,.730801-.723999,1.247402-1.427002,1.018402l-2.537003-.759602c-3.518005-1.148697-7.369995.280201-9.25,3.431301l-9.128998,15.867199,8.194992,5.181305,3.991013-6.875603c.594986-1.025803,2.123993-.932701,2.587997.156399l6.498001,15.262997h22.975999l-.000006-29.543341Z"/>
      <path class="cls-13" d="M216.744997,152.481618c-1.063953-.106647-2.164209.214042-3.017.964381l-3.641998,3.205994h6.658005l.000993-4.170375Z"/>
      <path class="cls-8" d="M179.505005,61.934898h-17.473999l-8.527008-25.479599h17.475006l8.526001,25.479599Z"/>
      <path class="cls-9" d="M202.138,35.851601c.755997,0,1.367996-.604702,1.367996-1.3507s-.612-1.3508-1.367996-1.3508-1.367996.604801-1.367996,1.3508.612,1.3507,1.367996,1.3507Z"/>
    </g>
  </g>
  <path class="cls-9" d="M98.791801,8.29712h-38.720802c-2.083298,0-3.772198,1.667109-3.772198,3.72358v205.817297c0,2.056,1.6889,3.723007,3.772198,3.723007h38.720802c2.083199,0,3.772202-1.667007,3.772202-3.723007V12.0207c0-2.056471-1.689003-3.72358-3.772202-3.72358Z"/>
  <g class="cls-20">
    <g>
      <path class="cls-17" d="M102.564026,217.838013v-26.959045h-37.064026v30.682007h33.291809c2.083191,0,3.772217-1.666992,3.772217-3.722961Z"/>
      <path class="cls-10" d="M69.697083,192.461975c-.28186-.760986.290527-1.567993,1.112793-1.565979l14.098328.047974c7.242493.024048,12.289612-7.086975,9.792419-13.797974l-5.479919-14.728027-21.843384,2.365051c-.079224.233948-3.947632,7.559998-3.947632,7.559998h-2.544189c-1.847717,0-3.498596.838562-4.58667,2.1521v43.342896c0,2.055969,1.688904,3.722961,3.772156,3.722961h20.417969l-10.790833-29.098999h-.001038Z"/>
      <path class="cls-14" d="M64.030518,152.284973c-.211304,1.580017-.319702,3.387024-.048096,4.861023.631775,3.429993,3.158203,6.156982,3.158203,6.156982h22.106506l4.138977-14.669006c.249878-.883972,1.457886-1.027954,1.913391-.227966l6.974487,12.247009.290039-.209106v-17.731506l-3.251892-6.214417c-2.096436-4.005981-6.738037-6.029968-11.150452-4.861023l-4.994263,1.323059-8.526917.415955.000977-.000977-6.058105.231995c-2.637573.099976-5.121582,1.252014-6.884949,3.192017l-5.399597,5.939331v15.011292l5.809753-6.344666c.730835-.79895,2.065247-.186951,1.921936.880005Z"/>
      <path class="cls-18" d="M75.775703,110.178001c1.733299-1.308998,3.899399-2.086998,6.250397-2.086998,5.685501,0,10.294098,4.548996,10.294098,10.161995,0,5.612-4.608597,10.161003-10.294098,10.161003l-7.779999-6.275002,1.529602-11.960999Z"/>
      <path class="cls-2" d="M81.5401,126.981003c-.137703-.556999.077301-1.137001.540298-1.483002,2.069-1.550003,3.775002-3.729004,1.936104-5.513-.921402-.893997-1.967201-.735001-2.688599-.441002-.357407.145004-.7658-.024002-.914803-.376999l-3.985199-9.453003c-1.702202,1.103004-3.289299,2.341003-4.249306,5.976006-.059395.223-.229195.402-.452698.473l-2.184998.693001c-.919403.292999-1.241005,1.415001-.612,2.138l.726196.835999-1.095795,3.721001c-.379105,1.288994.371498,2.637001,1.676697,3.012001l1.795502.498993c.676102.188004,1.199501.718002,1.371201,1.389999l1.269295,4.972-1.960594,10.540009,10.316795-10.947006-1.490997-6.038002.002899.002007Z"/>
      <path class="cls-12" d="M71.690697,121.915001l-2.045395-2.035004-.240501.079002c-.294304.097-.454597.407997-.359299.699997l.144295.443001-.4291.386002c-.1745.158005-.231995.404999-.143394.621002l.281998.577995s1.148598-.144997,2.792297-.772995l-.0009.000999Z"/>
      <path class="cls-18" d="M92.6073,118.890999c3.899399,0,7.060501-3.119995,7.060501-6.969002,0-3.849998-3.161102-6.969994-7.060501-6.969994-3.8993,0-7.060402,3.119995-7.060402,6.969994,0,3.849007,3.161102,6.969002,7.060402,6.969002Z"/>
      <path class="cls-2" d="M88.443604,158.586975c-.457397.127991-.940186.144043-1.40509.048035l-4.408691-.911987c-1.097717-.227051-2.235901-.188049-3.315735.11499l-8.3797,2.346008c-.328186.09198-.555481.388-.555481.725952,0,.416992.342285.755005.764771.755005h1.84082l-.000916-.000977,15.080017,1.247009h14.500427v-8.244202l-14.120422,3.920166Z"/>
      <path class="cls-9" d="M56.246101,161.595001h30.791801c.565895,0,1.025101.453003,1.025101,1.011993v.305008h-31.816902v-1.317001Z"/>
      <path class="cls-8" d="M102.564026,162.912003h-46.317924v3.974991h46.317924v-3.974991Z"/>
    </g>
  </g>
  <path class="cls-3" d="M47.145,92.000702h-29.8545c-1.0364,0-1.8766-.829399-1.8766-1.852501,0-.998802.8034-1.817101,1.8153-1.851501,2.2321-.076302,3.943699-.300697,5.1357-.673103,1.495699-.468193,2.4991-1.476395,3.010199-3.025398.511101-1.548996.767601-2.257401.767601-5.499695V31.5966c0-2.054499-1.687099-3.7208-3.7693-3.7208h-2.581999c-4.013501,0-7.023701.433802-9.031401,1.297701-2.00771.863899-3.4496,2.3589-4.32474,4.4841-.74782,1.8144-1.46924,4.298901-2.16425,7.452801-.21596.979298-1.09581,1.676598-2.11145,1.676598C.915703,42.786999-.07165,41.752701.001906,40.526699l.904367-15.085199c.092417-1.5471,1.390967-2.754499,2.960177-2.754499h56.87325c1.5881,0,2.8951,1.2353,2.963001,2.802l.6563,15.073099c.052902,1.213001-.929802,2.2258-2.1595,2.2258h-.0368c-1.015602,0-1.8955-.6973-2.111401-1.676598-.695-3.153801-1.4165-5.638401-2.164299-7.452702-.875099-2.125299-2.299103-3.6203-4.2691-4.4842-1.971901-.8638-4.999901-1.2976-9.087002-1.2976h-2.471699c-2.081299,0-3.769299,1.6653-3.769299,3.7208v47.501802c0,3.242294.237598,3.950699.711998,5.499794.4743,1.549004,1.477699,2.557106,3.010101,3.025406,1.221298.373299,2.951698.597595,5.191399.672997,1.011902.0345,1.815399.851799,1.815399,1.850601,0,1.023102-.840298,1.852501-1.876698,1.852501h.002899Z"/>
  <path class="cls-5" d="M134.093002,14.962l-3.748001-3.6082c-1.834-1.7668-4.961998-1.53873-6.986.5092l-6.951004,7.032001,10.391006,10.005299,6.952003-7.032c2.022995-2.046999,2.176987-5.139399.341995-6.905399v-.0009Z"/>
  <path class="cls-5" d="M116.413002,18.901899L20.492201,115.897003l10.387299,10.009995L126.801003,28.911501l-10.388-10.009602Z"/>
  <path class="cls-1" d="M30.893499,125.850998l-2.140699-2.060997-5.951401-5.730003-2.2992-2.214996-9.906499,16.319,4.0145,3.865005,16.283299-10.178009Z"/>
  <path class="cls-5" d="M14.6111,136.029999l-4.0135-3.863998-4.0579,6.682999c-.59788.985001.4187,1.964005,1.40134,1.348999l6.67006-4.167999Z"/>
  <path class="cls-16" d="M127.835999,27.8503l-10.390999-10.0061-2.985001,3.021299,10.389999,10.006001,2.986-3.0212Z"/>
  <path class="cls-9" d="M239.630997,107.357002c.744003,0,1.347-.595001,1.347-1.330002s-.602997-1.330002-1.347-1.330002-1.347992.595001-1.347992,1.330002.603989,1.330002,1.347992,1.330002Z"/>
  <path class="cls-9" d="M246.352005,107.357002c.743988,0,1.347-.595001,1.347-1.330002s-.603012-1.330002-1.347-1.330002c-.74501,0-1.348007.595001-1.348007,1.330002s.602997,1.330002,1.348007,1.330002Z"/>
  <path class="cls-9" d="M253.070007,107.357002c.744995,0,1.347992-.595001,1.347992-1.330002s-.602997-1.330002-1.347992-1.330002c-.744003,0-1.347.595001-1.347,1.330002s.602997,1.330002,1.347,1.330002Z"/>
  <g class="cls-19">
    <g>
      <path class="cls-17" d="M141.889999,136.022995h-28.530998v42.865005h28.530998v-42.865005Z"/>
      <path class="cls-18" d="M121.580994,73.067871l7.619019-17.18158h.000977l.452026-.832214c.177979-.34436.46698-1.014709.481995-1.902649v-.028931c.010986-1.116211-.911987-2.021912-2.04303-2.021912h-7.753967c-1.143982,0-2.21698.553894-2.867981,1.481995l-.525024.747498s-2.15686.355713-3.585999,2.330627v9.20813c1.587952,3.388489,4.141968,6.003052,4.141968,6.003052l4.080017,2.195984Z"/>
      <path class="cls-6" d="M144.125,166.028c-.373001-.684998-.574997-1.457001-.574997-2.251007v-4.164993l-8.737.934998v4.013c0,.925003-.110001,1.845001-.328003,2.744003l-.755997,3.115005h7.274002c1.054001,0,1.982986-.680008,2.289001-1.67601.272995-.891998.600998-1.957993.832993-2.714996Z"/>
      <path class="cls-3" d="M157.655029,175.960999h-25.264038v2.184998c0,.380981.312988.690002.697998.690002h26.535034v-2.875h-1.968994Z"/>
      <path class="cls-10" d="M158.763,170.419006h-7.273987l-.303589,1.250671-3.3974-2.235657h-.001038c-.789001-.52002-1.534973-1.102051-2.229004-1.740051l-.474976-.436951c-.390991-.358032-.710999-.774048-.958984-1.229004-.233032.756958-.559998,1.822998-.834045,2.714966-.304993.996033-1.234985,1.676025-2.28894,1.676025h-7.274048l-1.335999,5.507996v.033997h27.233032v-5.706543c-.269836.103149-.55896.164551-.861023.164551Z"/>
      <path class="cls-6" d="M161.886993,166.028c-.372986-.684998-.574997-1.457001-.574997-2.251007v-4.164993l-8.737.934998v4.013c0,.925003-.110992,1.845001-.328003,2.744003l-.756989,3.115005h7.274994c1.054001,0,1.983002-.680008,2.289001-1.67601.272995-.891998.600006-1.957993.832993-2.714996Z"/>
      <path class="cls-6" d="M127.484001,74.199203v-1.293007c0-.4366.358002-.790298.801003-.790298h2.17099c1.253006,0,2.267014-1.001701,2.267014-2.2379v-3.1716l1.492996-.920601c.916992-.565094.988998-1.856197.141998-2.518097l-2.350006-1.8367c-.149994-.117199-.213989-.312698-.160995-.495201l.360001-1.225098c.173004-.592899.054001-1.231503-.320999-1.724899l-2.234009-2.932301h-3.630989c-1.309006,0-2.232002,1.266899-1.816002,2.492001l1.129997,2.4259c.125.27.021004.590199-.239998.737297l-1.465004.824703-4.444,6.7379-1.683998,2.599998v8.830498l9.983002,13.4049v-18.907494h-.000999Z"/>
      <path class="cls-6" d="M124.141998,62.335999l-.512001-.802399s-.839996-1.430801-2.468994-.9216c-1.806.565102-1.867004,3.656601.270996,6.242599l2.709999-4.5186Z"/>
      <path class="cls-16" d="M138.148987,82.477417c-.936951-2.729309-2.992004-4.944031-5.662964-6.104797l-5.002014-2.173645v8.058838c0,.632996-.77301.952271-1.22998.508179l-8.700012-8.467407-.001038-.000977-4.19397,1.252808v42.62561h37.057007l-12.267029-35.698608Z"/>
      <path class="cls-10" d="M157.249023,117.578003v.000977-.675964h-43.890015v20.054993h18.835022c.717957,0,1.299988.573975,1.299988,1.283997v22.992004c0,.394958.325012.714966.723999.714966h12.432983c.400024,0,.725037-.320007.725037-.714966v-23.593994c0-1.007996.827942-1.825012,1.848999-1.825012,1.020996,0,1.848999.817017,1.848999,1.825012v23.593994c0,.394958.324951.714966.723999.714966h7.825989v-43.99884c-.748596-.239319-1.545654-.372131-2.375-.372131Z"/>
      <path class="cls-6" d="M139.85199,115.130981l-5.506958-3.179993c-.757996-.437988-1.651001-.589966-2.514038-.429993l-7.252014,1.346008c-.490967.091003-.995972.080994-1.481995-.028015l-9.737976-2.187317v8.042297h26.492981v-3.562988Z"/>
    </g>
  </g>
  <path class="cls-2" d="M157.294006,57.074902l1.946991,4.104397,3.837997,1.290203c.678009.2281,1.294998.605999,1.803009,1.104l6.401993,6.2771c2.339996,2.294701,6.238007,1.826401,7.951996-.955101l1.456009-2.361702-7.449997-4.7048-.74501-.475597-11.30899-5.239101-3.895004.961601.001007-.000999Z"/>
  <path class="cls-8" d="M179.505005,61.933498h-17.473999l-8.527008-25.479599h17.475006l8.526001,25.479599Z"/>
  <path class="cls-2" d="M161.268005,60.088501l3.772995-1.5797c.335007-.139599.529999-.4869.473007-.841499l-.002014-.0112c-.051987-.319302-.296997-.573402-.616989-.640503l-.335999-.070698.322998-.2365c.237991-.174.358002-.4645.30899-.752102l-.029999-.181599c-.046997-.286701-.251999-.523102-.529999-.615299l-.334991-.110802.215988-.157299c.239014-.174099.358002-.4664.310013-.755901-.062012-.362099-.369003-.632999-.741013-.6507l-3.380997-.169399c-.084991-.004601-.15799-.060501-.182999-.140598l-.110992-.357403c-.033005-.103298.023987-.212299.127991-.2467l2.337997-.781998c.408005-.136803.626999-.574303.488007-.977402-.126999-.369598-.514008-.586498-.899994-.505501l-4.152008.973701c-.625992.147099-1.024994.753101-.906006,1.376801l.262009,1.3787-.596008,1.521099c-.222992.569702-.188995,1.206402.093002,1.750099l1.846008,3.5616,2.263-.779198h-.001999Z"/>
  <path class="cls-14" d="M44.390598,131.886002l13.987103-6.928001,1.398499-.232002c.208401-.028.340401.214005.201801.370003l-1.0741,1.211998-13.835201,6.979004c-.314098.158997-.697899.013992-.827099-.309998l-.1395-.348999c-.113201-.284012.012199-.605011.287601-.742004h.000896Z"/>
  <path class="cls-2" d="M57.702,129.25l.1339.242996c.316799.574005,1.068401.747009,1.609699.371002.233002-.162003.311203-.468994.183903-.720001l-1.954903-3.858994c-.199898-.394005-.665798-.579002-1.0863-.431007l-.822399-.441994c-.2206-.119003-.467701-.18-.718601-.18h-2.2925c-.7365,0-1.368298.519997-1.501297,1.235001l-.664803,3.592003c-.134899.728989.056602,1.479996.523399,2.05899l3.5807,4.438004c.3913.485001.495102,1.136993.274403,1.716995l-7.0313,18.434998c-1.274902,3.34201,1.0798,6.950012,4.689697,7.187012,2.993202.195999,5.573299-2.057007,5.741199-5.013l1.353302-23.794998c.0499-.881012-.291401-1.738007-.935501-2.348999l-1.670101-1.583008.245201-.865005c.0452-.15799.2621-.181992.3423-.037994v-.001999ZM53.061298,126.931999l.105602-1.065002h1.052498l-1.1581,1.065002Z"/>
  <path class="cls-7" d="M188.516998,198.251007c-1.255997,1.23999-1.390991,3.166-.406006,4.554993.119003.169006.097.397995-.049988.542999l-1.154007,1.138c-.069992.069-.190002.020996-.190002-.076996v-6.587006c0-.194992.139008-.363998.334-.397003,1.763-.292999,3.10701-1.806992,3.10701-3.631989,0-2.035004-3.733002-6.188004-3.733002-6.188004,0,0-3.73201,4.153-3.73201,6.188004,0,1.829987,1.351013,3.347992,3.123001,3.634995.210007.033997.363007.212006.363007.419998v6.604004c0,.097992-.119995.147003-.190002.076996l-1.158005-1.143005c-.146988-.144989-.168991-.375-.049988-.543991.985001-1.389008.849991-3.315002-.406006-4.555008-1.408005-1.389999-6.832001-1.709991-6.832001-1.709991,0,0,.322998,5.354004,1.731995,6.744003,1.26001,1.243988,3.219009,1.373993,4.626007.393997.171005-.12001.403992-.098007.552002.048004l1.692993,1.671997c.021011.019989.033005.047989.033005.076996v10.326996h.537994v-10.371002c0-.028.011002-.056.033005-.076996l1.688004-1.666c.147995-.145996.380997-.167999.550995-.048996,1.408005.981995,3.367996.852005,4.628006-.391006,1.40799-1.389999,1.731995-6.744995,1.731995-6.744995,0,0-5.423996.319-6.832001,1.710007Z"/>
  <path class="cls-17" d="M192.574005,221.565994h-12.242004c-.261993,0-.477997-.19899-.494995-.455994l-.949005-14.027008c-.018997-.281998.207001-.520996.494003-.520996h14.141998c.285995,0,.513992.238998.494003.520996l-.950012,14.027008c-.016998.257004-.233994.455994-.493988.455994Z"/>
  <path class="cls-15" d="M240.177994,152.102997h39.280014c.299988,0,.544006.240005.544006.537003v54.524002c0,.296005-.243011.537003-.544006.537003h-38.736008c-.300003,0-.544006-.240005-.544006-.537003v-55.061005Z"/>
  <path class="cls-3" d="M264.994995,144.309998h-31.380997c-.298996,0-.543991.240005-.543991.537003v54.524002c0,.296005.243988.537003.543991.537003h38.736008c.299988,0,.544983-.240005.544983-.537003v-47.263l-7.899994-7.798004Z"/>
  <path class="cls-8" d="M264.992004,144.309998v7.800995h7.902985l-7.902985-7.800995Z"/>
  <path class="cls-8" d="M247.944,153.380005v-11.216003c0-.234009-.194-.425003-.431-.425003h-8.190994c-.238007,0-.431.190994-.431.425003v11.216003c0,.35199.408997.552002.691986.337997l3.572006-2.690002c.154999-.115997.369003-.115997.522995,0l3.573013,2.690002c.28299.214996.691986.013992.691986-.337997h.001007Z"/>
  <path class="cls-8" d="M250.524994,160.962997h-11.397995c-.311996,0-.565002.25-.565002.557999v.132004c0,.307999.253006.557999.565002.557999h11.397995c.312012,0,.565002-.25.565002-.557999v-.132004c0-.307999-.252991-.557999-.565002-.557999Z"/>
  <path class="cls-8" d="M250.524994,190.369995h-11.397995c-.311996,0-.565002.25-.565002.557999v.132004c0,.307999.253006.557999.565002.557999h11.397995c.312012,0,.565002-.25.565002-.557999v-.132004c0-.307999-.252991-.557999-.565002-.557999Z"/>
  <path class="cls-8" d="M264.308014,166.158997h-25.114014c-.348999,0-.632004.279007-.632004.624008,0,.343994.283005.623993.632004.623993h25.114014c.348999,0,.631989-.279999.631989-.623993,0-.345001-.28299-.624008-.631989-.624008Z"/>
  <path class="cls-8" d="M264.308014,170.626999h-25.114014c-.348999,0-.632004.279007-.632004.624008,0,.343994.283005.623993.632004.623993h25.114014c.348999,0,.631989-.279999.631989-.623993,0-.345001-.28299-.624008-.631989-.624008Z"/>
  <path class="cls-8" d="M264.308014,175.095993h-25.114014c-.348999,0-.632004.279007-.632004.623001,0,.345001.283005.624008.632004.624008h25.114014c.348999,0,.631989-.279007.631989-.624008,0-.343994-.28299-.623001-.631989-.623001Z"/>
  <path class="cls-8" d="M264.308014,179.563995h-25.114014c-.348999,0-.632004.279007-.632004.624008,0,.343994.283005.623001.632004.623001h25.114014c.348999,0,.631989-.279007.631989-.623001,0-.345001-.28299-.624008-.631989-.624008Z"/>
</svg>