<?xml version="1.0" encoding="UTF-8"?>
<svg id="_레이어_2" data-name="레이어 2" xmlns="http://www.w3.org/2000/svg" viewBox="0 0 280 235">
  <defs>
    <style>
      .cls-1 {
        fill: #183c3a;
      }

      .cls-1, .cls-2, .cls-3, .cls-4, .cls-5, .cls-6, .cls-7, .cls-8, .cls-9, .cls-10, .cls-11, .cls-12, .cls-13, .cls-14, .cls-15, .cls-16 {
        stroke-width: 0px;
      }

      .cls-2 {
        fill: #168c79;
      }

      .cls-3 {
        fill: #f2a39c;
      }

      .cls-4 {
        fill: #41ccae;
      }

      .cls-5 {
        fill: #864c3c;
      }

      .cls-6 {
        fill: #0e5952;
      }

      .cls-7 {
        fill: #87e0cb;
      }

      .cls-8 {
        fill: #fff;
      }

      .cls-9 {
        fill: #127369;
      }

      .cls-10 {
        fill: #aeedd9;
      }

      .cls-11 {
        fill: #1cad95;
      }

      .cls-12 {
        fill: #b8e5db;
      }

      .cls-13 {
        fill: #032626;
      }

      .cls-14 {
        fill: #63291c;
      }

      .cls-15 {
        fill: #e6e5e5;
      }

      .cls-16 {
        fill: #111;
      }
    </style>
  </defs>
  <path class="cls-7" d="M94.26062,122.189026h31.173401v-61.920227H8.630859v82.954224c0,1.131958.924133,2.04895,2.063538,2.04895h81.924622v-21.453003c0-.901001.73468-1.629944,1.641602-1.629944Z"/>
  <path class="cls-11" d="M123.370003,47.395H10.6944c-1.13942,0-2.06354.9175-2.06354,2.048801v10.8251h116.803138v-10.8251c0-1.131302-.923996-2.048801-2.063995-2.048801Z"/>
  <path class="cls-8" d="M15.9143,57.322399c1.9882,0,3.5999-1.600201,3.5999-3.5741,0-1.973999-1.6117-3.5742-3.5999-3.5742-1.9881,0-3.5998,1.600201-3.5998,3.5742,0,1.9739,1.6117,3.5741,3.5998,3.5741Z"/>
  <path class="cls-10" d="M98.093085,124.123001H14.4668v.379997h83.626285v-.379997Z"/>
  <path class="cls-10" d="M119.744003,109.436996H14.4668v.381004h105.277204v-.381004Z"/>
  <path class="cls-10" d="M119.744003,94.752403H14.4668v.380394h105.277204v-.380394Z"/>
  <path class="cls-10" d="M119.744003,80.0662H14.4668v.380302h105.277204v-.380302Z"/>
  <path class="cls-10" d="M102.389999,65.569801h-.381996v56.619225h.381996v-56.619225Z"/>
  <path class="cls-10" d="M84.843597,65.569801h-.382698v73.429192h.382698v-73.429192Z"/>
  <path class="cls-10" d="M67.298698,65.569801h-.382698v73.429192h.382698v-73.429192Z"/>
  <path class="cls-10" d="M49.751801,65.569801h-.382702v73.429192h.382702v-73.429192Z"/>
  <path class="cls-10" d="M32.204899,65.569801h-.382599v73.429192h.382599v-73.429192Z"/>
  <path class="cls-12" d="M25.344,57.322399c1.988199,0,3.599899-1.600201,3.599899-3.5741,0-1.973999-1.6117-3.5742-3.599899-3.5742-1.9881,0-3.599899,1.600201-3.599899,3.5742,0,1.9739,1.611799,3.5741,3.599899,3.5741Z"/>
  <path class="cls-4" d="M34.8792,57.322399c1.988098,0,3.5998-1.600201,3.5998-3.5741,0-1.973999-1.611702-3.5742-3.5998-3.5742-1.988201,0-3.599899,1.600201-3.599899,3.5742,0,1.9739,1.611698,3.5741,3.599899,3.5741Z"/>
  <path class="cls-2" d="M269.713013,79.019302h-13.669006c-.914001,0-1.654999.735695-1.654999,1.643196v19.932503c0,.907997.740997,1.643997,1.654999,1.643997h13.669006c.914001,0,1.654999-.736,1.654999-1.643997v-19.932503c0-.907501-.740997-1.643196-1.654999-1.643196Z"/>
  <path class="cls-8" d="M268.303009,82.302002h-10.852997c-.232025,0-.421021.187096-.421021.4179v1.920601c0,.230797.188995.4179.421021.4179h10.852997c.233002,0,.42099-.187103.42099-.4179v-1.920601c0-.230804-.187988-.4179-.42099-.4179Z"/>
  <path class="cls-7" d="M258.638,90.480904c.625,0,1.131012-.503006,1.131012-1.123604s-.506012-1.123703-1.131012-1.123703-1.131989.503105-1.131989,1.123703.506989,1.123604,1.131989,1.123604Z"/>
  <path class="cls-7" d="M258.638,94.7883c.625,0,1.131012-.503098,1.131012-1.123596,0-.620605-.506012-1.123703-1.131012-1.123703s-1.131989.503098-1.131989,1.123703c0,.620499.506989,1.123596,1.131989,1.123596Z"/>
  <path class="cls-7" d="M258.638,99.0952c.625,0,1.131012-.503098,1.131012-1.123703,0-.620499-.506012-1.123596-1.131012-1.123596s-1.131989.503098-1.131989,1.123596c0,.620605.506989,1.123703,1.131989,1.123703Z"/>
  <path class="cls-7" d="M262.928986,90.480904c.625,0,1.131012-.503006,1.131012-1.123604s-.506012-1.123703-1.131012-1.123703-1.131989.503105-1.131989,1.123703.506989,1.123604,1.131989,1.123604Z"/>
  <path class="cls-7" d="M262.928986,94.7883c.625,0,1.131012-.503098,1.131012-1.123596,0-.620605-.506012-1.123703-1.131012-1.123703s-1.131989.503098-1.131989,1.123703c0,.620499.506989,1.123596,1.131989,1.123596Z"/>
  <path class="cls-7" d="M262.928986,99.0952c.625,0,1.131012-.503098,1.131012-1.123703,0-.620499-.506012-1.123596-1.131012-1.123596s-1.131989.503098-1.131989,1.123596c0,.620605.506989,1.123703,1.131989,1.123703Z"/>
  <path class="cls-7" d="M267.220001,90.480904c.625,0,1.131012-.503006,1.131012-1.123604s-.506012-1.123703-1.131012-1.123703-1.131989.503105-1.131989,1.123703.506989,1.123604,1.131989,1.123604Z"/>
  <path class="cls-7" d="M267.220001,94.7883c.625,0,1.131012-.503098,1.131012-1.123596,0-.620605-.506012-1.123703-1.131012-1.123703s-1.131989.503098-1.131989,1.123703c0,.620499.506989,1.123596,1.131989,1.123596Z"/>
  <path class="cls-7" d="M267.220001,99.0952c.625,0,1.131012-.503098,1.131012-1.123703,0-.620499-.506012-1.123596-1.131012-1.123596s-1.131989.503098-1.131989,1.123596c0,.620605.506989,1.123703,1.131989,1.123703Z"/>
  <path class="cls-12" d="M231.979004,1c-16.159973,0-29.26001,13.006897-29.26001,29.05127h27.632996c.899048,0,1.627014.722839,1.627014,1.614746v27.436462c16.158997,0,29.26001-13.006775,29.26001-29.051208S248.138,1,231.979004,1Z"/>
  <path class="cls-2" d="M230.35199,30.05127h-27.632996c0,16.044434,13.100037,29.051208,29.26001,29.051208v-27.436462c0-.891907-.727966-1.614746-1.627014-1.614746Z"/>
  <path class="cls-12" d="M36.877201,225.882004h-9.183802v9.117996h9.183802v-9.117996Z"/>
  <path class="cls-8" d="M96.0373,70.977303c-3.598,0-6.513901,2.895996-6.513901,6.4673,0,3.571396,2.916901,6.4674,6.513901,6.4674s6.513702-2.896004,6.513702-6.4674c0-3.571304-2.916702-6.4673-6.513702-6.4673ZM96.0373,82.529999c-2.828903,0-5.121902-2.276695-5.121902-5.085396,0-2.808601,2.292999-5.085304,5.121902-5.085304,2.828796,0,5.121696,2.276703,5.121696,5.085304,0,2.808701-2.2929,5.085396-5.121696,5.085396Z"/>
  <path class="cls-8" d="M97.531998,83.541702h-2.873795v9.330101h2.873795v-9.330101Z"/>
  <path class="cls-3" d="M98.973801,104.322998v-1.902c0-1.226997.266899-2.438698.782501-3.553795l1.849701-3.998802c.225998-.490997.219994-1.058098-.021004-1.543404l-2.084099-4.2211c-.162598-.329498-.476402-.558495-.841797-.615395l-1.127007-.174805v.394203c0,.496696-.1875.976402-.5242,1.343002-.379799.4132-.917397.648697-1.481895.648697-.484001,0-.877197-.390297-.877197-.870903v-2.044998c-.758606,0-1.426407.498604-1.637802,1.222404l-.510803,1.755295c-.274597.943199-.414299,1.920502-.414299,2.902603,0,.742798.079399,1.482697.238197,2.208397l.849503,3.902802c.129204.591797.194199,1.194801.194199,1.800797v2.217003l5.606003.529999Z"/>
  <path class="cls-3" d="M69.090103,95.893799h-11.105701v11.239204h11.105701v-11.239204Z"/>
  <path class="cls-3" d="M56.1548,93.039001c1.077698-.187698,1.705601-1.730904,1.4025-3.4468-.3032-1.715904-1.422699-2.954803-2.500401-2.767097-1.077801.187798-1.7057,1.730995-1.4025,3.446899.3032,1.715897,1.422699,2.954697,2.500401,2.766998Z"/>
  <path class="cls-3" d="M73.416603,90.266998c.3032-1.715897-.324699-3.259102-1.402405-3.4468-1.077797-.187798-2.197197,1.051102-2.500397,2.766998-.3032,1.715904.324699,3.259102,1.402496,3.4468,1.077705.187706,2.197205-1.051094,2.500305-2.766998Z"/>
  <path class="cls-16" d="M70.591698,81.904198c-1.546898-2.323296-4.213097-3.7556-7.016998-3.768898h-.0191c-2.804001.013298-5.4702,1.445602-7.017097,3.768898-1.985001,2.980499-1.543003,6.829201-.860901,10.143105.645699,3.138199,1.992699,6.553795,4.905701,8.259697.872398.511002,1.887398.806999,2.972298.814003h.0191c1.084801-.008003,2.0998-.304001,2.972298-.815002,2.913002-1.705902,4.260902-5.121399,4.905701-8.259697.682106-3.314804,1.1231-7.163506-.861-10.143105v.000999Z"/>
  <path class="cls-8" d="M71.564201,107.132004h-16.054401l1.356499-4.187004c.161701-.497002.628502-.834999,1.154701-.834999h11.031101c.5271,0,.993896.337997,1.154701.834999l1.356499,4.187004h.0009Z"/>
  <path class="cls-1" d="M63.039799,105.966003h-10.0285c-6.603798,0-12.762699,3.302994-16.382599,8.785995l-11.6539,17.652008c-2.0061,3.037994-1.508699,7.070999,1.1766,9.539993l11.1527,10.248993,5.873798-6.784988-8.459698-7.962006c-.447701-.421997-.521301-1.104996-.1731-1.610992l6.948097-10.09201c.631401-.917999,2.069302-.580994,2.221401.520004l2.1591,15.669006c.124401.901993.1866,1.811996.1866,2.722992v4.887009h16.9795v-43.576004Z"/>
  <path class="cls-1" d="M80.514198,125.403l-2.277802,16.529999c-.124397.902008-.186501,1.811996-.186501,2.723007v4.888h-16.979595v-43.577003h8.409901c5.998199,0,11.754395,2.352997,16.013397,6.546997l6.165504,6.070999v-15.692001h10.465897v24.07c0,5.822998-6.935799,8.906998-11.311501,5.029999l-8.272202-7.329994c-.730797-.647003-1.893196-.222-2.0261.740997l-.000999-.000999Z"/>
  <path class="cls-6" d="M46.0546,145.274994l.006699,4.268005v64.888h14.522903v-42.195999c0-2.970993,4.122196-3.776001,5.253895-1.024994l7.312706,17.760986c.868599,2.109009,1.315399,4.367004,1.315399,6.646011v18.813995h14.522797v-18.451996c0-3.445007-.466797-6.875-1.389-10.197998l-8.220497-29.629013c-.7108-2.559998-1.119301-5.194-1.217804-7.847992l-.1129-3.029999h-31.996098l.0019.000992Z"/>
  <path class="cls-3" d="M46.976398,149.285004l3.0756,3.847992c.382702.318008.492702.858002.264103,1.299011-.2803.539993-.960503.737-1.489502.428986l-2.764698-1.607986v13.493988c0,.518005-.7271.642014-.902203.154007l-3.575897-9.994995c-.285103-.798004-.763401-1.514008-1.391903-2.085999l-2.887199-2.628006,4.438801-5.141998,2.044399.330994c1.259899.231003,2.392601.906006,3.188499,1.903v.001007Z"/>
  <path class="cls-6" d="M138.374268,180.543457l10.157715-30.83844c.236023-.693054.447998-1.350037-.25-1.584045l-.05896-.019958c-.697998-.235046-.700989.415955-.937988,1.109009l-7.526733,21.147461,4.908691-36.126465c.108032-.723999.28302-1.296021-.445984-1.402039l-.062012-.008972c-.729004-.106018-.755005.438965-.862,1.162964l-5.218018,32.766174-.517944-40.842163c0-.731995.144958-1.329956-.592041-1.329956h-.062012c-.737976,0-.856995.117981-.856995.850952l-.331848,40.770325-5.13916-32.339294c-.106995-.723022-.133972-1.14502-.862976-1.039001l-.060974.008972c-.729004.106018-.554016.67804-.447021,1.402039l4.84375,35.648499-7.337769-20.793518c-.235962-.692993-.364014-1.220032-1.062012-.984985l-.059998.019958c-.69696.234009-.485962.890991-.248962,1.584045l10.157715,30.83844.09491.698608-.006714.829834-8.092896,22.738098c-.236023.692993.141968,1.451965.839966,1.687012l-.000977-.001038.059998.02002c.697998.234009,1.461975-.140991,1.698975-.833984l4.112732-12.486084c.201904.319092.53241.555542.935303.614075l-.001038.000977.061035.009033c.729004.105957,1.414001-.398987,1.520996-1.124023l.214478-1.578491.214478,1.578491c.108032.725037.79303,1.22998,1.522034,1.124023l.060974-.009033-.000977-.000977c.402405-.058472.732727-.294434.934631-.612976l4.112366,12.484985c.236023.692993,1.000977,1.067993,1.698975.833984l.059021-.02002h-.000977c.698975-.234985,1.076965-.993958.839966-1.686951l-8.107727-22.975281-.006104-.480225.110107-.810059Z"/>
  <path class="cls-15" d="M147.787994,214.432007h-20.845993l-2.626999-39.594009c-.046005-.722.531998-1.332993,1.259995-1.332993h23.580002c.729004,0,1.306.610992,1.259995,1.332993l-2.626999,39.594009Z"/>
  <path class="cls-5" d="M144.216995,209.395004h12.843002v-3.036011c0-1.087997.259003-2.162994.755005-3.132996l7.528992-11.166992-8.78299-3.738007-5.822998,12.602005c-.999008,2.162003-2.406006,4.121994-4.179001,5.722-1.214005,1.095993-2.718002,2.140991-4.46701,2.748001h2.125v.001999Z"/>
  <path class="cls-13" d="M142.091003,209.395004c-.195999.082001-.397003.162003-.605011.237991-4.08699,1.490005-6.268997,2.249008-7.301987,2.600998-.471008.160004-.78801.598999-.78801,1.094009,0,.638.522003,1.155991,1.165009,1.155991h21.028992c.811005,0,1.468002-.653,1.468002-1.457993v-3.630997h-14.968002.001007Z"/>
  <path class="cls-16" d="M214.626007,88.630501s2.366989-2.951103,6.994995-2.951103c4.628998,0,11.58699.300201,11.800995,7.3517.212997,7.050903-8.192993,12.5709-8.192993,12.5709l-6.063004-3.557999s-5.072998-5.884201-4.539001-13.412498l-.000992-.000999Z"/>
  <path class="cls-5" d="M223.542007,102.837997l1.654999-2.120995s1.067993-1.2192.320999-3.392403l-7.689011-10.072899s-5.789001.1539-5.569,7.985199c.007004.245003-.110992.476799-.315994.613503l-2.003998,1.343994c-.844009.565201-.835007,1.800903.016998,2.354706l.983002.637894v4.105003c0,1.421997,1.162003,2.573997,2.593002,2.573997h1.727997c.436996,0,.845993.213005,1.093002.57l1.866989,2.691002,7.005005-4.527c-.917999-1.485001-1.684998-2.763-1.684998-2.763l.001007.000999Z"/>
  <path class="cls-11" d="M233.154007,123.778999c-.641006-10.390999-4.112-12.511002-5.287003-14.100998-.595001-.805-1.697006-2.550003-2.639999-4.076004l-7.005005,4.527.130005.187004c.554993.798996.563995,1.851997.021988,2.660995l-6.403992,9.560005c-.839996,1.252998-1.373001,2.691994-1.501999,4.193001-.065002.740997-.039001,1.558998.153,2.403999.694,3.074997,3.203003,5.248993,2.936996,6.891998-.266998,1.643005-2.723999,9.117996-2.723999,9.117996l-1.548996,5.249008h19.382004s5.125992-16.222,4.484985-26.613007l.002014-.000999Z"/>
  <path class="cls-13" d="M170.470001,195.347l-14.451996-5.867004,12.494995-27.772003c2.457001-5.464996,7.919998-8.984985,13.947006-8.985992l18.355988-.003998-20.94899,9.865997-9.397003,32.761993v.001007Z"/>
  <path class="cls-16" d="M214.626999,88.525101s.694.132996,1.068008,1.5644c.373993,1.431297,2.135986,7.077103,2.135986,7.077103h7.688004l3.862-4.312202-6.869003-5.407402-3.950989-.918396s-2.137009.318199-3.934006,1.996498Z"/>
  <path class="cls-14" d="M213.619003,101.712997l-2.67601-1.473-.219986.151001c-.269012.184998-.338013.549004-.155014.817001l.278.408997-.319.518005c-.12999.210999-.113998.479996.040009.673996l.457001.506004s1.119003-.483002,2.595001-1.602005Z"/>
  <path class="cls-5" d="M178.399002,194.391998s-2.964005-4.293991-7.929001.080002v3.686005c0,4.769989-2.764008,9.153-7.141006,11.121002-.08699.038986-.175995.077988-.264999.115997h14.694l-.481003-3.778c-.158997-1.257004-.147995-2.531006.036011-3.785004l1.085999-7.440002Z"/>
  <path class="cls-13" d="M163.065002,209.393997c-.195007.083008-.395996.16301-.604004.238998-4.087006,1.488998-6.268997,2.249008-7.302994,2.600006-.470001.160995-.787003.599991-.787003,1.093994,0,.639008.520996,1.156006,1.164001,1.156006h21.352997c.811005,0,1.350998-.652008,1.350998-1.458008l-.481003-3.630997h-14.692993Z"/>
  <path class="cls-15" d="M231.979996,166.718994h-48.162003v47.818008h48.162003v-47.818008Z"/>
  <path class="cls-1" d="M228.669006,150.391006l-1.738007,6.328995c-1.621002,5.903992-7.022003,9.998993-13.184006,9.998993h-29.927994v28.626999h-13.348007v-31.707993c0-5.576004,4.291-10.229996,9.887009-10.718994l28.931-2.528"/>
  <path class="cls-16" d="M178.348007,151.759995l-13.647003-24.441994-.514008.282997c-.519989.286003-.707001.936005-.418991,1.451996l13.62999,24.411011.005005.04599,28.024002-2.701996c.578995-.056,1.002991-.567001.946991-1.140991l-.05899-.603012-27.966003,2.695007-.000992.000992Z"/>
  <path class="cls-16" d="M177.188004,153.768997l-.02301-.233002-13.605988-24.367996c-.351013-.630005-.122009-1.426003.513-1.774002l.722992-.397995,13.686996,24.513,28.048004-2.70401.082001.839005c.033005.341003-.069.673996-.289001.938995-.218994.265015-.528992.429001-.873001.462006l-28.263,2.723999h.001007ZM164.606995,127.640999l-.304993.168999c-.402008.222-.548996.727997-.326004,1.128006l13.578995,24.319,27.848007-2.684006c.216003-.020996.410995-.123993.550003-.291.138-.166.203003-.376999.181992-.591003l-.035995-.366989-27.884003,2.687988-.076996-.135986-13.531006-24.234009v-.000999Z"/>
  <path class="cls-5" d="M214.764999,141.067993c.432999-.112.770004-.449997.876007-.881989l4.54599-21.206001c.76001-2.785004,3.677002-4.445,6.48201-3.689003,2.804993.754997,4.47699,3.651001,3.715988,6.435997l-6.013992,21.321999c-1.306,4.258011-5.221008,7.199005-9.703003,7.291l-14.964996.581009v-4.13501l15.061996-5.718002Z"/>
  <path class="cls-5" d="M192.960007,144.464005c-.602005.013992-1.194.197998-1.703003.541-1.533005,1.03299-3.022003,2.106995-4.553009,3.143997-.401993.272003-.804001.543991-1.222.791992-.298996.178009-.612991.348999-.832001.619003-.217987.268997-.317993.669006-.133987.964005.232986.373993.776993.397003,1.204987.283005.271011-.072006.649002-.386002.903-.399002.261002-.014008.460007.22699.726013.322998,1.123001.401001,2.539993-.69101,3.529999-1.115997.224991-.097.450989-.166.677002-.210007,1.40799-.278,2.791.365997,4.046997.915009.677994.294998,1.205002.540985,1.946991.553986.826004.015015,1.651001.028,2.477005.042007,1.093002.018005,2.246994-1.145996,2.798996-2.003998l.965012-1.503006-9.879013-2.821991c-2.386002-.681-5.86499.584-8.272995.964996-.270004.042999-.552002.091003-.770996.252991-.220001.162003-.350998.477005-.21701.713013.141006.250992.48201.292999.771011.304993.992996.042007,1.987.084,2.979996.126007-.272995.369995-.546005.73999-.817993,1.110992.148987-.041.298996-.082993.447998-.123993"/>
  <path class="cls-4" d="M245.194,112.911003h-13.214996v41.43h13.214996v-41.43Z"/>
  <path class="cls-6" d="M234.899994,199.121002l-.995987-1.914001c-.270004-.518997-.808014-.846008-1.397003-.846008h-12.625c-.867996,0-1.570999.699005-1.570999,1.561005v21.20401c0,.862.703995,1.559998,1.570999,1.559998h37.969986c.868011,0,1.571014-.699005,1.571014-1.559998v-17.599014c0-.862-.70401-1.559998-1.571014-1.559998h-21.555984c-.588013,0-1.126007-.325989-1.396011-.845993Z"/>
  <path class="cls-9" d="M219.882004,202.768005h29.705002c5.429001,0,9.835999,4.375992,9.835999,9.765991v12.95401c0,.860992-.70401,1.559998-1.571014,1.559998h-37.969986c-.867004,0-1.570999-.699005-1.570999-1.559998v-21.158005c0-.862.703995-1.561005,1.570999-1.561005v-.000992Z"/>
</svg>