<?xml version="1.0" encoding="UTF-8"?>
<svg id="_레이어_1" data-name="레이어 1" xmlns="http://www.w3.org/2000/svg" xmlns:xlink="http://www.w3.org/1999/xlink" viewBox="0 0 1460 545">
  <defs>
    <style>
      .cls-1 {
        fill: #fffef9;
      }

      .cls-1, .cls-2, .cls-3, .cls-4, .cls-5, .cls-6, .cls-7, .cls-8, .cls-9, .cls-10, .cls-11, .cls-12, .cls-13, .cls-14, .cls-15, .cls-16, .cls-17 {
        stroke-width: 0px;
      }

      .cls-2 {
        fill: #43adff;
      }

      .cls-3 {
        fill: #002a52;
      }

      .cls-18 {
        clip-path: url(#clippath-2);
      }

      .cls-4 {
        fill: #f2a39c;
      }

      .cls-5 {
        fill: #210a4d;
      }

      .cls-6 {
        fill: #0096fa;
      }

      .cls-7 {
        fill: #d4ccfa;
      }

      .cls-8 {
        fill: none;
      }

      .cls-9 {
        fill: #864c3c;
      }

      .cls-19 {
        clip-path: url(#clippath-1);
      }

      .cls-10 {
        fill: #0e5952;
      }

      .cls-11, .cls-12 {
        fill: #fff;
      }

      .cls-12 {
        fill-rule: evenodd;
      }

      .cls-20 {
        clip-path: url(#clippath);
      }

      .cls-13 {
        fill: #360d80;
      }

      .cls-14 {
        fill: #e0807d;
      }

      .cls-15 {
        fill: #006dcc;
      }

      .cls-16 {
        fill: #e6e5e5;
      }

      .cls-17 {
        fill: #111;
      }
    </style>
    <clipPath id="clippath">
      <rect class="cls-8" x="1280.358398" y="124" width="90" height="41"/>
    </clipPath>
    <clipPath id="clippath-1">
      <rect class="cls-8" x="1143.358398" width="132" height="244"/>
    </clipPath>
    <clipPath id="clippath-2">
      <rect class="cls-8" x="80.358398" y="408" width="187" height="137"/>
    </clipPath>
  </defs>
  <path class="cls-12" d="M1054.408447,394.096985h11.029907v4.437012h-5.73999c1.890015,1.196991,2.98999,3.48999,2.98999,6.231995,0,5.285004-4.189941,9.572998-10.529907,9.572998-6.330078,0-10.52002-4.287994-10.52002-9.572998,0-2.742004,1.089966-5.035004,2.98999-6.231995h-5.73999v-4.437012h10.97998c-.050049-.547974-.099976-1.494995-.099976-2.641998v-2.59198h4.73999v2.59198c0,.649017-.030029,1.235016-.060059,1.720001-.02002.372009-.039917.684998-.039917.921997ZM1046.378418,403.968994c0,3.091003,2.390015,5.78302,5.780029,5.78302,3.399902,0,5.789917-2.692017,5.789917-5.78302s-2.390015-5.78299-5.789917-5.78299c-3.390015,0-5.780029,2.691986-5.780029,5.78299Z"/>
  <path class="cls-12" d="M1052.108398,376c-14.469971,0-26.23999,11.765991-26.23999,26.223999s11.77002,26.222992,26.23999,26.222992,26.25-11.764984,26.25-26.222992-11.780029-26.223999-26.25-26.223999ZM1052.108398,423.462006c-11.719971,0-21.199951-9.522003-21.199951-21.238007s9.529907-21.238007,21.199951-21.238007c11.680054,0,21.209961,9.522003,21.209961,21.238007s-9.529907,21.238007-21.209961,21.238007Z"/>
  <g class="cls-20">
    <g>
      <path class="cls-3" d="M1368.958374,124h-73.169922c-.77002,0-1.400024.621002-1.400024,1.387001v11.917c0,.766006.630005,1.386993,1.400024,1.386993h73.169922c.77002,0,1.400024-.620987,1.400024-1.386993v-11.917c0-.765999-.630005-1.387001-1.400024-1.387001Z"/>
      <path class="cls-1" d="M1307.888428,125.869003h-2.969971v10.951004h2.969971v-10.951004Z"/>
      <path class="cls-16" d="M1354.928345,138.690994h-73.169922c-.77002,0-1.400024.622009-1.400024,1.387009v11.916992c0,.766006.630005,1.387009,1.400024,1.387009h73.169922c.77002,0,1.400024-.621002,1.400024-1.387009v-11.916992c0-.764999-.630005-1.387009-1.400024-1.387009Z"/>
      <path class="cls-1" d="M1293.848389,140.559998h-2.959961v10.951996h2.959961v-10.951996Z"/>
      <path class="cls-15" d="M1368.958374,153.447006h-73.169922c-.77002,0-1.400024.488998-1.400024,1.089996v9.371002c0,.602997.630005,1.089996,1.400024,1.089996h73.169922c.77002,0,1.400024-.488007,1.400024-1.089996v-9.371002c0-.602997-.630005-1.089996-1.400024-1.089996Z"/>
      <path class="cls-1" d="M1305.998413,154.917999h-2.969971v8.612h2.969971v-8.612Z"/>
      <path class="cls-1" d="M1362.938354,154.917999h-2.969971v8.613007h2.969971v-8.613007Z"/>
    </g>
  </g>
  <g class="cls-19">
    <g>
      <path class="cls-5" d="M1194.778442,176.679993l24.809937,67.320007h-55.459961l.77002-84.130005.319946-12.312988c.170044-6.399002,5.440063-11.501007,11.890015-11.501007h5.099976s7.76001-14.791,7.920044-15.260002l43.809937-4.773994,10.98999,29.737c5.01001,13.548996-5.109985,27.908005-19.639893,27.856003l-28.280029-.095001c-1.640015-.005997-2.790039,1.623001-2.22998,3.159988Z"/>
      <path class="cls-13" d="M1204.698364,57.384701l-12.150024.469299c-5.299927.2024-10.279907,2.527599-13.809937,6.444897l-33.27002,36.829102,17.099976,11.328003,16.98999-18.672104c1.470093-1.610497,4.140015-.377296,3.860107,1.7761-.430054,3.190201-.640015,6.837006-.100098,9.816002,1.27002,6.923004,6.340088,12.43,6.340088,12.43h44.339966l8.299927-29.617302c.5-1.785301,2.920044-2.076698,3.840088-.460098l13.98999,24.727402,14.089966-10.227005-20.030029-38.540596c-4.199951-8.089001-13.519897-12.174999-22.359985-9.816101l-10.02002,2.671902-17.109985.8405h0Z"/>
      <path class="cls-17" d="M1206.968384,10.5488c3.47998-2.64424,7.829956-4.21482,12.540039-4.21482,11.410034,0,20.650024,9.18422,20.650024,20.51562s-9.23999,20.5156-20.650024,20.5156l-15.609985-12.6689,3.069946-24.1506v.0031Z"/>
      <path class="cls-4" d="M1218.538452,44.475498c-.280029-1.1227.149902-2.294498,1.079956-2.993896,4.150024-3.128803,7.569946-7.527702,3.890015-11.132002-1.849976-1.803699-3.950073-1.4816-5.390015-.889601-.719971.2945-1.540039-.049099-1.839966-.760698l-7.98999-19.083091c-3.420044,2.22699-6.600098,4.72399-8.52002,12.06459-.119995.450901-.460083.812901-.910034.957001l-4.380005,1.401899c-1.849976.589001-2.48999,2.8559-1.22998,4.316l1.449951,1.687101-2.189941,7.512398c-.77002,2.601303.73999,5.325203,3.359985,6.0798l3.599976,1.0093c1.359985.380302,2.410034,1.450901,2.75,2.806702l2.550049,10.040001-3.930054,21.2794,20.690063-22.101501-2.98999-12.1903v-.003101Z"/>
      <path class="cls-14" d="M1198.778442,34.246101l-4.100098-4.107401-.47998.1595c-.589966.193199-.919922.8251-.72998,1.410999l.290039.8958-.859985.779102c-.350098.315998-.460083.818996-.290039,1.254597l.569946,1.1688s2.300049-.2915,5.600098-1.561398Z"/>
      <path class="cls-17" d="M1254.898438,14.0707c0,7.7731-6.340088,14.070801-14.160034,14.070801s-14.160034-6.297701-14.160034-14.070801,6.340088-14.0707,14.160034-14.0707,14.160034,6.29763,14.160034,14.0707Z"/>
      <path class="cls-4" d="M1201.368408,114.500999h-3.690063c-.849976,0-1.529907-.681-1.529907-1.520996,0-.681.449951-1.280006,1.109985-1.467003l16.809937-4.736c2.160034-.610001,4.450073-.690002,6.650024-.230003l8.839966,1.837006c.940063.194,1.900024.162994,2.820068-.095001l39.150024-10.9384,2.539917,4.573402c3.76001,6.782997-1.169922,15.091995-8.969971,15.091995h-33.47998l-30.25-2.517998v.002998Z"/>
      <path class="cls-11" d="M1231.618408,117.019997h-63.820068v-2.659996h61.77002c1.130005,0,2.050049.914001,2.050049,2.042999v.616997Z"/>
      <path class="cls-7" d="M1265.418457,117.019997h-101.01001v8.024002h101.01001v-8.024002Z"/>
      <path class="cls-13" d="M1144.018433,54.380798l28.059937-13.9879,2.800049-.466297c.419922-.0583.689941.432598.410034.748497l-2.160034,2.444801-27.75,14.089199c-.630005.319-1.400024.027599-1.660034-.625797l-.280029-.705502c-.219971-.570599.030029-1.220901.580078-1.497002"/>
      <path class="cls-4" d="M1161.408447,44.377899l.209961-2.150299h2.119995l-2.329956,2.150299ZM1170.718384,49.058899l.27002.490803c.630005,1.156498,2.140015,1.506199,3.22998.748497.469971-.328197.619995-.944798.369995-1.453999l-3.919922-7.7915c-.400024-.7976-1.340088-1.168701-2.180054-.871201l-1.650024-.892601c-.439941-.2393-.939941-.365097-1.439941-.365097h-4.600098c-1.47998,0-2.73999,1.049099-3.009888,2.4939l-1.330078,7.251698c-.280029,1.472401.109985,2.987701,1.050049,4.156403l7.179932,8.960297c.780029.9785.98999,2.294498.550049,3.466305l-14.099976,37.221596c-2.560059,6.745003,2.159912,14.030998,9.400024,14.509003,6.009888.395996,11.179932-4.150002,11.519897-10.120003l2.710083-48.0401c.109985-1.7761-.580078-3.5093-1.869995-4.742397l-3.350098-3.1964.490112-1.745403c.089966-.319.519897-.368099.679932-.076698"/>
    </g>
  </g>
  <path class="cls-10" d="M1028.268433,141.490997c-2.310059,2.296997-2.530029,5.882004-.670044,8.430008.180054.246994.160034.587997-.059937.804001l-2.220093,2.215988c-.119995.113998-.319946.034012-.319946-.128998v-12.25c0-.285004.219971-.524002.5-.565994,3.26001-.490997,5.75-3.28801,5.75-6.667999,0-3.723999-6.77002-11.328003-6.77002-11.328003,0,0-6.779968,7.604004-6.779968,11.330002,0,3.397003,2.519958,6.205002,5.799988,6.675995.309998.042999.529968.307999.529968.613998v12.272003c0,.162003-.200012.242996-.309998.128998l-2.23999-2.223999c-.210022-.216995-.22998-.556-.049988-.804993,1.859985-2.548004,1.630005-6.136002-.669983-8.432999-2.559998-2.548004-12.400024-3.133011-12.400024-3.133011,0,0,.590027,9.804001,3.140015,12.348999,2.320007,2.304001,5.929993,2.521011,8.48999.654007.25-.180008.589966-.162003.809998.054993l3.179993,3.167007c.030029.033997.049988.080002.049988.128998v18.916h.970032v-18.994003c0-.047989.02002-.095993.059937-.12999l3.170044-3.156006c.209961-.216995.560059-.236008.810059-.055008,2.559937,1.868011,6.169922,1.652008,8.47998-.653,2.559937-2.544998,3.150024-12.348999,3.150024-12.348999,0,0-9.850098.585007-12.400024,3.132004Z"/>
  <path class="cls-16" d="M1035.628418,184.179001h-22.210022c-.47998,0-.869995-.365005-.900024-.835999l-1.719971-25.682007c-.039978-.516998.369995-.955002.900024-.955002h25.649963c.52002,0,.940063.438004.900024.955002l-1.719971,25.682007c-.030029.470993-.430054.835999-.900024.835999Z"/>
  <path class="cls-17" d="M1112.088379,159.082001l13.27002,22.772003c.719971,1.237-.170044,2.785995-1.609985,2.785995h-28.380005l16.719971-25.557999h0Z"/>
  <path class="cls-15" d="M1126.248413,139.205994l.02002-.006989-.040039-.057007c-.059937-.108994-.130005-.207001-.219971-.293991l-1.440063-1.955002-.880005,1.502991h-64.099976c-1.530029,0-3.419922,1.12001-4.219971,2.5l-23.599976,40.71701-1.940063.266998,1.420044,2.002991c.049927.094009.109985.179001.189941.256012l.01001.022995h0c.290039.291992.73999.466003,1.340088.466003h65.099976c1.530029,0,3.419922-1.12001,4.219971-2.501007l23.890015-41.231995c.380005-.653.449951-1.246002.25-1.69101v.001999Z"/>
  <path class="cls-2" d="M1123.098389,136.240005h-65.099976c-1.530029,0-3.420044,1.119995-4.219971,2.500992l-23.900024,41.23201c-.800049,1.380997-.209961,2.500992,1.319946,2.500992h65.099976c1.530029,0,3.420044-1.119995,4.220093-2.500992l23.890015-41.23201c.799927-1.380997.209961-2.500992-1.310059-2.500992h0Z"/>
  <path class="cls-15" d="M1055.878418,141.384003l-20.830078,35.945999c-.589966,1.026001-.159912,1.856995.980103,1.856995h18.059937l22.97998-39.658997h-18.049927c-1.140015,0-2.540039.832001-3.140015,1.858002v-.001999Z"/>
  <path class="cls-6" d="M1118.268433,139.528h-41.200073l-22.98999,39.658997h41.200073c1.140015,0,2.539917-.830994,3.130005-1.856995l20.839966-35.945999c.589966-1.026001.150024-1.858002-.97998-1.858002v.001999Z"/>
  <path class="cls-6" d="M1067.718384,147.522995h-10.51001c-.660034,0-.929932-.496002-.579956-1.100998s1.189941-1.100998,1.859985-1.100998h10.5c.670044,0,.939941.496002.579956,1.100998-.349976.604996-1.179932,1.100998-1.849976,1.100998Z"/>
  <path class="cls-6" d="M1064.04834,153.852997h-10.5c-.669922,0-.939941-.496002-.579956-1.10199.349976-.605011,1.180054-1.101013,1.849976-1.101013h10.51001c.660034,0,.930054.496002.580078,1.101013-.360107.605988-1.190063,1.10199-1.860107,1.10199Z"/>
  <path class="cls-6" d="M1060.378418,160.182999h-10.5c-.670044,0-.930054-.496002-.580078-1.100998.350098-.606003,1.180054-1.102005,1.850098-1.102005h10.51001c.669922,0,.929932.496002.579956,1.102005-.349976.604996-1.190063,1.100998-1.859985,1.100998Z"/>
  <path class="cls-6" d="M1056.708374,166.513h-10.5c-.669922,0-.929932-.496002-.579956-1.100998s1.179932-1.100998,1.849976-1.100998h10.51001c.670044,0,.930054.496002.579956,1.100998-.349976.604996-1.189941,1.100998-1.859985,1.100998Z"/>
  <path class="cls-6" d="M1053.038452,172.841995h-10.5c-.670044,0-.930054-.496002-.580078-1.100998s1.190063-1.100998,1.859985-1.100998h10.5c.670044,0,.930054.496002.580078,1.100998-.350098.604996-1.180054,1.100998-1.859985,1.100998Z"/>
  <path class="cls-2" d="M1109.30835,147.524002h-14.839966c-.47998,0-.670044-.356995-.420044-.791l.360107-.619003c.25-.434998.859985-.791,1.339966-.791h14.839966c.47998,0,.670044.356003.420044.791l-.359985.619003c-.25.434006-.850098.791-1.340088.791Z"/>
  <path class="cls-2" d="M1105.648438,153.852997h-14.850098c-.47998,0-.669922-.356003-.409912-.791l.349976-.619003c.26001-.43399.859985-.791,1.339966-.791h14.840088c.47998,0,.669922.35701.419922.791l-.359985.619003c-.25.434998-.849976.791-1.329956.791Z"/>
  <path class="cls-2" d="M1101.638428,160.182999h-29.690063c-.669922,0-.929932-.496002-.579956-1.100998.349976-.606003,1.189941-1.102005,1.859985-1.102005h29.680054c.669922,0,.929932.496002.579956,1.102005-.349976.604996-1.180054,1.100998-1.849976,1.100998Z"/>
  <path class="cls-2" d="M1082.488403,166.513h-14.560059c-.47998,0-.659912-.352997-.409912-.783997l.369995-.634003c.25-.432007.839966-.783997,1.319946-.783997h14.550049c.47998,0,.660034.35199.410034.783997l-.360107.634003c-.25.431-.849976.783997-1.319946.783997Z"/>
  <path class="cls-2" d="M1078.818359,172.841995h-14.559937c-.469971,0-.660034-.352997-.410034-.783997l.369995-.634003c.25-.431992.839966-.783997,1.320068-.783997h14.549927c.47998,0,.670044.352005.420044.783997l-.369995.634003c-.25.431-.849976.783997-1.320068.783997Z"/>
  <path class="cls-2" d="M1087.508423,149.725998c-1.210083,2.083008-4.050049,3.772003-6.359985,3.772003-2.300049,0-3.190063-1.688995-1.97998-3.772003,1.199951-2.082993,4.049927-3.772003,6.349976-3.772003,2.309937,0,3.199951,1.689011,1.98999,3.772003Z"/>
  <path class="cls-2" d="M1095.478394,168.576996c-1.209961,2.09201-4.069946,3.78801-6.380005,3.78801-2.319946,0-3.209961-1.695999-2-3.78801,1.209961-2.091003,4.070068-3.787003,6.380005-3.787003,2.319946,0,3.209961,1.695999,2,3.787003Z"/>
  <g class="cls-18">
    <g>
      <path class="cls-17" d="M191.952393,418.52301l-.983994-1.830017c-.388-.759003-1.018005-2.231995-1.050995-4.182983v-.065002c-.026001-2.451996,1.987-4.445007,4.450989-4.445007h16.906006c2.494003,0,4.830002,1.21701,6.251007,3.257996l1.143997,1.644012s8.53299,1.894989,8.664993,13.595978c.132004,11.699005-11.75,23.792023-11.75,23.792023l-7.024002,6.013-16.608002-37.779999Z"/>
      <path class="cls-9" d="M204.097397,430.94101l11.488998,19.346985v32.944h-19.891998v-27.283997c0-.958984-.781998-1.738007-1.746002-1.738007h-4.735001c-2.729996,0-4.942001-2.203979-4.942001-4.919983v-6.975006l-3.255997-2.024994c-1.998001-1.242004-2.155991-4.080017-.307999-5.536011l5.121994-4.037994c.327011-.259003.466003-.687988.349014-1.087006l-.782013-2.694c-.378998-1.303986-.118988-2.708984.700012-3.792999l4.869995-6.447998h7.914993c2.854004,0,4.867004,2.786987,3.959,5.480988l1.253998,8.768005.003006-.001984Z"/>
      <path class="cls-9" d="M202.9814,432.707001l1.115997-1.764008s1.831009-3.144989,5.384003-2.027008c3.938995,1.243011,4.070999,8.040009-.591003,13.726013l-5.906998-9.934998h-.001999Z"/>
      <path class="cls-17" d="M198.882401,416.692993s4.296005.52301,3.244995,6.796997c-.783997,4.680023-2.113998,12.88501-2.740997,16.755005-.223007,1.377014-.940002,2.625-2.018997,3.516998-1.966995,1.623016-4.77301,1.769012-6.899002.358002l-1.889008-1.252991c-1.269989-.843994-2.857986-1.059998-4.307999-.585999-.783997.255005-1.312988.980988-1.312988,1.802002v5.998993c0,3.79599,3.091995,6.875,6.903992,6.875h6.472c2.393997,0,4.634003-1.17099,5.990997-3.132996,2.391998-3.451996,3.672012-7.54599,3.672012-11.738007v-18.333008l.590988-8.627991s-6.817993-1.894989-7.709,1.567993h.003006Z"/>
      <path class="cls-3" d="M195.694397,461.729004l1.210999,11.735992c.072998.699005.895004,1.036011,1.44101.59201l17.337997-14.158997,20.998993,6.138977c8.048004,2.35202,14.391998,8.541016,16.919998,16.505005l11.612,36.674988-104.179993,21.863037-14.179001-35.09903,18.716003-29.108002c3.29599-5.125977,8.350998-8.884979,14.224991-10.572998l15.899002-4.570984h-.001999Z"/>
      <path class="cls-9" d="M264.574402,517.549011l-56.81601,12.870972c-1.201996.272034-2.447998.296021-3.658997.067993l-17.899994-3.349976c-2.130005-.400024-4.335007-.018982-6.207001,1.072021l-13.591995,7.917969v8.874023h93.792984s12.605011-6.716003,4.382996-27.452026l-.001984-.000977Z"/>
      <path class="cls-16" d="M214.156403,540.93103h-36.570007c-1.298996,0-2.466995-.786011-2.951004-1.984009l-18.245987-45.09903c-1.061005-2.621979-3.616013-4.339996-6.456009-4.339996h-66.757401c-1.994499,0-3.355797,2.007996-2.611099,3.850006l20.446503,50.540009c.269997.666016.919998,1.10199,1.639999,1.10199h109.729004c1.279999,0,2.317993-1.03302,2.317993-2.307007v-1.221008c0-.299011-.242996-.540955-.543991-.540955h.001999Z"/>
      <path class="cls-11" d="M125.920395,522.73999c1.752007-1.007019,2.025002-3.799988.611-6.239014-1.414993-2.440002-3.980995-3.600952-5.732994-2.593994-1.750999,1.007019-2.025002,3.801025-.610001,6.23999,1.414001,2.439026,3.979996,3.600037,5.731995,2.593018Z"/>
    </g>
  </g>
  <g>
    <ellipse class="cls-8" cx="469.826401" cy="462" rx="56.233017" ry="58.080994"/>
    <rect class="cls-8" x="610.433411" y="454.222961" width="49.047974" height="90.777039"/>
    <rect class="cls-8" x="689.518372" y="454.222961" width="49.048035" height="90.777039"/>
    <path class="cls-8" d="M965.992371,450.034973c-15.916992,0-26.294983,11.765991-27.791992,24.97699h54.886047c-1.197998-14.458008-11.177002-24.97699-27.094055-24.97699Z"/>
    <path class="cls-11" d="M557.294373,462c0-48.210022-37.172974-86-87.467957-86-50.244995,0-87.468018,37.839966-87.468018,86,0,40.195862,25.940308,73.182678,63.729431,83h47.489929c37.782104-9.811035,63.716614-42.766968,63.716614-83ZM413.593384,462c0-32.30603,24.649048-58.080994,56.233032-58.080994s56.232971,25.774963,56.232971,58.080994-24.648987,58.080994-56.232971,58.080994-56.233032-25.775024-56.233032-58.080994Z"/>
    <path class="cls-11" d="M610.433411,454.222961h49.047974v90.777039h30.036987v-90.777039h49.048035v90.777039h30.037964v-116.104004h-79.085999v-7.777039c0-12.961975,5.389038-19.492981,17.46405-19.492981,3.59198,0,8.032959.997009,11.225952,2.442017v-25.127014c-4.73999-1.893982-11.026978-2.940979-16.414978-2.940979-27.643005,0-42.312012,17.149963-42.312012,42.326965v10.569031h-49.047974v-9.27301c0-12.562988,6.786011-17.947998,17.463989-17.947998,5.338013,0,11.125977,1.197021,15.817017,3.440002v-25.375977c-6.038025-2.393005-13.572021-3.739014-21.007019-3.739014-26.744019,0-42.312012,16.302979-42.312012,42.326965v126.673035h30.038025v-90.777039Z"/>
    <path class="cls-11" d="M753.385376,412.244995c10.42804,0,18.262024-8.127014,18.262024-17.997986,0-9.871033-7.883972-18.247009-18.262024-18.247009-9.878967,0-18.011963,8.125977-18.011963,18.247009,0,10.120972,8.132996,17.997986,18.011963,17.997986Z"/>
    <path class="cls-11" d="M1014.788391,535.784973l.100037-27.169983c-12.420044,9.770996-26.992004,15.405029-41.262024,15.405029-21.156006,0-34.827026-11.517029-35.924988-27.919006h83.427002c.699951-3.490051.699951-5.634033.699951-9.373047,0-34.050964-21.606995-59.376953-55.237-59.376953-33.829956,0-57.829956,25.574951-57.829956,60.074951h-.049988c0,27.604126,15.375854,49.798218,41.019043,57.574036h43.942444c7.773804-2.118774,14.846191-5.271667,21.115479-9.215027ZM965.992371,450.034973c15.917053,0,25.896057,10.518982,27.094055,24.97699h-54.886047c1.497009-13.210999,11.875-24.97699,27.791992-24.97699Z"/>
    <path class="cls-11" d="M888.154419,538.427979v-27.81897c-9.031006,7.377991-18.611023,11.615967-31.085022,11.615967-11.226013,0-20.40802-4.636963-26.046021-11.018005-4.888977-5.533997-8.930969-12.662964-8.930969-23.531982,0-10.867981,4.341003-18.596008,9.380005-24.030029,7.334961-7.876953,17.513977-10.56897,25.14801-10.56897,12.573975,0,22.602966,4.387024,31.034973,11.815979h.049988v-27.868958c-8.781006-5.933044-19.708984-9.722046-34.028992-9.722046-20.757019,0-39.766968,8.973999-51.093994,26.322998-5.836975,8.924011-9.729004,19.942017-9.729004,34.002014,0,14.059021,3.892029,25.077026,9.729004,34.051025,7.513062,11.558411,18.490662,19.376343,31.113159,23.322998h40.013733c5.469788-1.700745,10.315125-3.996033,14.445129-6.572021Z"/>
  </g>
</svg>