<?xml version="1.0" encoding="UTF-8"?>
<svg id="_레이어_3" data-name="레이어 3" xmlns="http://www.w3.org/2000/svg" xmlns:xlink="http://www.w3.org/1999/xlink" viewBox="0 0 280 235">
  <defs>
    <style>
      .cls-1 {
        fill: #c23c17;
      }

      .cls-1, .cls-2, .cls-3, .cls-4, .cls-5, .cls-6, .cls-7, .cls-8, .cls-9, .cls-10, .cls-11, .cls-12, .cls-13, .cls-14, .cls-15 {
        stroke-width: 0px;
      }

      .cls-2 {
        fill: #fa9c73;
      }

      .cls-3 {
        fill: #85250d;
      }

      .cls-4 {
        fill: #fffef9;
      }

      .cls-5 {
        fill: #e5511c;
      }

      .cls-6 {
        fill: #fa7d51;
      }

      .cls-7 {
        fill: #f2a39c;
      }

      .cls-8 {
        fill: #fabea0;
      }

      .cls-9 {
        fill: #4d1709;
      }

      .cls-10 {
        fill: #da5447;
      }

      .cls-11 {
        fill: #864c3c;
      }

      .cls-12 {
        fill: #fff;
      }

      .cls-13 {
        fill: #fa7c50;
      }

      .cls-16 {
        mask: url(#mask);
      }

      .cls-14 {
        fill: #e6e5e5;
      }

      .cls-15 {
        fill: #111;
      }
    </style>
    <mask id="mask" x="51.957001" y="27" width="184.384003" height="183.916" maskUnits="userSpaceOnUse">
      <g id="mask0_550_3505" data-name="mask0 550 3505">
        <path class="cls-12" d="M144.149002,118.958V27c-50.9161,0-92.192001,41.170998-92.192001,91.958s38.572197,91.958,92.192001,91.958,92.192001-41.171005,92.192001-91.958h-92.192001Z"/>
      </g>
    </mask>
  </defs>
  <g>
    <path class="cls-13" d="M278.39801,175.771973h-61.760315c-1.987244,2.518372-4.10321,4.930054-6.338684,7.226318v43.40271c0,.330994.268982.598999.601013.598999h67.497986c.332031,0,.601013-.268005.601013-.598999v-50.028992c0-.330994-.268982-.600037-.601013-.600037Z"/>
    <path class="cls-8" d="M268.117004,165.205994h-44.271423c-6.111633,10.452026-14.228149,19.592407-23.827576,26.896362v23.731628c0,.330994.268982.600037.601013.600037h67.497986c.332031,0,.601013-.269043.601013-.600037v-50.028992c0-.330994-.268982-.598999-.601013-.598999Z"/>
    <path class="cls-2" d="M261.326996,210.529007h-54.110992c-.878006,0-1.400009-.977005-.911011-1.705002l16.21701-24.097c1.973999-2.932999,6.30899-2.909012,8.248993.047989l12.262009,18.679001c.390991.596008,1.248993.64801,1.709991.103012l3.359009-3.971008c2.088989-2.470001,5.953995-2.304993,7.82399.333008l6.29599,8.882996c.514008.724991-.004974,1.727005-.894989,1.727005Z"/>
    <path class="cls-13" d="M251.893005,183.337006c2.839996,0,5.140991-2.296005,5.140991-5.129013,0-2.831985-2.300995-5.127991-5.140991-5.127991-2.839005,0-5.141006,2.296005-5.141006,5.127991,0,2.833008,2.302002,5.129013,5.141006,5.129013Z"/>
  </g>
  <path class="cls-13" d="M63.710876,183.666504c-4.272034.956238-7.476501,4.763733-7.476501,9.309509,0,5.263,4.29364,9.545959,9.57074,9.545959,5.276978,0,9.570679-4.282959,9.570679-9.545959,0-4.546387-3.205322-8.354309-7.47821-9.309937v-12.026733c-1.493896-2.183716-2.888184-4.440613-4.186707-6.759399v18.78656ZM71.189087,192.976013c0,2.960999-2.415161,5.369995-5.383972,5.369995s-5.384094-2.408997-5.384094-5.369995,2.415283-5.371033,5.384094-5.371033,5.383972,2.410034,5.383972,5.371033Z"/>
  <g>
    <path class="cls-8" d="M52.155823,124.75647c-4.666809-1.951477-8.869568-4.787964-12.393616-8.302979l-.000488.000488v-.000977l.000488.000488,13.619019-13.584595c.000183-.000854.000366-.001709.000488-.002502l-13.621216,13.586609c-6.990784-6.973999-11.315186-16.607727-11.315186-27.249084,0-10.641541,4.323364-20.275146,11.315186-27.249146l19.999146,19.948425.000183-.000366-19.998108-19.947327c6.991272-6.97345,16.648621-11.286621,27.316406-11.287231v-.000793c4.544495,0,8.902588.789062,12.952393,2.226624,6.343872-6.128845,13.5625-11.362061,21.45929-15.481995H9.191406v105.411865h45.789429c-1.539917-6.102661-2.459961-12.140076-2.825012-18.067505Z"/>
    <path class="cls-13" d="M1,31.981384v5.430725h100.489807c.867981-.45282,1.745911-.889099,2.629883-1.314941,3.241211-1.561218,6.589233-2.935364,10.028015-4.115784H1Z"/>
    <path class="cls-13" d="M55.785095,145.826965c-.167969-.590515-.319397-1.179504-.475891-1.768982-.109192-.411316-.224731-.823242-.328369-1.234009H2.079224c-.596008,0-1.079224.481995-1.079224,1.077026v3.276978c0,.595032.483215,1.077026,1.079224,1.077026h54.439392c-.254089-.805054-.501709-1.613098-.733521-2.42804Z"/>
    <path class="cls-2" d="M67.0802,68.491943c3.736633-5.667664,8.084534-10.896973,12.950317-15.597839-4.049805-1.437561-8.407898-2.226624-12.952393-2.226624v.000793c.000671,0,.001404-.000061.002075-.000061v17.82373Z"/>
    <path class="cls-5" d="M67.078125,50.668274c-10.667786.00061-20.325134,4.313782-27.316406,11.287231l19.998108,19.947327c2.071228-4.687927,4.52417-9.16925,7.318298-13.407715v-17.826843Z"/>
    <path class="cls-6" d="M59.759644,81.903198l-19.999146-19.948425c-6.991821,6.973999-11.315186,16.607605-11.315186,27.249146h28.45752c.850586-2.483154,1.80426-4.918396,2.856812-7.30072Z"/>
    <path class="cls-2" d="M53.381226,102.868896l-13.619019,13.584595c3.524048,3.515015,7.726807,6.351501,12.393616,8.302979-.46228-7.508118-.021667-14.835876,1.225403-21.887573Z"/>
    <path class="cls-2" d="M28.445312,89.203918c0,10.641357,4.324402,20.275085,11.315186,27.249084l13.621216-13.586609c.828796-4.685913,2.009644-9.250061,3.521118-13.662476h-28.45752Z"/>
  </g>
  <g class="cls-16">
    <g>
      <path class="cls-11" d="M168.846985,198.161987l-6.566956,10.380981c-.127808.202209-.192505.415222-.230408.628906,5.579407-1.094543,10.975464-2.695557,16.144409-4.745056v-6.264832h-9.347046Z"/>
      <path class="cls-9" d="M171.266663,118.947998l-7.087646,32.919006c-.703003,3.073975-1.057983,6.21698-1.057983,9.369995v38.703003c0,.541016.440002.97998.982971.97998h14.127991v-37.810974c0-2.217041.416016-4.413025,1.225037-6.47699l6.765991-21.142029c.672974-1.715027,3.226013-1.234009,3.226013.606995v62.957336c6.213196-3.502563,11.976929-7.70282,17.186951-12.495178v-67.611145h-35.369324Z"/>
      <path class="cls-14" d="M72.536621,177.820007c10.549805,12.866394,24.645081,22.705566,40.840393,28.08728v-28.08728h-40.840393Z"/>
    </g>
  </g>
  <g>
    <path class="cls-8" d="M236.154999,46.207298h-3.813004v7.9762h3.813004v-7.9762Z"/>
    <path class="cls-13" d="M242.298004,41.442101h-3.814011v12.7416h3.814011v-12.7416Z"/>
    <path class="cls-5" d="M248.440994,36.123798h-3.813995v18.059902h3.813995v-18.059902Z"/>
  </g>
  <g>
    <path class="cls-13" d="M266.967987,55.383499l-5.494995,5.480801v-7.665298c-4.415985,0-7.995987,3.5709-7.995987,7.9762,0,4.405197,3.580002,7.976196,7.995987,7.976196,4.417023,0,7.997009-3.570999,7.997009-7.976196,0-2.282001-.962006-4.338402-2.502014-5.791702Z"/>
    <path class="cls-5" d="M266.96701,55.383499c-1.432007-1.353001-3.365997-2.184498-5.494019-2.184498v7.665298l5.494019-5.480801Z"/>
  </g>
  <g>
    <path class="cls-3" d="M133.871002,219.626007c-2.552002-1.130005-5.158005-2.311005-6.265999-2.903-1.455002,1.516998-5.080002,2.842987-7.573006,3.619995-1.496994.466003-3.123001-.097-4.013-1.38501l-3.117996-4.511993-.833,5.942001c-.146004,1.042999.666,1.975006,1.722,1.975006h19.499001c1.548996,0,1.998001-2.111008.582001-2.738007v.001007Z"/>
    <path class="cls-7" d="M127.342003,216.578003c-1.894005-1.102005-5.175003-3.05101-5.312004-5.546005-.002998-.054001-.005997-.106003-.005997-.160004v-6.992996l-7.816002-.722992-.806,2.089996v5.626999l-.022003.160004-.479996,3.414993,3.117996,4.512009c.889,1.287994,2.515999,1.850998,4.013,1.384995,2.493004-.777008,6.118004-2.104004,7.572998-3.619995-.099998-.053009-.187996-.102005-.261993-.145004v-.001999Z"/>
    <path class="cls-7" d="M147.716995,207.699005c-.554993-1.029999-.819-1.703003-.819-1.703003l-2.327988-6.145004-6.590012,5.072998,3.008011,6.287003c.064987.082001.091995.186005.078995.289001v2.660995l4.625992,4.906998c1.045013,1.108002,2.634003,1.522003,4.086014,1.059006,2.284988-.727005,5.477997-2,6.395996-3.638-4.494003-2.345001-7.212006-6.470001-8.459-8.789001l.000992-.000992Z"/>
    <path class="cls-9" d="M162.873993,219.626007c-2.780991-1.231003-5.597992-2.578003-6.528-3.049011-.057999-.028992-.113998-.059998-.17099-.089996-.917007,1.639999-4.110001,2.910995-6.395004,3.639008-1.451996.46199-3.041992.047989-4.085999-1.060013l-4.625-4.906998.003006,6.229004c-.146011,1.042999.666,1.975006,1.722,1.975006h19.498993c1.548996,0,1.998001-2.111008.582001-2.738007l-.001007.001007Z"/>
    <path class="cls-1" d="M94.682404,116.389999l-2.215302,1.762001-5.842705,2.328003c-4.5448,1.810997-8.0765,5.501999-9.677696,10.114998l-6.3423,18.268997c-2.009598,5.787994,2.327797,11.817001,8.468201,11.772995l23.399399-.167999h21.627998l-10.307999-30.261993c-1.039001-3.050003-3.136002-5.629997-5.913002-7.274002l-7.769997-4.599998-5.426598-1.943001Z"/>
    <path class="cls-9" d="M110.343002,160.557999l14.723.572998c3.648994.141998,6.939003,2.23201,8.611,5.470001l16.024002,31.184006c.246994.479996.057999,1.069992-.423004,1.317993l-11.298004,5.820007-14.261993-27.889008-13.375999-16.47699.000999.000992Z"/>
    <path class="cls-15" d="M91.271797,94.478302c-.196297.029701-.386101-.070602-.480995-.244102-.843903-1.549797-2.4897-2.602097-4.382004-2.602097-2.752998,0-4.985001,2.226295-4.985001,4.972198v5.214699c0,3.418999.762001,4.695999.762001,4.695999,0,0,2.205002,4.291,11.701302,8.080002l5.123497-12.500999.055801-7.000504s-3.286995-1.300095-7.794601-.616196v.000999Z"/>
    <path class="cls-7" d="M94.023903,111.236c-2.359406-1.614998-4.735603-4.199997-2.624603-6.200996,1.273697-1.209007,2.744598-.455002,3.333504-.070007l4.333694-9.870293c1.584503.566093,3.416504,2.055595,4.320503,5.768295.056.228004.223999.413002.447998.488998l2.188004.743004c.920998.311996,1.224998,1.459.578995,2.184998l-.744995.837997,1.039001,3.803001c.361,1.317001-.418007,2.676003-1.738007,3.035004l-1.469994.528c-.640007.229996-1.121002.764-1.281006,1.423996l-1.215996,5.004005,1.176994,10.082993-9.900597-10.842995,1.556503-6.916Z"/>
    <path class="cls-10" d="M103.775002,107.202003l2.095001-2.035004.240997.084c.293999.102997.449997.424004.348999.719002l-.152.447998.425003.400002c.172997.162003.225998.416.132996.634003l-.292999.583s-1.153999-.167007-2.797997-.833Z"/>
    <path class="cls-1" d="M93.566002,113.294998c.938301,0,1.698898-.758995,1.698898-1.695,0-.935997-.760597-1.694-1.698898-1.694-.938202,0-1.698799.758003-1.698799,1.694,0,.936005.760597,1.695,1.698799,1.695Z"/>
    <path class="cls-3" d="M81.818604,159.432999l-2.352905,6.940002c-1.7528,5.653992,2.4841,11.384003,8.417099,11.384003h24.728203c.438004,0,.794998.354996.794998.792999v26.694992h12.312004c.542999,0,.982994-.438995.982994-.979996v-34.615997c0-4.650009-3.674995-8.473999-8.333-8.671005l-36.548393-1.544998h-.000999Z"/>
    <path class="cls-7" d="M80.107399,160.623993l2.319405-9.771988,14.658897,3.664001c.443802.110001.908997.102997,1.348099-.025009l4.479202-1.289993c.689995-.199005,1.431-.102997,2.046997.264999l11.704002,6.985001-36.556602.172989Z"/>
    <path class="cls-14" d="M90.512901,159.516006h15.702095c.557007,0,1.059006-.337006,1.267006-.853012l7.834999-19.398987c.455002-1.128006,1.552002-1.868011,2.770996-1.868011h28.664001c.856003,0,1.440994.863998,1.121002,1.656006l-8.779007,21.738998c-.11499.287003-.393997.475006-.703995.475006h-47.114197c-.549805,0-.994606-.445007-.994606-.992004v-.526001c0-.128998.104301-.233002.233604-.233002l-.0019.001007Z"/>
    <path class="cls-12" d="M130.860001,150.576004c.606995-1.049011.488998-2.25-.263-2.682999s-1.854004.065994-2.460999,1.11499c-.607002,1.049011-.488998,2.25.263,2.682999s1.854004-.065994,2.460999-1.11499Z"/>
  </g>
  <g>
    <path class="cls-8" d="M123.554001,75.679398c0-5.405594-4.368004-9.794197-9.775002-9.8452-5.434998-.051102-9.928001,4.353302-9.965996,9.774704-.020004,2.705101,1.054993,5.159698,2.808998,6.950699,1.394997,1.4254,2.358002,3.196098,2.765999,5.111496h8.601997c.414001-1.918198,1.373001-3.695297,2.769005-5.125397,1.729996-1.773399,2.794998-4.195503,2.794998-6.865402v-.0009Z"/>
    <path class="cls-4" d="M113.683998,74.741898c.758003,0,1.374001.614403,1.374001,1.370705v12.489098h-2.747002v-12.489098c0-.756302.615005-1.370705,1.374001-1.370705h-.000999Z"/>
    <path class="cls-5" d="M109.607002,89.743301v1.108902c0,.244995.198997.443596.445.443596h7.263c.245995,0,.445-.198601.445-.443596v-1.032806c0-.729401.078995-1.448601.230995-2.1502h-8.601997c.143997.676506.219002,1.370705.219002,2.073204l-.000999.0009Z"/>
  </g>
  <g>
    <path class="cls-15" d="M181.677994,40.435902l-.518997-.9669c-.205002-.400002-.535995-1.1786-.552994-2.209602v-.033398c-.013-1.296402,1.048004-2.348801,2.347992-2.348801h8.915009c1.315002,0,2.546997.643101,3.29599,1.721397l.604004.868702s4.5,1.001301,4.570007,7.182701c.069,6.1805-6.197006,12.568897-6.197006,12.568897l-3.703003,3.176601-8.759003-19.958599-.001999-.000999Z"/>
    <path class="cls-11" d="M191.234314,52.312195c1.797424-2.792175,1.570435-5.792297-.310303-6.386414-1.872986-.59198-2.838989,1.070007-2.838989,1.070007l-.00116.001831-.000854-.001404-1.684021-.958618c-.300964-.170776-.419983-.542908-.274963-.856628l1.297974-2.818298c.479004-1.423584-.583008-2.895386-2.088013-2.895386h-4.17395l-2.568054,3.406738c-.431946.572571-.56897,1.315002-.368958,2.003601l.411987,1.423462c.060974.210693-.010986.437988-.184021.574524l-2.700989,2.133362c-.973999.769409-.890015,2.268127.163025,2.92511l1.716003,1.070007v3.68512c0,1.436584,1.167969,2.600281,2.606995,2.600281h2.497009c.507996,0,.919983.411133.919983.917786v8.819702h10.489014v-11.809753l-2.907715-4.905029Z"/>
    <path class="cls-3" d="M214.765015,76.252869c-2.171021-3.969971-5.742981-6.994263-10.02301-8.488342l-7.448975-2.600342-3.116028-2.796997-5.244995,6.02832-5.244019-6.02832-.001099.000977-.000854-.000977v.00177l-3.114014,2.795227-7.449036,2.600342c-4.279968,1.49408-7.85199,4.518372-10.022949,8.488342l-11.103027,20.296448c-1.607971,2.938965-1.002014,6.592651,1.468994,8.858704l1.932983,1.47699c.262024.23999.671997.210999.897034-.064026l6.049988-7.367004,7.802979-11.764282c.333008-.471497,1.077026-.235718,1.077026.340576v30.949707h35.413025v-30.949707c0-.576294.743958-.812073,1.076965-.340576l5.630005,7.959473,7.335022-8.582153-5.916016-10.814148Z"/>
    <path class="cls-9" d="M191.218994,70.707397l-2.313965-2.307983-2.313049,2.307983,1.777832,2.268921-5.738831,28.587708c-.054993.272949.006042.554993.167053.781982l4.345947,6.109009c.569031.797974,1.829041.401978,1.835999-.577026l.052002-7.338013.192444-27.288025,1.994568-2.544556Z"/>
    <path class="cls-11" d="M175.169998,122.501999l-.347992-7.148003c-.005005-.080994-.011002-.163994-.017014-.245995-.185989-2.270004-1.196991-4.396004-2.785995-6.032005l-9.910004-9.385399.009003.021301-8.584991-5.9049.002991-.058502-1.860992,3.345505c-1.852005,3.330002-.778,7.522995,2.449997,9.557999l13.449997,8.481003c.541.490997.872009,1.172997.919998,1.900993l.469009,12.694.501999-2.028,2.763-8.351997c.078995-.383003.625-.386002.707993-.003998l.488998,3.396996c.09201.421005.475006.713005.904007.693001.490997-.023994.867004-.441002.839996-.93v-.001999Z"/>
    <path class="cls-11" d="M247.947021,61.653015c-.374023-.606018-1.161011-.750732-1.718994-.361938l-1.475037,1.025452-7.157959,5.306396c-.354004.262573-.827026-.11792-.644043-.518799l1.374023-3.005859c.200989-.442566.044983-.965088-.367004-1.224976-.432007-.271912-1.000977-.1651-1.304016.24408-.687012.927124-1.950012,2.669922-3.35199,4.792236-1.162964,1.761414-1.705994,3.736206-1.960022,5.149475-.244995,1.368835-.869995,2.641113-1.799988,3.676819l-8.833008,10.322205.000488.000854-7.37146,8.614014,2.438965,3.422546c2.549011,3.574463,7.993042,3.166504,9.977051-.748047l.526001-1.038391-.00061-.00116,9.510559-18.764343c.382019-.759094.890015-1.448608,1.503052-2.037903l1.259949-1.211853c2.347046-2.255127,4.504028-4.697632,6.454041-7.301636l1.869995-2.5c.122009-.164307.200989-.358215.227966-.561462l.080017-.608704c.02301-.169922.080994-.332336.171021-.476135.14502-.23291.292969-.463989.417969-.707092l.255005-.493713c.077026-.146667.106018-.312805.088013-.47699-.021973-.180969-.073975-.360107-.169983-.515076Z"/>
  </g>
</svg>