<svg width="1167" height="599" viewBox="0 0 1167 599" fill="none" xmlns="http://www.w3.org/2000/svg">
<path d="M1064.66 512.966C1064.13 508.01 1061.89 504.151 1057.96 501.389C1054.06 498.627 1048.98 497.246 1042.74 497.246C1038.34 497.246 1034.58 497.908 1031.43 499.233C1028.29 500.557 1025.89 502.354 1024.22 504.624C1022.56 506.894 1021.7 509.486 1021.67 512.399C1021.67 514.82 1022.21 516.92 1023.31 518.698C1024.45 520.476 1025.98 521.99 1027.91 523.238C1029.84 524.449 1031.98 525.47 1034.33 526.303C1036.68 527.135 1039.04 527.835 1041.43 528.402L1052.33 531.126C1056.72 532.148 1060.95 533.529 1065 535.269C1069.09 537.009 1072.74 539.204 1075.96 541.852C1079.21 544.501 1081.79 547.697 1083.68 551.443C1085.57 555.188 1086.52 559.577 1086.52 564.609C1086.52 571.419 1084.78 577.416 1081.3 582.599C1077.81 587.744 1072.78 591.774 1066.19 594.687C1059.64 597.562 1051.71 599 1042.39 599C1033.35 599 1025.49 597.6 1018.83 594.8C1012.2 592.001 1007.01 587.915 1003.27 582.542C999.556 577.17 997.549 570.625 997.246 562.907H1017.97C1018.28 566.955 1019.53 570.322 1021.72 573.008C1023.92 575.694 1026.78 577.699 1030.3 579.024C1033.86 580.348 1037.83 581.01 1042.22 581.01C1046.81 581.01 1050.82 580.329 1054.26 578.967C1057.75 577.567 1060.47 575.638 1062.44 573.178C1064.41 570.681 1065.41 567.768 1065.45 564.439C1065.41 561.412 1064.52 558.915 1062.78 556.948C1061.04 554.943 1058.6 553.278 1055.46 551.954C1052.35 550.592 1048.72 549.381 1044.55 548.322L1031.32 544.917C1021.74 542.458 1014.17 538.731 1008.6 533.737C1003.08 528.705 1000.31 522.027 1000.31 513.704C1000.31 506.856 1002.17 500.86 1005.88 495.714C1009.63 490.569 1014.72 486.577 1021.15 483.74C1027.59 480.864 1034.88 479.427 1043.02 479.427C1051.27 479.427 1058.5 480.864 1064.71 483.74C1070.96 486.577 1075.86 490.531 1079.42 495.601C1082.98 500.632 1084.82 506.421 1084.93 512.966H1064.66Z" fill="#F0F0F0"/>
<path d="M899.434 597.24V481.016H943.049C951.984 481.016 959.48 482.567 965.538 485.669C971.633 488.772 976.233 493.122 979.338 498.722C982.48 504.283 984.051 510.772 984.051 518.187C984.051 525.64 982.461 532.11 979.281 537.596C976.138 543.044 971.501 547.262 965.367 550.251C959.234 553.202 951.7 554.678 942.765 554.678H911.7V537.198H939.925C945.15 537.198 949.428 536.48 952.76 535.042C956.091 533.566 958.552 531.429 960.142 528.629C961.77 525.792 962.585 522.311 962.585 518.187C962.585 514.063 961.77 510.545 960.142 507.632C958.514 504.681 956.035 502.448 952.703 500.935C949.371 499.384 945.074 498.608 939.812 498.608H920.503V597.24H899.434ZM959.518 544.576L988.311 597.24H964.799L936.518 544.576H959.518Z" fill="#F0F0F0"/>
<path d="M804.293 597.24V481.016H879.938V498.665H825.362V530.218H876.019V547.868H825.362V579.591H880.392V597.24H804.293Z" fill="#F0F0F0"/>
<path d="M703.375 597.24V481.016H746.99C755.925 481.016 763.421 482.68 769.479 486.01C775.575 489.339 780.175 493.917 783.279 499.743C786.421 505.532 787.993 512.115 787.993 519.492C787.993 526.946 786.421 533.566 783.279 539.355C780.137 545.144 775.499 549.702 769.365 553.032C763.232 556.323 755.679 557.969 746.706 557.969H717.8V540.66H743.867C749.091 540.66 753.369 539.752 756.701 537.936C760.033 536.12 762.494 533.623 764.084 530.445C765.712 527.267 766.526 523.616 766.526 519.492C766.526 515.369 765.712 511.736 764.084 508.596C762.494 505.456 760.014 503.016 756.644 501.276C753.313 499.497 749.016 498.608 743.753 498.608H724.444V597.24H703.375Z" fill="#F0F0F0"/>
<path d="M685.454 539.128C685.454 551.651 683.106 562.377 678.412 571.306C673.755 580.197 667.394 587.007 659.33 591.736C651.304 596.465 642.198 598.829 632.014 598.829C621.83 598.829 612.705 596.465 604.641 591.736C596.615 586.969 590.254 580.14 585.559 571.249C580.903 562.32 578.574 551.613 578.574 539.128C578.574 526.605 580.903 515.898 585.559 507.007C590.254 498.079 596.615 491.25 604.641 486.521C612.705 481.791 621.83 479.427 632.014 479.427C642.198 479.427 651.304 481.791 659.33 486.521C667.394 491.25 673.755 498.079 678.412 507.007C683.106 515.898 685.454 526.605 685.454 539.128ZM664.271 539.128C664.271 530.313 662.889 522.879 660.125 516.825C657.399 510.734 653.613 506.137 648.767 503.035C643.921 499.895 638.337 498.325 632.014 498.325C625.691 498.325 620.107 499.895 615.261 503.035C610.415 506.137 606.61 510.734 603.846 516.825C601.12 522.879 599.757 530.313 599.757 539.128C599.757 547.943 601.12 555.397 603.846 561.488C606.61 567.541 610.415 572.138 615.261 575.278C620.107 578.38 625.691 579.932 632.014 579.932C638.337 579.932 643.921 578.38 648.767 575.278C653.613 572.138 657.399 567.541 660.125 561.488C662.889 555.397 664.271 547.943 664.271 539.128Z" fill="#F0F0F0"/>
<path d="M497.477 597.24V481.016H518.546V579.591H569.771V597.24H497.477Z" fill="#F0F0F0"/>
<path d="M402.334 597.24V481.016H477.979V498.665H423.403V530.218H474.06V547.868H423.403V579.591H478.433V597.24H402.334Z" fill="#F0F0F0"/>
<path d="M304.168 481.016L334.438 572.497H335.63L365.843 481.016H389.013L348.011 597.24H322.001L281.055 481.016H304.168Z" fill="#F0F0F0"/>
<path d="M193.469 597.24V481.016H269.114V498.665H214.538V530.218H265.195V547.868H214.538V579.591H269.568V597.24H193.469Z" fill="#F0F0F0"/>
<path d="M118.998 597.24H79.5859V481.016H119.794C131.341 481.016 141.26 483.342 149.552 487.996C157.881 492.612 164.279 499.251 168.747 507.915C173.214 516.579 175.448 526.946 175.448 539.014C175.448 551.121 173.195 561.525 168.69 570.227C164.223 578.929 157.767 585.607 149.325 590.26C140.92 594.914 130.811 597.24 118.998 597.24ZM100.655 579.023H117.976C126.078 579.023 132.836 577.548 138.25 574.597C143.664 571.608 147.734 567.163 150.46 561.261C153.186 555.321 154.549 547.905 154.549 539.014C154.549 530.124 153.186 522.746 150.46 516.882C147.734 510.98 143.702 506.572 138.364 503.659C133.064 500.708 126.476 499.232 118.601 499.232H100.655V579.023Z" fill="#F0F0F0"/>
<path d="M932.324 437.432V321.207H975.939C984.874 321.207 992.371 322.758 998.428 325.861C1004.52 328.963 1009.12 333.314 1012.23 338.913C1015.37 344.475 1016.94 350.963 1016.94 358.379C1016.94 365.832 1015.35 372.301 1012.17 377.787C1009.03 383.235 1004.39 387.454 998.258 390.442C992.124 393.394 984.59 394.869 975.655 394.869H944.591V377.39H972.816C978.04 377.39 982.319 376.671 985.65 375.233C988.982 373.758 991.443 371.62 993.033 368.821C994.661 365.983 995.475 362.502 995.475 358.379C995.475 354.255 994.661 350.736 993.033 347.823C991.405 344.872 988.925 342.64 985.594 341.126C982.262 339.575 977.965 338.8 972.702 338.8H953.393V437.432H932.324ZM992.408 384.767L1021.2 437.432H997.69L969.408 384.767H992.408Z" fill="#F0F0F0"/>
<path d="M914.405 379.32C914.405 391.842 912.058 402.568 907.363 411.497C902.706 420.388 896.346 427.198 888.281 431.927C880.255 436.656 871.15 439.021 860.965 439.021C850.781 439.021 841.656 436.656 833.592 431.927C825.566 427.16 819.205 420.331 814.511 411.44C809.854 402.512 807.525 391.805 807.525 379.32C807.525 366.797 809.854 356.09 814.511 347.199C819.205 338.27 825.566 331.441 833.592 326.712C841.656 321.983 850.781 319.618 860.965 319.618C871.15 319.618 880.255 321.983 888.281 326.712C896.346 331.441 902.706 338.27 907.363 347.199C912.058 356.09 914.405 366.797 914.405 379.32ZM893.222 379.32C893.222 370.504 891.84 363.07 889.076 357.017C886.35 350.925 882.564 346.329 877.718 343.226C872.872 340.086 867.288 338.516 860.965 338.516C854.643 338.516 849.058 340.086 844.212 343.226C839.366 346.329 835.561 350.925 832.797 357.017C830.071 363.07 828.708 370.504 828.708 379.32C828.708 388.135 830.071 395.588 832.797 401.679C835.561 407.733 839.366 412.329 844.212 415.47C849.058 418.572 854.643 420.123 860.965 420.123C867.288 420.123 872.872 418.572 877.718 415.47C882.564 412.329 886.35 407.733 889.076 401.679C891.84 395.588 893.222 388.135 893.222 379.32Z" fill="#F0F0F0"/>
<path d="M718.773 437.432V321.207H793.282V338.856H739.843V370.41H788.171V388.059H739.843V437.432H718.773Z" fill="#F0F0F0"/>
<path d="M642.457 353.158C641.927 348.201 639.693 344.342 635.756 341.581C631.856 338.819 626.783 337.438 620.536 337.438C616.144 337.438 612.377 338.1 609.235 339.424C606.092 340.748 603.688 342.545 602.022 344.815C600.356 347.085 599.505 349.677 599.467 352.59C599.467 355.011 600.016 357.111 601.114 358.889C602.25 360.668 603.783 362.181 605.714 363.429C607.645 364.64 609.784 365.662 612.131 366.494C614.478 367.326 616.845 368.026 619.23 368.594L630.134 371.318C634.525 372.339 638.747 373.72 642.798 375.461C646.887 377.201 650.54 379.395 653.758 382.044C657.014 384.692 659.589 387.889 661.482 391.634C663.375 395.38 664.321 399.769 664.321 404.8C664.321 411.611 662.58 417.607 659.097 422.79C655.614 427.936 650.578 431.965 643.99 434.878C637.441 437.753 629.509 439.191 620.195 439.191C611.147 439.191 603.291 437.791 596.627 434.992C590.002 432.192 584.815 428.106 581.067 422.734C577.356 417.361 575.35 410.816 575.047 403.098H595.775C596.078 407.146 597.328 410.513 599.524 413.2C601.719 415.886 604.578 417.891 608.099 419.215C611.658 420.539 615.633 421.201 620.025 421.201C624.606 421.201 628.619 420.52 632.064 419.158C635.548 417.758 638.274 415.829 640.242 413.37C642.211 410.873 643.214 407.96 643.252 404.63C643.214 401.604 642.325 399.107 640.583 397.139C638.841 395.134 636.399 393.469 633.257 392.145C630.152 390.783 626.518 389.572 622.353 388.513L609.121 385.108C599.542 382.649 591.97 378.922 586.405 373.928C580.877 368.896 578.114 362.219 578.114 353.895C578.114 347.047 579.969 341.051 583.679 335.906C587.427 330.76 592.519 326.769 598.956 323.931C605.392 321.056 612.68 319.618 620.82 319.618C629.073 319.618 636.305 321.056 642.514 323.931C648.761 326.769 653.664 330.722 657.223 335.792C660.781 340.824 662.618 346.612 662.731 353.158H642.457Z" fill="#F0F0F0"/>
<path d="M490.666 437.432V321.207H511.735V419.782H562.96V437.432H490.666Z" fill="#F0F0F0"/>
<path d="M472.747 379.32C472.747 391.842 470.399 402.568 465.705 411.497C461.048 420.388 454.687 427.198 446.623 431.927C438.597 436.656 429.491 439.021 419.307 439.021C409.123 439.021 399.998 436.656 391.934 431.927C383.908 427.16 377.547 420.331 372.852 411.44C368.196 402.512 365.867 391.805 365.867 379.32C365.867 366.797 368.196 356.09 372.852 347.199C377.547 338.27 383.908 331.441 391.934 326.712C399.998 321.983 409.123 319.618 419.307 319.618C429.491 319.618 438.597 321.983 446.623 326.712C454.687 331.441 461.048 338.27 465.705 347.199C470.399 356.09 472.747 366.797 472.747 379.32ZM451.564 379.32C451.564 370.504 450.182 363.07 447.418 357.017C444.692 350.925 440.906 346.329 436.06 343.226C431.214 340.086 425.63 338.516 419.307 338.516C412.984 338.516 407.4 340.086 402.554 343.226C397.708 346.329 393.903 350.925 391.139 357.017C388.413 363.07 387.05 370.504 387.05 379.32C387.05 388.135 388.413 395.588 391.139 401.679C393.903 407.733 397.708 412.329 402.554 415.47C407.4 418.572 412.984 420.123 419.307 420.123C425.63 420.123 431.214 418.572 436.06 415.47C440.906 412.329 444.692 407.733 447.418 401.679C450.182 395.588 451.564 388.135 451.564 379.32Z" fill="#F0F0F0"/>
<path d="M350.899 379.32C350.899 391.842 348.552 402.568 343.857 411.497C339.2 420.388 332.84 427.198 324.775 431.927C316.749 436.656 307.644 439.021 297.459 439.021C287.275 439.021 278.151 436.656 270.086 431.927C262.06 427.16 255.699 420.331 251.005 411.44C246.348 402.512 244.02 391.805 244.02 379.32C244.02 366.797 246.348 356.09 251.005 347.199C255.699 338.27 262.06 331.441 270.086 326.712C278.151 321.983 287.275 319.618 297.459 319.618C307.644 319.618 316.749 321.983 324.775 326.712C332.84 331.441 339.2 338.27 343.857 347.199C348.552 356.09 350.899 366.797 350.899 379.32ZM329.716 379.32C329.716 370.504 328.334 363.07 325.571 357.017C322.845 350.925 319.059 346.329 314.212 343.226C309.366 340.086 303.782 338.516 297.459 338.516C291.137 338.516 285.552 340.086 280.706 343.226C275.86 346.329 272.055 350.925 269.291 357.017C266.565 363.07 265.202 370.504 265.202 379.32C265.202 388.135 266.565 395.588 269.291 401.679C272.055 407.733 275.86 412.329 280.706 415.47C285.552 418.572 291.137 420.123 297.459 420.123C303.782 420.123 309.366 418.572 314.212 415.47C319.059 412.329 322.845 407.733 325.571 401.679C328.334 395.588 329.716 388.135 329.716 379.32Z" fill="#F0F0F0"/>
<path d="M143.441 338.856V321.207H236.237V338.856H200.289V437.432H179.39V338.856H143.441Z" fill="#F0F0F0"/>
<path d="M1074.21 179.047V161.397H1167V179.047H1131.05V277.622H1110.15V179.047H1074.21Z" fill="#F0F0F0"/>
<path d="M1058.36 161.397V277.622H1039.62L984.814 198.455H983.849V277.622H962.779V161.397H981.634L1036.38 240.621H1037.4V161.397H1058.36Z" fill="#F0F0F0"/>
<path d="M867.637 277.622V161.397H943.282V179.047H888.706V210.6H939.363V228.249H888.706V259.973H943.736V277.622H867.637Z" fill="#F0F0F0"/>
<path d="M724.707 161.397H750.49L785.018 245.615H786.381L820.91 161.397H846.693V277.622H826.475V197.774H825.396L793.253 277.282H778.147L746.003 197.604H744.924V277.622H724.707V161.397Z" fill="#F0F0F0"/>
<path d="M623.789 277.622V161.397H667.404C676.339 161.397 683.835 163.062 689.893 166.391C695.989 169.721 700.589 174.299 703.693 180.125C706.836 185.914 708.407 192.497 708.407 199.874C708.407 207.327 706.836 213.948 703.693 219.737C700.551 225.525 695.913 230.084 689.779 233.414C683.646 236.705 676.093 238.351 667.12 238.351H638.214V221.042H664.281C669.505 221.042 673.784 220.134 677.115 218.318C680.447 216.502 682.908 214.005 684.498 210.827C686.126 207.649 686.94 203.998 686.94 199.874C686.94 195.75 686.126 192.118 684.498 188.978C682.908 185.838 680.428 183.398 677.058 181.657C673.727 179.879 669.43 178.99 664.167 178.99H644.858V277.622H623.789Z" fill="#F0F0F0"/>
<path d="M605.868 219.51C605.868 232.033 603.52 242.759 598.826 251.687C594.169 260.578 587.808 267.388 579.744 272.118C571.718 276.847 562.612 279.211 552.428 279.211C542.244 279.211 533.119 276.847 525.055 272.118C517.029 267.351 510.668 260.522 505.973 251.631C501.317 242.702 498.988 231.995 498.988 219.51C498.988 206.987 501.317 196.28 505.973 187.389C510.668 178.461 517.029 171.632 525.055 166.902C533.119 162.173 542.244 159.809 552.428 159.809C562.612 159.809 571.718 162.173 579.744 166.902C587.808 171.632 594.169 178.461 598.826 187.389C603.52 196.28 605.868 206.987 605.868 219.51ZM584.685 219.51C584.685 210.695 583.303 203.26 580.539 197.207C577.813 191.116 574.027 186.519 569.181 183.417C564.335 180.277 558.751 178.706 552.428 178.706C546.105 178.706 540.521 180.277 535.675 183.417C530.829 186.519 527.024 191.116 524.26 197.207C521.534 203.26 520.171 210.695 520.171 219.51C520.171 228.325 521.534 235.778 524.26 241.87C527.024 247.923 530.829 252.52 535.675 255.66C540.521 258.762 546.105 260.313 552.428 260.313C558.751 260.313 564.335 258.762 569.181 255.66C574.027 252.52 577.813 247.923 580.539 241.87C583.303 235.778 584.685 228.325 584.685 219.51Z" fill="#F0F0F0"/>
<path d="M417.891 277.622V161.397H438.96V259.973H490.185V277.622H417.891Z" fill="#F0F0F0"/>
<path d="M322.748 277.622V161.397H398.393V179.047H343.817V210.6H394.474V228.249H343.817V259.973H398.847V277.622H322.748Z" fill="#F0F0F0"/>
<path d="M224.582 161.397L254.852 252.879H256.044L286.257 161.397H309.427L268.425 277.622H242.415L201.469 161.397H224.582Z" fill="#F0F0F0"/>
<path d="M113.883 277.622V161.397H189.528V179.047H134.952V210.6H185.609V228.249H134.952V259.973H189.982V277.622H113.883Z" fill="#F0F0F0"/>
<path d="M39.4125 277.622H0V161.397H40.2076C51.755 161.397 61.6744 163.724 69.9658 168.378C78.295 172.993 84.6934 179.633 89.1609 188.297C93.6284 196.961 95.8622 207.327 95.8622 219.396C95.8622 231.503 93.6095 241.907 89.1041 250.609C84.6366 259.311 78.1814 265.988 69.7386 270.642C61.3336 275.295 51.2249 277.622 39.4125 277.622ZM21.0692 259.405H38.3903C46.4924 259.405 53.2505 257.93 58.6645 254.979C64.0785 251.99 68.1485 247.544 70.8744 241.642C73.6004 235.703 74.9633 228.287 74.9633 219.396C74.9633 210.505 73.6004 203.128 70.8744 197.264C68.1485 191.362 64.1164 186.954 58.7781 184.041C53.4776 181.09 46.8899 179.614 39.015 179.614H21.0692V259.405Z" fill="#F0F0F0"/>
<path d="M935.277 117.814V1.58887H1010.92V19.2382H956.347V50.7914H1007V68.4408H956.347V100.164H1011.38V117.814H935.277Z" fill="#F0F0F0"/>
<path d="M833.264 117.814V1.58887H876.879C885.814 1.58887 893.31 3.14004 899.368 6.24239C905.463 9.34475 910.063 13.6956 913.168 19.295C916.31 24.8565 917.881 31.345 917.881 38.7603C917.881 46.2136 916.291 52.6831 913.111 58.169C909.969 63.617 905.331 67.8354 899.197 70.8243C893.064 73.7753 885.53 75.2508 876.595 75.2508H845.53V57.7717H873.755C878.98 57.7717 883.258 57.0529 886.59 55.6152C889.922 54.1397 892.382 52.0021 893.973 49.2024C895.601 46.3649 896.415 42.8842 896.415 38.7603C896.415 34.6365 895.601 31.118 893.973 28.2048C892.345 25.2538 889.865 23.0216 886.533 21.5082C883.201 19.9571 878.904 19.1815 873.642 19.1815H854.333V117.814H833.264ZM893.348 65.1493L922.141 117.814H898.629L870.348 65.1493H893.348Z" fill="#F0F0F0"/>
<path d="M734.473 117.814H711.984L752.93 1.58887H778.94L819.943 117.814H797.454L766.39 25.424H765.481L734.473 117.814ZM735.212 72.2431H796.545V89.1547H735.212V72.2431Z" fill="#F0F0F0"/>
<path d="M595.93 117.814L563.105 1.58887H585.765L606.72 86.9981H607.799L630.175 1.58887H650.79L673.222 87.0549H674.244L695.2 1.58887H717.859L685.034 117.814H664.249L640.965 36.2633H640.056L616.716 117.814H595.93Z" fill="#F0F0F0"/>
<path d="M462.77 19.2382V1.58887H555.565V19.2382H519.617V117.814H498.718V19.2382H462.77Z" fill="#F0F0F0"/>
<path d="M376.176 117.814V1.58887H450.685V19.2382H397.245V50.7914H445.574V68.4408H397.245V117.814H376.176Z" fill="#F0F0F0"/>
<path d="M358.256 59.7014C358.256 72.2243 355.909 82.9501 351.214 91.8788C346.558 100.77 340.197 107.58 332.133 112.309C324.107 117.038 315.001 119.403 304.817 119.403C294.632 119.403 285.508 117.038 277.444 112.309C269.417 107.542 263.057 100.713 258.362 91.8221C253.705 82.8933 251.377 72.1864 251.377 59.7014C251.377 47.1785 253.705 36.4716 258.362 27.5807C263.057 18.652 269.417 11.823 277.444 7.09379C285.508 2.3646 294.632 0 304.817 0C315.001 0 324.107 2.3646 332.133 7.09379C340.197 11.823 346.558 18.652 351.214 27.5807C355.909 36.4716 358.256 47.1785 358.256 59.7014ZM337.074 59.7014C337.074 50.8862 335.692 43.4519 332.928 37.3985C330.202 31.3073 326.416 26.7105 321.57 23.6082C316.724 20.468 311.139 18.8979 304.817 18.8979C298.494 18.8979 292.91 20.468 288.064 23.6082C283.217 26.7105 279.412 31.3073 276.649 37.3985C273.923 43.4519 272.56 50.8862 272.56 59.7014C272.56 68.5166 273.923 75.9698 276.649 82.061C279.412 88.1144 283.217 92.7112 288.064 95.8513C292.91 98.9537 298.494 100.505 304.817 100.505C311.139 100.505 316.724 98.9537 321.57 95.8513C326.416 92.7112 330.202 88.1144 332.928 82.061C335.692 75.9698 337.074 68.5166 337.074 59.7014Z" fill="#F0F0F0"/>
<path d="M215.68 33.5395C215.15 28.5833 212.916 24.7242 208.978 21.9624C205.079 19.2005 200.006 17.8196 193.759 17.8196C189.367 17.8196 185.6 18.4817 182.457 19.8059C179.315 21.13 176.911 22.9271 175.245 25.1972C173.579 27.4672 172.727 30.0588 172.689 32.972C172.689 35.3933 173.238 37.4931 174.336 39.2712C175.472 41.0494 177.005 42.5628 178.936 43.8113C180.867 45.0219 183.006 46.0435 185.354 46.8758C187.701 47.7081 190.067 48.4081 192.452 48.9756L203.356 51.6996C207.748 52.7211 211.969 54.102 216.02 55.8424C220.109 57.5827 223.763 59.777 226.981 62.4254C230.237 65.0737 232.812 68.2707 234.705 72.0162C236.598 75.7617 237.544 80.1504 237.544 85.1823C237.544 91.9923 235.802 97.989 232.319 103.172C228.836 108.318 223.801 112.347 217.213 115.26C210.663 118.135 202.732 119.573 193.418 119.573C184.369 119.573 176.513 118.173 169.85 115.373C163.224 112.574 158.037 108.488 154.289 103.115C150.579 97.743 148.572 91.1978 148.27 83.4798H168.998C169.301 87.528 170.55 90.8952 172.746 93.5813C174.942 96.2675 177.801 98.2727 181.322 99.5969C184.88 100.921 188.856 101.583 193.248 101.583C197.829 101.583 201.842 100.902 205.287 99.5401C208.77 98.1403 211.496 96.2108 213.465 93.7516C215.434 91.2546 216.437 88.3414 216.475 85.012C216.437 81.9854 215.547 79.4883 213.806 77.521C212.064 75.5158 209.622 73.8511 206.48 72.527C203.375 71.1649 199.741 69.9543 195.576 68.8949L182.344 65.4899C172.765 63.0307 165.193 59.3041 159.628 54.3101C154.1 49.2782 151.336 42.6006 151.336 34.2772C151.336 27.4293 153.191 21.4327 156.902 16.2874C160.65 11.142 165.742 7.15055 172.178 4.31302C178.615 1.43767 185.903 0 194.043 0C202.296 0 209.527 1.43767 215.737 4.31302C221.983 7.15055 226.886 11.1042 230.445 16.1739C234.004 21.2057 235.84 26.9943 235.954 33.5395H215.68Z" fill="#F0F0F0"/>
</svg>
