<svg width="42" height="42" viewBox="0 0 42 42" fill="none" xmlns="http://www.w3.org/2000/svg">
<g clip-path="url(#clip0_852_7626)">
<path d="M12.145 16.625H8.855C7.83051 16.625 7 17.4555 7 18.48V31.395C7 32.4195 7.83051 33.25 8.855 33.25H12.145C13.1695 33.25 14 32.4195 14 31.395V18.48C14 17.4555 13.1695 16.625 12.145 16.625Z" stroke="#001AFF" stroke-width="2" stroke-linecap="round" stroke-linejoin="round"/>
<path d="M14 18.4978L20.3875 10.1853C21.5775 8.64525 23.905 8.59275 25.13 10.0978C25.585 10.6578 25.8475 11.3578 25.8475 12.0928V17.8153H31.2725C32.3225 17.8153 33.3025 18.3403 33.8975 19.2153L34.475 20.0728C35 20.8428 35.14 21.8053 34.8775 22.6978L32.4975 30.9578C32.1125 32.3053 30.87 33.2328 29.47 33.2328H18.4625C17.5875 33.2328 16.7475 32.8653 16.1525 32.2353L14 29.9078" stroke="#001AFF" stroke-width="2" stroke-linecap="round" stroke-linejoin="round"/>
</g>
<defs>
<clipPath id="clip0_852_7626">
<rect width="42" height="42" fill="white"/>
</clipPath>
</defs>
</svg>
