<svg width="59" height="59" viewBox="0 0 59 59" fill="none" xmlns="http://www.w3.org/2000/svg">
<g clip-path="url(#clip0_1032_4792)">
<path d="M7.375 19.667H51.625" stroke="#001AFF" stroke-width="2" stroke-linecap="round" stroke-linejoin="round"/>
<path d="M51.625 24.5833V12.2917C51.625 9.56292 49.4125 7.375 46.7083 7.375H12.2917C9.56292 7.375 7.375 9.56292 7.375 12.2917V44.25C7.375 46.9542 9.56292 49.1667 12.2917 49.1667H22.125" stroke="#001AFF" stroke-width="2" stroke-linecap="round" stroke-linejoin="round"/>
<path d="M51.6253 51.6253L46.7578 46.7578" stroke="#001AFF" stroke-width="2" stroke-linecap="round" stroke-linejoin="round"/>
<path d="M38.916 27.8525C45.0373 27.8525 49.9785 32.7938 49.9785 38.915C49.9785 45.0363 45.0373 49.9775 38.916 49.9775C32.7948 49.9775 27.8535 45.0363 27.8535 38.915C27.8535 32.7938 32.7948 27.8525 38.916 27.8525Z" stroke="#001AFF" stroke-width="2" stroke-linecap="round" stroke-linejoin="round"/>
<path d="M43.2174 36.7764L37.8337 42.1601L34.6133 38.9397" stroke="#001AFF" stroke-width="2" stroke-linecap="round" stroke-linejoin="round"/>
</g>
<defs>
<clipPath id="clip0_1032_4792">
<rect width="59" height="59" fill="white"/>
</clipPath>
</defs>
</svg>
