<svg width="81" height="80" viewBox="0 0 81 80" fill="none" xmlns="http://www.w3.org/2000/svg">
<path d="M64.4399 33.0264H23.7539V60.9255H64.4399V33.0264Z" fill="#71C2AD"/>
<path d="M3.32617 46.8992H23.7546V60.9257H5.31313C4.22651 60.9257 3.32617 60.0481 3.32617 58.9549V46.8838V46.8992Z" fill="#00A087"/>
<path d="M23.7546 32.8574H3.32617V46.884H23.7546V32.8574Z" fill="#00A087"/>
<path d="M23.7539 19H62.453C63.5396 19 64.4399 19.8776 64.4399 20.9708V33.042H23.7539V19Z" fill="#00A087"/>
<path d="M5.31313 19H23.7546V33.0266H3.32617V20.9708C3.32617 19.8776 4.21099 19 5.31313 19Z" fill="#005451"/>
<path d="M23.7539 19V60.9257" stroke="#C9E5DF" stroke-miterlimit="10"/>
<path d="M44.1816 19V60.9257" stroke="#C9E5DF" stroke-miterlimit="10"/>
<path d="M3.32617 32.8574H64.4406" stroke="#C9E5DF" stroke-miterlimit="10"/>
<path d="M3.32617 46.8994H64.4406" stroke="#C9E5DF" stroke-miterlimit="10"/>
<path d="M43.3926 46.0986V69.6251C43.3926 70.7028 44.2774 71.5959 45.3795 71.5959H75.603C76.6896 71.5959 77.5899 70.7182 77.5899 69.6251V46.0986H43.4081H43.3926Z" fill="#C9E5DF"/>
<path d="M43.3925 40.2784V46.0984H77.5743V40.2784C77.5743 39.2006 76.6895 38.3076 75.5874 38.3076H45.3639C44.2773 38.3076 43.377 39.1852 43.377 40.2784H43.3925Z" fill="#005451"/>
<path d="M51.697 50.9795H47.1797C46.6911 50.9795 46.2949 51.3724 46.2949 51.8571V56.3376C46.2949 56.8223 46.6911 57.2152 47.1797 57.2152H51.697C52.1856 57.2152 52.5818 56.8223 52.5818 56.3376V51.8571C52.5818 51.3724 52.1856 50.9795 51.697 50.9795Z" fill="#00A087"/>
<path d="M73.8182 50.9785H57.4258C56.9372 50.9785 56.541 51.3714 56.541 51.8561V56.3366C56.541 56.8213 56.9372 57.2143 57.4258 57.2143H73.8182C74.3069 57.2143 74.703 56.8213 74.703 56.3366V51.8561C74.703 51.3714 74.3069 50.9785 73.8182 50.9785Z" fill="#00A087"/>
<path d="M51.697 60.4795H47.1797C46.6911 60.4795 46.2949 60.8724 46.2949 61.3571V65.8376C46.2949 66.3223 46.6911 66.7152 47.1797 66.7152H51.697C52.1856 66.7152 52.5818 66.3223 52.5818 65.8376V61.3571C52.5818 60.8724 52.1856 60.4795 51.697 60.4795Z" fill="#00A087"/>
<path d="M73.8182 60.4795H57.4258C56.9372 60.4795 56.541 60.8724 56.541 61.3571V65.8376C56.541 66.3223 56.9372 66.7152 57.4258 66.7152H73.8182C74.3069 66.7152 74.703 66.3223 74.703 65.8376V61.3571C74.703 60.8724 74.3069 60.4795 73.8182 60.4795Z" fill="#00A087"/>
<path d="M47.7539 53.6122L49.182 55.3674L51.1069 52.8115" stroke="#E9F4F3" stroke-width="0.5" stroke-linecap="round" stroke-linejoin="round"/>
</svg>
