<svg width="59" height="59" viewBox="0 0 59 59" fill="none" xmlns="http://www.w3.org/2000/svg">
<g clip-path="url(#clip0_1032_4782)">
<path d="M20.8457 40.513C21.657 41.3243 22.7632 41.7913 23.9432 41.7913C26.1065 41.7913 27.9503 40.1934 28.2699 38.0547L30.7774 20.9447C31.097 18.8059 32.9407 17.208 35.104 17.208C36.2595 17.208 37.3657 17.6751 38.2015 18.4863" stroke="#001AFF" stroke-width="2" stroke-linecap="round" stroke-linejoin="round"/>
<path d="M37.5137 28.3936H22.7637" stroke="#001AFF" stroke-width="2" stroke-linecap="round" stroke-linejoin="round"/>
<path d="M29.5 51.625C41.7193 51.625 51.625 41.7193 51.625 29.5C51.625 17.2807 41.7193 7.375 29.5 7.375C17.2807 7.375 7.375 17.2807 7.375 29.5C7.375 41.7193 17.2807 51.625 29.5 51.625Z" stroke="#001AFF" stroke-width="2" stroke-linecap="round" stroke-linejoin="round"/>
</g>
<defs>
<clipPath id="clip0_1032_4782">
<rect width="59" height="59" fill="white"/>
</clipPath>
</defs>
</svg>
