<svg width="1070" height="395" viewBox="0 0 1070 395" fill="none" xmlns="http://www.w3.org/2000/svg">
<rect x="441" y="0.000976562" width="188" height="113" rx="12" fill="white"/>
<path d="M506.148 41.001V29.3646H508.256V34.2907H513.648V29.3646H515.761V41.001H513.648V36.0578H508.256V41.001H506.148ZM519.474 41.1771C518.921 41.1771 518.423 41.0786 517.98 40.8817C517.541 40.6809 517.192 40.3854 516.935 39.9953C516.681 39.6051 516.554 39.1241 516.554 38.5521C516.554 38.0597 516.645 37.6525 516.827 37.3305C517.009 37.0086 517.257 36.751 517.571 36.5578C517.885 36.3646 518.24 36.2188 518.634 36.1203C519.031 36.018 519.442 35.9442 519.866 35.8987C520.378 35.8457 520.793 35.7983 521.111 35.7567C521.429 35.7112 521.66 35.643 521.804 35.5521C521.952 35.4574 522.026 35.3116 522.026 35.1146V35.0805C522.026 34.6525 521.899 34.3211 521.645 34.0862C521.391 33.8514 521.026 33.7339 520.548 33.7339C520.045 33.7339 519.645 33.8438 519.349 34.0635C519.058 34.2832 518.861 34.5426 518.759 34.8419L516.838 34.5692C516.99 34.0389 517.24 33.5957 517.588 33.2396C517.937 32.8798 518.363 32.6108 518.866 32.4328C519.37 32.251 519.927 32.1601 520.537 32.1601C520.957 32.1601 521.376 32.2093 521.793 32.3078C522.209 32.4063 522.59 32.5692 522.935 32.7964C523.279 33.0199 523.556 33.3248 523.764 33.7112C523.976 34.0976 524.082 34.5805 524.082 35.1601V41.001H522.105V39.8021H522.037C521.912 40.0445 521.736 40.2718 521.509 40.4839C521.285 40.6923 521.003 40.8608 520.662 40.9896C520.325 41.1146 519.929 41.1771 519.474 41.1771ZM520.009 39.6657C520.421 39.6657 520.779 39.5843 521.082 39.4214C521.385 39.2548 521.618 39.0351 521.781 38.7623C521.948 38.4896 522.031 38.1923 522.031 37.8703V36.8419C521.967 36.8949 521.857 36.9442 521.702 36.9896C521.55 37.0351 521.38 37.0748 521.19 37.1089C521.001 37.143 520.813 37.1733 520.628 37.1998C520.442 37.2264 520.281 37.2491 520.145 37.268C519.838 37.3097 519.563 37.3779 519.321 37.4726C519.079 37.5673 518.887 37.6998 518.747 37.8703C518.607 38.037 518.537 38.2529 518.537 38.518C518.537 38.8968 518.675 39.1828 518.952 39.376C519.228 39.5692 519.58 39.6657 520.009 39.6657ZM527.207 35.8873V41.001H525.151V32.2737H527.116V33.7567H527.219C527.42 33.268 527.74 32.8798 528.179 32.5919C528.622 32.304 529.17 32.1601 529.821 32.1601C530.423 32.1601 530.948 32.2889 531.395 32.5464C531.846 32.804 532.194 33.1771 532.44 33.6657C532.69 34.1544 532.813 34.7472 532.81 35.4442V41.001H530.753V35.7623C530.753 35.179 530.601 34.7226 530.298 34.393C529.999 34.0635 529.584 33.8987 529.054 33.8987C528.694 33.8987 528.374 33.9782 528.094 34.1373C527.817 34.2926 527.599 34.518 527.44 34.8135C527.285 35.1089 527.207 35.4669 527.207 35.8873ZM537.707 41.1714C536.836 41.1714 536.088 40.9801 535.463 40.5976C534.842 40.215 534.363 39.6866 534.026 39.0123C533.692 38.3343 533.526 37.554 533.526 36.6714C533.526 35.7851 533.696 35.0029 534.037 34.3248C534.378 33.643 534.859 33.1127 535.48 32.7339C536.105 32.3514 536.844 32.1601 537.696 32.1601C538.404 32.1601 539.031 32.2907 539.577 32.5521C540.126 32.8097 540.563 33.1752 540.889 33.6487C541.215 34.1184 541.401 34.6676 541.446 35.2964H539.48C539.401 34.876 539.211 34.5256 538.912 34.2453C538.616 33.9612 538.221 33.8192 537.724 33.8192C537.304 33.8192 536.935 33.9328 536.616 34.1601C536.298 34.3836 536.05 34.7055 535.872 35.126C535.698 35.5464 535.611 36.0502 535.611 36.6373C535.611 37.232 535.698 37.7434 535.872 38.1714C536.046 38.5957 536.291 38.9233 536.605 39.1544C536.923 39.3817 537.296 39.4953 537.724 39.4953C538.027 39.4953 538.298 39.4385 538.537 39.3248C538.779 39.2074 538.982 39.0389 539.145 38.8192C539.308 38.5995 539.42 38.3324 539.48 38.018H541.446C541.397 38.6354 541.215 39.1828 540.901 39.6601C540.586 40.1336 540.158 40.5048 539.616 40.7737C539.075 41.0389 538.438 41.1714 537.707 41.1714ZM545.942 41.1714C545.089 41.1714 544.351 40.9839 543.726 40.6089C543.101 40.2339 542.616 39.7093 542.271 39.0351C541.93 38.3608 541.76 37.5729 541.76 36.6714C541.76 35.7699 541.93 34.9801 542.271 34.3021C542.616 33.6241 543.101 33.0976 543.726 32.7226C544.351 32.3476 545.089 32.1601 545.942 32.1601C546.794 32.1601 547.533 32.3476 548.158 32.7226C548.783 33.0976 549.266 33.6241 549.607 34.3021C549.951 34.9801 550.124 35.7699 550.124 36.6714C550.124 37.5729 549.951 38.3608 549.607 39.0351C549.266 39.7093 548.783 40.2339 548.158 40.6089C547.533 40.9839 546.794 41.1714 545.942 41.1714ZM545.953 39.5237C546.415 39.5237 546.802 39.3968 547.112 39.143C547.423 38.8854 547.654 38.5407 547.805 38.1089C547.961 37.6771 548.038 37.1961 548.038 36.6657C548.038 36.1317 547.961 35.6487 547.805 35.2169C547.654 34.7813 547.423 34.4347 547.112 34.1771C546.802 33.9195 546.415 33.7907 545.953 33.7907C545.48 33.7907 545.086 33.9195 544.771 34.1771C544.461 34.4347 544.228 34.7813 544.072 35.2169C543.921 35.6487 543.845 36.1317 543.845 36.6657C543.845 37.1961 543.921 37.6771 544.072 38.1089C544.228 38.5407 544.461 38.8854 544.771 39.143C545.086 39.3968 545.48 39.5237 545.953 39.5237ZM550.869 41.001V32.2737H552.835V33.7567H552.938C553.119 33.2567 553.42 32.8665 553.841 32.5862C554.261 32.3021 554.763 32.1601 555.347 32.1601C555.938 32.1601 556.436 32.304 556.841 32.5919C557.25 32.876 557.538 33.2642 557.705 33.7567H557.795C557.989 33.2718 558.314 32.8854 558.773 32.5976C559.235 32.3059 559.782 32.1601 560.415 32.1601C561.218 32.1601 561.873 32.4139 562.381 32.9214C562.888 33.429 563.142 34.1695 563.142 35.143V41.001H561.08V35.4612C561.08 34.9195 560.936 34.5237 560.648 34.2737C560.36 34.0199 560.008 33.893 559.591 33.893C559.095 33.893 558.706 34.0483 558.426 34.3589C558.15 34.6657 558.011 35.0654 558.011 35.5578V41.001H555.994V35.376C555.994 34.9252 555.858 34.5654 555.585 34.2964C555.316 34.0275 554.964 33.893 554.528 33.893C554.233 33.893 553.964 33.9688 553.722 34.1203C553.479 34.268 553.286 34.4782 553.142 34.751C552.998 35.0199 552.926 35.3343 552.926 35.6942V41.001H550.869Z" fill="#F05323"/>
<path d="M505.362 64.1897C505.252 63.0628 504.773 62.1852 503.931 61.5623C503.088 60.9366 501.943 60.6265 500.498 60.6265C499.516 60.6265 498.687 60.7677 498.01 61.0473C497.333 61.3187 496.815 61.6952 496.452 62.1797C496.1 62.6642 495.923 63.2151 495.923 63.8297C495.904 64.3419 496.012 64.7904 496.243 65.1725C496.485 65.5546 496.813 65.8868 497.231 66.1664C497.649 66.4377 498.131 66.673 498.676 66.8807C499.224 67.0773 499.807 67.2434 500.427 67.3846L502.984 67.9992C504.225 68.2788 505.365 68.6526 506.402 69.1177C507.44 69.5828 508.34 70.1559 509.1 70.837C509.86 71.518 510.449 72.3181 510.864 73.2428C511.291 74.1648 511.508 75.2224 511.517 76.4156C511.508 78.1681 511.062 79.688 510.182 80.9727C509.312 82.249 508.051 83.2429 506.4 83.9516C504.759 84.6521 502.78 85.0009 500.465 85.0009C498.15 85.0009 496.166 84.6465 494.459 83.9378C492.764 83.229 491.44 82.1797 490.484 80.7927C489.54 79.3946 489.042 77.6642 488.998 75.6044H494.822C494.889 76.5651 495.161 77.3652 495.643 78.0103C496.133 78.6443 496.788 79.1233 497.603 79.4499C498.428 79.7656 499.359 79.9261 500.396 79.9261C501.434 79.9261 502.301 79.7766 503.053 79.4776C503.812 79.1786 504.401 78.7633 504.817 78.2345C505.233 77.703 505.442 77.0939 505.442 76.4018C505.442 75.7595 505.252 75.2168 504.872 74.7794C504.5 74.342 503.955 73.9682 503.231 73.6609C502.519 73.3536 501.643 73.074 500.606 72.822L497.506 72.0385C495.106 71.4516 493.212 70.5324 491.822 69.2838C490.432 68.0352 489.741 66.3519 489.752 64.2367C489.744 62.5036 490.201 60.9892 491.129 59.6935C492.064 58.3978 493.347 57.3873 494.979 56.6592C496.612 55.931 498.464 55.5684 500.539 55.5684C502.615 55.5684 504.498 55.931 506.072 56.6592C507.658 57.3873 508.888 58.3978 509.769 59.6935C510.65 60.9892 511.104 62.4898 511.131 64.1952H505.362V64.1897Z" fill="black"/>
<path d="M524.483 84.5873H514.393V55.9521H524.566C527.429 55.9521 529.895 56.5252 531.959 57.6714C534.027 58.8093 535.615 60.4455 536.727 62.5773C537.847 64.7119 538.409 67.2645 538.409 70.2379C538.409 73.2113 537.847 75.7833 536.727 77.9262C535.615 80.0691 534.016 81.7136 531.932 82.8625C529.856 84.0087 527.374 84.5818 524.481 84.5818L524.483 84.5873ZM520.41 79.3991H524.233C526.011 79.3991 527.508 79.0807 528.722 78.4495C529.944 77.8071 530.864 76.8132 531.475 75.4705C532.097 74.1194 532.405 72.3752 532.405 70.2407C532.405 68.1061 532.094 66.3952 531.475 65.0552C530.864 63.7124 529.95 62.724 528.736 62.09C527.522 61.456 526.025 61.1404 524.247 61.1404H520.41V79.3991Z" fill="black"/>
<path d="M541.696 84.5873V55.9521H547.716V68.5768H548.09L558.335 55.9521H565.55L554.985 68.7733L565.674 84.5846H558.473L550.675 72.8127L547.713 76.4478V84.5846H541.693L541.696 84.5873Z" fill="black"/>
<path d="M575.475 49.001C571.877 49.001 568.951 51.944 568.951 55.5625C568.951 59.181 571.877 62.1239 575.475 62.1239C579.072 62.1239 581.998 59.181 581.998 55.5625C581.998 51.944 579.072 49.001 575.475 49.001ZM575.475 60.8726C572.563 60.8726 570.195 58.4916 570.195 55.5625C570.195 52.6333 572.563 50.2524 575.475 50.2524C578.387 50.2524 580.754 52.6333 580.754 55.5625C580.754 58.4916 578.387 60.8726 575.475 60.8726Z" fill="black"/>
<path d="M576.881 53.4309C576.399 53.4309 576.141 53.478 576.031 53.5029C576.039 53.3866 576.061 53.1181 576.061 52.7748V52.127H574.885V52.7748C574.885 53.1181 574.902 53.3866 574.916 53.5029C574.808 53.478 574.55 53.4309 574.065 53.4309H572.18V54.6131H572.678C573.3 54.6131 573.696 54.5328 574.112 54.1923L574.219 54.3197C573.526 54.5993 572.865 55.3551 572.865 56.3296C572.865 57.7333 573.961 58.7549 575.472 58.7549C576.983 58.7549 578.078 57.7361 578.078 56.3296C578.078 55.3579 577.423 54.5993 576.724 54.3197L576.831 54.1923C577.25 54.5301 577.646 54.6131 578.266 54.6131H578.764V53.4309H576.878H576.887H576.881ZM576.903 56.2438C576.903 57.0522 576.317 57.6198 575.472 57.6198C574.627 57.6198 574.04 57.055 574.04 56.2438C574.04 55.4326 574.616 54.8512 575.472 54.8512C576.328 54.8512 576.903 55.4077 576.903 56.2438Z" fill="black"/>
<path d="M535 103.001V103.001C535 134.066 560.183 159.25 591.249 159.25H921.249C952.039 159.25 977 184.21 977 215.001V215.001" stroke="white" stroke-width="2"/>
<path d="M535 103.001V103.001C535 134.066 560.183 159.25 591.249 159.25H635.249C666.039 159.25 691 184.21 691 215.001V215.001" stroke="white" stroke-width="2"/>
<path d="M535 103.001V103.001C535 134.066 509.817 159.25 478.751 159.25H148.751C117.961 159.25 93 184.21 93 215.001V215.001" stroke="white" stroke-width="2"/>
<path d="M535 103.001V103.001C535 134.066 509.817 159.25 478.751 159.25H434.751C403.961 159.25 379 184.21 379 215.001V215.001" stroke="white" stroke-width="2"/>
<rect x="1" y="216.001" width="184" height="86" rx="5" stroke="white" stroke-width="2"/>
<path d="M41.623 241.277C41.5473 240.604 41.2348 240.083 40.6855 239.714C40.1363 239.34 39.445 239.153 38.6117 239.153C38.0151 239.153 37.499 239.248 37.0634 239.437C36.6278 239.622 36.2892 239.877 36.0478 240.204C35.811 240.526 35.6926 240.893 35.6926 241.305C35.6926 241.651 35.7731 241.949 35.9341 242.2C36.0998 242.451 36.3153 242.661 36.5804 242.832C36.8503 242.998 37.1391 243.137 37.4469 243.251C37.7547 243.36 38.0506 243.45 38.3347 243.521L39.7551 243.89C40.2192 244.004 40.695 244.158 41.1827 244.352C41.6704 244.546 42.1226 244.802 42.5392 245.119C42.9559 245.436 43.2921 245.829 43.5478 246.298C43.8082 246.767 43.9384 247.328 43.9384 247.981C43.9384 248.805 43.7253 249.536 43.2992 250.176C42.8778 250.815 42.2646 251.319 41.4597 251.688C40.6595 252.058 39.6912 252.242 38.5549 252.242C37.4658 252.242 36.5236 252.07 35.7282 251.724C34.9327 251.378 34.3101 250.888 33.8603 250.254C33.4105 249.615 33.1619 248.857 33.1145 247.981H35.3162C35.3588 248.507 35.5293 248.945 35.8276 249.295C36.1306 249.641 36.5165 249.899 36.9853 250.069C37.4587 250.235 37.9772 250.318 38.5407 250.318C39.1609 250.318 39.7125 250.221 40.1955 250.027C40.6832 249.828 41.0667 249.553 41.3461 249.203C41.6254 248.848 41.7651 248.433 41.7651 247.96C41.7651 247.529 41.642 247.176 41.3958 246.902C41.1543 246.627 40.8252 246.4 40.4086 246.22C39.9966 246.04 39.5302 245.881 39.0094 245.744L37.2907 245.275C36.1259 244.958 35.2026 244.492 34.5208 243.876C33.8437 243.26 33.5051 242.446 33.5051 241.433C33.5051 240.595 33.7324 239.863 34.187 239.238C34.6415 238.613 35.257 238.128 36.0336 237.782C36.8101 237.432 37.686 237.257 38.6614 237.257C39.6462 237.257 40.5151 237.429 41.2679 237.775C42.0255 238.121 42.6221 238.597 43.0577 239.203C43.4933 239.804 43.7206 240.495 43.7395 241.277H41.623ZM46.3904 256.092V241.092H48.4643V242.86H48.6419C48.765 242.633 48.9425 242.37 49.1745 242.072C49.4065 241.774 49.7285 241.513 50.1404 241.291C50.5524 241.063 51.0969 240.95 51.774 240.95C52.6547 240.95 53.4406 241.172 54.1319 241.617C54.8232 242.063 55.3654 242.704 55.7583 243.542C56.1561 244.38 56.3549 245.389 56.3549 246.568C56.3549 247.747 56.1584 248.758 55.7654 249.6C55.3725 250.438 54.8327 251.085 54.1461 251.539C53.4596 251.989 52.676 252.214 51.7953 252.214C51.1324 252.214 50.5903 252.103 50.1689 251.88C49.7522 251.658 49.4255 251.397 49.1887 251.099C48.952 250.801 48.7697 250.536 48.6419 250.304H48.514V256.092H46.3904ZM48.4714 246.546C48.4714 247.313 48.5827 247.986 48.8052 248.563C49.0278 249.141 49.3497 249.593 49.7711 249.92C50.1925 250.242 50.7086 250.403 51.3194 250.403C51.9539 250.403 52.4842 250.235 52.9103 249.899C53.3365 249.558 53.6584 249.096 53.8762 248.514C54.0988 247.931 54.21 247.276 54.21 246.546C54.21 245.827 54.1011 245.18 53.8833 244.608C53.6703 244.035 53.3483 243.582 52.9174 243.251C52.4913 242.92 51.9586 242.754 51.3194 242.754C50.7039 242.754 50.1831 242.912 49.7569 243.23C49.3355 243.547 49.0159 243.99 48.7981 244.558C48.5803 245.126 48.4714 245.789 48.4714 246.546ZM58.7342 252.001V241.092H60.7868V242.825H60.9004C61.0993 242.238 61.4496 241.776 61.9515 241.44C62.4582 241.099 63.0311 240.929 63.6703 240.929C63.8029 240.929 63.9591 240.933 64.139 240.943C64.3237 240.952 64.4681 240.964 64.5723 240.978V243.009C64.487 242.986 64.3355 242.96 64.1177 242.931C63.8999 242.898 63.6821 242.882 63.4643 242.882C62.9624 242.882 62.515 242.988 62.122 243.201C61.7337 243.41 61.426 243.701 61.1987 244.075C60.9714 244.444 60.8578 244.866 60.8578 245.339V252.001H58.7342ZM70.7211 252.221C69.6462 252.221 68.7206 251.992 67.9441 251.532C67.1723 251.068 66.5757 250.417 66.1543 249.579C65.7376 248.736 65.5293 247.749 65.5293 246.617C65.5293 245.5 65.7376 244.515 66.1543 243.663C66.5757 242.811 67.1628 242.145 67.9157 241.667C68.6732 241.189 69.5587 240.95 70.5719 240.95C71.1874 240.95 71.784 241.052 72.3617 241.255C72.9393 241.459 73.4578 241.778 73.9171 242.214C74.3764 242.65 74.7386 243.215 75.0037 243.911C75.2689 244.603 75.4015 245.443 75.4015 246.433V247.186H66.7296V245.595H73.3205C73.3205 245.036 73.2069 244.541 72.9796 244.11C72.7523 243.675 72.4327 243.331 72.0208 243.081C71.6136 242.83 71.1354 242.704 70.5861 242.704C69.9895 242.704 69.4687 242.851 69.0236 243.144C68.5833 243.433 68.2424 243.812 68.0009 244.281C67.7641 244.745 67.6458 245.249 67.6458 245.794V247.036C67.6458 247.766 67.7736 248.386 68.0293 248.897C68.2897 249.409 68.6519 249.799 69.1159 250.069C69.58 250.334 70.1221 250.467 70.7424 250.467C71.1448 250.467 71.5118 250.41 71.8432 250.296C72.1747 250.178 72.4611 250.003 72.7026 249.771C72.9441 249.539 73.1287 249.252 73.2566 248.911L75.2665 249.274C75.1055 249.866 74.8167 250.384 74.4 250.829C73.9881 251.269 73.4696 251.613 72.8446 251.859C72.2244 252.1 71.5165 252.221 70.7211 252.221ZM80.9324 252.242C80.2411 252.242 79.6161 252.115 79.0574 251.859C78.4986 251.599 78.0559 251.222 77.7292 250.73C77.4073 250.237 77.2463 249.634 77.2463 248.919C77.2463 248.303 77.3646 247.796 77.6014 247.399C77.8381 247.001 78.1577 246.686 78.5602 246.454C78.9627 246.222 79.4125 246.047 79.9096 245.929C80.4068 245.81 80.9134 245.72 81.4295 245.659C82.0829 245.583 82.6132 245.521 83.0204 245.474C83.4276 245.422 83.7235 245.339 83.9082 245.225C84.0929 245.112 84.1852 244.927 84.1852 244.671V244.622C84.1852 244.001 84.01 243.521 83.6596 243.18C83.314 242.839 82.7979 242.669 82.1113 242.669C81.3964 242.669 80.8329 242.827 80.421 243.144C80.0138 243.457 79.7321 243.805 79.5758 244.188L77.5801 243.734C77.8168 243.071 78.1625 242.536 78.617 242.129C79.0763 241.717 79.6042 241.419 80.2008 241.234C80.7974 241.045 81.4248 240.95 82.0829 240.95C82.5185 240.95 82.9802 241.002 83.4679 241.106C83.9603 241.206 84.4196 241.39 84.8457 241.66C85.2766 241.93 85.6293 242.316 85.9039 242.818C86.1786 243.315 86.3159 243.961 86.3159 244.757V252.001H84.242V250.509H84.1568C84.0195 250.784 83.8135 251.054 83.5389 251.319C83.2643 251.584 82.9115 251.804 82.4806 251.98C82.0498 252.155 81.5337 252.242 80.9324 252.242ZM81.394 250.538C81.9811 250.538 82.483 250.422 82.8997 250.19C83.3211 249.958 83.6407 249.655 83.8585 249.281C84.081 248.902 84.1923 248.497 84.1923 248.066V246.66C84.1165 246.736 83.9698 246.807 83.752 246.873C83.5389 246.935 83.295 246.989 83.0204 247.036C82.7458 247.079 82.4783 247.119 82.2179 247.157C81.9574 247.19 81.7396 247.219 81.5645 247.242C81.1525 247.295 80.7761 247.382 80.4352 247.505C80.099 247.628 79.8291 247.806 79.6255 248.038C79.4267 248.265 79.3272 248.568 79.3272 248.947C79.3272 249.473 79.5214 249.87 79.9096 250.14C80.2979 250.405 80.7927 250.538 81.394 250.538ZM93.2282 252.214C92.3475 252.214 91.5615 251.989 90.8702 251.539C90.1837 251.085 89.6439 250.438 89.2509 249.6C88.8626 248.758 88.6685 247.747 88.6685 246.568C88.6685 245.389 88.865 244.38 89.258 243.542C89.6557 242.704 90.2002 242.063 90.8915 241.617C91.5828 241.172 92.3664 240.95 93.2424 240.95C93.9194 240.95 94.464 241.063 94.8759 241.291C95.2926 241.513 95.6145 241.774 95.8418 242.072C96.0738 242.37 96.2537 242.633 96.3816 242.86H96.5094V237.456H98.633V252.001H96.5591V250.304H96.3816C96.2537 250.536 96.0691 250.801 95.8276 251.099C95.5908 251.397 95.2641 251.658 94.8475 251.88C94.4308 252.103 93.891 252.214 93.2282 252.214ZM93.6969 250.403C94.3077 250.403 94.8238 250.242 95.2452 249.92C95.6713 249.593 95.9933 249.141 96.2111 248.563C96.4337 247.986 96.5449 247.313 96.5449 246.546C96.5449 245.789 96.436 245.126 96.2182 244.558C96.0004 243.99 95.6808 243.547 95.2594 243.23C94.838 242.912 94.3172 242.754 93.6969 242.754C93.0577 242.754 92.525 242.92 92.0989 243.251C91.6728 243.582 91.3508 244.035 91.133 244.608C90.9199 245.18 90.8134 245.827 90.8134 246.546C90.8134 247.276 90.9223 247.931 91.1401 248.514C91.3579 249.096 91.6799 249.558 92.106 249.899C92.5369 250.235 93.0672 250.403 93.6969 250.403ZM109.839 243.755L107.914 244.096C107.833 243.85 107.706 243.616 107.53 243.393C107.36 243.17 107.128 242.988 106.834 242.846C106.541 242.704 106.174 242.633 105.733 242.633C105.132 242.633 104.63 242.768 104.228 243.038C103.825 243.303 103.624 243.646 103.624 244.068C103.624 244.432 103.759 244.726 104.029 244.948C104.299 245.171 104.734 245.353 105.336 245.495L107.069 245.893C108.073 246.125 108.821 246.483 109.313 246.965C109.805 247.448 110.052 248.076 110.052 248.848C110.052 249.501 109.862 250.083 109.483 250.595C109.109 251.101 108.586 251.499 107.914 251.788C107.246 252.077 106.472 252.221 105.591 252.221C104.37 252.221 103.373 251.961 102.601 251.44C101.83 250.914 101.356 250.169 101.181 249.203L103.233 248.89C103.361 249.425 103.624 249.83 104.022 250.105C104.42 250.375 104.938 250.509 105.577 250.509C106.273 250.509 106.83 250.365 107.246 250.076C107.663 249.783 107.871 249.425 107.871 249.004C107.871 248.663 107.743 248.376 107.488 248.144C107.237 247.912 106.851 247.737 106.33 247.619L104.483 247.214C103.465 246.982 102.713 246.613 102.225 246.106C101.742 245.599 101.501 244.958 101.501 244.181C101.501 243.537 101.68 242.974 102.04 242.491C102.4 242.008 102.897 241.632 103.532 241.362C104.166 241.087 104.893 240.95 105.712 240.95C106.891 240.95 107.819 241.206 108.496 241.717C109.173 242.224 109.621 242.903 109.839 243.755ZM114.51 245.524V252.001H112.387V237.456H114.482V242.867H114.617C114.872 242.28 115.263 241.814 115.789 241.468C116.314 241.123 117.001 240.95 117.848 240.95C118.596 240.95 119.25 241.104 119.808 241.411C120.372 241.719 120.807 242.179 121.115 242.789C121.428 243.395 121.584 244.153 121.584 245.062V252.001H119.46V245.318C119.46 244.518 119.254 243.897 118.843 243.457C118.431 243.012 117.858 242.789 117.124 242.789C116.622 242.789 116.172 242.896 115.774 243.109C115.381 243.322 115.071 243.634 114.844 244.046C114.621 244.454 114.51 244.946 114.51 245.524ZM129.119 252.221C128.045 252.221 127.119 251.992 126.343 251.532C125.571 251.068 124.974 250.417 124.553 249.579C124.136 248.736 123.928 247.749 123.928 246.617C123.928 245.5 124.136 244.515 124.553 243.663C124.974 242.811 125.561 242.145 126.314 241.667C127.072 241.189 127.957 240.95 128.97 240.95C129.586 240.95 130.182 241.052 130.76 241.255C131.338 241.459 131.856 241.778 132.316 242.214C132.775 242.65 133.137 243.215 133.402 243.911C133.667 244.603 133.8 245.443 133.8 246.433V247.186H125.128V245.595H131.719C131.719 245.036 131.605 244.541 131.378 244.11C131.151 243.675 130.831 243.331 130.419 243.081C130.012 242.83 129.534 242.704 128.985 242.704C128.388 242.704 127.867 242.851 127.422 243.144C126.982 243.433 126.641 243.812 126.399 244.281C126.163 244.745 126.044 245.249 126.044 245.794V247.036C126.044 247.766 126.172 248.386 126.428 248.897C126.688 249.409 127.05 249.799 127.514 250.069C127.978 250.334 128.521 250.467 129.141 250.467C129.543 250.467 129.91 250.41 130.242 250.296C130.573 250.178 130.86 250.003 131.101 249.771C131.343 249.539 131.527 249.252 131.655 248.911L133.665 249.274C133.504 249.866 133.215 250.384 132.798 250.829C132.387 251.269 131.868 251.613 131.243 251.859C130.623 252.1 129.915 252.221 129.119 252.221ZM140.858 252.221C139.783 252.221 138.857 251.992 138.081 251.532C137.309 251.068 136.712 250.417 136.291 249.579C135.874 248.736 135.666 247.749 135.666 246.617C135.666 245.5 135.874 244.515 136.291 243.663C136.712 242.811 137.3 242.145 138.052 241.667C138.81 241.189 139.695 240.95 140.709 240.95C141.324 240.95 141.921 241.052 142.498 241.255C143.076 241.459 143.595 241.778 144.054 242.214C144.513 242.65 144.875 243.215 145.14 243.911C145.406 244.603 145.538 245.443 145.538 246.433V247.186H136.866V245.595H143.457C143.457 245.036 143.344 244.541 143.116 244.11C142.889 243.675 142.569 243.331 142.157 243.081C141.75 242.83 141.272 242.704 140.723 242.704C140.126 242.704 139.605 242.851 139.16 243.144C138.72 243.433 138.379 243.812 138.138 244.281C137.901 244.745 137.782 245.249 137.782 245.794V247.036C137.782 247.766 137.91 248.386 138.166 248.897C138.426 249.409 138.789 249.799 139.253 250.069C139.717 250.334 140.259 250.467 140.879 250.467C141.282 250.467 141.648 250.41 141.98 250.296C142.311 250.178 142.598 250.003 142.839 249.771C143.081 249.539 143.265 249.252 143.393 248.911L145.403 249.274C145.242 249.866 144.953 250.384 144.537 250.829C144.125 251.269 143.606 251.613 142.981 251.859C142.361 252.1 141.653 252.221 140.858 252.221ZM152.987 241.092V242.796H147.028V241.092H152.987ZM148.626 238.478H150.749V248.798C150.749 249.21 150.811 249.52 150.934 249.728C151.057 249.932 151.216 250.072 151.41 250.147C151.609 250.218 151.824 250.254 152.056 250.254C152.227 250.254 152.376 250.242 152.504 250.218C152.632 250.195 152.731 250.176 152.802 250.161L153.186 251.916C153.062 251.963 152.887 252.01 152.66 252.058C152.433 252.11 152.149 252.138 151.808 252.143C151.249 252.152 150.728 252.053 150.245 251.845C149.762 251.636 149.372 251.314 149.073 250.879C148.775 250.443 148.626 249.896 148.626 249.238V238.478ZM82.2383 269.277C82.1625 268.604 81.85 268.083 81.3008 267.714C80.7515 267.34 80.0603 267.153 79.2269 267.153C78.6303 267.153 78.1142 267.248 77.6786 267.437C77.243 267.622 76.9045 267.877 76.663 268.204C76.4263 268.526 76.3079 268.893 76.3079 269.305C76.3079 269.651 76.3884 269.949 76.5494 270.2C76.7151 270.451 76.9305 270.661 77.1957 270.832C77.4656 270.998 77.7544 271.137 78.0621 271.251C78.3699 271.36 78.6658 271.45 78.9499 271.521L80.3704 271.89C80.8344 272.004 81.3103 272.158 81.7979 272.352C82.2856 272.546 82.7378 272.802 83.1545 273.119C83.5711 273.436 83.9073 273.829 84.163 274.298C84.4234 274.767 84.5536 275.328 84.5536 275.981C84.5536 276.805 84.3406 277.536 83.9144 278.176C83.493 278.815 82.8799 279.319 82.0749 279.688C81.2747 280.058 80.3065 280.242 79.1701 280.242C78.0811 280.242 77.1388 280.07 76.3434 279.724C75.5479 279.378 74.9253 278.888 74.4755 278.254C74.0257 277.615 73.7771 276.857 73.7298 275.981H75.9315C75.9741 276.507 76.1445 276.945 76.4428 277.295C76.7459 277.641 77.1317 277.899 77.6005 278.069C78.074 278.235 78.5924 278.318 79.1559 278.318C79.7762 278.318 80.3278 278.221 80.8107 278.027C81.2984 277.828 81.6819 277.553 81.9613 277.203C82.2406 276.848 82.3803 276.433 82.3803 275.96C82.3803 275.529 82.2572 275.176 82.011 274.902C81.7695 274.627 81.4405 274.4 81.0238 274.22C80.6119 274.04 80.1455 273.881 79.6246 273.744L77.9059 273.275C76.7411 272.958 75.8178 272.492 75.136 271.876C74.4589 271.26 74.1204 270.446 74.1204 269.433C74.1204 268.595 74.3477 267.863 74.8022 267.238C75.2567 266.613 75.8723 266.128 76.6488 265.782C77.4253 265.432 78.3013 265.257 79.2766 265.257C80.2615 265.257 81.1303 265.429 81.8832 265.775C82.6407 266.121 83.2373 266.597 83.6729 267.203C84.1085 267.804 84.3358 268.495 84.3548 269.277H82.2383ZM91.8849 280.001H87.1761V265.456H92.0341C93.4593 265.456 94.6832 265.747 95.706 266.329C96.7287 266.907 97.5123 267.738 98.0568 268.822C98.6061 269.902 98.8807 271.197 98.8807 272.707C98.8807 274.222 98.6037 275.524 98.0497 276.613C97.5005 277.702 96.705 278.54 95.6634 279.127C94.6217 279.71 93.3622 280.001 91.8849 280.001ZM89.3707 278.083H91.7642C92.8722 278.083 93.7931 277.875 94.527 277.458C95.2609 277.037 95.8101 276.429 96.1747 275.633C96.5393 274.833 96.7216 273.858 96.7216 272.707C96.7216 271.566 96.5393 270.598 96.1747 269.802C95.8149 269.007 95.2775 268.403 94.5625 267.991C93.8475 267.579 92.9598 267.373 91.8991 267.373H89.3707V278.083ZM101.61 280.001V265.456H103.804V272.402H103.982L110.083 265.456H112.846L106.979 272.004L112.867 280.001H110.225L105.523 273.502L103.804 275.477V280.001H101.61Z" fill="white"/>
<rect x="287" y="216.001" width="184" height="86" rx="5" stroke="white" stroke-width="2"/>
<path d="M341.692 258.728C341.692 260.281 341.408 261.617 340.84 262.734C340.271 263.847 339.493 264.704 338.503 265.305C337.518 265.902 336.398 266.2 335.144 266.2C333.884 266.2 332.76 265.902 331.77 265.305C330.785 264.704 330.009 263.844 329.441 262.727C328.872 261.609 328.588 260.277 328.588 258.728C328.588 257.175 328.872 255.842 329.441 254.73C330.009 253.612 330.785 252.755 331.77 252.159C332.76 251.557 333.884 251.257 335.144 251.257C336.398 251.257 337.518 251.557 338.503 252.159C339.493 252.755 340.271 253.612 340.84 254.73C341.408 255.842 341.692 257.175 341.692 258.728ZM339.519 258.728C339.519 257.545 339.327 256.548 338.943 255.738C338.565 254.924 338.044 254.308 337.381 253.892C336.723 253.47 335.977 253.259 335.144 253.259C334.306 253.259 333.557 253.47 332.899 253.892C332.241 254.308 331.72 254.924 331.337 255.738C330.958 256.548 330.769 257.545 330.769 258.728C330.769 259.912 330.958 260.911 331.337 261.725C331.72 262.535 332.241 263.151 332.899 263.572C333.557 263.989 334.306 264.197 335.144 264.197C335.977 264.197 336.723 263.989 337.381 263.572C338.044 263.151 338.565 262.535 338.943 261.725C339.327 260.911 339.519 259.912 339.519 258.728ZM349.449 255.092V256.796H343.285V255.092H349.449ZM344.975 266.001V253.828C344.975 253.146 345.124 252.58 345.422 252.13C345.721 251.676 346.116 251.337 346.608 251.115C347.101 250.887 347.636 250.774 348.214 250.774C348.64 250.774 349.004 250.809 349.307 250.88C349.61 250.947 349.835 251.008 349.982 251.065L349.485 252.784C349.385 252.755 349.258 252.722 349.101 252.684C348.945 252.642 348.756 252.62 348.533 252.62C348.017 252.62 347.648 252.748 347.425 253.004C347.207 253.259 347.099 253.629 347.099 254.112V266.001H344.975ZM356.832 255.092V256.796H350.667V255.092H356.832ZM352.358 266.001V253.828C352.358 253.146 352.507 252.58 352.805 252.13C353.104 251.676 353.499 251.337 353.991 251.115C354.484 250.887 355.019 250.774 355.596 250.774C356.023 250.774 356.387 250.809 356.69 250.88C356.993 250.947 357.218 251.008 357.365 251.065L356.868 252.784C356.768 252.755 356.64 252.722 356.484 252.684C356.328 252.642 356.139 252.62 355.916 252.62C355.4 252.62 355.031 252.748 354.808 253.004C354.59 253.259 354.481 253.629 354.481 254.112V266.001H352.358ZM359.023 266.001V255.092H361.147V266.001H359.023ZM360.096 253.409C359.726 253.409 359.409 253.286 359.144 253.039C358.884 252.788 358.753 252.49 358.753 252.144C358.753 251.794 358.884 251.496 359.144 251.25C359.409 250.999 359.726 250.873 360.096 250.873C360.465 250.873 360.78 250.999 361.04 251.25C361.305 251.496 361.438 251.794 361.438 252.144C361.438 252.49 361.305 252.788 361.04 253.039C360.78 253.286 360.465 253.409 360.096 253.409ZM368.599 266.221C367.543 266.221 366.634 265.982 365.872 265.504C365.114 265.021 364.532 264.356 364.124 263.508C363.717 262.661 363.514 261.69 363.514 260.596C363.514 259.488 363.722 258.51 364.139 257.663C364.555 256.811 365.142 256.145 365.9 255.667C366.658 255.189 367.55 254.95 368.578 254.95C369.406 254.95 370.145 255.104 370.794 255.411C371.442 255.715 371.965 256.141 372.363 256.69C372.766 257.239 373.005 257.881 373.08 258.615H371.014C370.9 258.103 370.64 257.663 370.232 257.294C369.83 256.924 369.29 256.74 368.613 256.74C368.021 256.74 367.503 256.896 367.058 257.208C366.617 257.516 366.274 257.956 366.028 258.529C365.782 259.098 365.659 259.77 365.659 260.546C365.659 261.342 365.779 262.028 366.021 262.606C366.262 263.184 366.603 263.631 367.044 263.948C367.489 264.266 368.012 264.424 368.613 264.424C369.016 264.424 369.38 264.351 369.707 264.204C370.038 264.053 370.315 263.837 370.538 263.558C370.765 263.278 370.924 262.942 371.014 262.549H373.08C373.005 263.255 372.775 263.884 372.392 264.438C372.008 264.992 371.494 265.428 370.85 265.745C370.211 266.063 369.461 266.221 368.599 266.221ZM380.053 266.221C378.978 266.221 378.053 265.992 377.276 265.532C376.504 265.068 375.908 264.417 375.486 263.579C375.07 262.736 374.861 261.749 374.861 260.617C374.861 259.5 375.07 258.515 375.486 257.663C375.908 256.811 376.495 256.145 377.248 255.667C378.005 255.189 378.891 254.95 379.904 254.95C380.519 254.95 381.116 255.052 381.694 255.255C382.271 255.459 382.79 255.778 383.249 256.214C383.708 256.65 384.071 257.215 384.336 257.911C384.601 258.603 384.733 259.443 384.733 260.433V261.186H376.062V259.595H382.653C382.653 259.036 382.539 258.541 382.312 258.11C382.084 257.675 381.765 257.331 381.353 257.081C380.946 256.83 380.467 256.704 379.918 256.704C379.322 256.704 378.801 256.851 378.356 257.144C377.915 257.433 377.574 257.812 377.333 258.281C377.096 258.745 376.978 259.249 376.978 259.794V261.036C376.978 261.766 377.106 262.386 377.361 262.897C377.622 263.409 377.984 263.799 378.448 264.069C378.912 264.334 379.454 264.467 380.074 264.467C380.477 264.467 380.844 264.41 381.175 264.296C381.507 264.178 381.793 264.003 382.035 263.771C382.276 263.539 382.461 263.252 382.589 262.911L384.599 263.274C384.438 263.866 384.149 264.384 383.732 264.829C383.32 265.269 382.802 265.613 382.177 265.859C381.556 266.1 380.849 266.221 380.053 266.221ZM400.486 255.277C400.411 254.604 400.098 254.083 399.549 253.714C399 253.34 398.308 253.153 397.475 253.153C396.878 253.153 396.362 253.248 395.927 253.437C395.491 253.622 395.153 253.877 394.911 254.204C394.674 254.526 394.556 254.893 394.556 255.305C394.556 255.651 394.636 255.949 394.797 256.2C394.963 256.451 395.179 256.661 395.444 256.832C395.714 256.998 396.002 257.137 396.31 257.251C396.618 257.36 396.914 257.45 397.198 257.521L398.618 257.89C399.082 258.004 399.558 258.158 400.046 258.352C400.534 258.546 400.986 258.802 401.403 259.119C401.819 259.436 402.155 259.829 402.411 260.298C402.671 260.767 402.802 261.328 402.802 261.981C402.802 262.805 402.589 263.536 402.162 264.176C401.741 264.815 401.128 265.319 400.323 265.688C399.523 266.058 398.555 266.242 397.418 266.242C396.329 266.242 395.387 266.07 394.591 265.724C393.796 265.378 393.173 264.888 392.724 264.254C392.274 263.615 392.025 262.857 391.978 261.981H394.18C394.222 262.507 394.393 262.945 394.691 263.295C394.994 263.641 395.38 263.899 395.849 264.069C396.322 264.235 396.84 264.318 397.404 264.318C398.024 264.318 398.576 264.221 399.059 264.027C399.546 263.828 399.93 263.553 400.209 263.203C400.489 262.848 400.628 262.433 400.628 261.96C400.628 261.529 400.505 261.176 400.259 260.902C400.018 260.627 399.689 260.4 399.272 260.22C398.86 260.04 398.394 259.881 397.873 259.744L396.154 259.275C394.989 258.958 394.066 258.492 393.384 257.876C392.707 257.26 392.368 256.446 392.368 255.433C392.368 254.595 392.596 253.863 393.05 253.238C393.505 252.613 394.12 252.128 394.897 251.782C395.673 251.432 396.549 251.257 397.525 251.257C398.51 251.257 399.378 251.429 400.131 251.775C400.889 252.121 401.485 252.597 401.921 253.203C402.357 253.804 402.584 254.495 402.603 255.277H400.486ZM410.133 266.001H405.424V251.456H410.282C411.707 251.456 412.931 251.747 413.954 252.329C414.977 252.907 415.76 253.738 416.305 254.822C416.854 255.902 417.129 257.197 417.129 258.707C417.129 260.222 416.852 261.524 416.298 262.613C415.749 263.702 414.953 264.54 413.911 265.127C412.87 265.71 411.61 266.001 410.133 266.001ZM407.619 264.083H410.012C411.12 264.083 412.041 263.875 412.775 263.458C413.509 263.037 414.058 262.429 414.423 261.633C414.787 260.833 414.97 259.858 414.97 258.707C414.97 257.566 414.787 256.598 414.423 255.802C414.063 255.007 413.526 254.403 412.811 253.991C412.096 253.579 411.208 253.373 410.147 253.373H407.619V264.083ZM419.858 266.001V251.456H422.052V258.402H422.23L428.331 251.456H431.094L425.227 258.004L431.115 266.001H428.473L423.771 259.502L422.052 261.477V266.001H419.858Z" fill="white"/>
<rect x="599" y="216.001" width="184" height="86" rx="5" stroke="white" stroke-width="2"/>
<path d="M650.686 266.001V251.456H655.871C657.002 251.456 657.94 251.661 658.683 252.073C659.426 252.485 659.983 253.049 660.352 253.764C660.721 254.474 660.906 255.274 660.906 256.164C660.906 257.059 660.719 257.864 660.345 258.579C659.976 259.289 659.417 259.853 658.669 260.269C657.925 260.681 656.99 260.887 655.863 260.887H652.298V259.027H655.665C656.38 259.027 656.96 258.903 657.405 258.657C657.85 258.406 658.176 258.065 658.385 257.634C658.593 257.204 658.697 256.714 658.697 256.164C658.697 255.615 658.593 255.127 658.385 254.701C658.176 254.275 657.847 253.941 657.398 253.7C656.952 253.458 656.365 253.338 655.636 253.338H652.881V266.001H650.686ZM668.188 266.001H663.479V251.456H668.337C669.762 251.456 670.986 251.747 672.009 252.329C673.031 252.907 673.815 253.738 674.36 254.822C674.909 255.902 675.183 257.197 675.183 258.707C675.183 260.222 674.906 261.524 674.352 262.613C673.803 263.702 673.008 264.54 671.966 265.127C670.924 265.71 669.665 266.001 668.188 266.001ZM665.673 264.083H668.067C669.175 264.083 670.096 263.875 670.83 263.458C671.564 263.037 672.113 262.429 672.477 261.633C672.842 260.833 673.024 259.858 673.024 258.707C673.024 257.566 672.842 256.598 672.477 255.802C672.118 255.007 671.58 254.403 670.865 253.991C670.15 253.579 669.262 253.373 668.202 253.373H665.673V264.083ZM677.912 266.001V251.456H686.932V253.345H680.107V257.777H686.286V259.659H680.107V266.001H677.912ZM702.857 255.277C702.782 254.604 702.469 254.083 701.92 253.714C701.371 253.34 700.679 253.153 699.846 253.153C699.249 253.153 698.733 253.248 698.298 253.437C697.862 253.622 697.524 253.877 697.282 254.204C697.045 254.526 696.927 254.893 696.927 255.305C696.927 255.651 697.008 255.949 697.169 256.2C697.334 256.451 697.55 256.661 697.815 256.832C698.085 256.998 698.374 257.137 698.681 257.251C698.989 257.36 699.285 257.45 699.569 257.521L700.99 257.89C701.454 258.004 701.929 258.158 702.417 258.352C702.905 258.546 703.357 258.802 703.774 259.119C704.19 259.436 704.526 259.829 704.782 260.298C705.043 260.767 705.173 261.328 705.173 261.981C705.173 262.805 704.96 263.536 704.534 264.176C704.112 264.815 703.499 265.319 702.694 265.688C701.894 266.058 700.926 266.242 699.789 266.242C698.7 266.242 697.758 266.07 696.963 265.724C696.167 265.378 695.544 264.888 695.095 264.254C694.645 263.615 694.396 262.857 694.349 261.981H696.551C696.593 262.507 696.764 262.945 697.062 263.295C697.365 263.641 697.751 263.899 698.22 264.069C698.693 264.235 699.212 264.318 699.775 264.318C700.395 264.318 700.947 264.221 701.43 264.027C701.918 263.828 702.301 263.553 702.58 263.203C702.86 262.848 702.999 262.433 702.999 261.96C702.999 261.529 702.876 261.176 702.63 260.902C702.389 260.627 702.06 260.4 701.643 260.22C701.231 260.04 700.765 259.881 700.244 259.744L698.525 259.275C697.36 258.958 696.437 258.492 695.755 257.876C695.078 257.26 694.74 256.446 694.74 255.433C694.74 254.595 694.967 253.863 695.421 253.238C695.876 252.613 696.491 252.128 697.268 251.782C698.044 251.432 698.92 251.257 699.896 251.257C700.881 251.257 701.749 251.429 702.502 251.775C703.26 252.121 703.856 252.597 704.292 253.203C704.728 253.804 704.955 254.495 704.974 255.277H702.857ZM712.504 266.001H707.795V251.456H712.653C714.078 251.456 715.302 251.747 716.325 252.329C717.348 252.907 718.131 253.738 718.676 254.822C719.225 255.902 719.5 257.197 719.5 258.707C719.5 260.222 719.223 261.524 718.669 262.613C718.12 263.702 717.324 264.54 716.282 265.127C715.241 265.71 713.981 266.001 712.504 266.001ZM709.99 264.083H712.383C713.491 264.083 714.412 263.875 715.146 263.458C715.88 263.037 716.429 262.429 716.794 261.633C717.158 260.833 717.341 259.858 717.341 258.707C717.341 257.566 717.158 256.598 716.794 255.802C716.434 255.007 715.897 254.403 715.182 253.991C714.467 253.579 713.579 253.373 712.518 253.373H709.99V264.083ZM722.229 266.001V251.456H724.423V258.402H724.601L730.702 251.456H733.465L727.598 258.004L733.486 266.001H730.844L726.142 259.502L724.423 261.477V266.001H722.229Z" fill="white"/>
<rect x="885" y="216.001" width="184" height="86" rx="5" stroke="white" stroke-width="2"/>
<path d="M977 302V319" stroke="white" stroke-width="2"/>
<rect x="885" y="320.001" width="184" height="74" rx="5" stroke="white" stroke-opacity="0.6" stroke-width="2" stroke-dasharray="4 4"/>
<path d="M951.386 344.183C951.386 345.425 951.159 346.493 950.705 347.387C950.25 348.277 949.627 348.963 948.835 349.444C948.047 349.921 947.152 350.16 946.148 350.16C945.14 350.16 944.241 349.921 943.449 349.444C942.661 348.963 942.04 348.276 941.585 347.382C941.131 346.488 940.903 345.421 940.903 344.183C940.903 342.94 941.131 341.874 941.585 340.984C942.04 340.09 942.661 339.404 943.449 338.927C944.241 338.446 945.14 338.206 946.148 338.206C947.152 338.206 948.047 338.446 948.835 338.927C949.627 339.404 950.25 340.09 950.705 340.984C951.159 341.874 951.386 342.94 951.386 344.183ZM949.648 344.183C949.648 343.236 949.494 342.438 949.188 341.791C948.884 341.139 948.468 340.647 947.938 340.313C947.411 339.976 946.814 339.808 946.148 339.808C945.477 339.808 944.879 339.976 944.352 340.313C943.826 340.647 943.409 341.139 943.102 341.791C942.799 342.438 942.648 343.236 942.648 344.183C942.648 345.13 942.799 345.929 943.102 346.581C943.409 347.228 943.826 347.721 944.352 348.058C944.879 348.391 945.477 348.558 946.148 348.558C946.814 348.558 947.411 348.391 947.938 348.058C948.468 347.721 948.884 347.228 949.188 346.581C949.494 345.929 949.648 345.13 949.648 344.183ZM963.24 342.149H961.467C961.399 341.77 961.272 341.437 961.087 341.149C960.901 340.861 960.674 340.617 960.405 340.416C960.136 340.215 959.835 340.063 959.501 339.961C959.172 339.859 958.821 339.808 958.45 339.808C957.78 339.808 957.179 339.976 956.649 340.313C956.123 340.651 955.706 341.145 955.399 341.796C955.096 342.448 954.945 343.243 954.945 344.183C954.945 345.13 955.096 345.929 955.399 346.581C955.706 347.232 956.125 347.724 956.655 348.058C957.185 348.391 957.782 348.558 958.445 348.558C958.812 348.558 959.161 348.509 959.49 348.41C959.823 348.308 960.125 348.158 960.393 347.961C960.662 347.764 960.89 347.524 961.075 347.24C961.265 346.952 961.395 346.622 961.467 346.251L963.24 346.257C963.145 346.829 962.962 347.355 962.689 347.836C962.42 348.313 962.073 348.726 961.649 349.075C961.229 349.42 960.748 349.687 960.206 349.876C959.664 350.065 959.073 350.16 958.433 350.16C957.426 350.16 956.528 349.921 955.74 349.444C954.952 348.963 954.331 348.276 953.876 347.382C953.426 346.488 953.2 345.421 953.2 344.183C953.2 342.94 953.428 341.874 953.882 340.984C954.337 340.09 954.958 339.404 955.746 338.927C956.534 338.446 957.429 338.206 958.433 338.206C959.051 338.206 959.626 338.295 960.161 338.473C960.698 338.647 961.181 338.904 961.609 339.245C962.037 339.582 962.392 339.995 962.672 340.484C962.952 340.969 963.142 341.524 963.24 342.149ZM965.341 350.001V338.365H969.489C970.39 338.365 971.138 338.52 971.733 338.831C972.331 339.141 972.778 339.571 973.074 340.12C973.369 340.666 973.517 341.296 973.517 342.012C973.517 342.724 973.367 343.351 973.068 343.893C972.773 344.431 972.326 344.849 971.727 345.149C971.133 345.448 970.384 345.598 969.483 345.598H966.341V344.086H969.324C969.892 344.086 970.354 344.005 970.71 343.842C971.07 343.679 971.333 343.442 971.5 343.132C971.667 342.821 971.75 342.448 971.75 342.012C971.75 341.573 971.665 341.192 971.494 340.87C971.328 340.548 971.064 340.302 970.705 340.132C970.348 339.957 969.881 339.87 969.301 339.87H967.097V350.001H965.341ZM971.085 344.751L973.96 350.001H971.96L969.142 344.751H971.085ZM986.234 341.421C986.174 340.884 985.924 340.467 985.484 340.171C985.045 339.872 984.492 339.723 983.825 339.723C983.348 339.723 982.935 339.798 982.587 339.95C982.238 340.098 981.967 340.302 981.774 340.563C981.585 340.821 981.49 341.115 981.49 341.444C981.49 341.721 981.554 341.959 981.683 342.16C981.816 342.361 981.988 342.529 982.2 342.666C982.416 342.798 982.647 342.91 982.893 343.001C983.14 343.088 983.376 343.16 983.604 343.217L984.74 343.512C985.111 343.603 985.492 343.726 985.882 343.882C986.272 344.037 986.634 344.242 986.967 344.495C987.301 344.749 987.57 345.063 987.774 345.438C987.982 345.813 988.087 346.262 988.087 346.785C988.087 347.444 987.916 348.029 987.575 348.541C987.238 349.052 986.748 349.456 986.104 349.751C985.464 350.046 984.689 350.194 983.78 350.194C982.909 350.194 982.155 350.056 981.518 349.779C980.882 349.503 980.384 349.111 980.024 348.603C979.664 348.092 979.465 347.486 979.428 346.785H981.189C981.223 347.206 981.359 347.556 981.598 347.836C981.84 348.113 982.149 348.319 982.524 348.456C982.903 348.588 983.318 348.654 983.768 348.654C984.265 348.654 984.706 348.577 985.092 348.421C985.482 348.262 985.789 348.043 986.013 347.762C986.236 347.478 986.348 347.147 986.348 346.768C986.348 346.423 986.25 346.141 986.053 345.921C985.859 345.702 985.596 345.52 985.263 345.376C984.933 345.232 984.56 345.105 984.143 344.995L982.768 344.62C981.837 344.367 981.098 343.993 980.553 343.501C980.011 343.009 979.74 342.357 979.74 341.546C979.74 340.876 979.922 340.291 980.286 339.791C980.649 339.291 981.142 338.902 981.763 338.626C982.384 338.346 983.085 338.206 983.865 338.206C984.653 338.206 985.348 338.344 985.95 338.62C986.556 338.897 987.034 339.277 987.382 339.762C987.731 340.243 987.912 340.796 987.928 341.421H986.234ZM993.952 350.001H990.185V338.365H994.071C995.211 338.365 996.19 338.598 997.009 339.063C997.827 339.526 998.454 340.19 998.889 341.058C999.329 341.921 999.548 342.957 999.548 344.166C999.548 345.378 999.327 346.42 998.884 347.291C998.444 348.162 997.808 348.832 996.974 349.302C996.141 349.768 995.134 350.001 993.952 350.001ZM991.94 348.467H993.855C994.741 348.467 995.478 348.3 996.065 347.967C996.652 347.63 997.092 347.143 997.384 346.507C997.675 345.867 997.821 345.086 997.821 344.166C997.821 343.253 997.675 342.478 997.384 341.842C997.096 341.206 996.666 340.723 996.094 340.393C995.522 340.063 994.812 339.899 993.963 339.899H991.94V348.467ZM1001.73 350.001V338.365H1003.49V343.921H1003.63L1008.51 338.365H1010.72L1006.03 343.603L1010.74 350.001H1008.62L1004.86 344.802L1003.49 346.382V350.001H1001.73Z" fill="white" fill-opacity="0.6"/>
<path d="M937.943 367.149H936.17C936.102 366.77 935.975 366.437 935.79 366.149C935.604 365.861 935.377 365.617 935.108 365.416C934.839 365.215 934.538 365.063 934.205 364.961C933.875 364.859 933.525 364.808 933.153 364.808C932.483 364.808 931.883 364.976 931.352 365.313C930.826 365.651 930.409 366.145 930.102 366.796C929.799 367.448 929.648 368.243 929.648 369.183C929.648 370.13 929.799 370.929 930.102 371.581C930.409 372.232 930.828 372.724 931.358 373.058C931.888 373.391 932.485 373.558 933.148 373.558C933.515 373.558 933.864 373.509 934.193 373.41C934.527 373.308 934.828 373.158 935.097 372.961C935.366 372.764 935.593 372.524 935.778 372.24C935.968 371.952 936.098 371.622 936.17 371.251L937.943 371.257C937.848 371.829 937.665 372.355 937.392 372.836C937.123 373.313 936.777 373.726 936.352 374.075C935.932 374.42 935.451 374.687 934.909 374.876C934.367 375.065 933.777 375.16 933.136 375.16C932.129 375.16 931.231 374.921 930.443 374.444C929.655 373.963 929.034 373.276 928.58 372.382C928.129 371.488 927.903 370.421 927.903 369.183C927.903 367.94 928.131 366.874 928.585 365.984C929.04 365.09 929.661 364.404 930.449 363.927C931.237 363.446 932.133 363.206 933.136 363.206C933.754 363.206 934.33 363.295 934.864 363.473C935.402 363.647 935.884 363.904 936.312 364.245C936.741 364.582 937.095 364.995 937.375 365.484C937.655 365.969 937.845 366.524 937.943 367.149ZM941.607 369.819V375.001H939.908V363.365H941.584V367.694H941.692C941.896 367.224 942.209 366.851 942.629 366.575C943.05 366.298 943.599 366.16 944.277 366.16C944.875 366.16 945.398 366.283 945.845 366.529C946.296 366.776 946.644 367.143 946.891 367.632C947.141 368.117 947.266 368.723 947.266 369.45V375.001H945.567V369.654C945.567 369.014 945.402 368.518 945.072 368.166C944.743 367.81 944.285 367.632 943.697 367.632C943.296 367.632 942.936 367.717 942.618 367.887C942.304 368.058 942.055 368.308 941.874 368.637C941.696 368.963 941.607 369.357 941.607 369.819ZM952.072 375.194C951.519 375.194 951.019 375.092 950.572 374.887C950.125 374.679 949.771 374.378 949.51 373.984C949.252 373.59 949.124 373.107 949.124 372.535C949.124 372.043 949.218 371.637 949.408 371.319C949.597 371.001 949.853 370.749 950.175 370.563C950.497 370.378 950.857 370.238 951.254 370.143C951.652 370.048 952.057 369.976 952.47 369.927C952.993 369.867 953.417 369.817 953.743 369.779C954.069 369.738 954.305 369.671 954.453 369.581C954.601 369.49 954.675 369.342 954.675 369.137V369.098C954.675 368.601 954.535 368.217 954.254 367.944C953.978 367.671 953.565 367.535 953.016 367.535C952.444 367.535 951.993 367.662 951.663 367.916C951.338 368.166 951.112 368.444 950.987 368.751L949.391 368.387C949.58 367.857 949.857 367.429 950.22 367.103C950.588 366.774 951.01 366.535 951.487 366.387C951.964 366.236 952.466 366.16 952.993 366.16C953.341 366.16 953.711 366.202 954.101 366.285C954.495 366.365 954.862 366.512 955.203 366.728C955.548 366.944 955.83 367.253 956.05 367.654C956.269 368.052 956.379 368.569 956.379 369.206V375.001H954.72V373.808H954.652C954.542 374.027 954.377 374.243 954.158 374.456C953.938 374.668 953.656 374.844 953.311 374.984C952.966 375.124 952.554 375.194 952.072 375.194ZM952.442 373.831C952.911 373.831 953.313 373.738 953.646 373.552C953.983 373.367 954.239 373.124 954.413 372.825C954.591 372.522 954.68 372.198 954.68 371.853V370.728C954.62 370.789 954.502 370.846 954.328 370.899C954.158 370.948 953.963 370.992 953.743 371.029C953.523 371.063 953.309 371.096 953.101 371.126C952.893 371.152 952.718 371.175 952.578 371.194C952.249 371.236 951.947 371.306 951.675 371.404C951.406 371.503 951.19 371.645 951.027 371.831C950.868 372.012 950.788 372.255 950.788 372.558C950.788 372.978 950.944 373.296 951.254 373.512C951.565 373.724 951.961 373.831 952.442 373.831ZM962.716 366.274V367.637H957.949V366.274H962.716ZM959.227 364.183H960.926V372.438C960.926 372.768 960.975 373.016 961.074 373.183C961.172 373.346 961.299 373.457 961.455 373.518C961.614 373.575 961.786 373.603 961.972 373.603C962.108 373.603 962.227 373.594 962.33 373.575C962.432 373.556 962.511 373.541 962.568 373.529L962.875 374.933C962.777 374.971 962.636 375.009 962.455 375.046C962.273 375.088 962.045 375.111 961.773 375.115C961.326 375.122 960.909 375.043 960.523 374.876C960.136 374.709 959.824 374.452 959.585 374.103C959.347 373.755 959.227 373.317 959.227 372.791V364.183ZM964.919 375.001V363.365H966.618V367.688H966.72C966.819 367.507 966.961 367.296 967.146 367.058C967.332 366.819 967.589 366.611 967.919 366.433C968.249 366.251 968.684 366.16 969.226 366.16C969.93 366.16 970.559 366.338 971.112 366.694C971.665 367.05 972.099 367.563 972.413 368.234C972.732 368.904 972.891 369.711 972.891 370.654C972.891 371.598 972.733 372.406 972.419 373.081C972.105 373.751 971.673 374.268 971.124 374.632C970.574 374.992 969.947 375.171 969.243 375.171C968.713 375.171 968.279 375.082 967.942 374.904C967.608 374.726 967.347 374.518 967.158 374.279C966.968 374.041 966.822 373.829 966.72 373.643H966.578V375.001H964.919ZM966.584 370.637C966.584 371.251 966.673 371.789 966.851 372.251C967.029 372.713 967.286 373.075 967.624 373.336C967.961 373.594 968.374 373.723 968.862 373.723C969.37 373.723 969.794 373.588 970.135 373.319C970.476 373.046 970.733 372.677 970.908 372.211C971.086 371.745 971.175 371.221 971.175 370.637C971.175 370.062 971.088 369.545 970.913 369.086C970.743 368.628 970.485 368.266 970.141 368.001C969.8 367.736 969.374 367.603 968.862 367.603C968.37 367.603 967.953 367.73 967.612 367.984C967.275 368.238 967.019 368.592 966.845 369.046C966.671 369.501 966.584 370.031 966.584 370.637ZM978.474 375.177C977.656 375.177 976.942 374.99 976.332 374.615C975.723 374.24 975.249 373.715 974.912 373.041C974.575 372.367 974.406 371.579 974.406 370.677C974.406 369.772 974.575 368.98 974.912 368.302C975.249 367.624 975.723 367.098 976.332 366.723C976.942 366.348 977.656 366.16 978.474 366.16C979.293 366.16 980.007 366.348 980.616 366.723C981.226 367.098 981.7 367.624 982.037 368.302C982.374 368.98 982.543 369.772 982.543 370.677C982.543 371.579 982.374 372.367 982.037 373.041C981.7 373.715 981.226 374.24 980.616 374.615C980.007 374.99 979.293 375.177 978.474 375.177ZM978.48 373.751C979.01 373.751 979.45 373.611 979.798 373.331C980.147 373.05 980.404 372.677 980.571 372.211C980.741 371.745 980.827 371.232 980.827 370.671C980.827 370.115 980.741 369.603 980.571 369.137C980.404 368.668 980.147 368.291 979.798 368.007C979.45 367.723 979.01 367.581 978.48 367.581C977.946 367.581 977.503 367.723 977.151 368.007C976.802 368.291 976.543 368.668 976.372 369.137C976.205 369.603 976.122 370.115 976.122 370.671C976.122 371.232 976.205 371.745 976.372 372.211C976.543 372.677 976.802 373.05 977.151 373.331C977.503 373.611 977.946 373.751 978.48 373.751ZM988.513 366.274V367.637H983.746V366.274H988.513ZM985.024 364.183H986.723V372.438C986.723 372.768 986.772 373.016 986.871 373.183C986.969 373.346 987.096 373.457 987.251 373.518C987.411 373.575 987.583 373.603 987.768 373.603C987.905 373.603 988.024 373.594 988.126 373.575C988.229 373.556 988.308 373.541 988.365 373.529L988.672 374.933C988.573 374.971 988.433 375.009 988.251 375.046C988.07 375.088 987.842 375.111 987.57 375.115C987.123 375.122 986.706 375.043 986.32 374.876C985.933 374.709 985.621 374.452 985.382 374.103C985.143 373.755 985.024 373.317 985.024 372.791V364.183ZM1001.11 366.421C1001.05 365.884 1000.8 365.467 1000.36 365.171C999.92 364.872 999.367 364.723 998.7 364.723C998.223 364.723 997.81 364.798 997.462 364.95C997.113 365.098 996.842 365.302 996.649 365.563C996.46 365.821 996.365 366.115 996.365 366.444C996.365 366.721 996.429 366.959 996.558 367.16C996.691 367.361 996.863 367.529 997.075 367.666C997.291 367.798 997.522 367.91 997.768 368.001C998.015 368.088 998.251 368.16 998.479 368.217L999.615 368.512C999.986 368.603 1000.37 368.726 1000.76 368.882C1001.15 369.037 1001.51 369.242 1001.84 369.495C1002.18 369.749 1002.44 370.063 1002.65 370.438C1002.86 370.813 1002.96 371.262 1002.96 371.785C1002.96 372.444 1002.79 373.029 1002.45 373.541C1002.11 374.052 1001.62 374.456 1000.98 374.751C1000.34 375.046 999.564 375.194 998.655 375.194C997.784 375.194 997.03 375.056 996.393 374.779C995.757 374.503 995.259 374.111 994.899 373.603C994.539 373.092 994.34 372.486 994.303 371.785H996.064C996.098 372.206 996.234 372.556 996.473 372.836C996.715 373.113 997.024 373.319 997.399 373.456C997.778 373.588 998.193 373.654 998.643 373.654C999.14 373.654 999.581 373.577 999.967 373.421C1000.36 373.262 1000.66 373.043 1000.89 372.762C1001.11 372.478 1001.22 372.147 1001.22 371.768C1001.22 371.423 1001.12 371.141 1000.93 370.921C1000.73 370.702 1000.47 370.52 1000.14 370.376C999.808 370.232 999.435 370.105 999.018 369.995L997.643 369.62C996.712 369.367 995.973 368.993 995.428 368.501C994.886 368.009 994.615 367.357 994.615 366.546C994.615 365.876 994.797 365.291 995.161 364.791C995.524 364.291 996.017 363.902 996.638 363.626C997.259 363.346 997.96 363.206 998.74 363.206C999.528 363.206 1000.22 363.344 1000.83 363.62C1001.43 363.897 1001.91 364.277 1002.26 364.762C1002.61 365.243 1002.79 365.796 1002.8 366.421H1001.11ZM1008.83 375.001H1005.06V363.365H1008.95C1010.09 363.365 1011.07 363.598 1011.88 364.063C1012.7 364.526 1013.33 365.19 1013.76 366.058C1014.2 366.921 1014.42 367.957 1014.42 369.166C1014.42 370.378 1014.2 371.42 1013.76 372.291C1013.32 373.162 1012.68 373.832 1011.85 374.302C1011.02 374.768 1010.01 375.001 1008.83 375.001ZM1006.82 373.467H1008.73C1009.62 373.467 1010.35 373.3 1010.94 372.967C1011.53 372.63 1011.97 372.143 1012.26 371.507C1012.55 370.867 1012.7 370.086 1012.7 369.166C1012.7 368.253 1012.55 367.478 1012.26 366.842C1011.97 366.206 1011.54 365.723 1010.97 365.393C1010.4 365.063 1009.69 364.899 1008.84 364.899H1006.82V373.467ZM1016.61 375.001V363.365H1018.36V368.921H1018.5L1023.38 363.365H1025.6L1020.9 368.603L1025.61 375.001H1023.5L1019.74 369.802L1018.36 371.382V375.001H1016.61Z" fill="white" fill-opacity="0.6"/>
<path d="M947.19 266.001H944.86L950.095 251.456H952.63L957.865 266.001H955.535L951.423 254.098H951.309L947.19 266.001ZM947.581 260.305H955.137V262.152H947.581V260.305ZM962.16 251.456V266.001H959.965V251.456H962.16ZM978.582 255.277C978.506 254.604 978.194 254.083 977.645 253.714C977.095 253.34 976.404 253.153 975.571 253.153C974.974 253.153 974.458 253.248 974.022 253.437C973.587 253.622 973.248 253.877 973.007 254.204C972.77 254.526 972.652 254.893 972.652 255.305C972.652 255.651 972.732 255.949 972.893 256.2C973.059 256.451 973.274 256.661 973.539 256.832C973.809 256.998 974.098 257.137 974.406 257.251C974.714 257.36 975.01 257.45 975.294 257.521L976.714 257.89C977.178 258.004 977.654 258.158 978.142 258.352C978.629 258.546 979.082 258.802 979.498 259.119C979.915 259.436 980.251 259.829 980.507 260.298C980.767 260.767 980.897 261.328 980.897 261.981C980.897 262.805 980.684 263.536 980.258 264.176C979.837 264.815 979.224 265.319 978.419 265.688C977.618 266.058 976.65 266.242 975.514 266.242C974.425 266.242 973.483 266.07 972.687 265.724C971.892 265.378 971.269 264.888 970.819 264.254C970.369 263.615 970.121 262.857 970.074 261.981H972.275C972.318 262.507 972.488 262.945 972.787 263.295C973.09 263.641 973.475 263.899 973.944 264.069C974.418 264.235 974.936 264.318 975.5 264.318C976.12 264.318 976.672 264.221 977.154 264.027C977.642 263.828 978.026 263.553 978.305 263.203C978.584 262.848 978.724 262.433 978.724 261.96C978.724 261.529 978.601 261.176 978.355 260.902C978.113 260.627 977.784 260.4 977.368 260.22C976.956 260.04 976.489 259.881 975.968 259.744L974.25 259.275C973.085 258.958 972.162 258.492 971.48 257.876C970.803 257.26 970.464 256.446 970.464 255.433C970.464 254.595 970.691 253.863 971.146 253.238C971.6 252.613 972.216 252.128 972.993 251.782C973.769 251.432 974.645 251.257 975.62 251.257C976.605 251.257 977.474 251.429 978.227 251.775C978.984 252.121 979.581 252.597 980.017 253.203C980.452 253.804 980.68 254.495 980.699 255.277H978.582ZM988.229 266.001H983.52V251.456H988.378C989.803 251.456 991.027 251.747 992.05 252.329C993.072 252.907 993.856 253.738 994.401 254.822C994.95 255.902 995.224 257.197 995.224 258.707C995.224 260.222 994.947 261.524 994.393 262.613C993.844 263.702 993.049 264.54 992.007 265.127C990.965 265.71 989.706 266.001 988.229 266.001ZM985.714 264.083H988.108C989.216 264.083 990.137 263.875 990.871 263.458C991.605 263.037 992.154 262.429 992.518 261.633C992.883 260.833 993.065 259.858 993.065 258.707C993.065 257.566 992.883 256.598 992.518 255.802C992.159 255.007 991.621 254.403 990.906 253.991C990.191 253.579 989.304 253.373 988.243 253.373H985.714V264.083ZM997.953 266.001V251.456H1000.15V258.402H1000.33L1006.43 251.456H1009.19L1003.32 258.004L1009.21 266.001H1006.57L1001.87 259.502L1000.15 261.477V266.001H997.953Z" fill="white"/>
</svg>
