<svg width="81" height="80" viewBox="0 0 81 80" fill="none" xmlns="http://www.w3.org/2000/svg">
<path d="M14.6875 9.79199H52.6839L65.3494 22.5871V71.2087H14.6875V9.79199Z" fill="#1CAD95"/>
<rect x="14.6875" y="22.3545" width="12.6655" height="12.5625" fill="#41CCAE"/>
<rect x="27.3535" y="9.79199" width="12.6655" height="12.5625" fill="#168C79"/>
<rect x="14.6875" y="9.79199" width="12.6655" height="12.5625" fill="#084042"/>
<path d="M48.3528 53.1109C48.8335 52.8981 49.0032 52.1002 48.8052 51.7278H45.5817C46.0906 49.9724 46.6279 48.1637 47.4479 46.4881C48.07 45.1582 48.6356 44.5199 49.0032 44.5199C49.3708 44.5199 49.9928 45.0252 50.4735 46.7275C50.6149 47.1796 50.8411 47.4988 51.2936 47.4988C51.8591 47.4988 53.075 46.8339 53.1033 45.5306C53.1033 44.3071 52.2267 43.3496 50.1059 43.3496C47.3065 43.3496 45.2706 45.0518 43.9982 47.2062C43.1498 48.6159 42.556 50.1852 42.047 51.7278H39.389C39.0497 51.8608 38.7669 52.5523 38.9649 53.1109H41.6229L37.9186 65.9574C37.4096 67.6863 37.1552 68.0852 36.8441 68.0852C36.5331 68.0852 35.8544 67.3937 35.1475 66.1968C35.0344 66.0106 34.8082 65.7712 34.3557 65.7712C33.5923 65.7712 32.6309 66.5958 32.6309 67.4735C32.6309 68.8832 34.0447 69.5215 35.4868 69.5215C37.5228 69.5215 39.2194 68.3778 40.1242 67.1809C40.9443 66.117 41.5946 64.4414 42.1884 62.6859C43.2347 59.574 44.1113 56.409 45.1575 53.1109H48.3528Z" fill="white"/>
<path d="M57.142 55.3982C58.1034 54.3609 58.8952 53.7758 59.2628 53.7758C59.6304 53.7758 59.8283 54.095 59.9414 54.4407C60.0545 54.7599 60.2525 55.0259 60.5635 55.0259C61.2987 55.0259 61.9491 53.9886 61.9491 52.7651C61.9491 52.0736 61.4684 51.3554 60.5918 51.3554C59.3476 51.3554 58.3297 52.2598 56.831 53.9354L55.813 55.0791L55.1626 53.0843C54.795 51.9672 54.2295 51.3554 53.4943 51.3554C51.4018 51.3554 49.9314 53.9886 49.5921 55.0791C49.6487 55.3717 50.0445 55.5312 50.3556 55.3982C51.2039 54.2014 51.5432 54.0418 51.826 54.0418C52.0239 54.0418 52.2501 54.5471 52.4198 55.0525L53.2681 57.5792L52.3632 58.5899C51.1473 59.9464 50.497 60.372 50.3839 60.372C50.1576 60.372 49.9597 60.2656 49.79 59.8932C49.5921 59.4145 49.4507 59.0953 49.168 59.0953C48.461 59.0953 47.4996 60.4784 47.4996 61.4093C47.4996 62.2338 48.0652 62.7391 48.8004 62.7391C49.8466 62.7391 50.8363 62.2072 52.1087 60.7709L53.7205 58.9357L54.3426 60.7177C54.7385 61.8082 55.304 62.7391 56.5482 62.7391C58.3579 62.7391 59.7435 60.7177 60.3373 58.8559C60.1676 58.5367 59.6869 58.5102 59.4607 58.7229C58.9517 59.5209 58.2448 60.372 57.9338 60.372C57.7076 60.372 57.4813 60.1326 56.9158 58.4836L56.2089 56.3824L57.142 55.3982Z" fill="white"/>
</svg>
