<svg width="243" height="362" viewBox="0 0 243 362" fill="none" xmlns="http://www.w3.org/2000/svg">
<rect y="123" width="90" height="54" rx="6" fill="white"/>
<path d="M52.5977 142.594V138.423H53.5388V139.132H53.5877C53.6748 138.893 53.8189 138.706 54.0202 138.572C54.2215 138.437 54.4618 138.369 54.741 138.369C55.0239 138.369 55.2624 138.437 55.4564 138.575C55.6522 138.711 55.7901 138.896 55.8698 139.132H55.9134C56.0058 138.9 56.1618 138.715 56.3812 138.578C56.6024 138.438 56.8645 138.369 57.1673 138.369C57.5517 138.369 57.8654 138.49 58.1084 138.732C58.3514 138.975 58.4729 139.329 58.4729 139.794V142.594H57.4855V139.946C57.4855 139.687 57.4166 139.498 57.2788 139.379C57.141 139.257 56.9724 139.197 56.7729 139.197C56.5353 139.197 56.3495 139.271 56.2153 139.419C56.0829 139.566 56.0167 139.757 56.0167 139.992V142.594H55.0511V139.905C55.0511 139.69 54.9858 139.518 54.8553 139.39C54.7265 139.261 54.5579 139.197 54.3493 139.197C54.2079 139.197 54.0792 139.233 53.9631 139.305C53.8471 139.376 53.7546 139.476 53.6857 139.607C53.6168 139.735 53.5823 139.886 53.5823 140.058V142.594H52.5977Z" fill="#F05323"/>
<path d="M50.2363 142.675C49.8283 142.675 49.4747 142.585 49.1755 142.406C48.8763 142.227 48.6442 141.976 48.4792 141.654C48.316 141.332 48.2344 140.955 48.2344 140.525C48.2344 140.094 48.316 139.716 48.4792 139.392C48.6442 139.068 48.8763 138.817 49.1755 138.637C49.4747 138.458 49.8283 138.369 50.2363 138.369C50.6443 138.369 50.9979 138.458 51.2971 138.637C51.5963 138.817 51.8275 139.068 51.9907 139.392C52.1557 139.716 52.2382 140.094 52.2382 140.525C52.2382 140.955 52.1557 141.332 51.9907 141.654C51.8275 141.976 51.5963 142.227 51.2971 142.406C50.9979 142.585 50.6443 142.675 50.2363 142.675ZM50.2417 141.888C50.463 141.888 50.6479 141.827 50.7966 141.706C50.9453 141.583 51.0559 141.418 51.1285 141.211C51.2028 141.005 51.24 140.775 51.24 140.522C51.24 140.267 51.2028 140.036 51.1285 139.829C51.0559 139.621 50.9453 139.456 50.7966 139.333C50.6479 139.209 50.463 139.148 50.2417 139.148C50.0151 139.148 49.8265 139.209 49.676 139.333C49.5273 139.456 49.4158 139.621 49.3414 139.829C49.2689 140.036 49.2326 140.267 49.2326 140.522C49.2326 140.775 49.2689 141.005 49.3414 141.211C49.4158 141.418 49.5273 141.583 49.676 141.706C49.8265 141.827 50.0151 141.888 50.2417 141.888Z" fill="#F05323"/>
<path d="M46.2949 142.675C45.8778 142.675 45.5197 142.584 45.2205 142.401C44.9231 142.218 44.6937 141.965 44.5323 141.643C44.3728 141.319 44.293 140.946 44.293 140.525C44.293 140.101 44.3746 139.727 44.5378 139.403C44.701 139.077 44.9313 138.824 45.2287 138.643C45.5279 138.46 45.8815 138.369 46.2895 138.369C46.6286 138.369 46.9287 138.431 47.1898 138.556C47.4527 138.679 47.6622 138.854 47.8181 139.08C47.9741 139.304 48.0629 139.567 48.0847 139.867H47.1435C47.1055 139.667 47.0148 139.499 46.8715 139.365C46.7301 139.229 46.5406 139.161 46.3031 139.161C46.1018 139.161 45.925 139.216 45.7727 139.324C45.6203 139.431 45.5016 139.585 45.4163 139.786C45.3329 139.987 45.2912 140.228 45.2912 140.508C45.2912 140.792 45.3329 141.037 45.4163 141.241C45.4998 141.444 45.6167 141.601 45.7672 141.711C45.9195 141.82 46.0982 141.874 46.3031 141.874C46.4481 141.874 46.5778 141.847 46.692 141.793C46.8081 141.736 46.9051 141.656 46.9831 141.551C47.061 141.446 47.1145 141.318 47.1435 141.168H48.0847C48.0611 141.463 47.9741 141.725 47.8236 141.953C47.673 142.179 47.4681 142.356 47.2088 142.485C46.9495 142.612 46.6449 142.675 46.2949 142.675Z" fill="#F05323"/>
<path d="M41.2698 140.15V142.594H40.2852V138.423H41.2263V139.132H41.2752C41.3714 138.898 41.5246 138.713 41.7349 138.575C41.9471 138.437 42.2091 138.369 42.521 138.369C42.8093 138.369 43.0605 138.43 43.2745 138.553C43.4902 138.676 43.6571 138.855 43.7749 139.088C43.8946 139.322 43.9536 139.605 43.9517 139.938V142.594H42.9671V140.09C42.9671 139.811 42.8946 139.593 42.7495 139.436C42.6062 139.278 42.4077 139.2 42.1538 139.2C41.9815 139.2 41.8283 139.238 41.6941 139.314C41.5618 139.388 41.4575 139.495 41.3813 139.637C41.307 139.778 41.2698 139.949 41.2698 140.15Z" fill="#F05323"/>
<path d="M37.5661 142.678C37.3013 142.678 37.0629 142.631 36.8507 142.536C36.6403 142.441 36.4735 142.299 36.3502 142.113C36.2287 141.926 36.168 141.697 36.168 141.423C36.168 141.188 36.2115 140.993 36.2985 140.839C36.3856 140.686 36.5043 140.563 36.6549 140.47C36.8054 140.378 36.9749 140.308 37.1635 140.261C37.3539 140.212 37.5506 140.177 37.7537 140.155C37.9985 140.13 38.1971 140.107 38.3494 140.087C38.5017 140.066 38.6124 140.033 38.6813 139.99C38.752 139.944 38.7873 139.875 38.7873 139.781V139.764C38.7873 139.56 38.7266 139.401 38.6051 139.289C38.4836 139.177 38.3086 139.121 38.0801 139.121C37.839 139.121 37.6477 139.173 37.5062 139.278C37.3666 139.383 37.2723 139.507 37.2233 139.65L36.304 139.52C36.3765 139.266 36.4962 139.055 36.663 138.885C36.8298 138.713 37.0338 138.584 37.275 138.499C37.5162 138.412 37.7828 138.369 38.0747 138.369C38.276 138.369 38.4764 138.392 38.6758 138.439C38.8753 138.486 39.0575 138.564 39.2226 138.673C39.3876 138.78 39.5199 138.925 39.6197 139.11C39.7212 139.295 39.772 139.525 39.772 139.802V142.594H38.8254V142.021H38.7928C38.7329 142.136 38.6486 142.245 38.5398 142.346C38.4328 142.446 38.2977 142.527 38.1345 142.588C37.9732 142.648 37.7837 142.678 37.5661 142.678ZM37.8217 141.955C38.0194 141.955 38.1908 141.917 38.3358 141.839C38.4809 141.759 38.5924 141.654 38.6704 141.524C38.7502 141.393 38.7901 141.251 38.7901 141.097V140.606C38.7592 140.631 38.7067 140.655 38.6323 140.677C38.5598 140.698 38.4782 140.717 38.3875 140.734C38.2968 140.75 38.2071 140.764 38.1182 140.777C38.0294 140.79 37.9523 140.801 37.887 140.81C37.7401 140.83 37.6087 140.862 37.4926 140.907C37.3766 140.953 37.285 141.016 37.2179 141.097C37.1508 141.177 37.1173 141.28 37.1173 141.407C37.1173 141.588 37.1834 141.725 37.3158 141.817C37.4482 141.909 37.6168 141.955 37.8217 141.955Z" fill="#F05323"/>
<path d="M31.1875 142.593V137.032H32.1966V139.387H34.7779V137.032H35.7898V142.593H34.7779V140.231H32.1966V142.593H31.1875Z" fill="#F05323"/>
<path d="M30.8104 153.674C30.7576 153.136 30.5284 152.716 30.1251 152.419C29.7219 152.12 29.1738 151.971 28.482 151.971C28.0115 151.971 27.6149 152.039 27.2907 152.172C26.9666 152.302 26.7189 152.482 26.5449 152.714C26.3763 152.945 26.2919 153.208 26.2919 153.502C26.2827 153.747 26.3341 153.961 26.4448 154.144C26.5607 154.326 26.7175 154.485 26.9178 154.619C27.1181 154.748 27.3487 154.861 27.6096 154.96C27.8719 155.054 28.1512 155.133 28.4477 155.201L29.6718 155.495C30.2661 155.628 30.8117 155.807 31.3084 156.029C31.8052 156.251 32.2361 156.525 32.5998 156.851C32.9635 157.176 33.2455 157.559 33.4445 158C33.6487 158.441 33.7528 158.946 33.7568 159.517C33.7528 160.354 33.5393 161.08 33.1177 161.694C32.7013 162.304 32.0978 162.779 31.3071 163.118C30.5218 163.453 29.5743 163.619 28.4661 163.619C27.358 163.619 26.4079 163.45 25.5909 163.111C24.7792 162.773 24.1454 162.271 23.6881 161.608C23.2362 160.94 22.9976 160.113 22.9766 159.129H25.7648C25.7965 159.588 25.9269 159.97 26.1575 160.279C26.3921 160.582 26.7057 160.811 27.0957 160.967C27.491 161.117 27.9364 161.194 28.4332 161.194C28.93 161.194 29.3451 161.123 29.7048 160.98C30.0685 160.837 30.3505 160.639 30.5494 160.386C30.7484 160.132 30.8486 159.841 30.8486 159.51C30.8486 159.203 30.7576 158.944 30.5758 158.735C30.3979 158.526 30.137 158.347 29.7904 158.2C29.4492 158.053 29.0301 157.92 28.5333 157.799L27.0496 157.425C25.9006 157.144 24.994 156.705 24.3285 156.108C23.6631 155.512 23.3323 154.707 23.3376 153.697C23.3337 152.868 23.5524 152.145 23.9965 151.526C24.4445 150.906 25.0585 150.423 25.8399 150.075C26.6213 149.728 27.5082 149.554 28.5017 149.554C29.4953 149.554 30.3966 149.728 31.1503 150.075C31.9093 150.423 32.4983 150.906 32.92 151.526C33.3417 152.145 33.5591 152.862 33.5723 153.677H30.8104V153.674Z" fill="black"/>
<path d="M39.9635 163.422H35.1328V149.738H40.0031C41.3735 149.738 42.5542 150.012 43.5424 150.56C44.532 151.103 45.2924 151.885 45.8247 152.904C46.361 153.924 46.6298 155.144 46.6298 156.565C46.6298 157.986 46.361 159.215 45.8247 160.239C45.2924 161.263 44.5268 162.049 43.5293 162.598C42.5357 163.146 41.3471 163.419 39.9622 163.419L39.9635 163.422ZM38.0133 160.943H39.8436C40.6949 160.943 41.4117 160.791 41.9928 160.489C42.5779 160.182 43.018 159.707 43.3105 159.065C43.6083 158.42 43.7559 157.586 43.7559 156.566C43.7559 155.546 43.607 154.728 43.3105 154.088C43.018 153.446 42.5805 152.974 41.9994 152.671C41.4183 152.368 40.7015 152.217 39.8502 152.217H38.0133V160.943Z" fill="black"/>
<path d="M48.2044 163.422V149.738H51.0863V155.771H51.2655L56.17 149.738H59.6237L54.5664 155.865L59.683 163.421H56.2359L52.5028 157.795L51.085 159.532V163.421H48.2031L48.2044 163.422Z" fill="black"/>
<path d="M64.3769 146.416C62.6546 146.416 61.2539 147.822 61.2539 149.552C61.2539 151.281 62.6546 152.687 64.3769 152.687C66.0991 152.687 67.4999 151.281 67.4999 149.552C67.4999 147.822 66.0991 146.416 64.3769 146.416ZM64.3769 152.089C62.9827 152.089 61.8495 150.951 61.8495 149.552C61.8495 148.152 62.9827 147.014 64.3769 147.014C65.771 147.014 66.9042 148.152 66.9042 149.552C66.9042 150.951 65.771 152.089 64.3769 152.089Z" fill="black"/>
<path d="M65.0475 148.533C64.8169 148.533 64.6931 148.556 64.6404 148.567C64.6443 148.512 64.6548 148.384 64.6548 148.22V147.91H64.0922V148.22C64.0922 148.384 64.1001 148.512 64.1067 148.567C64.0553 148.556 63.9314 148.533 63.6995 148.533H62.7969V149.098H63.0354C63.3332 149.098 63.5229 149.06 63.7219 148.897L63.7733 148.958C63.4412 149.091 63.125 149.453 63.125 149.918C63.125 150.589 63.6494 151.077 64.3729 151.077C65.0963 151.077 65.6207 150.59 65.6207 149.918C65.6207 149.454 65.3071 149.091 64.9724 148.958L65.0238 148.897C65.2241 149.058 65.4138 149.098 65.7103 149.098H65.9488V148.533H65.0462H65.0502H65.0475ZM65.0581 149.877C65.0581 150.264 64.7774 150.535 64.3729 150.535C63.9683 150.535 63.6876 150.265 63.6876 149.877C63.6876 149.49 63.963 149.212 64.3729 149.212C64.7827 149.212 65.0581 149.478 65.0581 149.877Z" fill="black"/>
<path d="M89 152V152C97.8758 152 105.071 144.805 105.071 135.929L105.071 39.9289C105.071 31.1316 112.203 24 121 24V24" stroke="white"/>
<path d="M89 152V152C97.8758 152 105.071 144.805 105.071 135.929L105.071 124.929C105.071 116.132 112.203 109 121 109V109" stroke="white"/>
<path d="M89 152V152C97.8758 152 105.071 159.195 105.071 168.071L105.071 260.071C105.071 268.868 112.203 276 121 276V276" stroke="white"/>
<path d="M89 152V152C97.8758 152 105.071 159.195 105.071 168.071L105.071 178.071C105.071 186.868 112.203 194 121 194V194" stroke="white"/>
<rect x="121.5" y="164.5" width="121" height="53" rx="5.5" stroke="white"/>
<path d="M153.43 196V185.818H157.059C157.852 185.818 158.508 185.962 159.028 186.251C159.549 186.539 159.938 186.933 160.196 187.434C160.455 187.931 160.584 188.491 160.584 189.114C160.584 189.741 160.453 190.304 160.191 190.805C159.933 191.302 159.542 191.696 159.018 191.988C158.498 192.276 157.843 192.42 157.054 192.42H154.559V191.118H156.915C157.416 191.118 157.822 191.032 158.133 190.859C158.445 190.684 158.674 190.445 158.819 190.143C158.965 189.842 159.038 189.499 159.038 189.114C159.038 188.73 158.965 188.388 158.819 188.09C158.674 187.792 158.443 187.558 158.128 187.389C157.817 187.22 157.406 187.136 156.895 187.136H154.966V196H153.43ZM165.681 196H162.385V185.818H165.786C166.783 185.818 167.64 186.022 168.356 186.43C169.072 186.834 169.621 187.416 170.002 188.175C170.386 188.93 170.578 189.837 170.578 190.894C170.578 191.955 170.384 192.866 169.997 193.629C169.612 194.391 169.055 194.978 168.326 195.388C167.597 195.796 166.715 196 165.681 196ZM163.921 194.658H165.597C166.372 194.658 167.017 194.512 167.531 194.22C168.045 193.925 168.429 193.499 168.684 192.942C168.939 192.382 169.067 191.7 169.067 190.894C169.067 190.095 168.939 189.418 168.684 188.861C168.432 188.304 168.056 187.881 167.556 187.593C167.055 187.305 166.434 187.161 165.691 187.161H163.921V194.658ZM172.489 196V185.818H178.803V187.141H174.025V190.243H178.35V191.56H174.025V196H172.489ZM189.95 188.493C189.897 188.022 189.678 187.658 189.294 187.399C188.909 187.137 188.426 187.006 187.842 187.006C187.425 187.006 187.063 187.073 186.758 187.205C186.454 187.335 186.217 187.513 186.047 187.742C185.882 187.968 185.799 188.224 185.799 188.513C185.799 188.755 185.855 188.964 185.968 189.139C186.084 189.315 186.235 189.462 186.42 189.582C186.609 189.698 186.811 189.795 187.027 189.875C187.242 189.951 187.449 190.014 187.648 190.064L188.643 190.322C188.967 190.402 189.301 190.51 189.642 190.646C189.983 190.781 190.3 190.96 190.592 191.183C190.883 191.405 191.119 191.68 191.297 192.008C191.48 192.336 191.571 192.729 191.571 193.186C191.571 193.763 191.422 194.275 191.123 194.722C190.829 195.17 190.399 195.523 189.836 195.781C189.276 196.04 188.598 196.169 187.802 196.169C187.04 196.169 186.381 196.048 185.824 195.806C185.267 195.564 184.831 195.221 184.516 194.777C184.201 194.33 184.027 193.799 183.994 193.186H185.535C185.565 193.554 185.685 193.861 185.893 194.106C186.105 194.348 186.376 194.528 186.704 194.648C187.035 194.764 187.398 194.822 187.793 194.822C188.227 194.822 188.613 194.754 188.951 194.618C189.292 194.479 189.561 194.286 189.756 194.041C189.952 193.793 190.05 193.503 190.05 193.171C190.05 192.87 189.963 192.623 189.791 192.43C189.622 192.238 189.392 192.079 189.1 191.953C188.812 191.827 188.485 191.716 188.121 191.62L186.918 191.292C186.102 191.07 185.456 190.743 184.979 190.312C184.505 189.882 184.268 189.312 184.268 188.602C184.268 188.016 184.427 187.504 184.745 187.066C185.063 186.629 185.494 186.289 186.038 186.047C186.581 185.802 187.194 185.679 187.877 185.679C188.566 185.679 189.175 185.8 189.702 186.042C190.232 186.284 190.65 186.617 190.954 187.041C191.259 187.462 191.418 187.946 191.432 188.493H189.95ZM196.703 196H193.407V185.818H196.807C197.805 185.818 198.662 186.022 199.378 186.43C200.093 186.834 200.642 187.416 201.023 188.175C201.408 188.93 201.6 189.837 201.6 190.894C201.6 191.955 201.406 192.866 201.018 193.629C200.634 194.391 200.077 194.978 199.348 195.388C198.619 195.796 197.737 196 196.703 196ZM194.943 194.658H196.618C197.394 194.658 198.039 194.512 198.552 194.22C199.066 193.925 199.45 193.499 199.706 192.942C199.961 192.382 200.089 191.7 200.089 190.894C200.089 190.095 199.961 189.418 199.706 188.861C199.454 188.304 199.078 187.881 198.577 187.593C198.077 187.305 197.455 187.161 196.713 187.161H194.943V194.658ZM203.51 196V185.818H205.046V190.68H205.171L209.441 185.818H211.375L207.269 190.402L211.39 196H209.541L206.25 191.451L205.046 192.833V196H203.51Z" fill="white"/>
<rect x="121.5" y="246.5" width="121" height="53" rx="5.5" stroke="white"/>
<path d="M161.133 278H159.502L163.166 267.818H164.941L168.605 278H166.975L164.096 269.668H164.017L161.133 278ZM161.406 274.013H166.696V275.305H161.406V274.013ZM171.612 267.818V278H170.076V267.818H171.612ZM183.107 270.493C183.054 270.022 182.836 269.658 182.451 269.399C182.067 269.137 181.583 269.006 180.999 269.006C180.582 269.006 180.221 269.073 179.916 269.205C179.611 269.335 179.374 269.513 179.205 269.742C179.039 269.968 178.956 270.224 178.956 270.513C178.956 270.755 179.012 270.964 179.125 271.139C179.241 271.315 179.392 271.462 179.578 271.582C179.767 271.698 179.969 271.795 180.184 271.875C180.4 271.951 180.607 272.014 180.806 272.064L181.8 272.322C182.125 272.402 182.458 272.51 182.799 272.646C183.141 272.781 183.457 272.96 183.749 273.183C184.04 273.405 184.276 273.68 184.455 274.008C184.637 274.336 184.728 274.729 184.728 275.186C184.728 275.763 184.579 276.275 184.281 276.722C183.986 277.17 183.557 277.523 182.993 277.781C182.433 278.04 181.755 278.169 180.96 278.169C180.197 278.169 179.538 278.048 178.981 277.806C178.424 277.564 177.988 277.221 177.673 276.777C177.359 276.33 177.185 275.799 177.151 275.186H178.693C178.722 275.554 178.842 275.861 179.051 276.106C179.263 276.348 179.533 276.528 179.861 276.648C180.192 276.764 180.555 276.822 180.95 276.822C181.384 276.822 181.77 276.754 182.108 276.618C182.45 276.479 182.718 276.286 182.914 276.041C183.109 275.793 183.207 275.503 183.207 275.171C183.207 274.87 183.121 274.623 182.948 274.43C182.779 274.238 182.549 274.079 182.257 273.953C181.969 273.827 181.642 273.716 181.278 273.62L180.075 273.292C179.259 273.07 178.613 272.743 178.136 272.312C177.662 271.882 177.425 271.312 177.425 270.602C177.425 270.016 177.584 269.504 177.902 269.066C178.22 268.629 178.651 268.289 179.195 268.047C179.738 267.802 180.352 267.679 181.034 267.679C181.724 267.679 182.332 267.8 182.859 268.042C183.389 268.284 183.807 268.617 184.112 269.041C184.417 269.462 184.576 269.946 184.589 270.493H183.107ZM189.86 278H186.564V267.818H189.964C190.962 267.818 191.819 268.022 192.535 268.43C193.251 268.834 193.799 269.416 194.18 270.175C194.565 270.93 194.757 271.837 194.757 272.894C194.757 273.955 194.563 274.866 194.175 275.629C193.791 276.391 193.234 276.978 192.505 277.388C191.776 277.796 190.894 278 189.86 278ZM188.1 276.658H189.776C190.551 276.658 191.196 276.512 191.71 276.22C192.223 275.925 192.608 275.499 192.863 274.942C193.118 274.382 193.246 273.7 193.246 272.894C193.246 272.095 193.118 271.418 192.863 270.861C192.611 270.304 192.235 269.881 191.734 269.593C191.234 269.305 190.612 269.161 189.87 269.161H188.1V276.658ZM196.667 278V267.818H198.204V272.68H198.328L202.599 267.818H204.532L200.426 272.402L204.547 278H202.698L199.407 273.451L198.204 274.833V278H196.667Z" fill="white"/>
<path d="M182 299V308" stroke="white"/>
<rect x="121.5" y="308.5" width="121" height="53" rx="5.5" stroke="white" stroke-opacity="0.6" stroke-dasharray="3 3"/>
<path d="M163.885 325.636C163.885 326.568 163.715 327.369 163.374 328.04C163.033 328.707 162.566 329.222 161.972 329.582C161.381 329.94 160.709 330.119 159.956 330.119C159.201 330.119 158.526 329.94 157.932 329.582C157.341 329.222 156.876 328.706 156.535 328.036C156.194 327.365 156.023 326.565 156.023 325.636C156.023 324.705 156.194 323.905 156.535 323.237C156.876 322.567 157.341 322.053 157.932 321.695C158.526 321.334 159.201 321.153 159.956 321.153C160.709 321.153 161.381 321.334 161.972 321.695C162.566 322.053 163.033 322.567 163.374 323.237C163.715 323.905 163.885 324.705 163.885 325.636ZM162.581 325.636C162.581 324.926 162.466 324.328 162.236 323.842C162.009 323.354 161.697 322.984 161.299 322.734C160.904 322.482 160.456 322.355 159.956 322.355C159.454 322.355 159.005 322.482 158.61 322.734C158.215 322.984 157.903 323.354 157.672 323.842C157.445 324.328 157.331 324.926 157.331 325.636C157.331 326.347 157.445 326.946 157.672 327.435C157.903 327.92 158.215 328.29 158.61 328.543C159.005 328.793 159.454 328.918 159.956 328.918C160.456 328.918 160.904 328.793 161.299 328.543C161.697 328.29 162.009 327.92 162.236 327.435C162.466 326.946 162.581 326.347 162.581 325.636ZM172.776 324.111H171.446C171.395 323.827 171.3 323.577 171.161 323.361C171.021 323.145 170.851 322.962 170.649 322.811C170.448 322.661 170.222 322.547 169.972 322.47C169.725 322.393 169.462 322.355 169.183 322.355C168.681 322.355 168.23 322.482 167.833 322.734C167.438 322.987 167.125 323.358 166.895 323.847C166.668 324.335 166.554 324.932 166.554 325.636C166.554 326.347 166.668 326.946 166.895 327.435C167.125 327.923 167.439 328.293 167.837 328.543C168.235 328.793 168.682 328.918 169.179 328.918C169.455 328.918 169.716 328.881 169.963 328.807C170.213 328.73 170.439 328.618 170.641 328.47C170.843 328.322 171.013 328.142 171.152 327.929C171.294 327.713 171.392 327.466 171.446 327.188L172.776 327.192C172.705 327.621 172.567 328.016 172.362 328.376C172.161 328.734 171.901 329.044 171.583 329.305C171.267 329.564 170.906 329.764 170.5 329.906C170.094 330.048 169.651 330.119 169.171 330.119C168.415 330.119 167.742 329.94 167.151 329.582C166.56 329.222 166.094 328.706 165.753 328.036C165.415 327.365 165.246 326.565 165.246 325.636C165.246 324.705 165.416 323.905 165.757 323.237C166.098 322.567 166.564 322.053 167.155 321.695C167.746 321.334 168.418 321.153 169.171 321.153C169.634 321.153 170.066 321.22 170.466 321.354C170.869 321.484 171.232 321.678 171.553 321.933C171.874 322.186 172.139 322.496 172.35 322.862C172.56 323.226 172.702 323.642 172.776 324.111ZM174.351 330V321.273H177.462C178.138 321.273 178.699 321.389 179.145 321.622C179.594 321.855 179.93 322.178 180.151 322.589C180.373 322.999 180.483 323.472 180.483 324.009C180.483 324.543 180.371 325.013 180.147 325.419C179.925 325.822 179.59 326.136 179.141 326.361C178.695 326.585 178.134 326.697 177.458 326.697H175.101V325.564H177.339C177.765 325.564 178.111 325.503 178.378 325.381C178.648 325.259 178.846 325.081 178.971 324.848C179.096 324.615 179.158 324.335 179.158 324.009C179.158 323.679 179.094 323.393 178.966 323.152C178.841 322.911 178.644 322.726 178.374 322.598C178.107 322.467 177.756 322.402 177.322 322.402H175.668V330H174.351ZM178.66 326.062L180.816 330H179.316L177.202 326.062H178.66ZM190.021 323.565C189.976 323.162 189.789 322.849 189.459 322.628C189.129 322.403 188.715 322.291 188.215 322.291C187.857 322.291 187.547 322.348 187.286 322.462C187.024 322.572 186.821 322.726 186.676 322.922C186.534 323.115 186.463 323.335 186.463 323.582C186.463 323.79 186.512 323.969 186.608 324.119C186.708 324.27 186.837 324.396 186.996 324.499C187.158 324.598 187.331 324.682 187.516 324.75C187.7 324.815 187.878 324.869 188.048 324.912L188.901 325.134C189.179 325.202 189.465 325.294 189.757 325.411C190.05 325.527 190.321 325.68 190.571 325.871C190.821 326.061 191.023 326.297 191.176 326.578C191.333 326.859 191.411 327.196 191.411 327.588C191.411 328.082 191.283 328.521 191.027 328.905C190.774 329.288 190.406 329.591 189.923 329.812C189.443 330.034 188.862 330.145 188.181 330.145C187.527 330.145 186.962 330.041 186.485 329.834C186.007 329.626 185.634 329.332 185.364 328.952C185.094 328.568 184.945 328.114 184.916 327.588H186.237C186.263 327.903 186.365 328.166 186.544 328.376C186.726 328.584 186.958 328.739 187.239 328.841C187.523 328.94 187.834 328.99 188.172 328.99C188.544 328.99 188.875 328.932 189.165 328.815C189.458 328.696 189.688 328.531 189.855 328.321C190.023 328.108 190.107 327.859 190.107 327.575C190.107 327.317 190.033 327.105 189.885 326.94C189.74 326.776 189.543 326.639 189.293 326.531C189.046 326.423 188.766 326.328 188.453 326.246L187.422 325.964C186.723 325.774 186.169 325.494 185.76 325.125C185.354 324.756 185.151 324.267 185.151 323.659C185.151 323.156 185.287 322.717 185.56 322.342C185.833 321.967 186.202 321.676 186.668 321.469C187.134 321.259 187.659 321.153 188.244 321.153C188.835 321.153 189.357 321.257 189.808 321.464C190.263 321.672 190.621 321.957 190.882 322.321C191.144 322.682 191.28 323.097 191.291 323.565H190.021ZM195.809 330H192.984V321.273H195.899C196.754 321.273 197.488 321.447 198.102 321.797C198.716 322.143 199.186 322.642 199.513 323.293C199.842 323.94 200.007 324.717 200.007 325.624C200.007 326.533 199.841 327.314 199.508 327.967C199.179 328.621 198.702 329.124 198.077 329.476C197.452 329.825 196.696 330 195.809 330ZM194.301 328.849H195.737C196.402 328.849 196.954 328.724 197.395 328.474C197.835 328.222 198.165 327.857 198.383 327.379C198.602 326.899 198.711 326.314 198.711 325.624C198.711 324.939 198.602 324.358 198.383 323.881C198.167 323.403 197.845 323.041 197.416 322.794C196.987 322.547 196.454 322.423 195.818 322.423H194.301V328.849ZM201.644 330V321.273H202.961V325.44H203.068L206.728 321.273H208.386L204.866 325.202L208.399 330H206.813L203.992 326.101L202.961 327.286V330H201.644Z" fill="white" fill-opacity="0.6"/>
<path d="M153.6 343.111H152.27C152.219 342.827 152.124 342.577 151.985 342.361C151.846 342.145 151.675 341.962 151.474 341.811C151.272 341.661 151.046 341.547 150.796 341.47C150.549 341.393 150.286 341.355 150.008 341.355C149.505 341.355 149.055 341.482 148.657 341.734C148.262 341.987 147.949 342.358 147.719 342.847C147.492 343.335 147.378 343.932 147.378 344.636C147.378 345.347 147.492 345.946 147.719 346.435C147.949 346.923 148.263 347.293 148.661 347.543C149.059 347.793 149.506 347.918 150.003 347.918C150.279 347.918 150.54 347.881 150.787 347.807C151.037 347.73 151.263 347.618 151.465 347.47C151.667 347.322 151.837 347.142 151.976 346.929C152.118 346.713 152.216 346.466 152.27 346.188L153.6 346.192C153.529 346.621 153.391 347.016 153.187 347.376C152.985 347.734 152.725 348.044 152.407 348.305C152.091 348.564 151.731 348.764 151.324 348.906C150.918 349.048 150.475 349.119 149.995 349.119C149.239 349.119 148.566 348.94 147.975 348.582C147.384 348.222 146.918 347.706 146.577 347.036C146.239 346.365 146.07 345.565 146.07 344.636C146.07 343.705 146.241 342.905 146.581 342.237C146.922 341.567 147.388 341.053 147.979 340.695C148.57 340.334 149.242 340.153 149.995 340.153C150.458 340.153 150.89 340.22 151.29 340.354C151.694 340.484 152.056 340.678 152.377 340.933C152.698 341.186 152.964 341.496 153.174 341.862C153.384 342.226 153.526 342.642 153.6 343.111ZM156.347 345.114V349H155.073V340.273H156.33V343.52H156.411C156.565 343.168 156.799 342.888 157.115 342.68C157.43 342.473 157.842 342.369 158.35 342.369C158.799 342.369 159.191 342.462 159.526 342.646C159.865 342.831 160.126 343.107 160.311 343.473C160.498 343.837 160.592 344.291 160.592 344.837V349H159.318V344.99C159.318 344.51 159.194 344.138 158.947 343.874C158.7 343.607 158.356 343.473 157.916 343.473C157.615 343.473 157.345 343.537 157.106 343.665C156.87 343.793 156.684 343.98 156.548 344.227C156.414 344.472 156.347 344.767 156.347 345.114ZM164.197 349.145C163.782 349.145 163.407 349.068 163.072 348.915C162.737 348.759 162.471 348.533 162.275 348.237C162.082 347.942 161.985 347.58 161.985 347.151C161.985 346.781 162.056 346.477 162.198 346.239C162.34 346 162.532 345.811 162.774 345.672C163.015 345.533 163.285 345.428 163.583 345.357C163.882 345.286 164.186 345.232 164.495 345.195C164.887 345.149 165.205 345.112 165.45 345.084C165.694 345.053 165.872 345.003 165.982 344.935C166.093 344.866 166.149 344.756 166.149 344.602V344.572C166.149 344.2 166.044 343.912 165.833 343.707C165.626 343.503 165.316 343.401 164.904 343.401C164.475 343.401 164.137 343.496 163.89 343.686C163.646 343.874 163.477 344.082 163.383 344.312L162.186 344.04C162.328 343.642 162.535 343.321 162.808 343.077C163.083 342.83 163.4 342.651 163.758 342.54C164.116 342.426 164.492 342.369 164.887 342.369C165.149 342.369 165.426 342.401 165.718 342.463C166.014 342.523 166.289 342.634 166.545 342.795C166.803 342.957 167.015 343.189 167.18 343.49C167.345 343.788 167.427 344.176 167.427 344.653V349H166.183V348.105H166.132C166.049 348.27 165.926 348.432 165.761 348.591C165.596 348.75 165.384 348.882 165.126 348.987C164.867 349.092 164.558 349.145 164.197 349.145ZM164.474 348.122C164.826 348.122 165.127 348.053 165.377 347.913C165.63 347.774 165.822 347.592 165.953 347.368C166.086 347.141 166.153 346.898 166.153 346.639V345.795C166.107 345.841 166.019 345.884 165.889 345.923C165.761 345.96 165.615 345.993 165.45 346.021C165.285 346.047 165.124 346.071 164.968 346.094C164.812 346.114 164.681 346.131 164.576 346.145C164.329 346.176 164.103 346.229 163.899 346.303C163.697 346.376 163.535 346.483 163.413 346.622C163.294 346.759 163.234 346.94 163.234 347.168C163.234 347.483 163.35 347.722 163.583 347.884C163.816 348.043 164.113 348.122 164.474 348.122ZM172.18 342.455V343.477H168.604V342.455H172.18ZM169.563 340.886H170.837V347.078C170.837 347.325 170.874 347.511 170.948 347.636C171.022 347.759 171.117 347.842 171.233 347.888C171.353 347.93 171.482 347.952 171.621 347.952C171.724 347.952 171.813 347.945 171.89 347.93C171.966 347.916 172.026 347.905 172.069 347.896L172.299 348.949C172.225 348.977 172.12 349.006 171.983 349.034C171.847 349.065 171.677 349.082 171.472 349.085C171.137 349.091 170.824 349.031 170.535 348.906C170.245 348.781 170.01 348.588 169.831 348.327C169.653 348.065 169.563 347.737 169.563 347.342V340.886ZM173.832 349V340.273H175.106V343.516H175.183C175.257 343.379 175.363 343.222 175.502 343.043C175.642 342.864 175.835 342.707 176.082 342.574C176.329 342.438 176.656 342.369 177.062 342.369C177.59 342.369 178.062 342.503 178.477 342.77C178.892 343.037 179.217 343.422 179.453 343.925C179.691 344.428 179.811 345.033 179.811 345.74C179.811 346.447 179.693 347.054 179.457 347.56C179.221 348.062 178.897 348.45 178.485 348.723C178.073 348.993 177.603 349.128 177.075 349.128C176.677 349.128 176.352 349.061 176.099 348.928C175.849 348.794 175.653 348.638 175.511 348.459C175.369 348.28 175.259 348.121 175.183 347.982H175.076V349H173.832ZM175.08 345.727C175.08 346.187 175.147 346.591 175.281 346.938C175.414 347.284 175.607 347.555 175.86 347.751C176.113 347.945 176.423 348.041 176.789 348.041C177.17 348.041 177.488 347.94 177.744 347.739C177.999 347.534 178.193 347.257 178.323 346.908C178.457 346.558 178.524 346.165 178.524 345.727C178.524 345.295 178.458 344.908 178.328 344.564C178.2 344.22 178.007 343.949 177.748 343.75C177.492 343.551 177.173 343.452 176.789 343.452C176.42 343.452 176.107 343.547 175.852 343.737C175.599 343.928 175.407 344.193 175.276 344.534C175.146 344.875 175.08 345.273 175.08 345.727ZM183.998 349.132C183.385 349.132 182.849 348.991 182.392 348.71C181.934 348.429 181.579 348.036 181.327 347.53C181.074 347.024 180.947 346.433 180.947 345.757C180.947 345.078 181.074 344.484 181.327 343.976C181.579 343.467 181.934 343.072 182.392 342.791C182.849 342.51 183.385 342.369 183.998 342.369C184.612 342.369 185.148 342.51 185.605 342.791C186.062 343.072 186.417 343.467 186.67 343.976C186.923 344.484 187.05 345.078 187.05 345.757C187.05 346.433 186.923 347.024 186.67 347.53C186.417 348.036 186.062 348.429 185.605 348.71C185.148 348.991 184.612 349.132 183.998 349.132ZM184.003 348.062C184.4 348.062 184.73 347.957 184.991 347.747C185.253 347.537 185.446 347.257 185.571 346.908C185.699 346.558 185.763 346.173 185.763 345.753C185.763 345.335 185.699 344.952 185.571 344.602C185.446 344.25 185.253 343.967 184.991 343.754C184.73 343.541 184.4 343.435 184.003 343.435C183.602 343.435 183.27 343.541 183.006 343.754C182.744 343.967 182.55 344.25 182.422 344.602C182.297 344.952 182.234 345.335 182.234 345.753C182.234 346.173 182.297 346.558 182.422 346.908C182.55 347.257 182.744 347.537 183.006 347.747C183.27 347.957 183.602 348.062 184.003 348.062ZM191.527 342.455V343.477H187.952V342.455H191.527ZM188.911 340.886H190.185V347.078C190.185 347.325 190.222 347.511 190.296 347.636C190.369 347.759 190.465 347.842 190.581 347.888C190.7 347.93 190.83 347.952 190.969 347.952C191.071 347.952 191.161 347.945 191.237 347.93C191.314 347.916 191.374 347.905 191.416 347.896L191.646 348.949C191.573 348.977 191.468 349.006 191.331 349.034C191.195 349.065 191.024 349.082 190.82 349.085C190.485 349.091 190.172 349.031 189.882 348.906C189.593 348.781 189.358 348.588 189.179 348.327C189 348.065 188.911 347.737 188.911 347.342V340.886ZM200.975 342.565C200.929 342.162 200.742 341.849 200.412 341.628C200.083 341.403 199.668 341.291 199.168 341.291C198.81 341.291 198.5 341.348 198.239 341.462C197.977 341.572 197.774 341.726 197.629 341.922C197.487 342.115 197.416 342.335 197.416 342.582C197.416 342.79 197.465 342.969 197.561 343.119C197.661 343.27 197.79 343.396 197.949 343.499C198.111 343.598 198.284 343.682 198.469 343.75C198.654 343.815 198.831 343.869 199.002 343.912L199.854 344.134C200.132 344.202 200.418 344.294 200.71 344.411C201.003 344.527 201.274 344.68 201.524 344.871C201.774 345.061 201.976 345.297 202.129 345.578C202.286 345.859 202.364 346.196 202.364 346.588C202.364 347.082 202.236 347.521 201.98 347.905C201.727 348.288 201.36 348.591 200.877 348.812C200.396 349.034 199.816 349.145 199.134 349.145C198.48 349.145 197.915 349.041 197.438 348.834C196.96 348.626 196.587 348.332 196.317 347.952C196.047 347.568 195.898 347.114 195.869 346.588H197.191C197.216 346.903 197.318 347.166 197.497 347.376C197.679 347.584 197.911 347.739 198.192 347.841C198.476 347.94 198.787 347.99 199.125 347.99C199.497 347.99 199.828 347.932 200.118 347.815C200.411 347.696 200.641 347.531 200.808 347.321C200.976 347.108 201.06 346.859 201.06 346.575C201.06 346.317 200.986 346.105 200.838 345.94C200.693 345.776 200.496 345.639 200.246 345.531C199.999 345.423 199.719 345.328 199.406 345.246L198.375 344.964C197.676 344.774 197.122 344.494 196.713 344.125C196.307 343.756 196.104 343.267 196.104 342.659C196.104 342.156 196.24 341.717 196.513 341.342C196.786 340.967 197.155 340.676 197.621 340.469C198.087 340.259 198.612 340.153 199.198 340.153C199.789 340.153 200.31 340.257 200.762 340.464C201.216 340.672 201.574 340.957 201.835 341.321C202.097 341.682 202.233 342.097 202.244 342.565H200.975ZM206.763 349H203.937V340.273H206.852C207.707 340.273 208.442 340.447 209.055 340.797C209.669 341.143 210.139 341.642 210.466 342.293C210.795 342.94 210.96 343.717 210.96 344.624C210.96 345.533 210.794 346.314 210.461 346.967C210.132 347.621 209.655 348.124 209.03 348.476C208.405 348.825 207.649 349 206.763 349ZM205.254 347.849H206.69C207.355 347.849 207.907 347.724 208.348 347.474C208.788 347.222 209.118 346.857 209.336 346.379C209.555 345.899 209.665 345.314 209.665 344.624C209.665 343.939 209.555 343.358 209.336 342.881C209.121 342.403 208.798 342.041 208.369 341.794C207.94 341.547 207.407 341.423 206.771 341.423H205.254V347.849ZM212.597 349V340.273H213.914V344.44H214.021L217.681 340.273H219.339L215.819 344.202L219.352 349H217.767L214.945 345.101L213.914 346.286V349H212.597Z" fill="white" fill-opacity="0.6"/>
<rect x="121.5" y="82.5" width="121" height="53" rx="5.5" stroke="white"/>
<path d="M156.034 107.909C156.034 108.996 155.835 109.931 155.438 110.713C155.04 111.492 154.495 112.092 153.802 112.513C153.113 112.93 152.329 113.139 151.451 113.139C150.569 113.139 149.782 112.93 149.089 112.513C148.4 112.092 147.856 111.49 147.458 110.708C147.061 109.926 146.862 108.993 146.862 107.909C146.862 106.822 147.061 105.889 147.458 105.11C147.856 104.328 148.4 103.728 149.089 103.31C149.782 102.889 150.569 102.679 151.451 102.679C152.329 102.679 153.113 102.889 153.802 103.31C154.495 103.728 155.04 104.328 155.438 105.11C155.835 105.889 156.034 106.822 156.034 107.909ZM154.513 107.909C154.513 107.08 154.379 106.383 154.11 105.816C153.845 105.246 153.481 104.815 153.017 104.523C152.556 104.228 152.034 104.081 151.451 104.081C150.864 104.081 150.34 104.228 149.88 104.523C149.419 104.815 149.054 105.246 148.786 105.816C148.521 106.383 148.388 107.08 148.388 107.909C148.388 108.738 148.521 109.437 148.786 110.007C149.054 110.574 149.419 111.005 149.88 111.3C150.34 111.591 150.864 111.737 151.451 111.737C152.034 111.737 152.556 111.591 153.017 111.3C153.481 111.005 153.845 110.574 154.11 110.007C154.379 109.437 154.513 108.738 154.513 107.909ZM161.465 105.364V106.557H157.149V105.364H161.465ZM158.332 113V104.479C158.332 104.001 158.437 103.605 158.646 103.29C158.854 102.972 159.131 102.735 159.476 102.58C159.821 102.42 160.195 102.341 160.6 102.341C160.898 102.341 161.153 102.366 161.365 102.415C161.577 102.462 161.735 102.505 161.837 102.545L161.489 103.748C161.42 103.728 161.33 103.705 161.221 103.678C161.112 103.648 160.979 103.634 160.823 103.634C160.462 103.634 160.203 103.723 160.048 103.902C159.895 104.081 159.819 104.339 159.819 104.678V113H158.332ZM166.633 105.364V106.557H162.317V105.364H166.633ZM163.5 113V104.479C163.5 104.001 163.605 103.605 163.814 103.29C164.022 102.972 164.299 102.735 164.644 102.58C164.989 102.42 165.363 102.341 165.767 102.341C166.066 102.341 166.321 102.366 166.533 102.415C166.745 102.462 166.903 102.505 167.005 102.545L166.657 103.748C166.588 103.728 166.498 103.705 166.389 103.678C166.28 103.648 166.147 103.634 165.991 103.634C165.63 103.634 165.371 103.723 165.216 103.902C165.063 104.081 164.987 104.339 164.987 104.678V113H163.5ZM168.166 113V105.364H169.653V113H168.166ZM168.917 104.185C168.658 104.185 168.436 104.099 168.251 103.927C168.069 103.751 167.977 103.542 167.977 103.3C167.977 103.055 168.069 102.846 168.251 102.674C168.436 102.498 168.658 102.411 168.917 102.411C169.176 102.411 169.396 102.498 169.578 102.674C169.764 102.846 169.857 103.055 169.857 103.3C169.857 103.542 169.764 103.751 169.578 103.927C169.396 104.099 169.176 104.185 168.917 104.185ZM174.869 113.154C174.13 113.154 173.494 112.987 172.96 112.652C172.43 112.314 172.022 111.848 171.737 111.255C171.452 110.662 171.31 109.982 171.31 109.217C171.31 108.441 171.455 107.757 171.747 107.163C172.039 106.567 172.45 106.101 172.98 105.766C173.51 105.432 174.135 105.264 174.854 105.264C175.434 105.264 175.951 105.372 176.405 105.587C176.86 105.799 177.226 106.098 177.504 106.482C177.786 106.867 177.953 107.316 178.006 107.83H176.56C176.48 107.472 176.298 107.163 176.013 106.905C175.731 106.646 175.353 106.517 174.879 106.517C174.465 106.517 174.102 106.626 173.79 106.845C173.482 107.061 173.242 107.369 173.07 107.77C172.897 108.168 172.811 108.638 172.811 109.182C172.811 109.739 172.896 110.219 173.065 110.624C173.234 111.028 173.472 111.341 173.78 111.563C174.092 111.785 174.458 111.896 174.879 111.896C175.161 111.896 175.416 111.845 175.645 111.742C175.877 111.636 176.071 111.485 176.226 111.29C176.386 111.094 176.497 110.859 176.56 110.584H178.006C177.953 111.078 177.793 111.518 177.524 111.906C177.256 112.294 176.896 112.599 176.445 112.821C175.998 113.043 175.472 113.154 174.869 113.154ZM182.887 113.154C182.135 113.154 181.487 112.993 180.943 112.672C180.403 112.347 179.985 111.891 179.69 111.305C179.399 110.715 179.253 110.024 179.253 109.232C179.253 108.449 179.399 107.76 179.69 107.163C179.985 106.567 180.396 106.101 180.923 105.766C181.454 105.432 182.073 105.264 182.783 105.264C183.214 105.264 183.631 105.335 184.036 105.478C184.44 105.621 184.803 105.844 185.124 106.149C185.446 106.454 185.699 106.85 185.885 107.337C186.071 107.821 186.163 108.41 186.163 109.102V109.629H180.093V108.516H184.707C184.707 108.125 184.627 107.778 184.468 107.477C184.309 107.172 184.085 106.931 183.797 106.756C183.512 106.58 183.177 106.492 182.793 106.492C182.375 106.492 182.011 106.595 181.699 106.8C181.391 107.003 181.152 107.268 180.983 107.596C180.817 107.921 180.734 108.274 180.734 108.655V109.525C180.734 110.035 180.824 110.469 181.003 110.827C181.185 111.185 181.439 111.459 181.764 111.648C182.088 111.833 182.468 111.926 182.902 111.926C183.184 111.926 183.441 111.886 183.673 111.807C183.905 111.724 184.105 111.601 184.274 111.439C184.443 111.277 184.573 111.076 184.662 110.837L186.069 111.091C185.956 111.505 185.754 111.868 185.462 112.18C185.174 112.488 184.811 112.728 184.374 112.901C183.939 113.07 183.444 113.154 182.887 113.154ZM197.19 105.493C197.137 105.022 196.919 104.658 196.534 104.399C196.15 104.137 195.666 104.006 195.082 104.006C194.665 104.006 194.304 104.073 193.999 104.205C193.694 104.335 193.457 104.513 193.288 104.742C193.122 104.968 193.039 105.224 193.039 105.513C193.039 105.755 193.095 105.964 193.208 106.139C193.324 106.315 193.475 106.462 193.661 106.582C193.85 106.698 194.052 106.795 194.267 106.875C194.483 106.951 194.69 107.014 194.889 107.064L195.883 107.322C196.208 107.402 196.541 107.51 196.882 107.646C197.224 107.781 197.54 107.96 197.832 108.183C198.123 108.405 198.359 108.68 198.538 109.008C198.72 109.336 198.811 109.729 198.811 110.186C198.811 110.763 198.662 111.275 198.364 111.722C198.069 112.17 197.64 112.523 197.076 112.781C196.516 113.04 195.838 113.169 195.043 113.169C194.28 113.169 193.621 113.048 193.064 112.806C192.507 112.564 192.071 112.221 191.756 111.777C191.442 111.33 191.268 110.799 191.234 110.186H192.776C192.805 110.554 192.925 110.861 193.134 111.106C193.346 111.348 193.616 111.528 193.944 111.648C194.275 111.764 194.638 111.822 195.033 111.822C195.467 111.822 195.853 111.754 196.191 111.618C196.533 111.479 196.801 111.286 196.997 111.041C197.192 110.793 197.29 110.503 197.29 110.171C197.29 109.87 197.204 109.623 197.031 109.43C196.862 109.238 196.632 109.079 196.34 108.953C196.052 108.827 195.725 108.716 195.361 108.62L194.158 108.292C193.342 108.07 192.696 107.743 192.219 107.312C191.745 106.882 191.508 106.312 191.508 105.602C191.508 105.016 191.667 104.504 191.985 104.066C192.303 103.629 192.734 103.289 193.278 103.047C193.821 102.802 194.435 102.679 195.117 102.679C195.807 102.679 196.415 102.8 196.942 103.042C197.472 103.284 197.89 103.617 198.195 104.041C198.5 104.462 198.659 104.946 198.672 105.493H197.19ZM203.943 113H200.647V102.818H204.047C205.045 102.818 205.902 103.022 206.618 103.43C207.334 103.834 207.882 104.416 208.263 105.175C208.648 105.93 208.84 106.837 208.84 107.894C208.84 108.955 208.646 109.866 208.258 110.629C207.874 111.391 207.317 111.978 206.588 112.388C205.859 112.796 204.977 113 203.943 113ZM202.183 111.658H203.859C204.634 111.658 205.279 111.512 205.793 111.22C206.306 110.925 206.691 110.499 206.946 109.942C207.201 109.382 207.329 108.7 207.329 107.894C207.329 107.095 207.201 106.418 206.946 105.861C206.694 105.304 206.318 104.881 205.817 104.593C205.317 104.305 204.695 104.161 203.953 104.161H202.183V111.658ZM210.75 113V102.818H212.287V107.68H212.411L216.682 102.818H218.616L214.509 107.402L218.63 113H216.781L213.49 108.451L212.287 109.833V113H210.75Z" fill="white"/>
<rect x="121.5" y="0.5" width="121" height="53" rx="5.5" stroke="white"/>
<path d="M146.036 16.4929C145.983 16.0223 145.764 15.6577 145.38 15.3991C144.995 15.1373 144.512 15.0064 143.928 15.0064C143.511 15.0064 143.149 15.0727 142.844 15.2053C142.539 15.3345 142.302 15.5135 142.133 15.7422C141.968 15.9676 141.885 16.2244 141.885 16.5128C141.885 16.7547 141.941 16.9635 142.054 17.1392C142.17 17.3149 142.321 17.4624 142.506 17.5817C142.695 17.6977 142.897 17.7955 143.113 17.875C143.328 17.9512 143.535 18.0142 143.734 18.0639L144.729 18.3224C145.053 18.402 145.387 18.5097 145.728 18.6456C146.069 18.7815 146.386 18.9605 146.677 19.1825C146.969 19.4046 147.204 19.6797 147.383 20.0078C147.566 20.3359 147.657 20.7287 147.657 21.1861C147.657 21.7628 147.508 22.2749 147.209 22.7223C146.914 23.1697 146.485 23.5227 145.922 23.7812C145.362 24.0398 144.684 24.169 143.888 24.169C143.126 24.169 142.467 24.0481 141.91 23.8061C141.353 23.5642 140.917 23.2211 140.602 22.777C140.287 22.3295 140.113 21.7992 140.08 21.1861H141.621C141.651 21.554 141.771 21.8606 141.979 22.1058C142.191 22.3478 142.462 22.5284 142.79 22.6477C143.121 22.7637 143.484 22.8217 143.878 22.8217C144.313 22.8217 144.699 22.7538 145.037 22.6179C145.378 22.4787 145.647 22.2865 145.842 22.0412C146.038 21.7926 146.136 21.5026 146.136 21.1712C146.136 20.8696 146.049 20.6226 145.877 20.4304C145.708 20.2382 145.478 20.0791 145.186 19.9531C144.898 19.8272 144.571 19.7161 144.207 19.62L143.003 19.2919C142.188 19.0698 141.542 18.7434 141.065 18.3125C140.591 17.8816 140.354 17.3116 140.354 16.6023C140.354 16.0156 140.513 15.5036 140.831 15.0661C141.149 14.6286 141.58 14.2888 142.123 14.0469C142.667 13.8016 143.28 13.679 143.963 13.679C144.652 13.679 145.261 13.8 145.788 14.0419C146.318 14.2839 146.735 14.617 147.04 15.0412C147.345 15.4621 147.504 15.946 147.518 16.4929H146.036ZM149.373 26.8636V16.3636H150.825V17.6016H150.949C151.035 17.4425 151.16 17.2585 151.322 17.0497C151.485 16.8409 151.71 16.6586 151.998 16.5028C152.287 16.3438 152.668 16.2642 153.142 16.2642C153.758 16.2642 154.308 16.42 154.792 16.7315C155.276 17.0431 155.656 17.4922 155.931 18.0788C156.209 18.6655 156.348 19.3714 156.348 20.1967C156.348 21.022 156.211 21.7296 155.936 22.3196C155.661 22.9062 155.283 23.3587 154.802 23.6768C154.322 23.9917 153.773 24.1491 153.157 24.1491C152.693 24.1491 152.313 24.0713 152.018 23.9155C151.727 23.7597 151.498 23.5774 151.332 23.3686C151.166 23.1598 151.039 22.9742 150.949 22.8118H150.86V26.8636H149.373ZM150.83 20.1818C150.83 20.7187 150.908 21.1894 151.064 21.5938C151.219 21.9981 151.445 22.3146 151.74 22.5433C152.035 22.7687 152.396 22.8814 152.824 22.8814C153.268 22.8814 153.639 22.7637 153.937 22.5284C154.236 22.2898 154.461 21.9666 154.613 21.5589C154.769 21.1513 154.847 20.6922 154.847 20.1818C154.847 19.678 154.771 19.2256 154.618 18.8246C154.469 18.4235 154.244 18.107 153.942 17.875C153.644 17.643 153.271 17.527 152.824 17.527C152.393 17.527 152.028 17.638 151.73 17.8601C151.435 18.0821 151.211 18.392 151.059 18.7898C150.906 19.1875 150.83 19.6515 150.83 20.1818ZM158.014 24V16.3636H159.451V17.5767H159.53C159.669 17.1657 159.915 16.8426 160.266 16.6072C160.621 16.3686 161.022 16.2493 161.469 16.2493C161.562 16.2493 161.671 16.2526 161.797 16.2592C161.927 16.2659 162.028 16.2741 162.101 16.2841V17.706C162.041 17.6894 161.935 17.6712 161.782 17.6513C161.63 17.6281 161.477 17.6165 161.325 17.6165C160.974 17.6165 160.66 17.6911 160.385 17.8402C160.114 17.986 159.898 18.1899 159.739 18.4517C159.58 18.7102 159.5 19.0052 159.5 19.3366V24H158.014ZM166.405 24.1541C165.652 24.1541 165.004 23.9934 164.461 23.6719C163.921 23.3471 163.503 22.8913 163.208 22.3047C162.916 21.7147 162.771 21.0237 162.771 20.2315C162.771 19.4493 162.916 18.7599 163.208 18.1634C163.503 17.5668 163.914 17.1011 164.441 16.7663C164.971 16.4316 165.591 16.2642 166.3 16.2642C166.731 16.2642 167.149 16.3355 167.553 16.478C167.958 16.6205 168.32 16.8442 168.642 17.1491C168.963 17.4541 169.217 17.8501 169.403 18.3374C169.588 18.8213 169.681 19.4096 169.681 20.1023V20.6293H163.611V19.5156H168.224C168.224 19.1245 168.145 18.7782 167.986 18.4766C167.827 18.1716 167.603 17.9313 167.315 17.7557C167.03 17.58 166.695 17.4922 166.31 17.4922C165.893 17.4922 165.528 17.5949 165.217 17.8004C164.908 18.0026 164.67 18.2678 164.501 18.5959C164.335 18.9207 164.252 19.2737 164.252 19.6548V20.5249C164.252 21.0353 164.342 21.4695 164.521 21.8274C164.703 22.1854 164.956 22.4588 165.281 22.6477C165.606 22.8333 165.985 22.9261 166.42 22.9261C166.701 22.9261 166.958 22.8864 167.19 22.8068C167.422 22.724 167.623 22.6013 167.792 22.4389C167.961 22.2765 168.09 22.076 168.18 21.8374L169.587 22.0909C169.474 22.5052 169.272 22.8681 168.98 23.1797C168.692 23.4879 168.329 23.7282 167.891 23.9006C167.457 24.0696 166.962 24.1541 166.405 24.1541ZM173.553 24.169C173.069 24.169 172.631 24.0795 172.24 23.9006C171.849 23.7183 171.539 23.4548 171.31 23.1101C171.085 22.7654 170.972 22.3428 170.972 21.8423C170.972 21.4115 171.055 21.0568 171.221 20.7784C171.387 20.5 171.61 20.2796 171.892 20.1172C172.174 19.9548 172.489 19.8321 172.837 19.7493C173.185 19.6664 173.539 19.6035 173.901 19.5604C174.358 19.5073 174.729 19.4643 175.014 19.4311C175.299 19.3946 175.506 19.3366 175.636 19.2571C175.765 19.1776 175.83 19.0483 175.83 18.8693V18.8345C175.83 18.4003 175.707 18.0639 175.462 17.8253C175.22 17.5866 174.859 17.4673 174.378 17.4673C173.877 17.4673 173.483 17.5784 173.195 17.8004C172.91 18.0192 172.712 18.2628 172.603 18.5312L171.206 18.2131C171.372 17.7491 171.614 17.3745 171.932 17.0895C172.253 16.8011 172.623 16.5923 173.041 16.4631C173.458 16.3305 173.897 16.2642 174.358 16.2642C174.663 16.2642 174.986 16.3007 175.328 16.3736C175.672 16.4432 175.994 16.5724 176.292 16.7614C176.594 16.9503 176.841 17.2204 177.033 17.5717C177.225 17.9197 177.321 18.3722 177.321 18.929V24H175.869V22.956H175.81C175.714 23.1482 175.569 23.3371 175.377 23.5227C175.185 23.7083 174.938 23.8625 174.636 23.9851C174.335 24.1077 173.974 24.169 173.553 24.169ZM173.876 22.9759C174.287 22.9759 174.638 22.8946 174.93 22.7322C175.225 22.5698 175.448 22.3577 175.601 22.0959C175.757 21.8307 175.835 21.5473 175.835 21.2457V20.2614C175.782 20.3144 175.679 20.3641 175.526 20.4105C175.377 20.4536 175.207 20.4917 175.014 20.5249C174.822 20.5547 174.635 20.5829 174.453 20.6094C174.27 20.6326 174.118 20.6525 173.995 20.669C173.707 20.7055 173.443 20.7668 173.205 20.853C172.969 20.9392 172.78 21.0634 172.638 21.2259C172.499 21.3849 172.429 21.5971 172.429 21.8622C172.429 22.2301 172.565 22.5085 172.837 22.6974C173.109 22.883 173.455 22.9759 173.876 22.9759ZM182.16 24.1491C181.543 24.1491 180.993 23.9917 180.509 23.6768C180.029 23.3587 179.651 22.9062 179.376 22.3196C179.104 21.7296 178.968 21.022 178.968 20.1967C178.968 19.3714 179.105 18.6655 179.381 18.0788C179.659 17.4922 180.04 17.0431 180.524 16.7315C181.008 16.42 181.556 16.2642 182.17 16.2642C182.644 16.2642 183.025 16.3438 183.313 16.5028C183.605 16.6586 183.83 16.8409 183.989 17.0497C184.152 17.2585 184.278 17.4425 184.367 17.6016H184.457V13.8182H185.943V24H184.491V22.8118H184.367C184.278 22.9742 184.148 23.1598 183.979 23.3686C183.814 23.5774 183.585 23.7597 183.293 23.9155C183.002 24.0713 182.624 24.1491 182.16 24.1491ZM182.488 22.8814C182.915 22.8814 183.277 22.7687 183.572 22.5433C183.87 22.3146 184.095 21.9981 184.248 21.5938C184.404 21.1894 184.481 20.7187 184.481 20.1818C184.481 19.6515 184.405 19.1875 184.253 18.7898C184.1 18.392 183.877 18.0821 183.582 17.8601C183.287 17.638 182.922 17.527 182.488 17.527C182.04 17.527 181.668 17.643 181.369 17.875C181.071 18.107 180.846 18.4235 180.693 18.8246C180.544 19.2256 180.469 19.678 180.469 20.1818C180.469 20.6922 180.546 21.1513 180.698 21.5589C180.851 21.9666 181.076 22.2898 181.374 22.5284C181.676 22.7637 182.047 22.8814 182.488 22.8814ZM193.787 18.228L192.44 18.4666C192.383 18.2943 192.294 18.1302 192.171 17.9744C192.052 17.8187 191.89 17.6911 191.684 17.5916C191.479 17.4922 191.222 17.4425 190.913 17.4425C190.493 17.4425 190.141 17.5369 189.859 17.7259C189.578 17.9115 189.437 18.1518 189.437 18.4467C189.437 18.7019 189.531 18.9074 189.72 19.0632C189.909 19.219 190.214 19.3466 190.635 19.446L191.848 19.7244C192.551 19.8868 193.074 20.1371 193.419 20.4751C193.764 20.8132 193.936 21.2524 193.936 21.7926C193.936 22.25 193.804 22.6577 193.538 23.0156C193.277 23.3703 192.91 23.6487 192.44 23.8509C191.972 24.053 191.43 24.1541 190.814 24.1541C189.959 24.1541 189.261 23.9718 188.721 23.6072C188.181 23.2393 187.849 22.7173 187.727 22.0412L189.163 21.8224C189.253 22.197 189.437 22.4804 189.715 22.6726C189.994 22.8615 190.357 22.956 190.804 22.956C191.291 22.956 191.681 22.8549 191.972 22.6527C192.264 22.4472 192.41 22.197 192.41 21.902C192.41 21.6634 192.32 21.4628 192.141 21.3004C191.966 21.138 191.696 21.0154 191.331 20.9325L190.038 20.6491C189.326 20.4867 188.799 20.2282 188.457 19.8736C188.119 19.5189 187.95 19.0698 187.95 18.5263C187.95 18.0755 188.076 17.6811 188.328 17.343C188.58 17.005 188.928 16.7415 189.372 16.5526C189.816 16.3603 190.325 16.2642 190.899 16.2642C191.724 16.2642 192.373 16.4432 192.847 16.8011C193.321 17.1558 193.635 17.6314 193.787 18.228ZM197.057 19.4659V24H195.571V13.8182H197.037V17.6065H197.132C197.311 17.1955 197.584 16.8691 197.952 16.6271C198.32 16.3852 198.8 16.2642 199.394 16.2642C199.917 16.2642 200.375 16.3719 200.766 16.5874C201.16 16.8028 201.465 17.1243 201.681 17.5518C201.899 17.9761 202.009 18.5064 202.009 19.1428V24H200.522V19.3217C200.522 18.7616 200.378 18.3274 200.09 18.0192C199.801 17.7076 199.4 17.5518 198.887 17.5518C198.535 17.5518 198.22 17.6264 197.942 17.7756C197.667 17.9247 197.45 18.1435 197.291 18.4318C197.135 18.7169 197.057 19.0616 197.057 19.4659ZM207.284 24.1541C206.531 24.1541 205.883 23.9934 205.34 23.6719C204.8 23.3471 204.382 22.8913 204.087 22.3047C203.795 21.7147 203.649 21.0237 203.649 20.2315C203.649 19.4493 203.795 18.7599 204.087 18.1634C204.382 17.5668 204.793 17.1011 205.32 16.7663C205.85 16.4316 206.47 16.2642 207.179 16.2642C207.61 16.2642 208.028 16.3355 208.432 16.478C208.836 16.6205 209.199 16.8442 209.521 17.1491C209.842 17.4541 210.096 17.8501 210.282 18.3374C210.467 18.8213 210.56 19.4096 210.56 20.1023V20.6293H204.49V19.5156H209.103C209.103 19.1245 209.024 18.7782 208.865 18.4766C208.706 18.1716 208.482 17.9313 208.193 17.7557C207.908 17.58 207.574 17.4922 207.189 17.4922C206.772 17.4922 206.407 17.5949 206.095 17.8004C205.787 18.0026 205.549 18.2678 205.38 18.5959C205.214 18.9207 205.131 19.2737 205.131 19.6548V20.5249C205.131 21.0353 205.22 21.4695 205.399 21.8274C205.582 22.1854 205.835 22.4588 206.16 22.6477C206.485 22.8333 206.864 22.9261 207.299 22.9261C207.58 22.9261 207.837 22.8864 208.069 22.8068C208.301 22.724 208.502 22.6013 208.671 22.4389C208.84 22.2765 208.969 22.076 209.059 21.8374L210.465 22.0909C210.353 22.5052 210.151 22.8681 209.859 23.1797C209.571 23.4879 209.208 23.7282 208.77 23.9006C208.336 24.0696 207.84 24.1541 207.284 24.1541ZM215.5 24.1541C214.748 24.1541 214.1 23.9934 213.557 23.6719C213.016 23.3471 212.599 22.8913 212.304 22.3047C212.012 21.7147 211.866 21.0237 211.866 20.2315C211.866 19.4493 212.012 18.7599 212.304 18.1634C212.599 17.5668 213.01 17.1011 213.537 16.7663C214.067 16.4316 214.687 16.2642 215.396 16.2642C215.827 16.2642 216.245 16.3355 216.649 16.478C217.053 16.6205 217.416 16.8442 217.738 17.1491C218.059 17.4541 218.313 17.8501 218.498 18.3374C218.684 18.8213 218.777 19.4096 218.777 20.1023V20.6293H212.706V19.5156H217.32C217.32 19.1245 217.241 18.7782 217.081 18.4766C216.922 18.1716 216.699 17.9313 216.41 17.7557C216.125 17.58 215.79 17.4922 215.406 17.4922C214.988 17.4922 214.624 17.5949 214.312 17.8004C214.004 18.0026 213.765 18.2678 213.596 18.5959C213.431 18.9207 213.348 19.2737 213.348 19.6548V20.5249C213.348 21.0353 213.437 21.4695 213.616 21.8274C213.799 22.1854 214.052 22.4588 214.377 22.6477C214.702 22.8333 215.081 22.9261 215.515 22.9261C215.797 22.9261 216.054 22.8864 216.286 22.8068C216.518 22.724 216.718 22.6013 216.888 22.4389C217.057 22.2765 217.186 22.076 217.275 21.8374L218.682 22.0909C218.57 22.5052 218.367 22.8681 218.076 23.1797C217.787 23.4879 217.424 23.7282 216.987 23.9006C216.553 24.0696 216.057 24.1541 215.5 24.1541ZM223.991 16.3636V17.5568H219.82V16.3636H223.991ZM220.938 14.5341H222.425V21.7578C222.425 22.0462 222.468 22.2633 222.554 22.4091C222.64 22.5516 222.751 22.6494 222.887 22.7024C223.026 22.7521 223.177 22.777 223.339 22.777C223.459 22.777 223.563 22.7687 223.653 22.7521C223.742 22.7356 223.812 22.7223 223.861 22.7124L224.13 23.9403C224.044 23.9735 223.921 24.0066 223.762 24.0398C223.603 24.0762 223.404 24.0961 223.165 24.0994C222.774 24.1061 222.41 24.0365 222.072 23.8906C221.734 23.7448 221.46 23.5194 221.251 23.2145C221.043 22.9096 220.938 22.5268 220.938 22.0661V14.5341ZM174.467 33.4929C174.414 33.0223 174.195 32.6577 173.811 32.3991C173.426 32.1373 172.942 32.0064 172.359 32.0064C171.941 32.0064 171.58 32.0727 171.275 32.2053C170.97 32.3345 170.733 32.5135 170.564 32.7422C170.398 32.9676 170.316 33.2244 170.316 33.5128C170.316 33.7547 170.372 33.9635 170.485 34.1392C170.601 34.3149 170.751 34.4624 170.937 34.5817C171.126 34.6977 171.328 34.7955 171.544 34.875C171.759 34.9512 171.966 35.0142 172.165 35.0639L173.159 35.3224C173.484 35.402 173.817 35.5097 174.159 35.6456C174.5 35.7815 174.816 35.9605 175.108 36.1825C175.4 36.4046 175.635 36.6797 175.814 37.0078C175.996 37.3359 176.088 37.7287 176.088 38.1861C176.088 38.7628 175.938 39.2749 175.64 39.7223C175.345 40.1697 174.916 40.5227 174.352 40.7812C173.792 41.0398 173.115 41.169 172.319 41.169C171.557 41.169 170.897 41.0481 170.34 40.8061C169.784 40.5642 169.348 40.2211 169.033 39.777C168.718 39.3295 168.544 38.7992 168.511 38.1861H170.052C170.082 38.554 170.201 38.8606 170.41 39.1058C170.622 39.3478 170.892 39.5284 171.22 39.6477C171.552 39.7637 171.915 39.8217 172.309 39.8217C172.743 39.8217 173.129 39.7538 173.468 39.6179C173.809 39.4787 174.077 39.2865 174.273 39.0412C174.468 38.7926 174.566 38.5026 174.566 38.1712C174.566 37.8696 174.48 37.6226 174.308 37.4304C174.139 37.2382 173.908 37.0791 173.617 36.9531C173.328 36.8272 173.002 36.7161 172.637 36.62L171.434 36.2919C170.619 36.0698 169.972 35.7434 169.495 35.3125C169.021 34.8816 168.784 34.3116 168.784 33.6023C168.784 33.0156 168.943 32.5036 169.262 32.0661C169.58 31.6286 170.011 31.2888 170.554 31.0469C171.098 30.8016 171.711 30.679 172.394 30.679C173.083 30.679 173.691 30.8 174.218 31.0419C174.749 31.2839 175.166 31.617 175.471 32.0412C175.776 32.4621 175.935 32.946 175.948 33.4929H174.467ZM181.219 41H177.923V30.8182H181.324C182.321 30.8182 183.178 31.022 183.894 31.4297C184.61 31.834 185.159 32.4157 185.54 33.1747C185.924 33.9304 186.116 34.8369 186.116 35.8942C186.116 36.9548 185.923 37.8662 185.535 38.6286C185.15 39.3909 184.594 39.9775 183.864 40.3885C183.135 40.7962 182.254 41 181.219 41ZM179.46 39.6577H181.135C181.911 39.6577 182.555 39.5118 183.069 39.2202C183.583 38.9252 183.967 38.4993 184.222 37.9425C184.478 37.3823 184.605 36.6996 184.605 35.8942C184.605 35.0954 184.478 34.4176 184.222 33.8608C183.97 33.304 183.594 32.8814 183.094 32.593C182.593 32.3047 181.972 32.1605 181.229 32.1605H179.46V39.6577ZM188.027 41V30.8182H189.563V35.6804H189.687L193.958 30.8182H195.892L191.785 35.402L195.907 41H194.057L190.766 36.451L189.563 37.8331V41H188.027Z" fill="white"/>
</svg>
