<svg width="82" height="80" viewBox="0 0 82 80" fill="none" xmlns="http://www.w3.org/2000/svg">
<path d="M0.878906 37.8803H32.4389V59.7285H2.95054C1.81761 59.7285 0.878906 58.8134 0.878906 57.6737V37.8643V37.8803Z" fill="#005451"/>
<path d="M32.4375 16.0166H62.5247C63.6576 16.0166 64.5963 16.9316 64.5963 18.0714V37.8808H32.4375V16.0326V16.0166Z" fill="#71C2AD"/>
<path d="M32.4375 37.8809H64.5963V58.3324C64.5963 59.103 63.9651 59.729 63.1883 59.729H32.4537V37.8809H32.4375Z" fill="#71C2AD"/>
<path d="M2.95054 16.0161H32.4389V37.8642H0.878906V18.0548C0.878906 16.9311 1.80143 16 2.95054 16V16.0161Z" fill="#71C2AD"/>
<path d="M16.6579 57.209C21.145 57.209 24.7826 53.6011 24.7826 49.1504C24.7826 44.6998 21.145 41.0918 16.6579 41.0918C12.1707 41.0918 8.5332 44.6998 8.5332 49.1504C8.5332 53.6011 12.1707 57.209 16.6579 57.209Z" fill="#00A087"/>
<path d="M16.6596 50.9319C16.2388 50.9319 15.8827 50.5947 15.8665 50.1774L15.5914 45.0725C15.559 44.4625 16.0445 43.9648 16.6596 43.9648C17.2746 43.9648 17.7601 44.4785 17.7277 45.0725L17.4526 50.1774C17.4364 50.5947 17.0804 50.9319 16.6596 50.9319Z" fill="#FFFFFD"/>
<path d="M16.6602 54.0948C17.1608 54.0948 17.5666 53.6923 17.5666 53.1958C17.5666 52.6994 17.1608 52.2969 16.6602 52.2969C16.1597 52.2969 15.7539 52.6994 15.7539 53.1958C15.7539 53.6923 16.1597 54.0948 16.6602 54.0948Z" fill="#FFFFFD"/>
<path d="M32.4375 16.0166V59.729" stroke="#C9E5DF" stroke-miterlimit="10"/>
<path d="M64.5977 37.8809H0.878906" stroke="#C9E5DF" stroke-miterlimit="10"/>
<path d="M65.3096 62.0246C61.1987 62.0246 57.1688 60.034 54.7573 56.374C52.9122 53.5807 52.281 50.2578 52.977 46.9829C53.6729 43.7242 55.5989 40.9149 58.3988 39.1009C61.2149 37.2709 64.5651 36.6448 67.8668 37.3351C71.1523 38.0253 73.9846 39.9357 75.8134 42.7128C79.6168 48.4759 77.9822 56.2295 72.1719 59.9859C70.0517 61.3664 67.6726 62.0246 65.3096 62.0246ZM65.2773 39.8875C63.3998 39.8875 61.571 40.4333 59.9687 41.4607C57.7838 42.8734 56.2948 45.0405 55.7607 47.5608C55.2266 50.0812 55.7122 52.6657 57.1364 54.8329C60.082 59.2956 66.1189 60.5477 70.6182 57.6261C75.1175 54.7044 76.3799 48.7167 73.4343 44.2539C72.0101 42.0868 69.8251 40.6099 67.2841 40.0801C66.6206 39.9357 65.9408 39.8714 65.2773 39.8714V39.8875Z" fill="#005451"/>
<path d="M81.1231 68.8951L73.5972 57.4814C72.9984 58.0915 72.351 58.6533 71.5903 59.1349C70.8459 59.6165 70.069 60.0018 69.2598 60.2907L76.7856 71.7044C77.2873 72.4589 78.1127 72.8602 78.9543 72.8602C79.4399 72.8602 79.9254 72.7318 80.3624 72.4429C81.5601 71.6723 81.8999 70.0831 81.1069 68.8951H81.1231Z" fill="#005451"/>
<path d="M64.5975 39.9355C62.9628 40.0479 61.3606 40.5456 59.9525 41.4606C57.7676 42.8733 56.2786 45.0404 55.7445 47.5607C55.2104 50.0811 55.6959 52.6656 57.1202 54.8328C58.8519 57.4494 61.6519 58.9584 64.5813 59.1671V39.9355H64.5975Z" fill="#C9E5DF"/>
</svg>
