<svg width="59" height="59" viewBox="0 0 59 59" fill="none" xmlns="http://www.w3.org/2000/svg">
<g clip-path="url(#clip0_1032_4945)">
<path d="M39.334 51.6247V41.7913C39.334 40.4393 40.4402 39.333 41.7923 39.333H51.6257" stroke="#001AFF" stroke-width="2" stroke-linecap="round" stroke-linejoin="round"/>
<path d="M51.625 12.2917V39.7512C51.625 41.0542 51.1087 42.3079 50.1746 43.2175L43.2175 50.1746C42.3079 51.0842 41.0542 51.625 39.7512 51.625H12.2917C9.5875 51.625 7.375 49.4125 7.375 46.7083V39.3333V12.2917C7.375 9.5875 9.5875 7.375 12.2917 7.375H46.7083C49.4125 7.375 51.625 9.5875 51.625 12.2917Z" stroke="#001AFF" stroke-width="2" stroke-linecap="round" stroke-linejoin="round"/>
<g clip-path="url(#clip1_1032_4945)">
<path d="M38.8541 20.2731H31.6977C31.6136 20.2731 31.5469 20.2073 31.5524 20.1296C31.5771 19.7759 31.6035 19.2488 31.6035 18.6237V17.1349C31.6035 17.0604 31.5383 17 31.4578 17H28.5418C28.4614 17 28.3961 17.0604 28.3961 17.1349V18.6237C28.3961 19.2488 28.4226 19.7759 28.4473 20.1296C28.4527 20.2073 28.3861 20.2731 28.3019 20.2731H21.1457C21.0653 20.2731 21 20.3335 21 20.408V22.928C21 23.0024 21.0653 23.0628 21.1457 23.0628H24.4507C24.5877 23.0628 24.6496 23.2229 24.5427 23.3022C23.4731 24.0974 22.858 25.4232 22.858 26.9817C22.858 30.2947 25.6957 33 30.0003 33C34.3049 33 37.142 30.2947 37.142 26.9817C37.142 25.4232 36.5273 24.0974 35.4576 23.3022C35.3507 23.2229 35.4126 23.0628 35.5497 23.0628H38.8541C38.9346 23.0628 38.9998 23.0024 38.9998 22.928V20.408C38.9998 20.3335 38.9346 20.2731 38.8541 20.2731ZM30.0003 30.1284C27.6815 30.1284 26.0626 28.448 26.0626 26.4788C26.0626 24.5096 27.6815 22.8292 30.0003 22.8292C32.319 22.8292 33.938 24.5102 33.938 26.4788C33.938 28.4474 32.319 30.1284 30.0003 30.1284Z" fill="#001AFF"/>
</g>
<path d="M13 41H22" stroke="#001AFF" stroke-width="2"/>
<path d="M12.5 45H32.5" stroke="#001AFF" stroke-width="2"/>
</g>
<defs>
<clipPath id="clip0_1032_4945">
<rect width="59" height="59" fill="white"/>
</clipPath>
<clipPath id="clip1_1032_4945">
<rect width="18" height="16" fill="white" transform="translate(21 17)"/>
</clipPath>
</defs>
</svg>
