<svg width="42" height="42" viewBox="0 0 42 42" fill="none" xmlns="http://www.w3.org/2000/svg">
<g clip-path="url(#clip0_852_7729)">
<path d="M25.4972 13.125H16.4847C14.832 13.125 13.4922 14.4648 13.4922 16.1175V20.6325C13.4922 22.2852 14.832 23.625 16.4847 23.625H25.4972C27.1499 23.625 28.4897 22.2852 28.4897 20.6325V16.1175C28.4897 14.4648 27.1499 13.125 25.4972 13.125Z" stroke="#001AFF" stroke-width="2" stroke-linecap="round" stroke-linejoin="round"/>
<path d="M28.0002 14.455L22.9427 18.41C21.8577 19.25 20.3527 19.2675 19.2677 18.4275L14.0352 14.42" stroke="#001AFF" stroke-width="2" stroke-linecap="round" stroke-linejoin="round"/>
<path d="M35 28H28.9275C28.35 28 27.79 28.2975 27.475 28.77L26.7575 29.8375C26.425 30.3275 25.8825 30.6075 25.305 30.6075H16.6775C16.1 30.6075 15.54 30.31 15.225 29.8375L14.5075 28.77C14.175 28.28 13.6325 28 13.055 28H7C6.0375 28 5.25 28.7875 5.25 29.75V31.5C5.25 33.425 6.8075 35 8.75 35H33.25C35.175 35 36.75 33.425 36.75 31.5V29.75C36.75 28.7875 35.9625 28 35 28Z" stroke="#001AFF" stroke-width="2" stroke-linecap="round" stroke-linejoin="round"/>
<path d="M35 28V10.5C35 8.575 33.425 7 31.5 7H10.5C8.575 7 7 8.575 7 10.5V28" stroke="#001AFF" stroke-width="2" stroke-linecap="round" stroke-linejoin="round"/>
</g>
<defs>
<clipPath id="clip0_852_7729">
<rect width="42" height="42" fill="white"/>
</clipPath>
</defs>
</svg>
