<svg width="59" height="59" viewBox="0 0 59 59" fill="none" xmlns="http://www.w3.org/2000/svg">
<g clip-path="url(#clip0_1032_4769)">
<path d="M14.75 31.959H9.83333C8.47563 31.959 7.375 33.0596 7.375 34.4173V49.1673C7.375 50.525 8.47563 51.6257 9.83333 51.6257H14.75C16.1077 51.6257 17.2083 50.525 17.2083 49.1673V34.4173C17.2083 33.0596 16.1077 31.959 14.75 31.959Z" stroke="#001AFF" stroke-width="2" stroke-linecap="round" stroke-linejoin="round"/>
<path d="M31.9578 41.7918H37.6858C38.7428 41.7918 39.7753 41.4477 40.6358 40.8085L46.5849 36.3589C48.0599 35.2527 50.1495 35.4002 51.4524 36.7031C52.9028 38.1535 52.9028 40.5135 51.4524 41.9639L46.3637 47.0527C44.987 48.4293 43.2416 49.3635 41.3487 49.7322L34.1458 51.1827C32.7199 51.4777 31.2449 51.4285 29.8437 51.0843L23.3291 49.4618C22.5424 49.2652 21.7558 49.1668 20.9445 49.1668H17.2324" stroke="#001AFF" stroke-width="2" stroke-linecap="round" stroke-linejoin="round"/>
<path d="M31.959 41.7921H35.6219C37.6869 41.7921 39.334 40.1205 39.334 38.0801V37.3426C39.334 35.6217 38.1786 34.1467 36.5069 33.7288L30.8773 32.3276C29.9677 32.1063 29.009 31.9834 28.0748 31.9834C25.7886 31.9834 23.5761 32.6471 21.6832 33.9255L17.209 36.9001" stroke="#001AFF" stroke-width="2" stroke-linecap="round" stroke-linejoin="round"/>
<path d="M37.2688 24.5834C41.1246 24.5834 44.2504 21.4577 44.2504 17.6018C44.2504 13.7459 41.1246 10.6201 37.2688 10.6201C33.4129 10.6201 30.2871 13.7459 30.2871 17.6018C30.2871 21.4577 33.4129 24.5834 37.2688 24.5834Z" stroke="#001AFF" stroke-width="2" stroke-linecap="round" stroke-linejoin="round"/>
<path d="M35.9657 10.7679C35.7445 9.36669 35.1053 8.03919 34.0236 6.98211C31.2949 4.25336 26.8699 4.25336 24.1657 6.98211C21.437 9.71086 21.437 14.1359 24.1657 16.84C25.862 18.5363 28.222 19.1754 30.4099 18.7575" stroke="#001AFF" stroke-width="2" stroke-linecap="round" stroke-linejoin="round"/>
</g>
<defs>
<clipPath id="clip0_1032_4769">
<rect width="59" height="59" fill="white"/>
</clipPath>
</defs>
</svg>
