<svg width="81" height="80" viewBox="0 0 81 80" fill="none" xmlns="http://www.w3.org/2000/svg">
<path d="M43.6328 13.7291V21.0282C43.6328 21.5676 44.0737 22.0049 44.6175 22.0049L74.6407 22.0049C75.1845 22.0049 75.6253 21.5676 75.6253 21.0282V13.7291C75.6253 13.1897 75.1845 12.7525 74.6407 12.7525L44.6175 12.7525C44.0737 12.7525 43.6328 13.1897 43.6328 13.7291Z" fill="#00A087"/>
<path d="M75.627 70.4261V52.2811C75.627 51.0698 74.637 50.0879 73.4158 50.0879L8.27341 50.0879C7.05223 50.0879 6.06227 51.0698 6.06227 52.2811V70.4261C6.06227 71.6373 7.05223 72.6193 8.27341 72.6193H73.4158C74.637 72.6193 75.627 71.6373 75.627 70.4261Z" fill="#71C2AD"/>
<path d="M43.6328 25.6891V32.9882C43.6328 33.5276 44.0737 33.9648 44.6175 33.9648H65.8134C66.3572 33.9648 66.798 33.5276 66.798 32.9882V25.6891C66.798 25.1497 66.3572 24.7124 65.8134 24.7124H44.6175C44.0737 24.7124 43.6328 25.1497 43.6328 25.6891Z" fill="#71C2AD"/>
<path d="M43.6328 37.6656V44.9648C43.6328 45.5041 44.0737 45.9414 44.6175 45.9414H58.4889C59.0327 45.9414 59.4736 45.5041 59.4736 44.9648V37.6656C59.4736 37.1262 59.0327 36.689 58.4889 36.689H44.6175C44.0737 36.689 43.6328 37.1262 43.6328 37.6656Z" fill="#00A087"/>
<path d="M22.7979 45.9243C18.1856 45.9243 14.0052 44.0738 10.9648 41.0582L22.7979 29.3213V45.9071V45.9243Z" fill="#005451"/>
<path d="M22.7996 29.3379L10.9665 41.0748C7.94347 38.0763 6.06055 33.9298 6.06055 29.3379H22.7823H22.7996Z" fill="#71C2AD"/>
<path d="M22.7988 29.3379L34.6319 41.0748C31.6089 44.0732 27.4284 45.9409 22.7988 45.9409V29.355V29.3379Z" fill="#00A087"/>
<path d="M22.8024 29.3379H39.5242C39.5242 33.9127 37.6586 38.0592 34.6182 41.0748L22.7852 29.3379H22.8024Z" fill="#00A087"/>
<path d="M22.7988 29.3375L34.6319 17.6006C37.655 20.5991 39.5379 24.7455 39.5379 29.3375H22.8161H22.7988Z" fill="#00A087"/>
<path d="M22.7988 29.3378V12.752C27.4111 12.752 31.5916 14.6024 34.6319 17.6181L22.7988 29.3549V29.3378Z" fill="#00A087"/>
<path d="M10.9648 17.6014C13.9879 14.603 18.1683 12.7354 22.7979 12.7354V29.3212L10.9648 17.5843V17.6014Z" fill="#00A087"/>
<path d="M6.06055 29.3375C6.06055 24.7626 7.9262 20.6162 10.9665 17.6006L22.7996 29.3375H6.06055Z" fill="#00A087"/>
<path d="M13.2988 66.9482H68.3874" stroke="white" stroke-miterlimit="10" stroke-linecap="round"/>
<path d="M13.2988 61.3613H68.3874" stroke="white" stroke-miterlimit="10" stroke-linecap="round"/>
<path d="M13.2988 55.7764H39.0552" stroke="white" stroke-miterlimit="10" stroke-linecap="round"/>
</svg>
