<svg width="42" height="42" viewBox="0 0 42 42" fill="none" xmlns="http://www.w3.org/2000/svg">
<g clip-path="url(#clip0_852_7643)">
<path d="M22.644 19.3547L10.2715 31.7272" stroke="#001AFF" stroke-width="2" stroke-linecap="round" stroke-linejoin="round"/>
<path d="M11.6023 22.7503L5.54727 21.3153C4.88227 21.1578 4.63727 20.3353 5.12727 19.8453L9.93977 15.0328C10.2723 14.7003 10.7098 14.5253 11.1648 14.5253L16.6073 14.4728" stroke="#001AFF" stroke-width="2" stroke-linecap="round" stroke-linejoin="round"/>
<path d="M34.7906 15.715L36.2081 8.90752C36.5931 7.05252 34.9481 5.42502 33.1106 5.81002L26.3031 7.22752C24.3081 7.64752 22.4706 8.64502 21.0181 10.08L15.4356 15.6625C13.3006 17.7975 11.9181 20.545 11.4806 23.5375V23.66C11.1831 25.5675 11.8131 27.475 13.1781 28.84C14.5431 30.205 16.4506 30.835 18.3581 30.555H18.4806C21.4556 30.1 24.2206 28.7175 26.3556 26.5825L31.9381 21C33.3906 19.5475 34.3706 17.71 34.7906 15.715Z" stroke="#001AFF" stroke-width="2" stroke-linecap="round" stroke-linejoin="round"/>
<path d="M23.4492 8.24237C27.4917 11.0074 30.9917 14.4899 33.7567 18.5499" stroke="#001AFF" stroke-width="2" stroke-linecap="round" stroke-linejoin="round"/>
<path d="M19.25 30.3975L20.685 36.4525C20.8425 37.1175 21.665 37.3625 22.155 36.8725L26.9675 32.06C27.3 31.7275 27.475 31.29 27.475 30.835L27.5275 25.3925" stroke="#001AFF" stroke-width="2" stroke-linecap="round" stroke-linejoin="round"/>
</g>
<defs>
<clipPath id="clip0_852_7643">
<rect width="42" height="42" fill="white"/>
</clipPath>
</defs>
</svg>
