<svg width="42" height="42" viewBox="0 0 42 42" fill="none" xmlns="http://www.w3.org/2000/svg">
<g clip-path="url(#clip0_852_7636)">
<path d="M21.0004 25.7253C23.6099 25.7253 25.7254 23.6098 25.7254 21.0003C25.7254 18.3908 23.6099 16.2753 21.0004 16.2753C18.3908 16.2753 16.2754 18.3908 16.2754 21.0003C16.2754 23.6098 18.3908 25.7253 21.0004 25.7253Z" stroke="#001AFF" stroke-width="2" stroke-linecap="round" stroke-linejoin="round"/>
<path d="M9.18744 21C9.18744 21.525 9.23994 22.0325 9.29244 22.54L6.50994 24.71C5.89744 25.2 5.72244 26.0575 6.12494 26.74L8.59244 31.01C8.97744 31.6925 9.81744 31.9725 10.5349 31.675L13.0199 30.6775C13.5099 30.485 14.0524 30.555 14.5074 30.8525C14.8924 31.115 15.2949 31.3425 15.6974 31.5525C16.1699 31.7975 16.5199 32.2175 16.5899 32.7425L16.9749 35.385C17.0799 36.155 17.7449 36.7325 18.5324 36.7325H23.4674C24.2549 36.7325 24.9199 36.155 25.0249 35.385L25.4099 32.7425C25.4799 32.2175 25.8299 31.78 26.3024 31.5525C26.7224 31.3425 27.1074 31.115 27.4924 30.8525C27.9299 30.555 28.4899 30.4675 28.9799 30.6775L31.4649 31.675C32.1824 31.9725 33.0224 31.675 33.4074 31.01L35.8749 26.74C36.2599 26.0575 36.1024 25.2 35.4899 24.71L32.7074 22.54C32.7774 22.0325 32.8124 21.5075 32.8124 21C32.8124 20.4925 32.7599 19.9675 32.7074 19.46L35.4899 17.29C36.1024 16.8 36.2774 15.9425 35.8749 15.26L33.4074 10.99C33.0224 10.3075 32.1824 10.0275 31.4649 10.325L28.9799 11.3225C28.4899 11.515 27.9299 11.445 27.4924 11.1475C27.1074 10.885 26.7049 10.6575 26.3024 10.4475C25.8299 10.2025 25.4799 9.78249 25.4099 9.25749L25.0249 6.61499C24.9199 5.84499 24.2549 5.26749 23.4674 5.26749H18.5324C17.7449 5.26749 17.0799 5.84499 16.9749 6.61499L16.5899 9.25749C16.5199 9.78249 16.1699 10.2025 15.6974 10.4475C15.2774 10.6575 14.8924 10.885 14.5074 11.1475C14.0699 11.445 13.5099 11.515 13.0199 11.3225L10.5349 10.325C9.81744 10.0275 8.97744 10.325 8.59244 10.99L6.12494 15.26C5.73994 15.9425 5.89744 16.8 6.50994 17.29L9.29244 19.46C9.22244 19.9675 9.18744 20.475 9.18744 21Z" stroke="#001AFF" stroke-width="2" stroke-linecap="round" stroke-linejoin="round"/>
</g>
<defs>
<clipPath id="clip0_852_7636">
<rect width="42" height="42" fill="white"/>
</clipPath>
</defs>
</svg>
