<svg width="61" height="61" viewBox="0 0 61 61" fill="none" xmlns="http://www.w3.org/2000/svg">
<g clip-path="url(#clip0_1032_5133)">
<path d="M44.21 16.5372C47.2945 16.5372 49.795 14.0367 49.795 10.9522C49.795 7.86769 47.2945 5.36719 44.21 5.36719C41.1255 5.36719 38.625 7.86769 38.625 10.9522C38.625 14.0367 41.1255 16.5372 44.21 16.5372Z" stroke="#001AFF" stroke-width="2" stroke-linecap="round" stroke-linejoin="round"/>
<path d="M27.0625 48.6514H33.3456" stroke="#001AFF" stroke-width="2" stroke-linecap="round" stroke-linejoin="round"/>
<path d="M44.2103 24.9147V50.0473C44.2103 53.1191 41.697 55.6323 38.6252 55.6323H21.8702C18.7984 55.6323 16.2852 53.1191 16.2852 50.0473V16.5372C16.2852 13.4654 18.7984 10.9521 21.8702 10.9521H30.2477" stroke="#001AFF" stroke-width="2" stroke-linecap="round" stroke-linejoin="round"/>
<path d="M35.1562 35.0573V28.4482H39.3902V29.4519H36.3535V31.2461H39.0998V32.2498H36.3535V35.0573H35.1562Z" fill="#001AFF"/>
<path d="M30.8138 35.0573H28.5742V28.4482H30.859C31.5152 28.4482 32.0788 28.5806 32.55 28.8452C33.0233 29.1076 33.3869 29.4852 33.6408 29.9779C33.8946 30.4706 34.0216 31.06 34.0216 31.7463C34.0216 32.4348 33.8935 33.0264 33.6375 33.5212C33.3837 34.0161 33.0168 34.3958 32.5371 34.6604C32.0595 34.925 31.4851 35.0573 30.8138 35.0573ZM29.7715 34.0214H30.7557C31.2161 34.0214 31.6002 33.9375 31.9078 33.7697C32.2155 33.5998 32.4467 33.347 32.6016 33.0114C32.7565 32.6736 32.834 32.2519 32.834 31.7463C32.834 31.2408 32.7565 30.8212 32.6016 30.4878C32.4467 30.1521 32.2176 29.9015 31.9143 29.7359C31.6131 29.568 31.2387 29.4841 30.7912 29.4841H29.7715V34.0214Z" fill="#001AFF"/>
<path d="M22.7266 35.0573V28.4482H25.205C25.7127 28.4482 26.1387 28.5429 26.4829 28.7322C26.8293 28.9215 27.0907 29.1819 27.2671 29.5132C27.4456 29.8423 27.5349 30.2167 27.5349 30.6362C27.5349 31.06 27.4456 31.4365 27.2671 31.7657C27.0885 32.0949 26.825 32.3541 26.4764 32.5434C26.1279 32.7306 25.6987 32.8242 25.1888 32.8242H23.5462V31.8399H25.0275C25.3244 31.8399 25.5675 31.7883 25.7568 31.685C25.9461 31.5817 26.086 31.4398 26.1763 31.259C26.2688 31.0783 26.3151 30.8707 26.3151 30.6362C26.3151 30.4017 26.2688 30.1952 26.1763 30.0166C26.086 29.838 25.945 29.6993 25.7536 29.6003C25.5643 29.4992 25.3201 29.4486 25.021 29.4486H23.9238V35.0573H22.7266Z" fill="#001AFF"/>
</g>
<defs>
<clipPath id="clip0_1032_5133">
<rect width="61" height="61" fill="white"/>
</clipPath>
</defs>
</svg>
