<?xml version="1.0" encoding="UTF-8"?>
<svg xmlns="http://www.w3.org/2000/svg" viewBox="0 0 387 156" fill="#ffffff" stroke-width="0">
  <path d="M348.656189.125c-21.176575,0-38.343689,17.167114-38.343689,38.343689,0,21.176697,17.167114,38.343811,38.343689,38.343811,21.176697,0,38.343811-17.167114,38.343811-38.343811,0-21.176575-17.167114-38.343689-38.343811-38.343689ZM348.656311,69.3125c-17.103577,0-30.968811-13.865173-30.968811-30.968811,0-17.103455,13.865234-30.968689,30.968811-30.968689s30.968689,13.865234,30.968689,30.968689c0,17.103638-13.865173,30.968811-30.968689,30.968811Z"/>
  <path d="M352.000366,25.875c.188599-3.671082.249634-7.5.249634-7.5h-7s.076477,3.827942.271118,7.5h-16.271118v7s2.414734-.049988,4.564697,0c4.07843,0,6.935303-2.5,6.935303-2.5l.63501.453613c-4.663452,2.438782-7.82251,7.068176-7.82251,12.358887,0,7.766479,6.799683,14.006531,15.1875,13.9375,8.387817-.06897,15.1875-6.421021,15.1875-14.1875,0-5.261841-3.126465-9.815674-7.748047-12.188843l.560547-.373657s2.464722,2.5,7.514709,2.5h3.735291v-7h-15.999634ZM348.75,50.625c-4.556274,0-8.25-3.693726-8.25-8.25s3.693726-8.25,8.25-8.25c4.556335,0,8.25,3.693726,8.25,8.25s-3.693665,8.25-8.25,8.25Z"/>
  <path d="M245.250011,35.12502h28.249999v120.749997h-28.249999V35.12502Z"/>
  <path d="M202.75,155.875h30.75l-40.75-120.75h-39l-40.75,120.75h30.75l7.998474-25.25h43.003052l7.998474,25.25ZM158.79657,108.375l14.45343-45.627441,14.45343,45.627441h-28.90686Z"/>
</svg>