<?xml version="1.0" encoding="UTF-8"?>
<svg id="_레이어_1" data-name="레이어 1" xmlns="http://www.w3.org/2000/svg" viewBox="0 0 176 28.734628">
  <defs>
    <style>
      .cls-1, .cls-2 {
        fill: black;
        stroke-width: 0px;
      }

      .cls-3 {
        fill: #f05323;
        stroke-width: 0px;
      }
    </style>
  </defs>
  <path class="cls-1" d="M97.291945,23.636533c-6.012452,0-8.589176-4.150011-8.589176-9.269219,0-5.119278,2.420562-9.269289,8.589176-9.269289,3.817506,0,6.196508,1.591731,7.457787,4.01671h6.219753c-1.798093-5.300868-6.45509-9.114736-13.67754-9.114736-9.448108,0-14.523511,6.517782-14.523511,14.367314,0,7.849462,5.700055,14.367314,14.523511,14.367314,6.744875,0,11.654113-3.813938,13.597663-9.114805h-6.181998c-1.292835,2.42498-3.694801,4.01671-7.415665,4.01671Z"/>
  <path class="cls-1" d="M126.96362,0c-9.448108,0-14.523511,6.517782-14.523511,14.367314,0,7.849462,5.700055,14.367314,14.523511,14.367314s14.523511-6.517852,14.523511-14.367314c0-7.849532-5.075403-14.367314-14.523511-14.367314ZM126.96362,23.636533c-6.012381,0-8.589176-4.150011-8.589176-9.269219,0-5.119278,2.420632-9.269289,8.589176-9.269289,6.168615,0,8.589176,4.150011,8.589176,9.269289,0,5.119208-2.576795,9.269219-8.589176,9.269219Z"/>
  <g>
    <rect class="cls-2" y=".000002" width="5.622009" height="11.40011"/>
    <rect class="cls-2" y="17.022192" width="5.622009" height="11.712436"/>
    <rect class="cls-2" x="17.803005" y=".000002" width="5.622009" height="28.734626"/>
    <polygon class="cls-3" points="17.803005 11.400112 5.622009 11.400112 5.622009 17.022192 17.803005 17.022192 23.425014 17.022192 23.425014 11.400112 17.803005 11.400112"/>
  </g>
  <path class="cls-1" d="M47.006191,28.734628h5.934335L42.633556.000002h-6.559057l-10.306969,28.734626h5.934335l1.955454-5.621939h11.393419l1.955454,5.621939ZM35.232543,18.583822l4.12152-11.849158,4.121449,11.849158h-8.242969Z"/>
  <polygon class="cls-1" points="73.866931 .000002 73.866931 20.114318 60.748887 .000002 55.126878 .000002 55.126878 28.734628 60.748887 28.734628 60.748887 8.620383 73.866931 28.734628 79.48887 28.734628 79.48887 .000002 73.866931 .000002"/>
  <polygon class="cls-1" points="174.750696 .000002 170.377991 .000002 169.597176 .000002 160.461394 21.269163 151.325612 .000002 150.70096 .000002 146.172162 .000002 145.078951 .000002 145.078951 28.734628 150.70096 28.734628 150.70096 10.82202 158.196995 28.734628 162.725793 28.734628 170.377991 10.448976 170.377991 28.734628 176 28.734628 176 .000002 174.750696 .000002"/>
</svg>