<?xml version="1.0" encoding="UTF-8"?>
<svg id="_레이어_3" data-name="레이어 3" xmlns="http://www.w3.org/2000/svg" viewBox="0 0 34 34">
  <defs>
    <style>
      .cls-1 {
        fill: none;
      }

      .cls-1, .cls-2 {
        stroke-width: 0px;
      }

      .cls-2 {
        fill: #fff;
      }
    </style>
  </defs>
  <rect class="cls-1" width="34" height="34"/>
  <path class="cls-2" d="M8.546875,33.076538c-.686523,0-1.373535-.180664-2-.541992-1.252441-.723145-2-2.018066-2-3.464355V4.929566c0-1.445801.747559-2.740723,1.999512-3.463867,1.251953-.722168,2.747559-.723633,4.000488-.000488l20.90625,12.070312c1.252441.723145,2,2.018066,2,3.464355s-.747559,2.741211-2,3.464355l-20.90625,12.070312c-.625977.361328-1.312988.541992-2,.541992ZM8.547363,2.926636c-.34375,0-.6875.090332-1.000488.270996-.625977.361816-1,1.009277-1,1.731934v24.140625c0,.723145.374023,1.370605,1,1.731934.627441.362793,1.374512.361816,2,0l20.90625-12.070312c.625977-.361328,1-1.008789,1-1.731934s-.374023-1.370605-1-1.731934L9.546875,3.197632c-.312988-.180664-.65625-.270996-.999512-.270996Z"/>
</svg>