<?xml version="1.0" encoding="UTF-8"?>
<svg id="_레이어_2" data-name="레이어 2" xmlns="http://www.w3.org/2000/svg" viewBox="0 0 34 34">
  <defs>
    <style>
      .cls-1 {
        fill: none;
      }

      .cls-1, .cls-2 {
        stroke-width: 0px;
      }

      .cls-2 {
        fill: #fff;
      }
    </style>
  </defs>
  <rect class="cls-1" width="34" height="34"/>
  <path class="cls-2" d="M9.25,18.166287v-2.333008c0-.414062.335938-.75.75-.75s.75.335938.75.75v2.333008c0,.414062-.335938.75-.75.75s-.75-.335938-.75-.75ZM6.5,13.916287c-.414062,0-.75.335938-.75.75v4.666992c0,.414062.335938.75.75.75s.75-.335938.75-.75v-4.666992c0-.414062-.335938-.75-.75-.75ZM24,15.083279c-.414062,0-.75.335938-.75.75v2.333008c0,.414062.335938.75.75.75s.75-.335938.75-.75v-2.333008c0-.414062-.335938-.75-.75-.75ZM27.5,13.916287c-.414062,0-.75.335938-.75.75v4.666992c0,.414062.335938.75.75.75s.75-.335938.75-.75v-4.666992c0-.414062-.335938-.75-.75-.75ZM25.229492,8.293728l-7.479492,7.221313v-4.348755c0-.414062-.335938-.75-.75-.75s-.75.335938-.75.75v5.796936l-2,1.930969v-5.394409c0-.414062-.335938-.75-.75-.75s-.75.335938-.75.75v6.842651l-4.4375,4.284302c-.297852.287598-.306152.762695-.018555,1.060547.146973.152344.343262.229004.539551.229004.1875,0,.375488-.069824.520996-.210449l6.895508-6.657471v3.784912c0,.414062.335938.75.75.75s.75-.335938.75-.75v-5.233154l2-1.930908v4.830566c0,.414062.335938.75.75.75s.75-.335938.75-.75v-5.833496c0-.128906-.041016-.244385-.098389-.350342l5.119873-4.943115c.297852-.287598.306152-.762695.018555-1.060547-.287109-.297363-.762207-.305664-1.060547-.018555Z"/>
</svg>