<?xml version="1.0" encoding="UTF-8"?>
<svg id="_레이어_1" data-name="레이어 1" xmlns="http://www.w3.org/2000/svg" viewBox="0 0 34 34">
  <defs>
    <style>
      .cls-1 {
        fill: none;
      }

      .cls-1, .cls-2 {
        stroke-width: 0px;
      }

      .cls-2 {
        fill: #fff;
      }
    </style>
  </defs>
  <rect class="cls-1" width="34" height="34"/>
  <path class="cls-2" d="M24,18.916504c-.414062,0-.75-.335938-.75-.75v-2.333008c0-.414062.335938-.75.75-.75s.75.335938.75.75v2.333008c0,.414062-.335938.75-.75.75ZM28.25,19.333496v-4.666992c0-.414062-.335938-.75-.75-.75s-.75.335938-.75.75v4.666992c0,.414062.335938.75.75.75s.75-.335938.75-.75ZM21.25,20.5v-7c0-.414062-.335938-.75-.75-.75s-.75.335938-.75.75v7c0,.414062.335938.75.75.75s.75-.335938.75-.75ZM10.75,18.166504v-2.333008c0-.414062-.335938-.75-.75-.75s-.75.335938-.75.75v2.333008c0,.414062.335938.75.75.75s.75-.335938.75-.75ZM7.25,19.333496v-4.666992c0-.414062-.335938-.75-.75-.75s-.75.335938-.75.75v4.666992c0,.414062.335938.75.75.75s.75-.335938.75-.75ZM14.25,20.5v-7c0-.414062-.335938-.75-.75-.75s-.75.335938-.75.75v7c0,.414062.335938.75.75.75s.75-.335938.75-.75ZM17.75,22.833496v-11.666992c0-.414062-.335938-.75-.75-.75s-.75.335938-.75.75v11.666992c0,.414062.335938.75.75.75s.75-.335938.75-.75Z"/>
</svg>